<svg width="30" height="30" viewBox="0 0 30 30" fill="none" xmlns="http://www.w3.org/2000/svg">
<rect width="30" height="30" fill="white"/>
<path d="M15 1.25C7.40625 1.25 1.25 7.40594 1.25 15C1.25 22.5941 7.40625 28.75 15 28.75C22.5938 28.75 28.75 22.5941 28.75 15C28.75 7.40594 22.5938 1.25 15 1.25ZM15 27.25C8.78687 27.25 2.75 21.2131 2.75 15C2.75 8.78687 8.78687 2.75 15 2.75C21.2131 2.75 27.25 8.78687 27.25 15C27.25 21.2131 21.2131 27.25 15 27.25Z" fill="#FD6F6D"/>
<path d="M20.5 10.5L14 19.5L10 16" stroke="#FD6F6D" stroke-width="2" stroke-linecap="round" stroke-linejoin="round"/>
</svg>
