<svg width="28" height="30" viewBox="0 0 28 30" fill="none" xmlns="http://www.w3.org/2000/svg">
<path fill-rule="evenodd" clip-rule="evenodd" d="M2 15C2 8.37258 7.37258 3 14 3C20.6274 3 26 8.37258 26 15C26 21.6274 20.6274 27 14 27C7.37258 27 2 21.6274 2 15Z" fill="#09B44D"/>
<path d="M12.5537 17.5593L19.005 10.8045C19.3928 10.3985 20.0216 10.3985 20.4094 10.8045C20.7971 11.2105 20.7971 11.8689 20.4094 12.2749L12.5537 20.5L7.99104 15.7227C7.60325 15.3167 7.60325 14.6584 7.99104 14.2524C8.37883 13.8464 9.00756 13.8464 9.39535 14.2524L12.5537 17.5593Z" fill="white"/>
</svg>
