<svg width="34" height="34" viewBox="0 0 34 34" fill="none" xmlns="http://www.w3.org/2000/svg">
<path d="M10.0596 14.555C9.92952 14.7153 9.76503 14.8443 9.57831 14.9323C9.39159 15.0203 9.18743 15.0651 8.98102 15.0634C8.95706 14.6541 9.09526 14.2518 9.36572 13.9436C9.63868 13.629 10.0227 13.4321 10.4374 13.394C10.4538 13.6029 10.4289 13.8129 10.3641 14.0122C10.2992 14.2114 10.1958 14.3958 10.0596 14.555ZM10.4374 15.1458C9.83973 15.1115 9.33137 15.4824 9.06345 15.4824C8.79553 15.4824 8.37648 15.1664 7.86812 15.1733C7.55899 15.1795 7.25687 15.2665 6.99174 15.4255C6.72661 15.5846 6.50771 15.8103 6.35678 16.0801C5.71789 17.1861 6.1919 18.828 6.81705 19.7279C7.11932 20.1676 7.50402 20.6622 7.9643 20.6416C8.42457 20.621 8.59631 20.3462 9.14589 20.3462C9.69547 20.3462 9.83286 20.6416 10.3344 20.6347C10.8358 20.6279 11.145 20.1882 11.4541 19.7417C11.6676 19.4262 11.8342 19.0814 11.9487 18.7181C11.6618 18.5938 11.4173 18.3885 11.2453 18.1274C11.0732 17.8663 10.9811 17.5607 10.9801 17.248C10.985 16.9717 11.0594 16.701 11.1962 16.461C11.333 16.2209 11.528 16.0191 11.7633 15.874C11.6118 15.6608 11.4136 15.4849 11.1838 15.3599C10.954 15.2349 10.6987 15.164 10.4374 15.1527V15.1458ZM13.8723 13.9093V20.6073H14.9439V18.299H16.3797C16.6743 18.3156 16.9691 18.2703 17.2452 18.1661C17.5213 18.062 17.7725 17.9012 17.9828 17.6942C18.193 17.4872 18.3576 17.2385 18.4661 16.964C18.5745 16.6896 18.6243 16.3955 18.6124 16.1007C18.6261 15.8084 18.5786 15.5164 18.473 15.2435C18.3674 14.9706 18.2059 14.7227 17.999 14.5158C17.7921 14.3089 17.5442 14.1474 17.2713 14.0418C16.9984 13.9362 16.7064 13.8887 16.4141 13.9024L13.8723 13.9093ZM14.9439 14.7817H16.1118C16.2954 14.7556 16.4826 14.771 16.6595 14.8266C16.8365 14.8822 16.9987 14.9767 17.1344 15.1032C17.2701 15.2297 17.3758 15.3849 17.4437 15.5575C17.5116 15.7301 17.5401 15.9157 17.527 16.1007C17.5399 16.2869 17.5111 16.4736 17.4429 16.6472C17.3747 16.8209 17.2686 16.9772 17.1325 17.1048C16.9963 17.2324 16.8335 17.3281 16.6557 17.385C16.478 17.4418 16.2899 17.4584 16.1049 17.4334H14.9439V14.7817ZM20.481 20.6073C20.7881 20.6147 21.0916 20.5396 21.3599 20.3897C21.6281 20.2399 21.8513 20.0208 22.006 19.7554V20.6073H22.9678V17.2617C22.9678 16.2931 22.1984 15.6748 21.0099 15.6748C19.8215 15.6748 19.1139 16.3068 19.0658 17.1724H20.0001C20.0535 16.9587 20.1823 16.7715 20.3628 16.6453C20.5434 16.5191 20.7634 16.4623 20.9824 16.4854C21.6145 16.4854 21.9717 16.7877 21.9717 17.3304V17.6945L20.6733 17.7769C19.4711 17.8456 18.8185 18.3403 18.8185 19.199C18.8253 19.4041 18.8751 19.6055 18.9645 19.7902C19.0539 19.975 19.1809 20.139 19.3375 20.2716C19.4941 20.4043 19.6768 20.5027 19.8737 20.5605C20.0706 20.6183 20.2775 20.6342 20.481 20.6073ZM20.7557 19.8172C20.2062 19.8172 19.8558 19.5493 19.8558 19.1303C19.8558 18.7112 20.1924 18.4433 20.8382 18.4433L21.9923 18.3677V18.7456C21.9892 18.9009 21.9541 19.054 21.8891 19.1951C21.824 19.3362 21.7305 19.4623 21.6144 19.5655C21.4982 19.6688 21.362 19.7469 21.2142 19.7949C21.0665 19.8429 20.9104 19.8599 20.7557 19.8447V19.8172ZM24.273 22.3728C25.2829 22.3728 25.7569 21.9881 26.176 20.8202L27.9964 15.7366H26.9454L25.7226 19.6867L24.4997 15.7366H23.3937L25.1524 20.6073L25.0562 20.9027C25.021 21.1046 24.9125 21.2864 24.7515 21.4132C24.5905 21.54 24.3883 21.6028 24.1837 21.5896H23.8746V22.3934C24.0072 22.4029 24.1402 22.4052 24.273 22.4003V22.3728Z" fill="black"/>
<rect x="0.5" y="7.85132" width="33" height="19.2162" rx="2.5" stroke="black"/>
</svg>
