<svg width="49" height="43" viewBox="0 0 49 43" fill="none" xmlns="http://www.w3.org/2000/svg">
<rect opacity="0.8" x="27" y="23.9182" width="24" height="6.92385" rx="3.46193" transform="rotate(-44.8236 27 23.9182)" fill="#DD2525"/>
<rect opacity="0.8" width="24" height="6.92385" rx="3.46193" transform="matrix(0.70928 0.704926 0.704926 -0.70928 0 11.911)" fill="#FFE713"/>
<path d="M17.4378 16.0985C18.6088 16.0985 19.5581 15.1362 19.5581 13.9491C19.5581 12.762 18.6088 11.7997 17.4378 11.7997C16.2667 11.7997 15.3174 12.762 15.3174 13.9491C15.3174 15.1362 16.2667 16.0985 17.4378 16.0985Z" fill="#FFE8B0"/>
<path d="M29.6883 16.0985C30.8593 16.0985 31.8086 15.1362 31.8086 13.9491C31.8086 12.762 30.8593 11.7997 29.6883 11.7997C28.5172 11.7997 27.5679 12.762 27.5679 13.9491C27.5679 15.1362 28.5172 16.0985 29.6883 16.0985Z" fill="#FFE8B0"/>
<path d="M17.4379 16.5609C16.0172 16.5609 14.8613 15.3892 14.8613 13.9491C14.8613 12.5089 16.0172 11.3373 17.4379 11.3373C18.8586 11.3373 20.0144 12.5089 20.0144 13.9491C20.0144 15.3892 18.8586 16.5609 17.4379 16.5609ZM17.4379 12.2621C16.5202 12.2621 15.7736 13.0189 15.7736 13.9491C15.7736 14.8793 16.5202 15.6361 17.4379 15.6361C18.3555 15.6361 19.1021 14.8793 19.1021 13.9491C19.1021 13.0189 18.3556 12.2621 17.4379 12.2621Z" fill="#858585"/>
<path d="M29.6884 16.5609C28.2676 16.5609 27.1118 15.3892 27.1118 13.9491C27.1118 12.5089 28.2676 11.3373 29.6884 11.3373C31.1091 11.3373 32.2649 12.5089 32.2649 13.9491C32.2649 15.3892 31.1091 16.5609 29.6884 16.5609ZM29.6884 12.2621C28.7707 12.2621 28.0241 13.0189 28.0241 13.9491C28.0241 14.8793 28.7707 15.6361 29.6884 15.6361C30.606 15.6361 31.3526 14.8793 31.3526 13.9491C31.3526 13.0189 30.6059 12.2621 29.6884 12.2621Z" fill="#858585"/>
<path d="M27.316 21.3453C27.3304 21.3492 27.3456 21.3523 27.3601 21.3561C28.1553 21.5511 28.895 21.8902 29.5519 22.3434C31.3302 23.5703 32.4979 25.6395 32.4979 27.9839V34.5262H28.9216H18.2049H14.6294V27.9839C14.6294 25.6395 15.7964 23.5703 17.5747 22.3434C18.2315 21.8902 18.9713 21.5511 19.7665 21.3561C19.781 21.3523 19.7962 21.3492 19.8106 21.3453" fill="white"/>
<path d="M18.2049 24.9697V34.5261H14.6294V27.9838C14.6294 25.6394 15.7964 23.5702 17.5747 22.3433C17.9776 23.1293 18.2049 24.0226 18.2049 24.9697Z" fill="white"/>
<path d="M32.4982 27.9838V34.5261H28.9219V24.9697C28.9219 24.0226 29.1492 23.1293 29.5521 22.3433C31.3304 23.5702 32.4982 25.6394 32.4982 27.9838Z" fill="white"/>
<path d="M27.3601 21.3561V22.4203C27.3601 24.5458 25.6602 26.269 23.5634 26.269C21.4666 26.269 19.7666 24.5458 19.7666 22.4203V21.3561C19.781 21.3523 19.7963 21.3492 19.8107 21.3453C20.8827 22.0767 22.1736 22.5037 23.5634 22.5037C24.9531 22.5037 26.2441 22.0767 27.316 21.3453C27.3305 21.3492 27.3457 21.3523 27.3601 21.3561Z" fill="#FFE8B0"/>
<path opacity="0.44" d="M27.2415 21.3954C26.7291 22.3842 25.9833 23.2304 25.0793 23.8577C25.0649 23.8685 25.0497 23.8785 25.0352 23.8886C23.9633 24.6199 22.6723 25.0469 21.2826 25.0469C20.7884 25.0469 20.8061 24.4864 20.3424 24.3831C20.2922 24.1342 19.7666 23.8076 19.7666 23.5441V21.3561C19.781 21.3523 19.7963 21.3492 19.8107 21.3453C20.8827 22.0767 22.1736 22.5037 23.5634 22.5037C24.9212 22.5037 26.1848 22.096 27.2415 21.3954Z" fill="#858585"/>
<path d="M27.316 21.3452C26.244 22.0766 24.9531 22.5036 23.5633 22.5036C22.1736 22.5036 20.8826 22.0766 19.8106 21.3452C19.7962 21.3352 19.781 21.3252 19.7665 21.3144C17.9966 20.086 16.835 18.0221 16.835 15.6831V13.9491V9.98012C16.835 6.2133 19.8474 3.15967 23.5633 3.15967C27.2793 3.15967 30.2917 6.2133 30.2917 9.98012V13.9491V15.6831C30.2917 18.0221 29.13 20.086 27.3601 21.3144C27.3456 21.3252 27.3304 21.3352 27.316 21.3452Z" fill="#FFE8B0"/>
<path d="M23.5634 22.966C22.128 22.966 20.7423 22.5382 19.5561 21.7289L19.5422 21.7193C19.5294 21.7105 19.5164 21.7016 19.5038 21.6924C17.5471 20.3316 16.3789 18.0856 16.3789 15.6831V9.98013C16.3789 5.96438 19.6019 2.69727 23.5634 2.69727C27.5249 2.69727 30.7479 5.96438 30.7479 9.98013V15.6831C30.7479 18.0858 29.58 20.3317 27.6231 21.6924C27.6104 21.7016 27.5975 21.7105 27.5846 21.7194L27.5743 21.7265C27.5731 21.7273 27.572 21.7281 27.5709 21.7289C26.3845 22.5382 24.9988 22.966 23.5634 22.966ZM23.5634 3.62207C20.1049 3.62207 17.2912 6.47426 17.2912 9.98013V15.6831C17.2912 17.7825 18.3129 19.745 20.0244 20.9329C20.0286 20.9359 20.0328 20.9389 20.0369 20.9419L20.0689 20.9641C21.1006 21.6679 22.3102 22.0412 23.5634 22.0412C24.8166 22.0412 26.0263 21.6679 27.0614 20.9618L27.0741 20.953C27.0793 20.9493 27.0848 20.9458 27.0899 20.9419C27.094 20.9389 27.0982 20.9359 27.1025 20.9329C28.8138 19.745 29.8356 17.7825 29.8356 15.6831V9.98013C29.8356 6.47426 27.0219 3.62207 23.5634 3.62207Z" fill="#858585"/>
<path d="M23.5635 26.7314C21.2184 26.7314 19.3105 24.7974 19.3105 22.4202V21.3145H20.2229V22.4202C20.2229 24.2875 21.7214 25.8065 23.5635 25.8065C25.4055 25.8065 26.9041 24.2875 26.9041 22.4202V21.3145H27.8164V22.4202C27.8164 24.7974 25.9085 26.7314 23.5635 26.7314Z" fill="#858585"/>
<path d="M23.0357 16.5703C22.7838 16.5703 22.5795 16.3632 22.5795 16.1079V14.8088C22.5795 14.5619 22.3814 14.3611 22.1378 14.3611H19.9649C19.7131 14.3611 19.5088 14.154 19.5088 13.8987C19.5088 13.6434 19.7131 13.4363 19.9649 13.4363H22.1378C22.8844 13.4363 23.4918 14.052 23.4918 14.8088V16.1079C23.4918 16.3633 23.2876 16.5703 23.0357 16.5703Z" fill="#858585"/>
<path d="M27.1622 14.3601H25.3375C25.0856 14.3601 24.8813 14.153 24.8813 13.8977C24.8813 13.6424 25.0856 13.4353 25.3375 13.4353H27.1622C27.414 13.4353 27.6183 13.6424 27.6183 13.8977C27.6183 14.153 27.4141 14.3601 27.1622 14.3601Z" fill="#858585"/>
<path d="M24.4756 19.2925H22.651C22.3991 19.2925 22.1948 19.0854 22.1948 18.8301C22.1948 18.5748 22.3991 18.3677 22.651 18.3677H24.4756C24.7275 18.3677 24.9318 18.5748 24.9318 18.8301C24.9318 19.0854 24.7275 19.2925 24.4756 19.2925Z" fill="#858585"/>
<path d="M29.3781 34.5261H28.4658V24.9697C28.4658 23.9821 28.7015 23.0001 29.1475 22.1301L29.957 22.5565C29.5729 23.3059 29.3781 24.1178 29.3781 24.9697V34.5261Z" fill="#858585"/>
<path d="M30.9776 33.1823C30.7258 33.1823 30.5215 32.9752 30.5215 32.7199V27.778C30.5215 27.5226 30.7258 27.3156 30.9776 27.3156C31.2295 27.3156 31.4338 27.5226 31.4338 27.778V32.7199C31.4338 32.9752 31.2295 33.1823 30.9776 33.1823Z" fill="white"/>
<path opacity="0.44" d="M17.9502 23.2681C16.7939 24.4927 16.083 26.1542 16.083 27.9838V34.3719H14.6294V27.9838C14.6294 25.6394 15.7964 23.5702 17.5747 22.3433C17.7252 22.6377 17.8514 22.9467 17.9502 23.2681Z" fill="#858585"/>
<path d="M32.498 34.9885H14.6295C14.3775 34.9885 14.1733 34.7815 14.1733 34.5261V27.9839C14.1733 25.5712 15.3489 23.3197 17.3181 21.9611C18.034 21.4672 18.8205 21.1128 19.6561 20.9075C19.666 20.905 19.6761 20.9025 19.6863 20.9001L19.6955 20.8979L19.9264 21.7926C19.9148 21.7957 19.9029 21.7986 19.8911 21.8013L19.8818 21.8035C19.8805 21.8038 19.8752 21.8052 19.8739 21.8055C19.1443 21.9844 18.4571 22.2939 17.8314 22.7255C16.1122 23.9117 15.0857 25.8774 15.0857 27.9837V34.0637H32.042V27.9839C32.042 25.8779 31.0152 23.9122 29.2954 22.7256C28.6698 22.294 27.9827 21.9844 27.253 21.8056C27.2501 21.8049 27.2473 21.8041 27.2445 21.8034L27.2357 21.8013C27.2238 21.7986 27.212 21.7957 27.2004 21.7926L27.4314 20.8979L27.4407 20.9001C27.4508 20.9025 27.4609 20.9049 27.4708 20.9074C28.3064 21.1128 29.093 21.4672 29.8087 21.961C31.7783 23.3199 32.9542 25.5715 32.9542 27.9838V34.5261C32.9542 34.7815 32.7499 34.9885 32.498 34.9885Z" fill="#858585"/>
<path d="M18.6611 34.5261H17.7488V24.9697C17.7488 24.1178 17.554 23.3059 17.1699 22.5565L17.9795 22.1301C18.4254 23.0001 18.6611 23.982 18.6611 24.9698V34.5261Z" fill="#858585"/>
<path d="M33.5611 34.9885H13.5836C13.3317 34.9885 13.1274 34.7815 13.1274 34.5261C13.1274 34.2708 13.3317 34.0637 13.5836 34.0637H33.5611C33.813 34.0637 34.0173 34.2708 34.0173 34.5261C34.0173 34.7815 33.813 34.9885 33.5611 34.9885Z" fill="#858585"/>
<path d="M35.9941 34.9885H35.1578C34.9059 34.9885 34.7017 34.7815 34.7017 34.5261C34.7017 34.2708 34.9059 34.0637 35.1578 34.0637H35.9941C36.246 34.0637 36.4503 34.2708 36.4503 34.5261C36.4503 34.7815 36.246 34.9885 35.9941 34.9885Z" fill="#858585"/>
<path d="M11.9697 34.9885H11.1334C10.8815 34.9885 10.6772 34.7815 10.6772 34.5261C10.6772 34.2708 10.8815 34.0637 11.1334 34.0637H11.9697C12.2216 34.0637 12.4259 34.2708 12.4259 34.5261C12.4259 34.7815 12.2216 34.9885 11.9697 34.9885Z" fill="#858585"/>
<path opacity="0.44" d="M22.1675 21.3453C22.9293 21.8647 23.802 22.2308 24.7417 22.3996C24.3593 22.4682 23.9655 22.5036 23.5633 22.5036C22.1736 22.5036 20.8826 22.0767 19.8106 21.3453C19.7962 21.3353 19.781 21.3253 19.7665 21.3145C17.9966 20.086 16.835 18.0222 16.835 15.6832V13.9492C16.835 3.23681 21.0081 3.36775 21.0081 3.59047L20.2186 4.80868C19.0505 6.61105 28.4873 9.42177 30.5201 9.78753C33.1507 10.2608 20.9174 12.0165 20.9075 12.2532C20.8708 13.1233 20.208 13.8994 19.2852 13.9468C19.2543 13.9484 19.2231 13.9492 19.1918 13.9492V15.6832C19.1918 18.0222 20.3535 20.086 22.1234 21.3145C22.1378 21.3253 22.153 21.3353 22.1675 21.3453Z" fill="#858585"/>
<path d="M28.7716 15.4135C28.5197 15.4135 28.3154 15.2064 28.3154 14.9511V11.483C28.3154 11.2277 28.5197 11.0206 28.7716 11.0206C29.0235 11.0206 29.2277 11.2277 29.2277 11.483V14.9511C29.2277 15.2065 29.0235 15.4135 28.7716 15.4135Z" fill="white"/>
<path d="M26.7183 15.5675H25.6427C25.3908 15.5675 25.1865 15.3604 25.1865 15.1051C25.1865 14.8498 25.3908 14.6427 25.6427 14.6427H26.7183C26.9702 14.6427 27.1745 14.8498 27.1745 15.1051C27.1745 15.3604 26.9702 15.5675 26.7183 15.5675Z" fill="#858585"/>
<path d="M21.4844 15.5675H20.4088C20.1569 15.5675 19.9526 15.3604 19.9526 15.1051C19.9526 14.8498 20.1569 14.6427 20.4088 14.6427H21.4844C21.7363 14.6427 21.9406 14.8498 21.9406 15.1051C21.9406 15.3604 21.7363 15.5675 21.4844 15.5675Z" fill="#858585"/>
<path d="M35.8033 10.0187H11.3228L23.563 0.462402L35.8033 10.0187Z" fill="white"/>
<path opacity="0.44" d="M23.563 0.462402L18.9642 10.0187H11.3228L23.563 0.462402Z" fill="#858585"/>
<path d="M35.8035 10.4811H11.3229C11.1277 10.4811 10.954 10.3551 10.8911 10.1678C10.8281 9.98041 10.8899 9.77317 11.0446 9.65241L23.2849 0.0960644C23.4489 -0.0320215 23.6775 -0.0320215 23.8415 0.0960644L36.0818 9.65241C36.2365 9.77317 36.2983 9.98041 36.2353 10.1678C36.1724 10.3552 35.9987 10.4811 35.8035 10.4811ZM12.6627 9.5563H34.4636L23.5632 1.046L12.6627 9.5563Z" fill="#858585"/>
<path d="M31.7836 9.09389C31.6864 9.09389 31.5885 9.06252 31.5055 8.99778L26.5929 5.1623C26.3933 5.00647 26.3561 4.71615 26.5098 4.51378C26.6635 4.31147 26.95 4.27371 27.1496 4.42962L32.0623 8.2651C32.2619 8.42093 32.299 8.71125 32.1453 8.91363C32.0554 9.03185 31.9203 9.09389 31.7836 9.09389Z" fill="white"/>
<path d="M25.6544 4.30877C25.5572 4.30877 25.4593 4.2774 25.3764 4.21267L24.8443 3.79727C24.6447 3.64144 24.6076 3.35113 24.7613 3.14875C24.915 2.94645 25.2015 2.90877 25.4011 3.0646L25.9331 3.47999C26.1327 3.63582 26.1698 3.92613 26.0161 4.12851C25.9263 4.24673 25.7911 4.30877 25.6544 4.30877Z" fill="white"/>
<path d="M33.0966 32.536C33.0966 37.4121 28.8 41.3649 23.4998 41.3649C18.1997 41.3649 13.903 37.4121 13.903 32.536C13.6611 27.7129 18.3385 23.7072 23.4998 23.7072C28.8 23.7072 33.0966 27.66 33.0966 32.536Z" fill="#A59879"/>
<path d="M32.6488 29.3453C32.5969 29.2371 32.5488 29.1252 32.4924 29.0192C32.422 28.887 32.3205 28.7848 32.1989 28.7187C32.1989 28.5895 32.1626 28.4603 32.0929 28.3416C32.0878 28.3325 32.0855 28.322 32.0803 28.313C32.0159 28.2116 31.9432 28.1162 31.8758 28.0177C31.8024 27.9111 31.7313 27.8021 31.6549 27.6992L40.5435 16.692C41.0586 16.0278 41.115 15.2029 40.6718 14.8505C40.5361 14.7431 40.3694 14.692 40.1893 14.692C39.7787 14.692 39.2947 14.9557 38.9382 15.4178L30.6944 26.5865C30.641 26.5324 30.5914 26.4746 30.5373 26.422C30.5002 26.3867 30.458 26.3619 30.4172 26.3356C30.3386 26.2853 30.2542 26.2454 30.166 26.2282C30.1526 26.1906 30.1311 26.156 30.1133 26.1207C30.0674 26.0321 30.0111 25.9487 29.9295 25.8818C29.7205 25.709 29.5048 25.5452 29.281 25.3897C29.1587 25.3048 29.0194 25.262 28.883 25.2575C28.8193 25.1343 28.7222 25.0276 28.5947 24.9532C28.3613 24.8172 28.1204 24.6903 27.8773 24.5738C27.7439 24.5092 27.5993 24.4897 27.463 24.5077C27.3822 24.3957 27.2681 24.3048 27.1302 24.2515C26.8782 24.1553 26.621 24.0689 26.3601 23.9923C26.2171 23.951 26.0733 23.9555 25.9429 23.9946C25.8436 23.8976 25.7176 23.827 25.573 23.797C25.3099 23.7436 25.0424 23.6993 24.7733 23.667C24.6273 23.6505 24.485 23.6775 24.362 23.7376C24.2501 23.6572 24.1137 23.6076 23.9662 23.6016C23.6957 23.5904 23.4252 23.5896 23.1554 23.6009C23.0087 23.6069 22.8738 23.6557 22.7626 23.7346C22.6396 23.6745 22.495 23.646 22.3505 23.664C22.0807 23.6963 21.8132 23.7406 21.5516 23.7932C21.4063 23.8225 21.2788 23.8931 21.1802 23.9908C21.0483 23.951 20.9053 23.9472 20.7622 23.9885C20.5014 24.0644 20.2457 24.1508 19.9951 24.2455C19.8565 24.2973 19.7424 24.3875 19.6609 24.5002C19.523 24.4829 19.38 24.5009 19.2451 24.5655C19.0005 24.682 18.7611 24.809 18.5277 24.9442C18.3987 25.0186 18.3009 25.126 18.2379 25.2492C18.1104 25.253 17.9829 25.2935 17.868 25.3664L18.2386 26.0201L18.6085 26.6722C18.6314 26.6556 18.6529 26.6376 18.6759 26.6211C18.7811 26.5482 18.8612 26.4535 18.916 26.3476C19.0339 26.3439 19.1532 26.3123 19.2629 26.2484C19.463 26.1327 19.6676 26.0246 19.8773 25.9239C19.9907 25.8698 20.0848 25.7894 20.1552 25.6932C20.2723 25.7098 20.3946 25.697 20.514 25.6519C20.7281 25.5708 20.9483 25.4971 21.1713 25.4318C21.2929 25.3965 21.3981 25.3326 21.4826 25.2492C21.5953 25.283 21.7183 25.2928 21.8406 25.2657C22.0652 25.2199 22.2927 25.1839 22.524 25.1561C22.6499 25.1403 22.7633 25.0952 22.8604 25.0268C22.9686 25.0794 23.0976 25.1102 23.2154 25.102C23.4445 25.0929 23.6757 25.0937 23.9062 25.1027C24.0322 25.1147 24.153 25.0809 24.2597 25.0283C24.3568 25.0975 24.4717 25.1433 24.5977 25.1591C24.8267 25.1869 25.055 25.2237 25.2788 25.2695C25.4033 25.2958 25.5264 25.2868 25.6383 25.253C25.7228 25.3356 25.8287 25.4002 25.9503 25.4355C26.1734 25.5002 26.3905 25.5738 26.6047 25.6564C26.7248 25.7023 26.8463 25.712 26.9634 25.6992C27.0346 25.7954 27.1287 25.875 27.2414 25.9306C27.4496 26.0313 27.6557 26.1388 27.8536 26.256C27.9633 26.3198 28.0841 26.3521 28.2019 26.3559C28.256 26.4618 28.3375 26.5557 28.4398 26.6278C28.6295 26.7601 28.8141 26.8998 28.9927 27.0471C29.0891 27.1267 29.1995 27.177 29.3144 27.2003C29.3173 27.2011 29.3188 27.2018 29.3218 27.2026C29.3581 27.316 29.4233 27.422 29.5145 27.5106C29.5212 27.5174 29.5271 27.5241 29.533 27.5309C29.6234 27.6188 29.7079 27.712 29.7954 27.8036C29.8621 27.8742 29.9317 27.9404 29.9962 28.0132C30.08 28.1094 30.1845 28.1785 30.2957 28.2183C30.3142 28.337 30.3616 28.4527 30.4372 28.5549C30.5224 28.6684 30.601 28.7886 30.6803 28.9058C30.7314 28.9817 30.787 29.0538 30.8352 29.1304C30.8382 29.1349 30.8434 29.1364 30.8463 29.1402C30.8656 29.1687 30.8945 29.1823 30.9167 29.207C30.9731 29.2709 31.0264 29.3393 31.0983 29.3791C31.0983 29.4362 31.1057 29.4933 31.1191 29.5504C31.1339 29.6127 31.1554 29.6751 31.1865 29.7345C31.2947 29.9381 31.3955 30.1492 31.4882 30.3633C31.5386 30.4812 31.6171 30.5797 31.7105 30.6548C31.6927 30.7735 31.7009 30.899 31.7439 31.0207C31.8202 31.2401 31.8862 31.4632 31.9447 31.6908C31.9781 31.814 32.0388 31.9237 32.1181 32.0109C32.0811 32.1251 32.0722 32.2483 32.0937 32.373C32.1344 32.6037 32.1663 32.8351 32.1893 33.0717C32.2012 33.1994 32.253 33.3106 32.3197 33.4105C32.3049 33.4398 32.2849 33.4646 32.2738 33.4954C32.2345 33.5142 32.2026 33.5435 32.1671 33.5691C32.0529 33.518 31.9299 33.4849 31.7935 33.503C31.5608 33.524 31.3229 33.5473 31.0813 33.5661C30.9508 33.5781 30.8322 33.6217 30.7307 33.6908C30.621 33.6382 30.498 33.6126 30.3661 33.6232L29.6494 33.6727C29.5197 33.6818 29.4003 33.7223 29.2973 33.7884C29.1884 33.7359 29.0602 33.7096 28.9327 33.7148L28.216 33.7531C28.0855 33.7591 27.964 33.7997 27.861 33.8643C27.8002 33.8335 27.7342 33.8132 27.6668 33.7982C27.6127 33.7877 27.5578 33.7802 27.5008 33.7847L27.0939 33.799L26.7789 33.8102C26.6492 33.8147 26.5284 33.8531 26.4239 33.9162C26.3349 33.8681 26.2401 33.8485 26.1274 33.838C26.1059 33.8358 26.0874 33.8313 26.0629 33.8305L25.5738 33.841L25.3425 33.8463C25.2121 33.8493 25.0906 33.8861 24.9853 33.9477C24.8778 33.8891 24.7526 33.8711 24.6251 33.8583L23.9069 33.8636C23.7758 33.8643 23.6527 33.8989 23.5467 33.9597C23.4408 33.8996 23.3185 33.8651 23.1895 33.8643L22.4676 33.8583C22.3335 33.8523 22.2134 33.8914 22.1074 33.9492C22.0022 33.8876 21.8799 33.8508 21.7502 33.8493L21.0313 33.8335C20.8853 33.8388 20.7763 33.8613 20.6689 33.9184C20.5636 33.8553 20.4421 33.817 20.3116 33.8125L19.5949 33.7877C19.4704 33.7749 19.3407 33.8117 19.2318 33.8673C19.128 33.8027 19.0079 33.7621 18.8775 33.7569L18.1593 33.7201C18.0289 33.7066 17.9051 33.7396 17.7954 33.7937C17.6924 33.7276 17.5716 33.6848 17.4404 33.6788C17.1995 33.663 16.9616 33.6472 16.7282 33.6314C16.594 33.6202 16.4739 33.6465 16.3642 33.6975C16.2627 33.6284 16.1426 33.5848 16.0129 33.5728L15.2985 33.5097C15.1673 33.4969 15.0472 33.5292 14.9361 33.5803C14.9005 33.5548 14.8679 33.5255 14.8278 33.5052C14.8152 33.4699 14.7923 33.4406 14.7745 33.4083C14.8449 33.3061 14.9005 33.1927 14.9138 33.0582C14.9368 32.823 14.9687 32.5909 15.0102 32.3617C15.0324 32.2355 15.0228 32.1116 14.9864 31.9981C15.0672 31.9102 15.1288 31.8005 15.1614 31.6751C15.2199 31.4474 15.2874 31.2243 15.363 31.0056C15.4052 30.8839 15.4141 30.7592 15.3963 30.642C15.4897 30.5669 15.5668 30.47 15.6187 30.3513C15.7113 30.1379 15.8121 29.9283 15.921 29.7217C15.9811 29.6105 16.01 29.488 16.01 29.3693C16.1145 29.3107 16.2071 29.2273 16.2753 29.1184C16.2761 29.1161 16.2775 29.1146 16.2783 29.1131C16.3457 29.0072 16.4206 28.9088 16.4925 28.8059L16.0633 28.1192L15.6594 27.4738C15.5994 27.5166 15.5438 27.5685 15.4964 27.6301C15.3326 27.8472 15.1769 28.0711 15.0302 28.3017C14.9509 28.4272 14.9123 28.5677 14.9116 28.7059C14.7908 28.7735 14.6863 28.8765 14.6166 29.008C14.564 29.1064 14.5203 29.21 14.4706 29.31C9.39669 29.9508 6 31.1176 6 32.4534C6 34.4751 13.7976 42.9039 23.417 42.9039C33.0364 42.9039 40.8341 34.4751 40.8341 32.4534C40.8363 31.1424 37.5649 29.9944 32.6488 29.3453ZM13.7421 31.7141C13.6479 31.817 13.5812 31.9463 13.5545 32.0943C13.5079 32.3602 13.4701 32.633 13.4426 32.9057C13.4263 33.0657 13.473 33.2114 13.5449 33.3414C13.4604 33.4601 13.3989 33.5969 13.3959 33.7554L13.3952 33.8936C13.3952 33.9507 13.3989 34.0078 13.4026 34.0642C10.2031 33.6562 8.17454 33.0582 8.17454 32.3903C8.17454 31.6863 10.4232 31.0597 13.9244 30.6525C13.8547 30.8644 13.7865 31.077 13.7302 31.2941C13.6931 31.4369 13.6998 31.5826 13.7421 31.7141ZM33.7072 34.0281C33.7101 33.983 33.7131 33.9387 33.7131 33.8921L33.7116 33.7441C33.7101 33.5916 33.6508 33.4586 33.5723 33.3407C33.6382 33.2145 33.6812 33.0755 33.6664 32.923C33.6412 32.6495 33.6027 32.3768 33.556 32.1108C33.5315 31.9628 33.4648 31.8328 33.3707 31.7306C33.4137 31.5977 33.4189 31.4527 33.3833 31.3084C33.3292 31.0973 33.2625 30.8907 33.195 30.6848C36.5347 31.0928 38.6684 31.7036 38.6684 32.3895C38.667 33.0387 36.7503 33.6217 33.7072 34.0281Z" fill="white"/>
<path d="M22.9721 27.2552C22.6667 27.2582 22.4199 27.3919 22.4199 27.5429C22.4207 27.6939 22.6675 27.8066 22.9721 27.8036C23.2767 27.8006 23.5242 27.6834 23.5242 27.5324C23.525 27.3806 23.2782 27.2522 22.9721 27.2552Z" fill="white"/>
<path d="M25.0618 32.4429C25.3597 32.4534 25.6021 32.3445 25.6036 32.1965C25.605 32.0484 25.3642 31.9147 25.064 31.9027C24.7661 31.8892 24.5222 32.0041 24.5215 32.1551C24.5207 32.3061 24.7631 32.4339 25.0618 32.4429Z" fill="white"/>
<path d="M21.2054 28.1162C20.9023 28.1463 20.6592 28.2973 20.6607 28.4453C20.6621 28.5926 20.9075 28.6835 21.2098 28.6557C21.5122 28.6294 21.7576 28.4911 21.7561 28.3416C21.7546 28.1921 21.5078 28.0869 21.2054 28.1162Z" fill="white"/>
<path d="M25.3607 30.0207C25.3622 29.8727 25.1199 29.7307 24.8175 29.7112C24.5166 29.6924 24.2713 29.8043 24.2705 29.9553C24.2698 30.1063 24.5136 30.2371 24.8145 30.2536C25.1147 30.2709 25.3593 30.1695 25.3607 30.0207Z" fill="white"/>
<path d="M26.3521 29.4362C26.653 29.4535 26.8976 29.3528 26.8991 29.2033C26.9006 29.0538 26.6575 28.9133 26.3566 28.8938C26.0542 28.8743 25.8096 28.987 25.8081 29.138C25.8074 29.289 26.0505 29.4197 26.3521 29.4362Z" fill="white"/>
<path d="M22.4404 31.8697C22.439 32.0004 22.6769 32.1176 22.9718 32.1341C23.2661 32.1499 23.5055 32.0635 23.5062 31.9418C23.507 31.8186 23.2698 31.6991 22.9763 31.6751C22.6821 31.6503 22.4419 31.7382 22.4404 31.8697Z" fill="white"/>
<path d="M27.3822 30.4475C27.2429 30.4723 27.1451 30.5324 27.1436 30.6195C27.1428 30.6533 27.1584 30.6871 27.1821 30.7194C27.2384 30.7961 27.357 30.8637 27.5045 30.9088C27.5594 30.9253 27.6157 30.9411 27.6765 30.9501C27.9722 30.9929 28.2123 30.9208 28.2138 30.784C28.2153 30.6706 28.047 30.5481 27.821 30.4813C27.7765 30.467 27.7328 30.4535 27.6839 30.4452C27.569 30.4264 27.4697 30.4317 27.3822 30.4475Z" fill="white"/>
<path d="M30.2874 30.5819C30.1933 30.5211 30.0614 30.4715 29.9176 30.4467C29.9139 30.4459 29.9124 30.4452 29.9094 30.4444C29.6145 30.3964 29.3714 30.4775 29.3691 30.6187C29.3684 30.7036 29.4581 30.7863 29.5893 30.8509C29.6782 30.8952 29.7834 30.9313 29.902 30.9493C29.9317 30.9538 29.9569 30.9516 29.9858 30.9538C30.24 30.9711 30.4371 30.9072 30.4401 30.7833C30.4408 30.7164 30.383 30.6435 30.2874 30.5819Z" fill="white"/>
<path d="M21.0125 26.7C20.7087 26.7398 20.4648 26.9006 20.4663 27.0478C20.4678 27.1951 20.7139 27.2762 21.017 27.2394C21.3201 27.2026 21.5669 27.0599 21.5654 26.9096C21.564 26.7593 21.3172 26.6602 21.0125 26.7Z" fill="white"/>
<path d="M21.2212 30.1469C21.2227 30.2964 21.4665 30.4008 21.7682 30.3873C22.0691 30.3738 22.3129 30.2453 22.3129 30.0936C22.3122 29.9426 22.0669 29.8276 21.7652 29.8426C21.4636 29.8577 21.2197 29.9974 21.2212 30.1469Z" fill="white"/>
<path d="M29.5781 32.0634C29.5766 32.1897 29.8123 32.3271 30.1036 32.373C30.3941 32.4196 30.6283 32.3647 30.6283 32.2468C30.6283 32.1295 30.3956 31.9845 30.1058 31.9297C29.8175 31.8741 29.5796 31.9357 29.5781 32.0634Z" fill="white"/>
<path d="M26.999 32.5413C26.9975 32.6818 27.228 32.8072 27.5149 32.832C27.5208 32.8328 27.526 32.8343 27.5312 32.835C27.8269 32.8553 28.0685 32.7629 28.0707 32.6254C28.0715 32.545 27.9833 32.4669 27.8528 32.4098C27.7639 32.37 27.6587 32.3384 27.5386 32.3286C27.2436 32.3024 27.002 32.3993 26.999 32.5413Z" fill="white"/>
<path d="M16.843 30.5661C16.554 30.6382 16.322 30.8013 16.3228 30.926C16.3235 31.0492 16.5577 31.0935 16.8475 31.0304C17.1373 30.9673 17.373 30.8133 17.3715 30.6811C17.37 30.5496 17.1328 30.4962 16.843 30.5661Z" fill="white"/>
<path d="M22.4502 25.7481C22.1515 25.7624 21.9099 25.9021 21.9106 26.0487C21.9114 26.1952 22.153 26.2943 22.4517 26.2816C22.7496 26.2688 22.992 26.1471 22.992 25.9998C22.9912 25.8518 22.7489 25.7346 22.4502 25.7481Z" fill="white"/>
<path d="M28.445 29.008C28.3858 28.9787 28.3205 28.9547 28.2501 28.9344C28.2405 28.9329 28.2331 28.9284 28.2242 28.9254C28.1664 28.9103 28.1137 28.9051 28.0611 28.9006C27.9803 28.8938 27.9077 28.8961 27.8499 28.9118C27.7602 28.9344 27.7024 28.9817 27.7017 29.0471C27.7009 29.1057 27.7498 29.1673 27.8217 29.2251C27.9047 29.292 28.0233 29.3498 28.1634 29.3897C28.1812 29.3949 28.1982 29.4032 28.2175 29.4069C28.3746 29.4438 28.5103 29.4438 28.6044 29.4175C28.6822 29.3957 28.7341 29.3574 28.7356 29.2995C28.7356 29.2875 28.7237 29.274 28.72 29.2604C28.6963 29.1748 28.5948 29.0809 28.445 29.008Z" fill="white"/>
<path d="M28.2198 27.5827C27.9337 27.5099 27.6995 27.5677 27.6973 27.7037C27.6958 27.8397 27.9285 27.9975 28.2131 28.0636C28.4992 28.1304 28.7297 28.0854 28.7312 27.9561C28.7334 27.8269 28.5051 27.6556 28.2198 27.5827Z" fill="white"/>
<path d="M25.3516 31.1364C25.3501 31.2806 25.5858 31.4113 25.8763 31.4316C26.0105 31.4414 26.1298 31.4241 26.2232 31.391C26.3314 31.3527 26.404 31.2926 26.4047 31.2167C26.4047 31.201 26.3921 31.1844 26.387 31.1702C26.3425 31.047 26.1394 30.9358 25.8807 30.9132C25.5902 30.8899 25.3531 30.9921 25.3516 31.1364Z" fill="white"/>
<path d="M23.7396 29.3221C23.7396 29.1748 23.501 29.0493 23.206 29.0486C22.911 29.0478 22.6716 29.1726 22.6724 29.3198C22.6724 29.4671 22.9118 29.5813 23.206 29.582C23.5002 29.5828 23.7396 29.4686 23.7396 29.3221Z" fill="white"/>
<path d="M16.8459 32.1747C16.5613 32.204 16.3315 32.3227 16.3315 32.4376C16.3315 32.5526 16.5628 32.6269 16.8481 32.6067C17.1335 32.5856 17.3647 32.4699 17.364 32.3467C17.3625 32.2227 17.1305 32.1454 16.8459 32.1747Z" fill="white"/>
<path d="M24.8305 27.827C24.5348 27.8014 24.2947 27.9066 24.2939 28.0531C24.2932 28.1996 24.5326 28.3311 24.8276 28.3544C25.1225 28.3784 25.3619 28.2867 25.3634 28.1425C25.3634 27.9982 25.1255 27.8525 24.8305 27.827Z" fill="white"/>
<path d="M24.6861 25.809C24.3874 25.779 24.1458 25.8834 24.145 26.0299C24.1443 26.1764 24.3859 26.3094 24.6831 26.3379C24.9803 26.3665 25.2212 26.2808 25.2227 26.1358C25.2241 25.9908 24.9833 25.8391 24.6861 25.809Z" fill="white"/>
<path d="M26.3522 27.7961C26.6457 27.8472 26.8821 27.7826 26.8836 27.6436C26.8851 27.5039 26.6516 27.3379 26.3581 27.2838C26.0654 27.2297 25.8252 27.3093 25.8237 27.4528C25.8223 27.5963 26.0594 27.7458 26.3522 27.7961Z" fill="white"/>
<path d="M16.1536 26.857L16.562 27.5091L16.9563 28.1395L17.5003 29.0087L19.1553 31.654C19.5318 32.2851 19.8587 32.8148 20.2463 32.8148C20.333 32.8148 20.4234 32.7885 20.5175 32.7299C21.0334 32.4144 20.6717 31.7803 20.2107 31.0072L19.9535 30.5534L19.7371 30.1717L19.0219 28.9103L18.0036 27.1147L17.6404 26.4739L17.2661 25.8142L9.37286 11.895C9.02378 11.309 8.48422 10.9536 8.01878 10.9543C7.87055 10.9543 7.72899 10.9904 7.60448 11.067C7.08864 11.3826 7.04417 12.2661 7.50516 13.0392L16.1536 26.857Z" fill="white"/>
</svg>
