<svg width="47" height="43" viewBox="0 0 47 43" fill="none" xmlns="http://www.w3.org/2000/svg">
<rect opacity="0.8" x="26" y="23.9182" width="24" height="6.92385" rx="3.46193" transform="rotate(-44.8236 26 23.9182)" fill="#E29B9B"/>
<rect opacity="0.8" width="24" height="6.92385" rx="3.46193" transform="matrix(0.70928 0.704926 0.704926 -0.70928 -1 11.911)" fill="#E2DB9B"/>
<path d="M16.4378 16.0985C17.6088 16.0985 18.5581 15.1362 18.5581 13.9491C18.5581 12.762 17.6088 11.7997 16.4378 11.7997C15.2667 11.7997 14.3174 12.762 14.3174 13.9491C14.3174 15.1362 15.2667 16.0985 16.4378 16.0985Z" fill="#FFE8B0"/>
<path d="M28.6883 16.0985C29.8593 16.0985 30.8086 15.1362 30.8086 13.9491C30.8086 12.762 29.8593 11.7997 28.6883 11.7997C27.5172 11.7997 26.5679 12.762 26.5679 13.9491C26.5679 15.1362 27.5172 16.0985 28.6883 16.0985Z" fill="#FFE8B0"/>
<path d="M16.4379 16.5609C15.0172 16.5609 13.8613 15.3892 13.8613 13.9491C13.8613 12.5089 15.0172 11.3373 16.4379 11.3373C17.8586 11.3373 19.0144 12.5089 19.0144 13.9491C19.0144 15.3892 17.8586 16.5609 16.4379 16.5609ZM16.4379 12.2621C15.5202 12.2621 14.7736 13.0189 14.7736 13.9491C14.7736 14.8793 15.5202 15.6361 16.4379 15.6361C17.3555 15.6361 18.1021 14.8793 18.1021 13.9491C18.1021 13.0189 17.3556 12.2621 16.4379 12.2621Z" fill="#333333"/>
<path d="M28.6884 16.5609C27.2676 16.5609 26.1118 15.3892 26.1118 13.9491C26.1118 12.5089 27.2676 11.3373 28.6884 11.3373C30.1091 11.3373 31.2649 12.5089 31.2649 13.9491C31.2649 15.3892 30.1091 16.5609 28.6884 16.5609ZM28.6884 12.2621C27.7707 12.2621 27.0241 13.0189 27.0241 13.9491C27.0241 14.8793 27.7707 15.6361 28.6884 15.6361C29.606 15.6361 30.3526 14.8793 30.3526 13.9491C30.3526 13.0189 29.6059 12.2621 28.6884 12.2621Z" fill="#333333"/>
<path d="M26.316 21.3453C26.3304 21.3492 26.3456 21.3523 26.3601 21.3561C27.1553 21.5511 27.895 21.8902 28.5519 22.3434C30.3302 23.5703 31.4979 25.6395 31.4979 27.9839V34.5262H27.9216H17.2049H13.6294V27.9839C13.6294 25.6395 14.7964 23.5703 16.5747 22.3434C17.2315 21.8902 17.9713 21.5511 18.7665 21.3561C18.781 21.3523 18.7962 21.3492 18.8106 21.3453" fill="#797979"/>
<path d="M17.2049 24.9697V34.5261H13.6294V27.9838C13.6294 25.6394 14.7964 23.5702 16.5747 22.3433C16.9776 23.1293 17.2049 24.0226 17.2049 24.9697Z" fill="#797979"/>
<path d="M31.4982 27.9838V34.5261H27.9219V24.9697C27.9219 24.0226 28.1492 23.1293 28.5521 22.3433C30.3304 23.5702 31.4982 25.6394 31.4982 27.9838Z" fill="#797979"/>
<path d="M26.3601 21.3561V22.4203C26.3601 24.5458 24.6602 26.269 22.5634 26.269C20.4666 26.269 18.7666 24.5458 18.7666 22.4203V21.3561C18.781 21.3523 18.7963 21.3492 18.8107 21.3453C19.8827 22.0767 21.1736 22.5037 22.5634 22.5037C23.9531 22.5037 25.2441 22.0767 26.316 21.3453C26.3305 21.3492 26.3457 21.3523 26.3601 21.3561Z" fill="#FFE8B0"/>
<path opacity="0.44" d="M26.2415 21.3954C25.7291 22.3842 24.9833 23.2304 24.0793 23.8577C24.0649 23.8685 24.0497 23.8785 24.0352 23.8886C22.9633 24.6199 21.6723 25.0469 20.2826 25.0469C19.7884 25.0469 19.8061 24.4864 19.3424 24.3831C19.2922 24.1342 18.7666 23.8076 18.7666 23.5441V21.3561C18.781 21.3523 18.7963 21.3492 18.8107 21.3453C19.8827 22.0767 21.1736 22.5037 22.5634 22.5037C23.9212 22.5037 25.1848 22.096 26.2415 21.3954Z" fill="#333333"/>
<path d="M26.316 21.3452C25.244 22.0766 23.9531 22.5036 22.5633 22.5036C21.1736 22.5036 19.8826 22.0766 18.8106 21.3452C18.7962 21.3352 18.781 21.3252 18.7665 21.3144C16.9966 20.086 15.835 18.0221 15.835 15.6831V13.9491V9.98012C15.835 6.2133 18.8474 3.15967 22.5633 3.15967C26.2793 3.15967 29.2917 6.2133 29.2917 9.98012V13.9491V15.6831C29.2917 18.0221 28.13 20.086 26.3601 21.3144C26.3456 21.3252 26.3304 21.3352 26.316 21.3452Z" fill="#FFE8B0"/>
<path d="M22.5634 22.966C21.128 22.966 19.7423 22.5382 18.5561 21.7289L18.5422 21.7193C18.5294 21.7105 18.5164 21.7016 18.5038 21.6924C16.5471 20.3316 15.3789 18.0856 15.3789 15.6831V9.98013C15.3789 5.96438 18.6019 2.69727 22.5634 2.69727C26.5249 2.69727 29.7479 5.96438 29.7479 9.98013V15.6831C29.7479 18.0858 28.58 20.3317 26.6231 21.6924C26.6104 21.7016 26.5975 21.7105 26.5846 21.7194L26.5743 21.7265C26.5731 21.7273 26.572 21.7281 26.5709 21.7289C25.3845 22.5382 23.9988 22.966 22.5634 22.966ZM22.5634 3.62207C19.1049 3.62207 16.2912 6.47426 16.2912 9.98013V15.6831C16.2912 17.7825 17.3129 19.745 19.0244 20.9329C19.0286 20.9359 19.0328 20.9389 19.0369 20.9419L19.0689 20.9641C20.1006 21.6679 21.3102 22.0412 22.5634 22.0412C23.8166 22.0412 25.0263 21.6679 26.0614 20.9618L26.0741 20.953C26.0793 20.9493 26.0848 20.9458 26.0899 20.9419C26.094 20.9389 26.0982 20.9359 26.1025 20.9329C27.8138 19.745 28.8356 17.7825 28.8356 15.6831V9.98013C28.8356 6.47426 26.0219 3.62207 22.5634 3.62207Z" fill="#333333"/>
<path d="M22.5635 26.7314C20.2184 26.7314 18.3105 24.7974 18.3105 22.4202V21.3145H19.2229V22.4202C19.2229 24.2875 20.7214 25.8065 22.5635 25.8065C24.4055 25.8065 25.9041 24.2875 25.9041 22.4202V21.3145H26.8164V22.4202C26.8164 24.7974 24.9085 26.7314 22.5635 26.7314Z" fill="#333333"/>
<path d="M22.0357 16.5703C21.7838 16.5703 21.5795 16.3632 21.5795 16.1079V14.8088C21.5795 14.5619 21.3814 14.3611 21.1378 14.3611H18.9649C18.7131 14.3611 18.5088 14.154 18.5088 13.8987C18.5088 13.6434 18.7131 13.4363 18.9649 13.4363H21.1378C21.8844 13.4363 22.4918 14.052 22.4918 14.8088V16.1079C22.4918 16.3633 22.2876 16.5703 22.0357 16.5703Z" fill="#333333"/>
<path d="M26.1622 14.3601H24.3375C24.0856 14.3601 23.8813 14.153 23.8813 13.8977C23.8813 13.6424 24.0856 13.4353 24.3375 13.4353H26.1622C26.414 13.4353 26.6183 13.6424 26.6183 13.8977C26.6183 14.153 26.4141 14.3601 26.1622 14.3601Z" fill="#333333"/>
<path d="M23.4756 19.2925H21.651C21.3991 19.2925 21.1948 19.0854 21.1948 18.8301C21.1948 18.5748 21.3991 18.3677 21.651 18.3677H23.4756C23.7275 18.3677 23.9318 18.5748 23.9318 18.8301C23.9318 19.0854 23.7275 19.2925 23.4756 19.2925Z" fill="#333333"/>
<path d="M28.3781 34.5261H27.4658V24.9697C27.4658 23.9821 27.7015 23.0001 28.1475 22.1301L28.957 22.5565C28.5729 23.3059 28.3781 24.1178 28.3781 24.9697V34.5261Z" fill="#333333"/>
<path d="M29.9776 33.1823C29.7258 33.1823 29.5215 32.9752 29.5215 32.7199V27.778C29.5215 27.5226 29.7258 27.3156 29.9776 27.3156C30.2295 27.3156 30.4338 27.5226 30.4338 27.778V32.7199C30.4338 32.9752 30.2295 33.1823 29.9776 33.1823Z" fill="white"/>
<path opacity="0.44" d="M16.9502 23.2681C15.7939 24.4927 15.083 26.1542 15.083 27.9838V34.3719H13.6294V27.9838C13.6294 25.6394 14.7964 23.5702 16.5747 22.3433C16.7252 22.6377 16.8514 22.9467 16.9502 23.2681Z" fill="#333333"/>
<path d="M31.498 34.9885H13.6295C13.3775 34.9885 13.1733 34.7815 13.1733 34.5261V27.9839C13.1733 25.5712 14.3489 23.3197 16.3181 21.9611C17.034 21.4672 17.8205 21.1128 18.6561 20.9075C18.666 20.905 18.6761 20.9025 18.6863 20.9001L18.6955 20.8979L18.9264 21.7926C18.9148 21.7957 18.9029 21.7986 18.8911 21.8013L18.8818 21.8035C18.8805 21.8038 18.8752 21.8052 18.8739 21.8055C18.1443 21.9844 17.4571 22.2939 16.8314 22.7255C15.1122 23.9117 14.0857 25.8774 14.0857 27.9837V34.0637H31.042V27.9839C31.042 25.8779 30.0152 23.9122 28.2954 22.7256C27.6698 22.294 26.9827 21.9844 26.253 21.8056C26.2501 21.8049 26.2473 21.8041 26.2445 21.8034L26.2357 21.8013C26.2238 21.7986 26.212 21.7957 26.2004 21.7926L26.4314 20.8979L26.4407 20.9001C26.4508 20.9025 26.4609 20.9049 26.4708 20.9074C27.3064 21.1128 28.093 21.4672 28.8087 21.961C30.7783 23.3199 31.9542 25.5715 31.9542 27.9838V34.5261C31.9542 34.7815 31.7499 34.9885 31.498 34.9885Z" fill="#333333"/>
<path d="M17.6611 34.5261H16.7488V24.9697C16.7488 24.1178 16.554 23.3059 16.1699 22.5565L16.9795 22.1301C17.4254 23.0001 17.6611 23.982 17.6611 24.9698V34.5261Z" fill="#333333"/>
<path d="M32.5611 34.9885H12.5836C12.3317 34.9885 12.1274 34.7815 12.1274 34.5261C12.1274 34.2708 12.3317 34.0637 12.5836 34.0637H32.5611C32.813 34.0637 33.0173 34.2708 33.0173 34.5261C33.0173 34.7815 32.813 34.9885 32.5611 34.9885Z" fill="#333333"/>
<path d="M34.9941 34.9885H34.1578C33.9059 34.9885 33.7017 34.7815 33.7017 34.5261C33.7017 34.2708 33.9059 34.0637 34.1578 34.0637H34.9941C35.246 34.0637 35.4503 34.2708 35.4503 34.5261C35.4503 34.7815 35.246 34.9885 34.9941 34.9885Z" fill="#333333"/>
<path d="M10.9697 34.9885H10.1334C9.88153 34.9885 9.67725 34.7815 9.67725 34.5261C9.67725 34.2708 9.88153 34.0637 10.1334 34.0637H10.9697C11.2216 34.0637 11.4259 34.2708 11.4259 34.5261C11.4259 34.7815 11.2216 34.9885 10.9697 34.9885Z" fill="#333333"/>
<path opacity="0.44" d="M21.1675 21.3453C21.9293 21.8647 22.802 22.2308 23.7417 22.3996C23.3593 22.4682 22.9655 22.5036 22.5633 22.5036C21.1736 22.5036 19.8826 22.0767 18.8106 21.3453C18.7962 21.3353 18.781 21.3253 18.7665 21.3145C16.9966 20.086 15.835 18.0222 15.835 15.6832V13.9492C15.835 3.23681 20.0081 3.36775 20.0081 3.59047L19.2186 4.80868C18.0505 6.61105 27.4873 9.42177 29.5201 9.78753C32.1507 10.2608 19.9174 12.0165 19.9075 12.2532C19.8708 13.1233 19.208 13.8994 18.2852 13.9468C18.2543 13.9484 18.2231 13.9492 18.1918 13.9492V15.6832C18.1918 18.0222 19.3535 20.086 21.1234 21.3145C21.1378 21.3253 21.153 21.3353 21.1675 21.3453Z" fill="#333333"/>
<path d="M27.7716 15.4135C27.5197 15.4135 27.3154 15.2064 27.3154 14.9511V11.483C27.3154 11.2277 27.5197 11.0206 27.7716 11.0206C28.0235 11.0206 28.2277 11.2277 28.2277 11.483V14.9511C28.2277 15.2065 28.0235 15.4135 27.7716 15.4135Z" fill="white"/>
<path d="M25.7183 15.5675H24.6427C24.3908 15.5675 24.1865 15.3604 24.1865 15.1051C24.1865 14.8498 24.3908 14.6427 24.6427 14.6427H25.7183C25.9702 14.6427 26.1745 14.8498 26.1745 15.1051C26.1745 15.3604 25.9702 15.5675 25.7183 15.5675Z" fill="#333333"/>
<path d="M20.4844 15.5675H19.4088C19.1569 15.5675 18.9526 15.3604 18.9526 15.1051C18.9526 14.8498 19.1569 14.6427 19.4088 14.6427H20.4844C20.7363 14.6427 20.9406 14.8498 20.9406 15.1051C20.9406 15.3604 20.7363 15.5675 20.4844 15.5675Z" fill="#333333"/>
<path d="M34.8033 10.0187H10.3228L22.563 0.462402L34.8033 10.0187Z" fill="#797979"/>
<path opacity="0.44" d="M22.563 0.462402L17.9642 10.0187H10.3228L22.563 0.462402Z" fill="#333333"/>
<path d="M34.8035 10.4811H10.3229C10.1277 10.4811 9.95402 10.3551 9.89107 10.1678C9.82812 9.98041 9.88986 9.77317 10.0446 9.65241L22.2849 0.0960644C22.4489 -0.0320215 22.6775 -0.0320215 22.8415 0.0960644L35.0818 9.65241C35.2365 9.77317 35.2983 9.98041 35.2353 10.1678C35.1724 10.3552 34.9987 10.4811 34.8035 10.4811ZM11.6627 9.5563H33.4636L22.5632 1.046L11.6627 9.5563Z" fill="#333333"/>
<path d="M30.7836 9.09389C30.6864 9.09389 30.5885 9.06252 30.5055 8.99778L25.5929 5.1623C25.3933 5.00647 25.3561 4.71615 25.5098 4.51378C25.6635 4.31147 25.95 4.27371 26.1496 4.42962L31.0623 8.2651C31.2619 8.42093 31.299 8.71125 31.1453 8.91363C31.0554 9.03185 30.9203 9.09389 30.7836 9.09389Z" fill="white"/>
<path d="M24.6544 4.30877C24.5572 4.30877 24.4593 4.2774 24.3764 4.21267L23.8443 3.79727C23.6447 3.64144 23.6076 3.35113 23.7613 3.14875C23.915 2.94645 24.2015 2.90877 24.4011 3.0646L24.9331 3.47999C25.1327 3.63582 25.1698 3.92613 25.0161 4.12851C24.9263 4.24673 24.7911 4.30877 24.6544 4.30877Z" fill="white"/>
<path d="M32.0966 32.536C32.0966 37.4121 27.8 41.3649 22.4998 41.3649C17.1997 41.3649 12.903 37.4121 12.903 32.536C12.6611 27.7129 17.3385 23.7072 22.4998 23.7072C27.8 23.7072 32.0966 27.66 32.0966 32.536Z" fill="#A59879"/>
<path d="M31.6488 29.3453C31.5969 29.2371 31.5488 29.1252 31.4924 29.0192C31.422 28.887 31.3205 28.7848 31.1989 28.7187C31.1989 28.5895 31.1626 28.4603 31.0929 28.3416C31.0878 28.3325 31.0855 28.322 31.0803 28.313C31.0159 28.2116 30.9432 28.1162 30.8758 28.0177C30.8024 27.9111 30.7313 27.8021 30.6549 27.6992L39.5435 16.692C40.0586 16.0278 40.115 15.2029 39.6718 14.8505C39.5361 14.7431 39.3694 14.692 39.1893 14.692C38.7787 14.692 38.2947 14.9557 37.9382 15.4178L29.6944 26.5865C29.641 26.5324 29.5914 26.4746 29.5373 26.422C29.5002 26.3867 29.458 26.3619 29.4172 26.3356C29.3386 26.2853 29.2542 26.2454 29.166 26.2282C29.1526 26.1906 29.1311 26.156 29.1133 26.1207C29.0674 26.0321 29.0111 25.9487 28.9295 25.8818C28.7205 25.709 28.5048 25.5452 28.281 25.3897C28.1587 25.3048 28.0194 25.262 27.883 25.2575C27.8193 25.1343 27.7222 25.0276 27.5947 24.9532C27.3613 24.8172 27.1204 24.6903 26.8773 24.5738C26.7439 24.5092 26.5993 24.4897 26.463 24.5077C26.3822 24.3957 26.2681 24.3048 26.1302 24.2515C25.8782 24.1553 25.621 24.0689 25.3601 23.9923C25.2171 23.951 25.0733 23.9555 24.9429 23.9946C24.8436 23.8976 24.7176 23.827 24.573 23.797C24.3099 23.7436 24.0424 23.6993 23.7733 23.667C23.6273 23.6505 23.485 23.6775 23.362 23.7376C23.2501 23.6572 23.1137 23.6076 22.9662 23.6016C22.6957 23.5904 22.4252 23.5896 22.1554 23.6009C22.0087 23.6069 21.8738 23.6557 21.7626 23.7346C21.6396 23.6745 21.495 23.646 21.3505 23.664C21.0807 23.6963 20.8132 23.7406 20.5516 23.7932C20.4063 23.8225 20.2788 23.8931 20.1802 23.9908C20.0483 23.951 19.9053 23.9472 19.7622 23.9885C19.5014 24.0644 19.2457 24.1508 18.9951 24.2455C18.8565 24.2973 18.7424 24.3875 18.6609 24.5002C18.523 24.4829 18.38 24.5009 18.2451 24.5655C18.0005 24.682 17.7611 24.809 17.5277 24.9442C17.3987 25.0186 17.3009 25.126 17.2379 25.2492C17.1104 25.253 16.9829 25.2935 16.868 25.3664L17.2386 26.0201L17.6085 26.6722C17.6314 26.6556 17.6529 26.6376 17.6759 26.6211C17.7811 26.5482 17.8612 26.4535 17.916 26.3476C18.0339 26.3439 18.1532 26.3123 18.2629 26.2484C18.463 26.1327 18.6676 26.0246 18.8773 25.9239C18.9907 25.8698 19.0848 25.7894 19.1552 25.6932C19.2723 25.7098 19.3946 25.697 19.514 25.6519C19.7281 25.5708 19.9483 25.4971 20.1713 25.4318C20.2929 25.3965 20.3981 25.3326 20.4826 25.2492C20.5953 25.283 20.7183 25.2928 20.8406 25.2657C21.0652 25.2199 21.2927 25.1839 21.524 25.1561C21.6499 25.1403 21.7633 25.0952 21.8604 25.0268C21.9686 25.0794 22.0976 25.1102 22.2154 25.102C22.4445 25.0929 22.6757 25.0937 22.9062 25.1027C23.0322 25.1147 23.153 25.0809 23.2597 25.0283C23.3568 25.0975 23.4717 25.1433 23.5977 25.1591C23.8267 25.1869 24.055 25.2237 24.2788 25.2695C24.4033 25.2958 24.5264 25.2868 24.6383 25.253C24.7228 25.3356 24.8287 25.4002 24.9503 25.4355C25.1734 25.5002 25.3905 25.5738 25.6047 25.6564C25.7248 25.7023 25.8463 25.712 25.9634 25.6992C26.0346 25.7954 26.1287 25.875 26.2414 25.9306C26.4496 26.0313 26.6557 26.1388 26.8536 26.256C26.9633 26.3198 27.0841 26.3521 27.2019 26.3559C27.256 26.4618 27.3375 26.5557 27.4398 26.6278C27.6295 26.7601 27.8141 26.8998 27.9927 27.0471C28.0891 27.1267 28.1995 27.177 28.3144 27.2003C28.3173 27.2011 28.3188 27.2018 28.3218 27.2026C28.3581 27.316 28.4233 27.422 28.5145 27.5106C28.5212 27.5174 28.5271 27.5241 28.533 27.5309C28.6234 27.6188 28.7079 27.712 28.7954 27.8036C28.8621 27.8742 28.9317 27.9404 28.9962 28.0132C29.08 28.1094 29.1845 28.1785 29.2957 28.2183C29.3142 28.337 29.3616 28.4527 29.4372 28.5549C29.5224 28.6684 29.601 28.7886 29.6803 28.9058C29.7314 28.9817 29.787 29.0538 29.8352 29.1304C29.8382 29.1349 29.8434 29.1364 29.8463 29.1402C29.8656 29.1687 29.8945 29.1823 29.9167 29.207C29.9731 29.2709 30.0264 29.3393 30.0983 29.3791C30.0983 29.4362 30.1057 29.4933 30.1191 29.5504C30.1339 29.6127 30.1554 29.6751 30.1865 29.7345C30.2947 29.9381 30.3955 30.1492 30.4882 30.3633C30.5386 30.4812 30.6171 30.5797 30.7105 30.6548C30.6927 30.7735 30.7009 30.899 30.7439 31.0207C30.8202 31.2401 30.8862 31.4632 30.9447 31.6908C30.9781 31.814 31.0388 31.9237 31.1181 32.0109C31.0811 32.1251 31.0722 32.2483 31.0937 32.373C31.1344 32.6037 31.1663 32.8351 31.1893 33.0717C31.2012 33.1994 31.253 33.3106 31.3197 33.4105C31.3049 33.4398 31.2849 33.4646 31.2738 33.4954C31.2345 33.5142 31.2026 33.5435 31.1671 33.5691C31.0529 33.518 30.9299 33.4849 30.7935 33.503C30.5608 33.524 30.3229 33.5473 30.0813 33.5661C29.9508 33.5781 29.8322 33.6217 29.7307 33.6908C29.621 33.6382 29.498 33.6126 29.3661 33.6232L28.6494 33.6727C28.5197 33.6818 28.4003 33.7223 28.2973 33.7884C28.1884 33.7359 28.0602 33.7096 27.9327 33.7148L27.216 33.7531C27.0855 33.7591 26.964 33.7997 26.861 33.8643C26.8002 33.8335 26.7342 33.8132 26.6668 33.7982C26.6127 33.7877 26.5578 33.7802 26.5008 33.7847L26.0939 33.799L25.7789 33.8102C25.6492 33.8147 25.5284 33.8531 25.4239 33.9162C25.3349 33.8681 25.2401 33.8485 25.1274 33.838C25.1059 33.8358 25.0874 33.8313 25.0629 33.8305L24.5738 33.841L24.3425 33.8463C24.2121 33.8493 24.0906 33.8861 23.9853 33.9477C23.8778 33.8891 23.7526 33.8711 23.6251 33.8583L22.9069 33.8636C22.7758 33.8643 22.6527 33.8989 22.5467 33.9597C22.4408 33.8996 22.3185 33.8651 22.1895 33.8643L21.4676 33.8583C21.3335 33.8523 21.2134 33.8914 21.1074 33.9492C21.0022 33.8876 20.8799 33.8508 20.7502 33.8493L20.0313 33.8335C19.8853 33.8388 19.7763 33.8613 19.6689 33.9184C19.5636 33.8553 19.4421 33.817 19.3116 33.8125L18.5949 33.7877C18.4704 33.7749 18.3407 33.8117 18.2318 33.8673C18.128 33.8027 18.0079 33.7621 17.8775 33.7569L17.1593 33.7201C17.0289 33.7066 16.9051 33.7396 16.7954 33.7937C16.6924 33.7276 16.5716 33.6848 16.4404 33.6788C16.1995 33.663 15.9616 33.6472 15.7282 33.6314C15.594 33.6202 15.4739 33.6465 15.3642 33.6975C15.2627 33.6284 15.1426 33.5848 15.0129 33.5728L14.2985 33.5097C14.1673 33.4969 14.0472 33.5292 13.9361 33.5803C13.9005 33.5548 13.8679 33.5255 13.8278 33.5052C13.8152 33.4699 13.7923 33.4406 13.7745 33.4083C13.8449 33.3061 13.9005 33.1927 13.9138 33.0582C13.9368 32.823 13.9687 32.5909 14.0102 32.3617C14.0324 32.2355 14.0228 32.1116 13.9864 31.9981C14.0672 31.9102 14.1288 31.8005 14.1614 31.6751C14.2199 31.4474 14.2874 31.2243 14.363 31.0056C14.4052 30.8839 14.4141 30.7592 14.3963 30.642C14.4897 30.5669 14.5668 30.47 14.6187 30.3513C14.7113 30.1379 14.8121 29.9283 14.921 29.7217C14.9811 29.6105 15.01 29.488 15.01 29.3693C15.1145 29.3107 15.2071 29.2273 15.2753 29.1184C15.2761 29.1161 15.2775 29.1146 15.2783 29.1131C15.3457 29.0072 15.4206 28.9088 15.4925 28.8059L15.0633 28.1192L14.6594 27.4738C14.5994 27.5166 14.5438 27.5685 14.4964 27.6301C14.3326 27.8472 14.1769 28.0711 14.0302 28.3017C13.9509 28.4272 13.9123 28.5677 13.9116 28.7059C13.7908 28.7735 13.6863 28.8765 13.6166 29.008C13.564 29.1064 13.5203 29.21 13.4706 29.31C8.39669 29.9508 5 31.1176 5 32.4534C5 34.4751 12.7976 42.9039 22.417 42.9039C32.0364 42.9039 39.8341 34.4751 39.8341 32.4534C39.8363 31.1424 36.5649 29.9944 31.6488 29.3453ZM12.7421 31.7141C12.6479 31.817 12.5812 31.9463 12.5545 32.0943C12.5079 32.3602 12.4701 32.633 12.4426 32.9057C12.4263 33.0657 12.473 33.2114 12.5449 33.3414C12.4604 33.4601 12.3989 33.5969 12.3959 33.7554L12.3952 33.8936C12.3952 33.9507 12.3989 34.0078 12.4026 34.0642C9.20306 33.6562 7.17454 33.0582 7.17454 32.3903C7.17454 31.6863 9.42319 31.0597 12.9244 30.6525C12.8547 30.8644 12.7865 31.077 12.7302 31.2941C12.6931 31.4369 12.6998 31.5826 12.7421 31.7141ZM32.7072 34.0281C32.7101 33.983 32.7131 33.9387 32.7131 33.8921L32.7116 33.7441C32.7101 33.5916 32.6508 33.4586 32.5723 33.3407C32.6382 33.2145 32.6812 33.0755 32.6664 32.923C32.6412 32.6495 32.6027 32.3768 32.556 32.1108C32.5315 31.9628 32.4648 31.8328 32.3707 31.7306C32.4137 31.5977 32.4189 31.4527 32.3833 31.3084C32.3292 31.0973 32.2625 30.8907 32.195 30.6848C35.5347 31.0928 37.6684 31.7036 37.6684 32.3895C37.667 33.0387 35.7503 33.6217 32.7072 34.0281Z" fill="#010002"/>
<path d="M21.9721 27.2552C21.6667 27.2582 21.4199 27.3919 21.4199 27.5429C21.4207 27.6939 21.6675 27.8066 21.9721 27.8036C22.2767 27.8006 22.5242 27.6834 22.5242 27.5324C22.525 27.3806 22.2782 27.2522 21.9721 27.2552Z" fill="#010002"/>
<path d="M24.0618 32.4429C24.3597 32.4534 24.6021 32.3445 24.6036 32.1965C24.605 32.0484 24.3642 31.9147 24.064 31.9027C23.7661 31.8892 23.5222 32.0041 23.5215 32.1551C23.5207 32.3061 23.7631 32.4339 24.0618 32.4429Z" fill="#010002"/>
<path d="M20.2054 28.1162C19.9023 28.1463 19.6592 28.2973 19.6607 28.4453C19.6621 28.5926 19.9075 28.6835 20.2098 28.6557C20.5122 28.6294 20.7576 28.4911 20.7561 28.3416C20.7546 28.1921 20.5078 28.0869 20.2054 28.1162Z" fill="#010002"/>
<path d="M24.3607 30.0207C24.3622 29.8727 24.1199 29.7307 23.8175 29.7112C23.5166 29.6924 23.2713 29.8043 23.2705 29.9553C23.2698 30.1063 23.5136 30.2371 23.8145 30.2536C24.1147 30.2709 24.3593 30.1695 24.3607 30.0207Z" fill="#010002"/>
<path d="M25.3521 29.4362C25.653 29.4535 25.8976 29.3528 25.8991 29.2033C25.9006 29.0538 25.6575 28.9133 25.3566 28.8938C25.0542 28.8743 24.8096 28.987 24.8081 29.138C24.8074 29.289 25.0505 29.4197 25.3521 29.4362Z" fill="#010002"/>
<path d="M21.4404 31.8697C21.439 32.0004 21.6769 32.1176 21.9718 32.1341C22.2661 32.1499 22.5055 32.0635 22.5062 31.9418C22.507 31.8186 22.2698 31.6991 21.9763 31.6751C21.6821 31.6503 21.4419 31.7382 21.4404 31.8697Z" fill="#010002"/>
<path d="M26.3822 30.4475C26.2429 30.4723 26.1451 30.5324 26.1436 30.6195C26.1428 30.6533 26.1584 30.6871 26.1821 30.7194C26.2384 30.7961 26.357 30.8637 26.5045 30.9088C26.5594 30.9253 26.6157 30.9411 26.6765 30.9501C26.9722 30.9929 27.2123 30.9208 27.2138 30.784C27.2153 30.6706 27.047 30.5481 26.821 30.4813C26.7765 30.467 26.7328 30.4535 26.6839 30.4452C26.569 30.4264 26.4697 30.4317 26.3822 30.4475Z" fill="#010002"/>
<path d="M29.2874 30.5819C29.1933 30.5211 29.0614 30.4715 28.9176 30.4467C28.9139 30.4459 28.9124 30.4452 28.9094 30.4444C28.6145 30.3964 28.3714 30.4775 28.3691 30.6187C28.3684 30.7036 28.4581 30.7863 28.5893 30.8509C28.6782 30.8952 28.7834 30.9313 28.902 30.9493C28.9317 30.9538 28.9569 30.9516 28.9858 30.9538C29.24 30.9711 29.4371 30.9072 29.4401 30.7833C29.4408 30.7164 29.383 30.6435 29.2874 30.5819Z" fill="#010002"/>
<path d="M20.0125 26.7C19.7087 26.7398 19.4648 26.9006 19.4663 27.0478C19.4678 27.1951 19.7139 27.2762 20.017 27.2394C20.3201 27.2026 20.5669 27.0599 20.5654 26.9096C20.564 26.7593 20.3172 26.6602 20.0125 26.7Z" fill="#010002"/>
<path d="M20.2212 30.1469C20.2227 30.2964 20.4665 30.4008 20.7682 30.3873C21.0691 30.3738 21.3129 30.2453 21.3129 30.0936C21.3122 29.9426 21.0669 29.8276 20.7652 29.8426C20.4636 29.8577 20.2197 29.9974 20.2212 30.1469Z" fill="#010002"/>
<path d="M28.5781 32.0634C28.5766 32.1897 28.8123 32.3271 29.1036 32.373C29.3941 32.4196 29.6283 32.3647 29.6283 32.2468C29.6283 32.1295 29.3956 31.9845 29.1058 31.9297C28.8175 31.8741 28.5796 31.9357 28.5781 32.0634Z" fill="#010002"/>
<path d="M25.999 32.5413C25.9975 32.6818 26.228 32.8072 26.5149 32.832C26.5208 32.8328 26.526 32.8343 26.5312 32.835C26.8269 32.8553 27.0685 32.7629 27.0707 32.6254C27.0715 32.545 26.9833 32.4669 26.8528 32.4098C26.7639 32.37 26.6587 32.3384 26.5386 32.3286C26.2436 32.3024 26.002 32.3993 25.999 32.5413Z" fill="#010002"/>
<path d="M15.843 30.5661C15.554 30.6382 15.322 30.8013 15.3228 30.926C15.3235 31.0492 15.5577 31.0935 15.8475 31.0304C16.1373 30.9673 16.373 30.8133 16.3715 30.6811C16.37 30.5496 16.1328 30.4962 15.843 30.5661Z" fill="#010002"/>
<path d="M21.4502 25.7481C21.1515 25.7624 20.9099 25.9021 20.9106 26.0487C20.9114 26.1952 21.153 26.2943 21.4517 26.2816C21.7496 26.2688 21.992 26.1471 21.992 25.9998C21.9912 25.8518 21.7489 25.7346 21.4502 25.7481Z" fill="#010002"/>
<path d="M27.445 29.008C27.3858 28.9787 27.3205 28.9547 27.2501 28.9344C27.2405 28.9329 27.2331 28.9284 27.2242 28.9254C27.1664 28.9103 27.1137 28.9051 27.0611 28.9006C26.9803 28.8938 26.9077 28.8961 26.8499 28.9118C26.7602 28.9344 26.7024 28.9817 26.7017 29.0471C26.7009 29.1057 26.7498 29.1673 26.8217 29.2251C26.9047 29.292 27.0233 29.3498 27.1634 29.3897C27.1812 29.3949 27.1982 29.4032 27.2175 29.4069C27.3746 29.4438 27.5103 29.4438 27.6044 29.4175C27.6822 29.3957 27.7341 29.3574 27.7356 29.2995C27.7356 29.2875 27.7237 29.274 27.72 29.2604C27.6963 29.1748 27.5948 29.0809 27.445 29.008Z" fill="#010002"/>
<path d="M27.2198 27.5827C26.9337 27.5099 26.6995 27.5677 26.6973 27.7037C26.6958 27.8397 26.9285 27.9975 27.2131 28.0636C27.4992 28.1304 27.7297 28.0854 27.7312 27.9561C27.7334 27.8269 27.5051 27.6556 27.2198 27.5827Z" fill="#010002"/>
<path d="M24.3516 31.1364C24.3501 31.2806 24.5858 31.4113 24.8763 31.4316C25.0105 31.4414 25.1298 31.4241 25.2232 31.391C25.3314 31.3527 25.404 31.2926 25.4047 31.2167C25.4047 31.201 25.3921 31.1844 25.387 31.1702C25.3425 31.047 25.1394 30.9358 24.8807 30.9132C24.5902 30.8899 24.3531 30.9921 24.3516 31.1364Z" fill="#010002"/>
<path d="M22.7396 29.3221C22.7396 29.1748 22.501 29.0493 22.206 29.0486C21.911 29.0478 21.6716 29.1726 21.6724 29.3198C21.6724 29.4671 21.9118 29.5813 22.206 29.582C22.5002 29.5828 22.7396 29.4686 22.7396 29.3221Z" fill="#010002"/>
<path d="M15.8459 32.1747C15.5613 32.204 15.3315 32.3227 15.3315 32.4376C15.3315 32.5526 15.5628 32.6269 15.8481 32.6067C16.1335 32.5856 16.3647 32.4699 16.364 32.3467C16.3625 32.2227 16.1305 32.1454 15.8459 32.1747Z" fill="#010002"/>
<path d="M23.8305 27.827C23.5348 27.8014 23.2947 27.9066 23.2939 28.0531C23.2932 28.1996 23.5326 28.3311 23.8276 28.3544C24.1225 28.3784 24.3619 28.2867 24.3634 28.1425C24.3634 27.9982 24.1255 27.8525 23.8305 27.827Z" fill="#010002"/>
<path d="M23.6861 25.809C23.3874 25.779 23.1458 25.8834 23.145 26.0299C23.1443 26.1764 23.3859 26.3094 23.6831 26.3379C23.9803 26.3665 24.2212 26.2808 24.2227 26.1358C24.2241 25.9908 23.9833 25.8391 23.6861 25.809Z" fill="#010002"/>
<path d="M25.3522 27.7961C25.6457 27.8472 25.8821 27.7826 25.8836 27.6436C25.8851 27.5039 25.6516 27.3379 25.3581 27.2838C25.0654 27.2297 24.8252 27.3093 24.8237 27.4528C24.8223 27.5963 25.0594 27.7458 25.3522 27.7961Z" fill="#010002"/>
<path d="M15.1536 26.857L15.562 27.5091L15.9563 28.1395L16.5003 29.0087L18.1553 31.654C18.5318 32.2851 18.8587 32.8148 19.2463 32.8148C19.333 32.8148 19.4234 32.7885 19.5175 32.7299C20.0334 32.4144 19.6717 31.7803 19.2107 31.0072L18.9535 30.5534L18.7371 30.1717L18.0219 28.9103L17.0036 27.1147L16.6404 26.4739L16.2661 25.8142L8.37286 11.895C8.02378 11.309 7.48422 10.9536 7.01878 10.9543C6.87055 10.9543 6.72899 10.9904 6.60448 11.067C6.08864 11.3826 6.04417 12.2661 6.50516 13.0392L15.1536 26.857Z" fill="#010002"/>
</svg>
