<svg width="218" height="217" viewBox="0 0 218 217" fill="none" xmlns="http://www.w3.org/2000/svg">
<path d="M109.599 213.938C168.437 213.938 216.135 166.24 216.135 107.401C216.135 48.5624 168.437 0.864258 109.599 0.864258C50.7601 0.864258 3.06201 48.5624 3.06201 107.401C3.06201 166.24 50.7601 213.938 109.599 213.938Z" fill="#F5F5F5"/>
<path d="M57.7636 115.653H170.576L159.804 170.256L70.4631 160.67C68.2394 160.422 66.4111 158.841 65.8675 156.667L56.4295 117.383C56.2318 116.493 56.8742 115.653 57.7636 115.653Z" fill="#EBEAEA"/>
<path d="M199.779 83.3857L180.755 87.0918C177.889 87.6354 175.665 89.859 175.072 92.725L155.554 192.541C155.208 194.419 154.071 196 152.441 196.989C151.403 197.631 150.217 197.928 148.982 197.928H66.0156" stroke="#EBEAEA" stroke-width="6" stroke-miterlimit="10" stroke-linecap="round"/>
<path d="M83.706 213.938C87.6358 213.938 90.8216 210.752 90.8216 206.822C90.8216 202.892 87.6358 199.707 83.706 199.707C79.7761 199.707 76.5903 202.892 76.5903 206.822C76.5903 210.752 79.7761 213.938 83.706 213.938Z" fill="#EBEAEA"/>
<path d="M135.986 213.938C139.916 213.938 143.102 210.752 143.102 206.822C143.102 202.892 139.916 199.707 135.986 199.707C132.056 199.707 128.871 202.892 128.871 206.822C128.871 210.752 132.056 213.938 135.986 213.938Z" fill="#EBEAEA"/>
<path d="M191.28 82.8916L172.256 86.5977C169.39 87.1412 167.166 89.3648 166.573 92.2309L147.055 192.047C146.709 193.925 145.572 195.506 143.942 196.495C142.904 197.137 141.718 197.433 140.483 197.433H57.5166" stroke="#3F3F3F" stroke-width="4" stroke-miterlimit="10" stroke-linecap="round"/>
<path d="M127.437 213.444C131.367 213.444 134.553 210.258 134.553 206.328C134.553 202.398 131.367 199.212 127.437 199.212C123.508 199.212 120.322 202.398 120.322 206.328C120.322 210.258 123.508 213.444 127.437 213.444Z" fill="white" stroke="#3F3F3F" stroke-width="4" stroke-miterlimit="10" stroke-linecap="round"/>
<path d="M127.438 207.811C129.365 207.811 129.365 204.846 127.438 204.846C125.56 204.846 125.56 207.811 127.438 207.811Z" fill="#3F3F3F"/>
<path d="M75.1571 213.444C79.087 213.444 82.2728 210.258 82.2728 206.328C82.2728 202.398 79.087 199.212 75.1571 199.212C71.2273 199.212 68.0415 202.398 68.0415 206.328C68.0415 210.258 71.2273 213.444 75.1571 213.444Z" fill="white" stroke="#3F3F3F" stroke-width="4" stroke-miterlimit="10" stroke-linecap="round"/>
<path d="M75.1573 207.811C77.0845 207.811 77.0845 204.846 75.1573 204.846C73.2796 204.846 73.2796 207.811 75.1573 207.811Z" fill="#3F3F3F"/>
<path d="M49.2149 115.208H162.027L151.255 169.811L61.9143 160.225C59.6907 159.978 57.8624 158.396 57.3188 156.222L47.9301 116.889C47.6831 116.049 48.3749 115.208 49.2149 115.208Z" fill="white" stroke="#3F3F3F" stroke-width="4" stroke-miterlimit="10" stroke-linecap="round"/>
<path d="M83.0142 115.208L87.0661 162.399" stroke="#3F3F3F" stroke-width="4" stroke-miterlimit="10" stroke-linecap="round"/>
<path d="M127.438 116.691L121.014 166.55" stroke="#3F3F3F" stroke-width="4" stroke-miterlimit="10" stroke-linecap="round"/>
<path d="M63.792 135.123L72.3406 141.645" stroke="#3F3F3F" stroke-width="2" stroke-miterlimit="10" stroke-linecap="round"/>
<path d="M63.792 139.224L68.091 142.485" stroke="#3F3F3F" stroke-width="2" stroke-miterlimit="10" stroke-linecap="round"/>
<path d="M69.9688 135.666L72.3406 137.494" stroke="#3F3F3F" stroke-width="2" stroke-miterlimit="10" stroke-linecap="round"/>
<path d="M148.34 150.49L147.45 154.888" stroke="#3F3F3F" stroke-width="2" stroke-miterlimit="10" stroke-linecap="round"/>
<path d="M151.996 131.96L149.229 145.944" stroke="#3F3F3F" stroke-width="2" stroke-miterlimit="10" stroke-linecap="round"/>
<path d="M184.461 214.234H215.938" stroke="#3F3F3F" stroke-width="4" stroke-miterlimit="10" stroke-linecap="round"/>
<path d="M19.7642 214.234H176.802" stroke="#3F3F3F" stroke-width="4" stroke-miterlimit="10" stroke-linecap="round"/>
<path d="M2.81494 214.234H12.846" stroke="#3F3F3F" stroke-width="4" stroke-miterlimit="10" stroke-linecap="round"/>
</svg>
