<svg width="41" height="41" viewBox="0 0 41 41" fill="none" xmlns="http://www.w3.org/2000/svg">
<rect x="9" y="5" width="8" height="31" rx="4" fill="#E2A74D"/>
<path d="M25.7904 21.3226C24.2433 21.3226 22.9839 20.0631 22.9839 18.5161C22.9839 16.969 24.2433 15.7095 25.7904 15.7095C27.3375 15.7095 28.5969 16.969 28.5969 18.5161C28.5969 20.0631 27.3375 21.3226 25.7904 21.3226Z" stroke="black"/>
<path d="M20.5 0C9.1966 0 0 9.1959 0 20.5C0 31.8041 9.1966 41 20.5 41C31.8034 41 41 31.8041 41 20.5C41 9.1959 31.8034 0 20.5 0ZM20.5 39.6774C9.92525 39.6774 1.32261 31.0741 1.32261 20.5C1.32261 9.92595 9.92525 1.32261 20.5 1.32261C31.0748 1.32261 39.6774 9.92595 39.6774 20.5C39.6774 31.0741 31.0748 39.6774 20.5 39.6774Z" fill="#333333"/>
<path d="M20.4999 4.62897C11.7491 4.62897 4.62891 11.749 4.62891 20.5C4.62891 29.2509 11.749 36.371 20.4999 36.371C29.2509 36.371 36.3709 29.2509 36.3709 20.5C36.3709 11.749 29.2507 4.62897 20.4999 4.62897ZM20.4999 35.0484C12.4778 35.0484 5.95151 28.5221 5.95151 20.5C5.95151 12.4778 12.4778 5.95157 20.4999 5.95157C28.5221 5.95157 35.0483 12.4778 35.0483 20.5C35.0483 28.5221 28.5221 35.0484 20.4999 35.0484Z" fill="#333333"/>
<path d="M13.8869 8.5968C12.4281 8.5968 11.2417 9.78318 11.2417 11.242V29.7581C11.2417 31.2169 12.4281 32.4033 13.8869 32.4033C15.3458 32.4033 16.5321 31.2169 16.5321 29.7581V11.2419C16.5321 9.78318 15.3458 8.5968 13.8869 8.5968ZM12.5643 22.7398L15.2095 23.6214V26.1958L12.5643 25.3142V22.7398ZM12.5643 21.3464V18.772L15.2095 19.6536V22.228L12.5643 21.3464ZM12.5643 17.3787V14.8043L15.2095 15.6859V18.2603L12.5643 17.3787ZM13.8869 9.91941C14.6163 9.91941 15.2095 10.5125 15.2095 11.242V14.2926L12.5643 13.411V11.2419C12.5643 10.5125 13.1576 9.91941 13.8869 9.91941ZM13.8869 31.0807C13.1576 31.0807 12.5643 30.4876 12.5643 29.7581V26.7075L15.2095 27.5891V29.7581C15.2095 30.4875 14.6163 31.0807 13.8869 31.0807Z" fill="#333333"/>
<path d="M30.7638 13.208C29.2813 11.8186 27.3378 11.1263 25.3069 11.2578C21.4992 11.5045 18.5161 14.7924 18.5161 18.743V26.2573C18.5161 29.1947 20.8168 31.6548 23.6438 31.74C23.6993 31.7414 23.7535 31.742 23.8085 31.742C25.1919 31.742 26.494 31.2157 27.49 30.2488C28.5262 29.2437 29.0968 27.8953 29.0968 26.4517C29.0968 26.2752 29.0882 26.1019 29.071 25.9286C29.0181 25.4035 29.235 24.9347 29.6502 24.6747C31.7882 23.3336 33.0645 21.0323 33.0645 18.516C33.0644 16.5131 32.2259 14.5781 30.7638 13.208ZM28.9478 23.5532C28.11 24.0789 27.653 25.0391 27.7549 26.0595C27.7674 26.1885 27.7741 26.3193 27.7741 26.4517C27.7741 27.5342 27.3462 28.5453 26.5692 29.2999C25.793 30.0539 24.762 30.4519 23.6841 30.4176C21.5634 30.3541 19.8387 28.488 19.8387 26.2574V18.7431C19.8387 15.4875 22.2783 12.7796 25.3929 12.5779C25.5272 12.5686 25.6607 12.5647 25.7936 12.5647C27.3133 12.5647 28.7444 13.1281 29.8592 14.1737C31.0734 15.311 31.7419 16.8532 31.7419 18.5163C31.7418 20.5734 30.697 22.4568 28.9478 23.5532Z" fill="#333333"/>
</svg>
