<svg width="40" height="34" viewBox="0 0 40 34" fill="none" xmlns="http://www.w3.org/2000/svg">
<path d="M34.5714 0.755066H5.42859C2.43523 0.755066 0 3.19038 0 6.18366C0 8.42678 1.40953 10.4673 3.51023 11.2616V30.7959C3.51023 32.1463 4.60883 33.2449 5.95922 33.2449H34.0409C35.3913 33.2449 36.4898 32.1463 36.4898 30.7959L36.4925 11.2612C38.5905 10.4673 40 8.42678 40 6.18366C40 3.19038 37.5648 0.755066 34.5714 0.755066ZM29.551 11.2616V30.7959C29.551 31.2461 29.1848 31.6122 28.7347 31.6122H5.95922C5.50906 31.6122 5.14289 31.2461 5.14289 30.7959V11.2616C5.14289 10.5875 4.71789 9.97374 4.08531 9.73428C2.61828 9.17905 1.63266 7.75218 1.63266 6.18366C1.63266 4.09061 3.33547 2.38772 5.42859 2.38772H29.2653C31.3584 2.38772 33.0612 4.09061 33.0612 6.18366C33.0612 7.75218 32.0756 9.17897 30.6085 9.73428C29.976 9.97374 29.551 10.5875 29.551 11.2616ZM35.9146 9.73428C35.2821 9.97374 34.8571 10.5875 34.8571 11.2616V30.7959C34.8571 31.2461 34.4909 31.6122 34.0408 31.6122H31.0432C31.1338 31.3567 31.1836 31.0821 31.1836 30.7959L31.1862 11.2612C33.2842 10.4673 34.6937 8.42678 34.6937 6.18366C34.6937 4.70725 34.1005 3.36733 33.1409 2.38772H34.5713C36.6645 2.38772 38.3673 4.09061 38.3673 6.18366C38.3673 7.75218 37.3817 9.17897 35.9146 9.73428Z" fill="black"/>
</svg>
