<svg width="40" height="40" viewBox="0 0 40 40" fill="none" xmlns="http://www.w3.org/2000/svg">
<path d="M34.5714 3.75513H5.42859C2.43523 3.75513 0 6.19044 0 9.18372C0 11.4268 1.40953 13.4673 3.51023 14.2617V33.796C3.51023 35.1464 4.60883 36.245 5.95922 36.245H34.0409C35.3913 36.245 36.4898 35.1464 36.4898 33.796L36.4925 14.2613C38.5905 13.4673 40 11.4268 40 9.18372C40 6.19044 37.5648 3.75513 34.5714 3.75513ZM29.551 14.2617V33.796C29.551 34.2461 29.1848 34.6123 28.7347 34.6123H5.95922C5.50906 34.6123 5.14289 34.2461 5.14289 33.796V14.2617C5.14289 13.5875 4.71789 12.9738 4.08531 12.7343C2.61828 12.1791 1.63266 10.7522 1.63266 9.18372C1.63266 7.09067 3.33547 5.38778 5.42859 5.38778H29.2653C31.3584 5.38778 33.0612 7.09067 33.0612 9.18372C33.0612 10.7522 32.0756 12.179 30.6085 12.7343C29.976 12.9738 29.551 13.5875 29.551 14.2617ZM35.9146 12.7343C35.2821 12.9738 34.8571 13.5875 34.8571 14.2617V33.796C34.8571 34.2461 34.4909 34.6123 34.0408 34.6123H31.0432C31.1338 34.3568 31.1836 34.0822 31.1836 33.796L31.1862 14.2613C33.2842 13.4673 34.6937 11.4268 34.6937 9.18372C34.6937 7.70731 34.1005 6.36739 33.1409 5.38778H34.5713C36.6645 5.38778 38.3673 7.09067 38.3673 9.18372C38.3673 10.7522 37.3817 12.179 35.9146 12.7343Z" fill="white"/>
<path d="M22.908 14.3418C22.5911 14.0213 22.0741 14.0186 21.7536 14.3356L21.7461 14.343C21.4256 14.6601 21.4228 15.177 21.74 15.4975C21.8997 15.6589 22.1099 15.7397 22.3203 15.7397C22.5277 15.7397 22.7353 15.6611 22.8944 15.5036L22.9019 15.4962C23.2224 15.1791 23.2252 14.6622 22.908 14.3418Z" fill="white"/>
<path d="M21.0667 16.1772C20.748 15.8584 20.2313 15.8584 19.9122 16.1772L11.7889 24.3004C11.4701 24.6191 11.4701 25.1361 11.7889 25.4548C11.9484 25.6143 12.1573 25.6939 12.3662 25.6939C12.5751 25.6939 12.784 25.6141 12.9434 25.4548L21.0667 17.3316C21.3854 17.0129 21.3854 16.496 21.0667 16.1772Z" fill="white"/>
<path d="M22.9262 19.6722C22.6075 19.3536 22.0905 19.3536 21.7717 19.6722L11.7684 29.6754C11.4496 29.9942 11.4496 30.5111 11.7684 30.8299C11.9278 30.9893 12.1367 31.0689 12.3455 31.0689C12.5545 31.0689 12.7634 30.9892 12.9227 30.8299L22.9262 20.8267C23.245 20.5079 23.245 19.991 22.9262 19.6722Z" fill="white"/>
</svg>
