<svg width="40" height="40" viewBox="0 0 40 40" fill="none" xmlns="http://www.w3.org/2000/svg">
<g clip-path="url(#clip0)">
<path d="M10.2655 4.02837C12.8661 1.43063 16.3143 0 19.9975 0C23.6806 0 27.1389 1.43063 29.7395 4.02837C32.3426 6.62861 33.7715 10.0921 33.7715 13.7809V14.3954H6.24135V13.7809C6.24135 10.0921 7.66253 6.62861 10.2655 4.02837ZM17.5483 13.1664V12.511H18.6954V13.1664H32.5371C32.4284 10.889 31.7166 8.72431 30.4792 6.85744H29.4289V5.62845H29.551C29.3363 5.37767 29.1116 5.13376 28.8756 4.8979C26.5071 2.53196 23.355 1.22899 19.9998 1.22899C16.6447 1.22899 13.4925 2.53188 11.1241 4.8979C10.3551 5.66603 9.69831 6.51712 9.16175 7.43103H9.35495V8.66002H8.52956C7.90214 10.0673 7.53776 11.5899 7.46253 13.1664H17.5483Z" fill="white"/>
<path d="M9.65523 16.9353H23.7758V18.1644H16.8933V18.656H15.6643V18.1644H9.65523C8.76929 18.1644 8.12632 18.7892 8.12632 19.6501V19.6623C8.12632 20.5531 8.81218 21.278 9.65523 21.278H12.5508V20.6225H13.7798V21.278H29.4293V20.6225H30.6583V21.2459C31.3942 21.0954 31.9682 20.4295 31.9693 19.6577C31.9679 18.8202 31.255 18.1644 30.3452 18.1644H29.4293V16.9354H30.3452C31.9435 16.9354 33.1959 18.1297 33.1982 19.6553C33.1982 19.656 33.1982 19.6568 33.1982 19.6575C33.1982 19.6582 33.1982 19.6591 33.1982 19.6598C33.1957 21.2036 31.8901 22.5069 30.3452 22.5069H9.65507C8.13437 22.5069 6.89717 21.2309 6.89717 19.6623V19.65C6.89725 18.1024 8.08296 16.9353 9.65523 16.9353Z" fill="white"/>
<path d="M23.4485 14.9462C24.6516 14.9462 25.6305 15.925 25.6305 17.1281V18.382C25.6305 18.9075 26.0579 19.3349 26.5834 19.3349C27.1088 19.3349 27.5363 18.9075 27.5363 18.382V17.1281C27.5363 15.925 28.5152 14.9462 29.7182 14.9462H32.5396V16.1752H29.7181C29.1927 16.1752 28.7652 16.6026 28.7652 17.128V18.382C28.7652 19.5851 27.7864 20.5639 26.5833 20.5639C25.3802 20.5639 24.4013 19.5851 24.4013 18.382V17.128C24.4013 16.6026 23.9739 16.1752 23.4484 16.1752H7.46067V14.9462H23.4485Z" fill="white"/>
<path d="M29.4287 10.5442H30.6577V11.7732H29.4287V10.5442Z" fill="white"/>
<path d="M28.1178 8.7417H29.4287V9.97069H28.1178V8.7417Z" fill="white"/>
<path d="M21.3172 10.5442H22.4644V11.7732H21.3172V10.5442Z" fill="white"/>
<path d="M24.4307 9.39709H25.6597V10.6261H24.4307V9.39709Z" fill="white"/>
<path d="M20.0064 6.20166H21.3174V7.43065H20.0064V6.20166Z" fill="white"/>
<path d="M15.5816 9.39709H16.8926V10.6261H15.5816V9.39709Z" fill="white"/>
<path d="M12.4684 5.62817H13.7793V6.85716H12.4684V5.62817Z" fill="white"/>
<path d="M16.8924 4.3175H18.0396V5.54649H16.8924V4.3175Z" fill="white"/>
<path d="M10.5835 10.5442H11.8125V11.7732H10.5835V10.5442Z" fill="white"/>
<path d="M25.0044 4.3175H26.2334V5.54649H25.0044V4.3175Z" fill="white"/>
<path d="M23.7754 6.20166H25.0044V7.43065H23.7754V6.20166Z" fill="white"/>
<path d="M21.3172 1.8595H22.4644V3.08848H21.3172V1.8595Z" fill="white"/>
<path d="M7.46075 23.0968H16.8528V24.9652C16.8528 24.9721 16.8583 24.9777 16.8652 24.9777C17.5498 24.9777 18.1067 25.5345 18.1067 26.2192C18.1067 26.226 18.1123 26.2316 18.1191 26.2316H18.7461C18.753 26.2316 18.7585 26.226 18.7585 26.2192C18.7585 25.5346 19.3154 24.9777 20 24.9777C20.0068 24.9777 20.0124 24.9721 20.0124 24.9652V23.0968H32.5396V24.3258H21.2416V24.9652C21.2416 25.6498 20.6847 26.2067 20.0001 26.2067C19.9932 26.2067 19.9877 26.2123 19.9877 26.2192C19.9877 26.9037 19.4308 27.4606 18.7462 27.4606H18.1192C17.4348 27.4606 16.8777 26.9038 16.8777 26.2192C16.8777 26.2123 16.8722 26.2067 16.8653 26.2067C16.1808 26.2067 15.6238 25.6499 15.6238 24.9652V24.3258H7.46075V23.0968Z" fill="white"/>
<path d="M29.429 25.0466H32.5425V26.2756H29.429V25.0466Z" fill="white"/>
<path d="M25.6599 25.0466H28.7734V26.2756H25.6599V25.0466Z" fill="white"/>
<path d="M21.8909 25.0466H25.0044V26.2756H21.8909V25.0466Z" fill="white"/>
<path d="M11.239 25.0466H14.3525V26.2756H11.239V25.0466Z" fill="white"/>
<path d="M7.46997 25.0466H10.5835V26.2756H7.46997V25.0466Z" fill="white"/>
<path d="M9.34134 26.8585H16.2381V28.0875H13.7795V28.7339H12.5505V28.0875H9.34142C8.64314 28.0875 8.07501 28.6556 8.07501 29.3539C8.07501 30.0522 8.64314 30.6203 9.34142 30.6203H25.0864V29.963H26.3154V30.6203H30.6583C31.3567 30.6203 31.9248 30.0522 31.9248 29.3539C31.9248 28.6556 31.3567 28.0875 30.6583 28.0875H20.6268V26.8585H30.6583C32.0344 26.8585 33.1538 27.978 33.1538 29.3539C33.1538 30.7299 32.0344 31.8493 30.6583 31.8493H9.34134C7.9654 31.8493 6.84595 30.7299 6.84595 29.3539C6.84595 27.978 7.9654 26.8585 9.34134 26.8585Z" fill="white"/>
<path d="M10.5953 34.3823C11.5885 34.3823 12.3966 35.1904 12.3966 36.1837V36.2508C12.3966 36.4387 12.4788 36.6164 12.6222 36.7383C12.7674 36.8619 12.9539 36.9125 13.1479 36.881C13.4437 36.8329 13.6754 36.5265 13.6754 36.1837C13.6754 35.1904 14.4835 34.3823 15.4767 34.3823H33.7808V34.9969C33.7808 37.7557 31.5362 40.0002 28.7775 40.0002H11.2223C8.46345 40.0002 6.21899 37.7557 6.21899 34.9969V34.3823H10.5953ZM11.2222 38.7712H28.7774C30.6494 38.7712 32.2073 37.4013 32.5016 35.6114H15.4767C15.1611 35.6114 14.9044 35.8682 14.9044 36.1837C14.9044 37.1283 14.2341 37.9496 13.3452 38.0941C12.7981 38.1832 12.2442 38.0302 11.826 37.6745C11.4076 37.3187 11.1675 36.7997 11.1675 36.2508V36.1837C11.1675 35.8681 10.9107 35.6114 10.5952 35.6114H7.4979C7.79228 37.4012 9.35025 38.7712 11.2222 38.7712Z" fill="white"/>
<path d="M7.4704 32.5847H32.5425V33.8137H7.4704V32.5847Z" fill="white"/>
<path d="M20.0064 19.3932H21.3174V20.6222H20.0064V19.3932Z" fill="white"/>
<path d="M9.35451 19.3932H10.5835V20.6222H9.35451V19.3932Z" fill="white"/>
<path d="M29.4287 28.8157H30.6577V30.0447H29.4287V28.8157Z" fill="white"/>
<path d="M20.0064 28.8157H21.3174V30.0447H20.0064V28.8157Z" fill="white"/>
<path d="M9.43654 29.9628H10.6655V30.6182H9.43654V29.9628Z" fill="white"/>
</g>
<defs>
<clipPath id="clip0">
<rect width="40" height="40" fill="white" transform="matrix(-1 0 0 1 40 0)"/>
</clipPath>
</defs>
</svg>
