<svg width="70" height="55" viewBox="0 0 70 55" fill="none" xmlns="http://www.w3.org/2000/svg">
<ellipse cx="32" cy="43.6667" rx="32" ry="11" fill="url(#paint0_linear)"/>
<path d="M30.924 30.3116L34.2036 2.66678L62.2036 13.6668L30.924 30.3116Z" fill="url(#paint1_linear)"/>
<path d="M28.5054 31.1112C28.5069 31.0919 28.5105 31.0726 28.5165 31.0536L28.5054 31.1112ZM28.5054 31.1112C28.5022 31.1531 28.5095 31.1949 28.526 31.2328M28.5054 31.1112L28.526 31.2328M28.526 31.2328L28.7768 31.8157C28.8059 31.8834 28.8627 31.9349 28.9322 31.9566C29.0017 31.9783 29.077 31.968 29.1381 31.9285L57.6069 13.5159C57.6651 13.4782 57.705 13.4175 57.7171 13.3485C57.7292 13.2794 57.7123 13.2082 57.6705 13.152L57.2819 12.6297L28.526 31.2328ZM57.1631 12.542C57.1639 12.5423 57.1648 12.5426 57.1656 12.5429L57.1631 12.542ZM57.1631 12.542L38.248 5.73339C38.242 5.73123 38.2359 5.7293 38.2298 5.72761C37.6479 5.56788 37.1738 5.53866 36.8036 5.78998C36.4465 6.03242 36.2585 6.49104 36.1033 7.07746L28.5167 31.0532L57.1631 12.542Z" stroke="black" stroke-width="0.5" stroke-linejoin="round"/>
<line y1="-0.25" x2="33.8163" y2="-0.25" transform="matrix(0.838537 -0.544844 0.532068 0.846702 28.748 31.1954)" stroke="black" stroke-width="0.5"/>
<path fill-rule="evenodd" clip-rule="evenodd" d="M32.0239 30.0743V42.0456C32.0239 42.4979 32.3906 42.8646 32.8429 42.8646C33.2952 42.8646 33.6618 42.4979 33.6618 42.0456V29.0095L33.1618 29.3346V42.0456C33.1618 42.2218 33.019 42.3646 32.8429 42.3646C32.6667 42.3646 32.5239 42.2218 32.5239 42.0456V29.7492L32.0239 30.0743Z" fill="black"/>
<path fill-rule="evenodd" clip-rule="evenodd" d="M35.606 27.4718V30.9744C35.606 31.4266 35.9726 31.7933 36.4249 31.7933C36.8772 31.7933 37.2439 31.4266 37.2439 30.9744V26.4071L36.7439 26.7321V30.9744C36.7439 31.1505 36.6011 31.2933 36.4249 31.2933C36.2488 31.2933 36.106 31.1505 36.106 30.9744V27.1468L35.606 27.4718Z" fill="black"/>
<path fill-rule="evenodd" clip-rule="evenodd" d="M39.9062 24.7008V34.6444C39.9062 35.0967 40.2729 35.4633 40.7252 35.4633C41.1775 35.4633 41.5442 35.0967 41.5442 34.6444V23.8048L41.0442 24.0783V34.6444C41.0442 34.8205 40.9014 34.9633 40.7252 34.9633C40.549 34.9633 40.4062 34.8205 40.4062 34.6444V24.4273L39.9062 24.7008Z" fill="black"/>
<path d="M2.77866 44.3817C-1.11208 49.2718 12.9644 52.7092 34.2059 53.2817C58.3138 53.2817 72.6967 48.6496 68.2949 44.3817M2.77866 44.3817C1.63294 43.0301 1.82353 42.308 2.88101 41.0507M2.77866 44.3817C6.65679 47.6869 18.3388 49.8466 34.2059 50.1069C50.3291 50.3713 65.019 47.6086 68.2949 44.3817M68.2949 44.3817C69.2444 43.273 69.3594 42.5203 68.4996 40.8425L68.4484 40.7905M68.4484 40.7905C68.8576 40.3017 69.0227 40.0018 69.1138 39.3852L67.4759 39.3852M68.4484 40.7905C64.456 44.8501 50.3291 46.932 34.2059 46.932C21.0098 46.7143 7.53882 45.1104 2.88101 41.0507M55.7035 32.8273L35.5367 39.3852L38.0448 39.3852M55.7035 32.8273C55.8791 33.1935 55.8589 33.3849 55.7035 33.7121M55.7035 32.8273C47.0519 31.931 42.4521 31.6396 34.9737 31.7343C10.8658 31.9946 -1.41848 36.887 2.88101 41.0507M55.7035 33.7121L38.0448 39.3852M55.7035 33.7121C61.5549 34.8415 64.1887 36.0353 67.4759 39.3852M38.0448 39.3852L67.4759 39.3852" stroke="black" stroke-width="0.5"/>
<path d="M12.95 38.5C12.95 38.5404 12.916 38.5933 12.8174 38.6516C12.7221 38.7079 12.5809 38.7603 12.4021 38.805C12.0452 38.8943 11.5494 38.95 11 38.95C10.4506 38.95 9.95484 38.8943 9.59791 38.805C9.41907 38.7603 9.27788 38.7079 9.18261 38.6516C9.08399 38.5933 9.05 38.5404 9.05 38.5C9.05 38.4596 9.08399 38.4067 9.18261 38.3484C9.27788 38.2921 9.41907 38.2397 9.59791 38.195C9.95484 38.1057 10.4506 38.05 11 38.05C11.5494 38.05 12.0452 38.1057 12.4021 38.195C12.5809 38.2397 12.7221 38.2921 12.8174 38.3484C12.916 38.4067 12.95 38.4596 12.95 38.5Z" stroke="black" stroke-width="0.1"/>
<path d="M18.95 36C18.95 36.1095 18.86 36.2281 18.6602 36.3462C18.4637 36.4623 18.1761 36.5686 17.8163 36.6586C17.0974 36.8383 16.1017 36.95 15 36.95C13.8983 36.95 12.9026 36.8383 12.1837 36.6586C11.8239 36.5686 11.5363 36.4623 11.3398 36.3462C11.14 36.2281 11.05 36.1095 11.05 36C11.05 35.8905 11.14 35.7719 11.3398 35.6538C11.5363 35.5377 11.8239 35.4314 12.1837 35.3414C12.9026 35.1617 13.8983 35.05 15 35.05C16.1017 35.05 17.0974 35.1617 17.8163 35.3414C18.1761 35.4314 18.4637 35.5377 18.6602 35.6538C18.86 35.7719 18.95 35.8905 18.95 36Z" stroke="black" stroke-width="0.1"/>
<defs>
<linearGradient id="paint0_linear" x1="4.91069" y1="38.0567" x2="62.8238" y2="48.125" gradientUnits="userSpaceOnUse">
<stop stop-color="#FFE39A" stop-opacity="0.29"/>
<stop offset="1" stop-color="#FFCF23" stop-opacity="0.94"/>
</linearGradient>
<linearGradient id="paint1_linear" x1="34.6566" y1="22.0808" x2="58.3578" y2="23.091" gradientUnits="userSpaceOnUse">
<stop stop-color="#FFF5DB" stop-opacity="0.29"/>
<stop offset="0.816657" stop-color="#DFAE00" stop-opacity="0.57"/>
</linearGradient>
</defs>
</svg>
