<svg width="69" height="54" viewBox="0 0 69 54" fill="none" xmlns="http://www.w3.org/2000/svg">
<path d="M27.5054 31.1112C27.5069 31.0919 27.5105 31.0726 27.5165 31.0536L27.5054 31.1112ZM27.5054 31.1112C27.5022 31.1531 27.5095 31.1949 27.526 31.2328M27.5054 31.1112L27.526 31.2328M27.526 31.2328L27.7768 31.8157C27.8059 31.8834 27.8627 31.9349 27.9322 31.9566C28.0017 31.9783 28.077 31.968 28.1381 31.9285L56.6069 13.5159C56.6651 13.4782 56.705 13.4175 56.7171 13.3485C56.7292 13.2794 56.7123 13.2082 56.6705 13.152L56.2819 12.6297L27.526 31.2328ZM56.1631 12.542C56.1639 12.5423 56.1648 12.5426 56.1656 12.5429L56.1631 12.542ZM56.1631 12.542L37.248 5.73339C37.242 5.73123 37.2359 5.7293 37.2298 5.72761C36.6479 5.56788 36.1738 5.53866 35.8036 5.78998C35.4465 6.03242 35.2585 6.49104 35.1033 7.07746L27.5167 31.0532L56.1631 12.542Z" stroke="white" stroke-width="0.5" stroke-linejoin="round"/>
<line y1="-0.25" x2="33.8163" y2="-0.25" transform="matrix(0.838537 -0.544844 0.532068 0.846702 27.748 31.1954)" stroke="white" stroke-width="0.5"/>
<path fill-rule="evenodd" clip-rule="evenodd" d="M31.0239 30.0743V42.0456C31.0239 42.4979 31.3906 42.8646 31.8429 42.8646C32.2952 42.8646 32.6618 42.4979 32.6618 42.0456V29.0095L32.1618 29.3346V42.0456C32.1618 42.2218 32.019 42.3646 31.8429 42.3646C31.6667 42.3646 31.5239 42.2218 31.5239 42.0456V29.7492L31.0239 30.0743Z" fill="white"/>
<path fill-rule="evenodd" clip-rule="evenodd" d="M34.606 27.4718V30.9744C34.606 31.4266 34.9726 31.7933 35.4249 31.7933C35.8772 31.7933 36.2439 31.4266 36.2439 30.9744V26.4071L35.7439 26.7321V30.9744C35.7439 31.1505 35.6011 31.2933 35.4249 31.2933C35.2488 31.2933 35.106 31.1505 35.106 30.9744V27.1468L34.606 27.4718Z" fill="white"/>
<path fill-rule="evenodd" clip-rule="evenodd" d="M38.9062 24.7008V34.6444C38.9062 35.0967 39.2729 35.4633 39.7252 35.4633C40.1775 35.4633 40.5442 35.0967 40.5442 34.6444V23.8048L40.0442 24.0783V34.6444C40.0442 34.8205 39.9014 34.9633 39.7252 34.9633C39.549 34.9633 39.4062 34.8205 39.4062 34.6444V24.4273L38.9062 24.7008Z" fill="white"/>
<path d="M1.77866 44.3817C-2.11208 49.2718 11.9644 52.7092 33.2059 53.2817C57.3138 53.2817 71.6967 48.6496 67.2949 44.3817M1.77866 44.3817C0.632937 43.0301 0.823532 42.308 1.88101 41.0507M1.77866 44.3817C5.65679 47.6869 17.3388 49.8466 33.2059 50.1069C49.3291 50.3713 64.019 47.6086 67.2949 44.3817M67.2949 44.3817C68.2444 43.273 68.3594 42.5203 67.4996 40.8425L67.4484 40.7905M67.4484 40.7905C67.8576 40.3017 68.0227 40.0018 68.1138 39.3852L66.4759 39.3852M67.4484 40.7905C63.456 44.8501 49.3291 46.932 33.2059 46.932C20.0098 46.7143 6.53882 45.1104 1.88101 41.0507M54.7035 32.8273L34.5367 39.3852L37.0448 39.3852M54.7035 32.8273C54.8791 33.1935 54.8589 33.3849 54.7035 33.7121M54.7035 32.8273C46.0519 31.931 41.4521 31.6396 33.9737 31.7343C9.86579 31.9946 -2.41848 36.887 1.88101 41.0507M54.7035 33.7121L37.0448 39.3852M54.7035 33.7121C60.5549 34.8415 63.1887 36.0353 66.4759 39.3852M37.0448 39.3852L66.4759 39.3852" stroke="white" stroke-width="0.5"/>
</svg>
