<svg width="37" height="14" viewBox="0 0 37 14" fill="none" xmlns="http://www.w3.org/2000/svg">
<g opacity="0.4">
<path d="M4.73028 12.6592C6.48533 12.6592 7.90808 11.2422 7.90808 9.49438C7.90808 7.74651 6.48533 6.32959 4.73028 6.32959C2.97524 6.32959 1.55249 7.74651 1.55249 9.49438C1.55249 11.2422 2.97524 12.6592 4.73028 12.6592Z" fill="#181926"/>
<path d="M22.5643 12.6592C24.3193 12.6592 25.7421 11.2422 25.7421 9.49438C25.7421 7.74651 24.3193 6.32959 22.5643 6.32959C20.8092 6.32959 19.3865 7.74651 19.3865 9.49438C19.3865 11.2422 20.8092 12.6592 22.5643 12.6592Z" fill="#181926"/>
<path d="M18.0121 10.9981C17.7212 11.4278 17.3288 11.7798 16.8694 12.0231C16.4099 12.2665 15.8975 12.3938 15.3772 12.3938C14.8568 12.3938 14.3444 12.2665 13.8849 12.0231C13.4255 11.7798 13.0331 11.4278 12.7422 10.9981L12.6072 10.7739L18.0556 10.9259L18.0121 10.995V10.9981Z" fill="#181926"/>
<path d="M35.7972 10.9985C35.5064 11.4282 35.1141 11.7803 34.6547 12.0236C34.1953 12.267 33.683 12.3943 33.1626 12.3943C32.6423 12.3943 32.1299 12.267 31.6706 12.0236C31.2112 11.7803 30.8189 11.4282 30.5281 10.9985H35.7972Z" fill="#181926"/>
<path d="M21.9463 11.5692C22.872 11.5692 23.6225 10.6405 23.6225 9.49481C23.6225 8.34915 22.872 7.42041 21.9463 7.42041C21.0205 7.42041 20.27 8.34915 20.27 9.49481C20.27 10.6405 21.0205 11.5692 21.9463 11.5692Z" fill="#F6F6F6"/>
<path d="M4.09874 11.5692C5.02452 11.5692 5.775 10.6405 5.775 9.49481C5.775 8.34915 5.02452 7.42041 4.09874 7.42041C3.17297 7.42041 2.42249 8.34915 2.42249 9.49481C2.42249 10.6405 3.17297 11.5692 4.09874 11.5692Z" fill="#F6F6F6"/>
<path d="M24.274 11.2271C25.0843 10.0523 24.5029 6.53727 22.1682 6.56234C19.3482 6.59263 19.1178 9.94235 19.761 10.9778L6.57528 10.7742C7.15438 9.92165 6.75076 6.5517 4.26193 6.53803C1.91154 6.53803 1.56558 9.20967 1.56558 9.20967L0.394409 9.09797L0.575997 4.34965C0.575997 4.34965 5.0127 2.46446 6.27009 1.15827C7.52747 -0.147914 22.1835 -0.326479 24.1184 0.507079C26.0533 1.34064 28.2735 3.8056 29.5477 4.09586C30.8219 4.38613 35.7713 4.92562 36.4626 6.55854C37.1538 8.19147 36.1574 11.2271 36.1574 11.2271H24.274Z" fill="#FCD537"/>
<path d="M6.33283 3.1926C7.10649 3.23516 19.0677 3.69411 19.0677 3.69411C19.0677 3.69411 18.178 1.57564 15.616 0.615948C14.7317 0.214746 8.26392 0.691933 7.62607 0.927487C6.98823 1.16304 6.20007 1.56728 5.73008 2.06043C5.26008 2.55357 5.69498 3.15385 6.33283 3.1926Z" fill="#181926"/>
<path d="M20.1311 3.69077L28.7184 3.86098C27.4976 2.63762 25.7138 0.989501 23.759 0.713674C21.8043 0.437848 16.9983 0.380859 16.9983 0.380859C16.9983 0.380859 19.0255 1.25925 20.1311 3.69077Z" fill="#181926"/>
<path d="M25.2902 5.61448C25.8693 5.64412 29.8787 5.76645 30.8988 5.76645C31.9189 5.76645 34.143 5.73226 35.44 5.61448C36.1435 6.00353 36.3312 6.33026 36.3312 6.33026C36.3312 6.33026 32.9413 6.51263 31.3192 6.53542C29.6971 6.55822 25.7411 6.39713 25.2917 6.33026C24.8866 6.271 24.7782 5.58865 25.2902 5.61448Z" fill="white"/>
<path d="M25.2905 6.66313C25.8696 6.67149 29.8683 6.8151 30.8877 6.8151C31.907 6.8151 35.1657 6.59246 36.4627 6.56055C36.5482 6.80066 36.5306 6.74139 36.5306 6.74139C36.5306 6.74139 32.9301 7.02406 31.3073 7.03014C29.6844 7.03622 25.7414 6.88349 25.2905 6.86525C24.8868 6.84625 24.7785 6.65629 25.2905 6.66313Z" fill="#E4B91E"/>
<path d="M36.7068 12.3945H0V13.0017H36.7068V12.3945Z" fill="#0A0A0F"/>
</g>
</svg>
