<svg width="27" height="22" viewBox="0 0 27 22" fill="none" xmlns="http://www.w3.org/2000/svg">
<path d="M8.50969 0C3.8656 0 0 3.72711 0 8.35404C0 12.3999 3.03291 15.729 6.86937 16.528L6.38906 20.345C6.36832 20.517 6.4001 20.6912 6.48029 20.8451C6.56047 20.9989 6.68535 21.1253 6.83872 21.2078C6.9921 21.2902 7.16689 21.3251 7.34042 21.3076C7.51395 21.2902 7.6782 21.2214 7.81187 21.1101L13.0772 16.708H17.5903C22.2344 16.708 26.1 12.981 26.1 8.35404C26.1 3.72711 22.2344 0 17.5903 0H8.50969ZM8.50969 1.72842H17.5903C21.3005 1.72842 24.36 4.68225 24.36 8.35404C24.36 12.0258 21.3005 14.9796 17.5903 14.9796H12.76C12.5551 14.9779 12.3561 15.048 12.1981 15.1777L8.38281 18.3645L8.69094 15.9429C8.70479 15.8293 8.69579 15.714 8.66446 15.6039C8.63313 15.4938 8.5801 15.3909 8.50844 15.3013C8.43678 15.2117 8.34792 15.1371 8.24701 15.0819C8.14611 15.0267 8.03516 14.9919 7.92063 14.9796C4.55109 14.6377 1.74 11.7767 1.74 8.35404C1.74 4.68225 4.79946 1.72842 8.50969 1.72842Z" fill="white"/>
<circle cx="8.05005" cy="8.76123" r="1.5" fill="white"/>
<circle cx="13.05" cy="8.76123" r="1.5" fill="white"/>
<circle cx="18.05" cy="8.76123" r="1.5" fill="white"/>
</svg>
