<svg width="20" height="20" viewBox="0 0 20 20" fill="none" xmlns="http://www.w3.org/2000/svg">
<path fill-rule="evenodd" clip-rule="evenodd" d="M0.833333 10C0.833333 15.0626 4.93739 19.1667 10 19.1667C15.0626 19.1667 19.1667 15.0626 19.1667 10C19.1667 4.93739 15.0626 0.833333 10 0.833333C4.93739 0.833333 0.833333 4.93739 0.833333 10ZM0 10C0 4.47715 4.47715 0 10 0C15.5228 0 20 4.47715 20 10C20 15.5228 15.5228 20 10 20C4.47715 20 0 15.5228 0 10Z" fill="#09B44D"/>
<path fill-rule="evenodd" clip-rule="evenodd" d="M9.99999 15.8334C6.77833 15.8334 4.16666 13.2217 4.16666 10C4.16666 6.77836 6.77833 4.16669 9.99999 4.16669C13.2217 4.16669 15.8333 6.77836 15.8333 10C15.8333 13.2217 13.2217 15.8334 9.99999 15.8334Z" fill="#09B44D"/>
</svg>
