<svg width="11" height="11" viewBox="0 0 11 11" fill="none" xmlns="http://www.w3.org/2000/svg">
<path d="M5.125 0.75C2.29481 0.75 0 3.04481 0 5.875C0 8.70519 2.29481 11 5.125 11C7.95519 11 10.25 8.70519 10.25 5.875C10.25 3.04481 7.95519 0.75 5.125 0.75ZM5.125 10.1306C2.77528 10.1306 0.86942 8.22472 0.86942 5.875C0.86942 3.52528 2.77528 1.61942 5.125 1.61942C7.47472 1.61942 9.38058 3.52528 9.38058 5.875C9.38058 8.22472 7.47472 10.1306 5.125 10.1306Z" fill="black" fill-opacity="0.5"/>
<path d="M7.12338 7.32348L5.49208 6.14404V3.31271C5.49208 3.26237 5.45089 3.22119 5.40056 3.22119H4.85031C4.79997 3.22119 4.75879 3.26237 4.75879 3.31271V6.46321C4.75879 6.49295 4.77252 6.52041 4.79654 6.53757L6.68867 7.9172C6.72986 7.94694 6.78705 7.93779 6.8168 7.89775L7.14397 7.4516C7.17372 7.40928 7.16456 7.35208 7.12338 7.32348Z" fill="black" fill-opacity="0.5"/>
</svg>
