<svg width="40" height="40" viewBox="0 0 40 40" fill="none" xmlns="http://www.w3.org/2000/svg">
<circle cx="20" cy="20" r="20" fill="white"/>
<path fill-rule="evenodd" clip-rule="evenodd" d="M14.7071 13.2929C14.3166 12.9024 13.6834 12.9024 13.2929 13.2929C12.9024 13.6834 12.9024 14.3166 13.2929 14.7071L18.9571 20.3713L13.2933 26.035C12.9028 26.4255 12.9028 27.0587 13.2933 27.4492C13.6839 27.8397 14.317 27.8397 14.7075 27.4492L20.3713 21.7855L26.0208 27.435C26.4113 27.8256 27.0445 27.8256 27.435 27.435C27.8256 27.0445 27.8256 26.4113 27.435 26.0208L21.7855 20.3713L27.4355 14.7213C27.826 14.3308 27.826 13.6976 27.4355 13.3071C27.0449 12.9166 26.4118 12.9166 26.0213 13.3071L20.3713 18.9571L14.7071 13.2929Z" fill="black"/>
</svg>
