<svg width="15" height="15" viewBox="0 0 15 15" fill="none" xmlns="http://www.w3.org/2000/svg">
<path fill-rule="evenodd" clip-rule="evenodd" d="M0.662272 14.3376C0.296509 13.9718 0.296509 13.3788 0.662272 13.013L13.0132 0.662109C13.3789 0.296347 13.972 0.296346 14.3377 0.662109C14.7035 1.02787 14.7035 1.62089 14.3377 1.98665L1.98682 14.3376C1.62105 14.7033 1.02803 14.7033 0.662272 14.3376Z" fill="#424242"/>
<path fill-rule="evenodd" clip-rule="evenodd" d="M14.3377 14.3376C14.7035 13.9718 14.7035 13.3788 14.3377 13.013L1.98682 0.662109C1.62105 0.296347 1.02803 0.296346 0.662272 0.662109C0.29651 1.02787 0.29651 1.62089 0.662272 1.98665L13.0132 14.3376C13.3789 14.7033 13.972 14.7033 14.3377 14.3376Z" fill="#424242"/>
</svg>
