<svg width="37" height="37" viewBox="0 0 37 37" fill="none" xmlns="http://www.w3.org/2000/svg">
<circle cx="18.5" cy="18.5" r="18.5" fill="#FAFAFA"/>
<path fill-rule="evenodd" clip-rule="evenodd" d="M17.1086 12.8397C17.1086 12.6521 17.2607 12.5 17.4483 12.5H19.6276C19.8152 12.5 19.9673 12.6521 19.9673 12.8397C19.9673 12.9833 19.8781 13.1061 19.7521 13.1558H17.3238C17.1978 13.1061 17.1086 12.9833 17.1086 12.8397ZM15.6357 13.1558C15.6179 13.0531 15.6086 12.9474 15.6086 12.8397C15.6086 11.8236 16.4323 11 17.4483 11H19.6276C20.6436 11 21.4673 11.8236 21.4673 12.8397C21.4673 12.9474 21.458 13.0531 21.4402 13.1558H24.3258C24.74 13.1558 25.0758 13.4915 25.0758 13.9058C25.0758 14.3041 24.7652 14.63 24.373 14.6543V24.2656H23.6288C24.373 24.2656 24.373 24.2659 24.373 24.2663L24.373 24.2671L24.373 24.2686L24.373 24.2717L24.3729 24.2785L24.3725 24.2939C24.3722 24.305 24.3716 24.3176 24.3706 24.3318C24.3687 24.36 24.3654 24.3944 24.3598 24.4341C24.3485 24.5132 24.3276 24.6143 24.2891 24.7298C24.2113 24.9632 24.0633 25.2491 23.7901 25.5223C23.4491 25.8634 22.9969 25.9911 22.7258 26.0453C22.5759 26.0752 22.4429 26.09 22.3468 26.0973C22.2983 26.1011 22.2579 26.103 22.2279 26.1041L22.2078 26.1047L22.1907 26.105L22.1782 26.1052L22.1736 26.1052L22.1717 26.1052L22.1709 26.1052H22.1705C22.1703 26.1052 22.1701 26.1052 22.1701 25.3552V26.1052H14.5426V25.3589C14.5426 26.1052 14.5422 26.1052 14.5418 26.1052L14.5411 26.1052L14.5396 26.1052L14.5364 26.1052L14.5296 26.1051L14.5142 26.1047C14.5032 26.1044 14.4905 26.1038 14.4764 26.1029C14.4481 26.101 14.4137 26.0977 14.3741 26.092C14.2949 26.0807 14.1938 26.0598 14.0784 26.0213C13.8449 25.9435 13.559 25.7956 13.2858 25.5223C13.0126 25.2491 12.8646 24.9632 12.7868 24.7298C12.7483 24.6143 12.7274 24.5132 12.7161 24.4341C12.7105 24.3944 12.7072 24.36 12.7053 24.3318C12.7043 24.3176 12.7037 24.305 12.7034 24.2939L12.703 24.2785L12.7029 24.2717L12.7029 24.2686L12.7029 24.2671L12.7029 24.2663C12.7029 24.2659 12.7029 24.2656 13.4529 24.2656H12.7029V14.6543C12.3106 14.63 12 14.3042 12 13.9058C12 13.4915 12.3358 13.1558 12.75 13.1558H15.6357ZM17.1532 14.6558H14.2029V24.2312C14.2042 24.237 14.2064 24.2452 14.2098 24.2554C14.2228 24.2943 14.2565 24.3717 14.3465 24.4617C14.4364 24.5517 14.5138 24.5853 14.5527 24.5983C14.563 24.6017 14.5712 24.6039 14.5769 24.6052H22.1665L22.1762 24.605C22.1874 24.6046 22.2065 24.6037 22.2318 24.6018C22.2833 24.5978 22.3545 24.5898 22.4317 24.5744C22.6147 24.5378 22.7073 24.4839 22.7295 24.4617C22.8194 24.3717 22.8531 24.2943 22.8661 24.2554C22.8695 24.2452 22.8717 24.237 22.873 24.2312V14.6558H19.9227C19.8266 14.6713 19.7281 14.6793 19.6276 14.6793H17.4483C17.3478 14.6793 17.2493 14.6713 17.1532 14.6558ZM17.1085 16.6381C17.5227 16.6381 17.8585 16.9739 17.8585 17.3881V21.6996C17.8585 22.1138 17.5227 22.4496 17.1085 22.4496C16.6943 22.4496 16.3585 22.1138 16.3585 21.6996V17.3881C16.3585 16.9739 16.6943 16.6381 17.1085 16.6381ZM20.7643 17.3881C20.7643 16.9739 20.4286 16.6381 20.0143 16.6381C19.6001 16.6381 19.2643 16.9739 19.2643 17.3881V21.6996C19.2643 22.1138 19.6001 22.4496 20.0143 22.4496C20.4286 22.4496 20.7643 22.1138 20.7643 21.6996V17.3881Z" fill="#ACACAD"/>
</svg>
