<svg width="18" height="18" viewBox="0 0 18 18" fill="none" xmlns="http://www.w3.org/2000/svg">
<path fill-rule="evenodd" clip-rule="evenodd" d="M0 9C0 4.02944 4.02944 0 9 0C13.9706 0 18 4.02944 18 9C18 13.9706 13.9706 18 9 18C4.02944 18 0 13.9706 0 9Z" fill="#50B561"/>
<path d="M7.91552 10.9195L12.754 5.85339C13.0449 5.54887 13.5164 5.54887 13.8073 5.85339C14.0981 6.15791 14.0981 6.65164 13.8073 6.95616L7.91552 13.125L4.49352 9.54206C4.20268 9.23754 4.20268 8.74381 4.49352 8.43929C4.78436 8.13477 5.25591 8.13477 5.54676 8.43929L7.91552 10.9195Z" fill="white"/>
</svg>
