<svg width="40" height="40" viewBox="0 0 40 40" fill="none" xmlns="http://www.w3.org/2000/svg">
<g clip-path="url(#clip0)">
<path d="M26.6318 30.3296C27.0136 30.3296 27.3226 30.0206 27.3226 29.6388V26.3583C27.3226 26.1317 27.2114 25.9192 27.0244 25.7903C26.839 25.6612 26.5995 25.6329 26.3877 25.7118C22.1573 27.3112 17.3832 27.2512 13.1879 25.5452C13.1049 25.5116 13.0167 25.494 12.9275 25.494H12.8163C12.4345 25.494 12.1255 25.8031 12.1255 26.1848V29.6388C12.1255 30.0206 12.4345 30.3296 12.8163 30.3296H26.6318ZM13.5071 27.1439C17.4885 28.5565 21.9219 28.6212 25.941 27.3307V28.9478H13.5071V27.1439Z" fill="black"/>
<path d="M39.4622 9.26114C39.3306 9.10055 39.1343 9.00745 38.9273 9.00745H1.07278C0.865639 9.00745 0.669337 9.10055 0.537908 9.26114C0.40704 9.42174 0.354506 9.63281 0.395449 9.83584C2.33024 19.3625 10.5759 26.277 20.0004 26.277C29.4252 26.277 37.67 19.3625 39.6046 9.83584C39.6458 9.63281 39.5932 9.42174 39.4622 9.26114ZM20.0004 24.8954C11.5047 24.8954 4.03695 18.8437 1.93614 10.389H38.0639C35.9633 18.8437 28.4956 24.8954 20.0004 24.8954Z" fill="black"/>
<path d="M35.6227 35.1648H14.7988C14.318 33.1816 11.8031 31.7108 8.67157 31.7108C5.18524 31.7108 2.45459 33.5316 2.45459 35.8554C2.45459 38.1793 5.18524 40 8.67157 40C11.8031 40 14.318 38.5292 14.7988 36.546H35.6227C36.0045 36.546 36.3135 36.237 36.3135 35.8552C36.3135 35.4735 36.0045 35.1648 35.6227 35.1648ZM8.67138 38.6188C6.05066 38.6188 3.836 37.3533 3.836 35.8556C3.836 34.3579 6.05066 33.0924 8.67138 33.0924C11.2921 33.0924 13.5068 34.3579 13.5068 35.8556C13.5068 37.3533 11.2923 38.6188 8.67138 38.6188Z" fill="black"/>
<path d="M18.812 6.38336C18.7047 6.80026 18.3905 6.98105 18.3891 6.98236C18.0491 7.15566 17.9135 7.57126 18.0863 7.91133C18.2084 8.15157 18.4512 8.28917 18.7029 8.28917C18.8081 8.28917 18.9147 8.26486 19.0151 8.2142C19.1014 8.17027 19.8623 7.75878 20.1362 6.77671C20.3804 5.90251 20.1551 4.89669 19.4656 3.78768C19.0751 3.15895 18.9483 2.62613 19.0885 2.2038C19.2822 1.61901 19.9493 1.34437 19.971 1.33559C20.3251 1.20005 20.5045 0.804077 20.371 0.447742C20.2368 0.0902849 19.8388 -0.0886304 19.4813 0.0435463C19.3505 0.0927153 18.1887 0.55898 17.7834 1.75025C17.4994 2.58463 17.6707 3.51566 18.2921 4.51606C18.7546 5.26088 18.9341 5.90644 18.812 6.38336Z" fill="black"/>
<path d="M22.2656 6.38336C22.1583 6.80026 21.8441 6.98105 21.8428 6.98236C21.5027 7.15566 21.3671 7.57126 21.5399 7.91133C21.662 8.15157 21.9048 8.28917 22.1565 8.28917C22.2617 8.28917 22.3683 8.26486 22.4687 8.2142C22.555 8.17027 23.316 7.75878 23.5898 6.77671C23.834 5.90251 23.6087 4.89669 22.9192 3.78768C22.5287 3.15895 22.4019 2.62613 22.5421 2.2038C22.7358 1.61901 23.4029 1.34437 23.4246 1.33559C23.7787 1.20005 23.9581 0.804077 23.8247 0.447742C23.691 0.0902849 23.2924 -0.0886304 22.9349 0.0435463C22.8041 0.0927153 21.6423 0.55898 21.237 1.75025C20.953 2.58463 21.1243 3.51566 21.7457 4.51606C22.2084 5.26088 22.3877 5.90644 22.2656 6.38336Z" fill="black"/>
</g>
<defs>
<clipPath id="clip0">
<rect width="40" height="40" fill="white"/>
</clipPath>
</defs>
</svg>
