<svg width="31" height="19" viewBox="0 0 31 19" fill="none" xmlns="http://www.w3.org/2000/svg">
<path d="M25.5129 10.0335C25.4505 10.4381 25.2045 10.8038 24.8218 10.9491L18.4837 13.3548C18.3232 13.4157 18.1441 13.3323 18.0875 13.1703C18.0335 13.0158 18.1127 12.8481 18.2548 12.7671C19.1438 12.26 19.57 11.1404 19.2127 10.1176L18.9987 9.50383C18.6063 8.37645 17.4088 7.79475 16.328 8.20529L15.5433 8.50212C14.9907 8.71075 14.6291 8.53683 14.4278 7.96052L14.3752 7.8054C14.1739 7.22909 14.3432 6.85456 14.8945 6.64463L14.9047 6.642C15.4587 6.43074 15.8176 6.60453 16.0189 7.18097C16.0976 7.4079 16.3482 7.525 16.5727 7.43974L17.6389 7.03493C17.8327 6.96134 17.9326 6.7467 17.864 6.55103C17.5202 5.56527 16.5656 5.00054 15.6094 5.14519C15.4405 5.17074 15.2666 5.08594 15.2103 4.92466C15.1537 4.76257 15.2365 4.58492 15.397 4.52398L21.7258 2.1213C22.1216 1.97102 22.5625 2.09487 22.8821 2.3726C23.4829 2.89473 24.2037 3.2489 24.9721 3.39936C25.376 3.47846 25.7385 3.73367 25.8741 4.1223L26.7498 6.63235C26.8798 7.00499 26.7707 7.41351 26.5237 7.72135C25.9943 8.38125 25.6441 9.18175 25.5129 10.0335Z" fill="#F4F8F8"/>
<path d="M5.10929 11.9545C4.97974 11.5835 5.08726 11.1767 5.33183 10.8692C5.84579 10.2228 6.18784 9.44349 6.32178 8.6145C6.3866 8.21334 6.63208 7.85162 7.01199 7.70742L13.3933 5.28527C13.5542 5.22422 13.7337 5.30792 13.7903 5.47036C13.8443 5.6252 13.7649 5.79307 13.6224 5.87432C12.735 6.38052 12.3091 7.50022 12.6664 8.52494L12.8459 9.03973C13.2395 10.1684 14.4357 10.7501 15.5179 10.3383L16.3013 10.0426C16.8552 9.83269 17.2167 10.0079 17.4167 10.5829L17.5039 10.8329C17.7065 11.4107 17.5385 11.7864 16.9834 11.9963L16.9269 12.0178C16.3756 12.2277 16.0127 12.0538 15.8115 11.4749C15.7138 11.1957 15.4051 11.0521 15.1287 11.1572L14.2124 11.5057C13.964 11.6002 13.8357 11.875 13.9229 12.1261C14.2782 13.1429 15.2842 13.7139 16.2719 13.517C16.4387 13.4838 16.6151 13.565 16.6712 13.7255C16.7257 13.8816 16.646 14.0529 16.4913 14.1116L10.1468 16.5198C9.74791 16.6712 9.30366 16.5443 8.98407 16.2617C8.38371 15.7307 7.66177 15.3686 6.89042 15.2129C6.48929 15.1319 6.1299 14.8774 5.99499 14.491L5.10929 11.9545Z" fill="#F4F8F8"/>
<path d="M29.9998 0.427734H1.87939C1.32711 0.427734 0.879395 0.87545 0.879395 1.42773V17.212C0.879395 17.7643 1.32711 18.212 1.8794 18.212H29.9998C30.5521 18.212 30.9998 17.7643 30.9998 17.212V1.42773C30.9998 0.87545 30.5521 0.427734 29.9998 0.427734Z" fill="#A2D0A5"/>
<path d="M29.0611 1.40649H2.81787C2.26559 1.40649 1.81787 1.85421 1.81787 2.40649V16.2329C1.81787 16.7852 2.26559 17.2329 2.81787 17.2329H29.0611C29.6134 17.2329 30.0611 16.7852 30.0611 16.2329V2.40649C30.0611 1.85421 29.6134 1.40649 29.0611 1.40649Z" fill="#F4F8F8"/>
<path d="M28.7226 3.8042C28.7226 3.25191 28.2749 2.8042 27.7226 2.8042H3.22581C3.1882 2.8042 3.15771 2.83469 3.15771 2.87229V7.64499V10.9534V15.7248C3.15771 15.7868 3.20798 15.837 3.26998 15.837H27.7226C28.2749 15.837 28.7226 15.3893 28.7226 14.837V3.8042Z" fill="#51CB82"/>
<path d="M24.7128 13.3841C24.5134 13.7528 24.1475 14.0196 23.7283 14.0196H14.2683C14.2223 14.0196 14.1768 14.0104 14.1344 13.9926C13.7905 13.8477 12.4504 12.6357 12.2638 12.3125C12.1654 12.1422 12.0919 11.9494 12.0732 11.733C12.0671 11.6624 12.0845 11.5922 12.1151 11.5282L12.5231 10.6772C12.5878 10.5423 12.6171 10.3938 12.6352 10.2453C12.7397 9.38861 13.3925 8.92336 13.0175 8.78616C12.7779 8.6985 12.5216 8.6384 12.345 8.45424C12.1684 8.27008 12.0002 8.05724 12.1827 7.87901C12.8552 7.2225 15.2337 5.59286 16.6958 4.62012C16.9976 4.62012 16.0692 5.23605 15.0903 5.92013C14.7182 6.18013 12.5355 5.56962 12.3987 5.13684C12.3178 4.88093 12.5088 4.62014 12.7772 4.62014H16.7151L16.6958 4.62012H23.7487C24.1647 4.62012 24.5286 4.883 24.7293 5.24738C25.1272 5.96964 25.7003 6.57218 26.389 6.99225C26.7322 7.20156 26.9787 7.55591 26.9787 7.95789V10.6406C26.9787 11.0425 26.7323 11.3968 26.3894 11.6062C25.6912 12.0327 25.1113 12.6474 24.7128 13.3841Z" fill="#F4F8F8"/>
<path d="M4.89895 7.94318C4.89893 7.54325 5.143 7.19028 5.48334 6.98024C6.16285 6.56087 6.72803 5.96274 7.12151 5.24767C7.32211 4.88311 7.68606 4.62012 8.10217 4.62012H14.8742C15.044 4.62012 15.1817 4.75778 15.1817 4.9276C15.1817 5.09587 15.0407 5.21865 14.8807 5.27087C14.434 5.4167 14.826 5.94917 15.0505 6.65281C15.1883 7.08489 14.8766 7.48881 14.4382 7.60509L13.8674 7.7565C13.4291 7.87279 13.1011 8.28109 13.2529 8.70847C13.5471 9.5369 14.3118 10.1269 15.2087 10.1269L16.0421 10.1282C16.6331 10.1282 16.9139 10.4224 16.9139 11.0335V11.2996C16.9139 11.9161 16.6332 12.2076 16.0421 12.2076H15.9831C15.3946 12.2076 15.1125 11.916 15.1125 11.2996C15.1125 11.0005 14.87 10.758 14.5709 10.758H13.6029C13.3384 10.758 13.124 10.9724 13.124 11.2369C13.124 12.3226 13.8867 13.2189 14.8813 13.3842C15.0465 13.4116 15.1818 13.5457 15.1818 13.7131C15.1818 13.8825 15.0446 14.0197 14.8752 14.0197H8.12342C7.70448 14.0197 7.33866 13.7533 7.13945 13.3848C6.74475 12.6546 6.17278 12.0435 5.48263 11.6169C5.14274 11.4068 4.89904 11.0541 4.89903 10.6545L4.89895 7.94318Z" fill="#F4F8F8"/>
</svg>
