<svg width="42" height="24" viewBox="0 0 42 24" fill="none" xmlns="http://www.w3.org/2000/svg">
<path d="M41.0967 23.4133L41.096 0.259804L28.555 0.259805L20.2646 0.259121L0.577133 0.259126V23.4133L41.0967 23.4133Z" fill="#B8B8B8"/>
<path d="M28.8464 19.8452C28.8464 19.3117 29.2775 18.8806 29.8109 18.8806L32.8016 18.8806C33.1734 17.0381 34.7232 15.4882 36.5644 15.1178L36.5637 9.13581C34.6769 8.75107 33.1863 7.26052 32.8016 5.37364L29.8109 5.37364C29.2775 5.37364 28.8464 4.94251 28.8464 4.40906C28.8464 4.14301 28.9541 3.90152 29.1288 3.72688C29.3034 3.55225 29.5449 3.44447 29.8109 3.44447L34.6339 3.44447L34.6339 4.40905C34.6346 6.00465 35.9327 7.30282 37.5283 7.3035L38.4929 7.3035L38.4929 16.9507L37.5283 16.9508C35.9825 16.9508 34.6352 18.298 34.6339 19.8452L34.6339 20.8098L29.8096 20.8098C29.2775 20.8098 28.8464 20.3787 28.8464 19.8452ZM7.622 20.8105L12.4449 20.8105C12.9784 20.8105 13.4095 20.3793 13.4095 19.8459C13.4095 19.3124 12.9784 18.8813 12.4449 18.8813L9.45431 18.8813C9.06956 16.9944 7.57902 15.5039 5.69214 15.1191L5.69146 9.13718C7.53468 8.76608 9.08457 7.21619 9.4543 5.37433L12.4449 5.37433C12.9784 5.37433 13.4095 4.94319 13.4095 4.40974C13.4095 3.87628 12.9784 3.44515 12.4449 3.44515L7.62063 3.44514V4.40973C7.62063 5.9569 6.27198 7.30282 4.72619 7.30418L3.7616 7.30418L3.7616 16.9514L4.72619 16.9514C6.32178 16.9521 7.61995 18.2503 7.62063 19.8459L7.622 20.8105ZM4.72823 20.8105C5.26169 20.8105 5.6935 20.3787 5.69282 19.8459C5.69282 19.3124 5.26101 18.8806 4.72823 18.8813C4.19477 18.8813 3.76296 19.3131 3.76364 19.8459C3.76296 20.3787 4.19477 20.8105 4.72823 20.8105ZM5.69282 4.40974C5.69282 3.87628 5.261 3.44447 4.72823 3.44515C4.19545 3.44583 3.76296 3.87696 3.76364 4.40973C3.76364 4.94319 4.19546 5.375 4.72823 5.37432C5.26032 5.37432 5.69214 4.94251 5.69282 4.40974ZM36.5637 19.8459C36.5637 20.3793 36.9956 20.8112 37.5283 20.8105C38.0618 20.8105 38.4936 20.3787 38.4929 19.8459C38.4929 19.3124 38.0611 18.8806 37.5283 18.8813C36.9962 18.8813 36.5644 19.3131 36.5637 19.8459ZM38.4936 4.41042C38.4936 3.87696 38.0618 3.44515 37.529 3.44583C36.9956 3.44583 36.5637 3.87764 36.5644 4.41042C36.5644 4.94387 36.9962 5.37569 37.529 5.37501C38.0618 5.37432 38.4936 4.94251 38.4936 4.41042Z" fill="white"/>
<path d="M20.3081 12.9846C20.2614 12.9846 20.2381 13.0067 20.2381 13.0509V14.4279C20.2381 14.4721 20.2614 14.4942 20.3081 14.4942H24.53C24.6468 14.4942 24.7052 14.5495 24.7052 14.6601V15.0914C24.7052 15.202 24.6468 15.2573 24.53 15.2573H20.3081C20.2614 15.2573 20.2381 15.2795 20.2381 15.3237V18.0444C20.2381 18.155 20.1797 18.2103 20.0629 18.2103H19.1694C19.0527 18.2103 18.9943 18.155 18.9943 18.0444V15.3237C18.9943 15.2795 18.9709 15.2573 18.9242 15.2573H17.4176C17.3008 15.2573 17.2424 15.202 17.2424 15.0914V14.6601C17.2424 14.5495 17.3008 14.4942 17.4176 14.4942H18.9242C18.9709 14.4942 18.9943 14.4721 18.9943 14.4279V13.0509C18.9943 13.0067 18.9709 12.9846 18.9242 12.9846H17.4176C17.3008 12.9846 17.2424 12.9293 17.2424 12.8187V12.1717C17.2424 12.0611 17.3008 12.0058 17.4176 12.0058H18.9242C18.9709 12.0058 18.9943 11.9837 18.9943 11.9394V6.74695C18.9943 6.63635 19.0527 6.58105 19.1694 6.58105H23.7767C24.4541 6.58105 25.0497 6.7193 25.5636 6.99579C26.0891 7.26122 26.4921 7.63725 26.7724 8.12387C27.0643 8.6105 27.2103 9.16901 27.2103 9.79941C27.2103 10.4298 27.0585 10.9883 26.7548 11.4749C26.4629 11.9505 26.0541 12.321 25.5286 12.5864C25.003 12.8519 24.4016 12.9846 23.7242 12.9846H20.3081ZM20.3081 7.6096C20.2614 7.6096 20.2381 7.63172 20.2381 7.67596V11.9394C20.2381 11.9837 20.2614 12.0058 20.3081 12.0058H23.6366C24.349 12.0058 24.9154 11.8067 25.3359 11.4086C25.7563 11.0104 25.9665 10.4796 25.9665 9.81599C25.9665 9.14136 25.7563 8.60497 25.3359 8.20682C24.9154 7.80867 24.349 7.6096 23.6366 7.6096H20.3081Z" fill="white"/>
</svg>
