<svg width="21" height="14" viewBox="0 0 21 14" fill="none" xmlns="http://www.w3.org/2000/svg">
<path fill-rule="evenodd" clip-rule="evenodd" d="M6.41299 3L6.35954 2.66546C6.20852 1.72031 5.42402 1 4.48115 1C3.53829 1 2.75378 1.72031 2.60277 2.66546L2.54932 3L2.60277 3.33454C2.75378 4.27969 3.53829 5 4.48115 5C5.42402 5 6.20852 4.27969 6.35954 3.33454L6.41299 3ZM7.29879 2.5H20.1954C20.4584 2.5 20.6716 2.72386 20.6716 3C20.6716 3.27614 20.4584 3.5 20.1954 3.5H7.29879C7.07209 4.91886 5.89687 6 4.48115 6C3.06544 6 1.89022 4.91886 1.66352 3.5H1.14782C0.884829 3.5 0.671631 3.27614 0.671631 3C0.671631 2.72386 0.884829 2.5 1.14782 2.5H1.66352C1.89022 1.08114 3.06544 0 4.48115 0C5.89687 0 7.07209 1.08114 7.29879 2.5ZM14.9837 10.6655L14.9303 11L14.9837 11.3345C15.1347 12.2797 15.9192 13 16.8621 13C17.805 13 18.5895 12.2797 18.7405 11.3345L18.7939 11L18.7405 10.6655C18.5895 9.72031 17.805 9 16.8621 9C15.9192 9 15.1347 9.72031 14.9837 10.6655ZM19.6797 10.5H20.1954C20.4584 10.5 20.6716 10.7239 20.6716 11C20.6716 11.2761 20.4584 11.5 20.1954 11.5H19.6797C19.453 12.9189 18.2778 14 16.8621 14C15.4464 14 14.2712 12.9189 14.0445 11.5H1.14782C0.884829 11.5 0.671631 11.2761 0.671631 11C0.671631 10.7239 0.884829 10.5 1.14782 10.5H14.0445C14.2712 9.08114 15.4464 8 16.8621 8C18.2778 8 19.453 9.08114 19.6797 10.5Z" fill="black"/>
</svg>
