<svg width="24" height="24" viewBox="0 0 24 24" fill="none" xmlns="http://www.w3.org/2000/svg">
<path d="M2 12.5C2 12.805 2.12511 13.0975 2.34781 13.3132C2.57051 13.5288 2.87256 13.65 3.1875 13.65H12.2006L9.46938 16.2835C9.35807 16.3904 9.26973 16.5176 9.20944 16.6577C9.14915 16.7979 9.11811 16.9482 9.11811 17.1C9.11811 17.2518 9.14915 17.4021 9.20944 17.5423C9.26973 17.6824 9.35807 17.8096 9.46938 17.9165C9.57977 18.0243 9.71111 18.1098 9.85581 18.1682C10.0005 18.2266 10.1557 18.2567 10.3125 18.2567C10.4693 18.2567 10.6245 18.2266 10.7692 18.1682C10.9139 18.1098 11.0452 18.0243 11.1556 17.9165L15.9056 13.3165C16.0137 13.2071 16.0985 13.0782 16.155 12.937C16.2738 12.657 16.2738 12.343 16.155 12.063C16.0985 11.9218 16.0137 11.7929 15.9056 11.6835L11.1556 7.0835C11.0449 6.97628 10.9135 6.89122 10.7688 6.83319C10.6241 6.77516 10.4691 6.74529 10.3125 6.74529C10.1559 6.74529 10.0009 6.77516 9.8562 6.83319C9.71154 6.89122 9.5801 6.97628 9.46938 7.0835C9.35865 7.19072 9.27083 7.31802 9.2109 7.45811C9.15098 7.59821 9.12014 7.74836 9.12014 7.9C9.12014 8.05164 9.15098 8.20179 9.2109 8.34189C9.27083 8.48198 9.35865 8.60928 9.46938 8.7165L12.2006 11.35H3.1875C2.87256 11.35 2.57051 11.4712 2.34781 11.6868C2.12511 11.9025 2 12.195 2 12.5ZM17.4375 1H5.5625C4.61767 1 3.71153 1.36348 3.04343 2.01048C2.37533 2.65748 2 3.535 2 4.45V7.9C2 8.205 2.12511 8.49751 2.34781 8.71317C2.57051 8.92884 2.87256 9.05 3.1875 9.05C3.50244 9.05 3.80449 8.92884 4.02719 8.71317C4.24989 8.49751 4.375 8.205 4.375 7.9V4.45C4.375 4.145 4.50011 3.85249 4.72281 3.63683C4.94551 3.42116 5.24756 3.3 5.5625 3.3H17.4375C17.7524 3.3 18.0545 3.42116 18.2772 3.63683C18.4999 3.85249 18.625 4.145 18.625 4.45V20.55C18.625 20.855 18.4999 21.1475 18.2772 21.3632C18.0545 21.5788 17.7524 21.7 17.4375 21.7H5.5625C5.24756 21.7 4.94551 21.5788 4.72281 21.3632C4.50011 21.1475 4.375 20.855 4.375 20.55V17.1C4.375 16.795 4.24989 16.5025 4.02719 16.2868C3.80449 16.0712 3.50244 15.95 3.1875 15.95C2.87256 15.95 2.57051 16.0712 2.34781 16.2868C2.12511 16.5025 2 16.795 2 17.1V20.55C2 21.465 2.37533 22.3425 3.04343 22.9895C3.71153 23.6365 4.61767 24 5.5625 24H17.4375C18.3823 24 19.2885 23.6365 19.9566 22.9895C20.6247 22.3425 21 21.465 21 20.55V4.45C21 3.535 20.6247 2.65748 19.9566 2.01048C19.2885 1.36348 18.3823 1 17.4375 1Z" fill="#B8B8B8"/>
</svg>
