<svg width="106" height="40" viewBox="0 0 106 40" fill="none" xmlns="http://www.w3.org/2000/svg">
<ellipse rx="25.502" ry="10.3104" transform="matrix(-0.96395 -0.266084 -0.266084 0.96395 78.3258 19.7243)" fill="url(#paint0_linear)"/>
<rect width="43.944" height="23.0903" rx="11.5451" transform="matrix(-0.925323 0.37918 0.37918 0.925323 40.6626 1)" fill="url(#paint1_linear)"/>
<path d="M52.1947 25.579C52.3679 25.2744 56.5175 18.073 63.5814 14.0414C65.5375 12.9251 67.55 12.1553 69.5631 11.7535C75.9039 10.4878 82.1828 12.8219 86.3335 15.003C87.0543 15.3818 87.9555 15.2012 88.477 14.5734C89.8071 12.9719 91.225 11.528 92.691 10.2819C92.9289 10.0797 93.2569 10.0167 93.5528 10.1159C93.8485 10.2154 94.0676 10.4624 94.128 10.7647L96.8221 24.2615C96.8825 24.5639 96.775 24.8759 96.5401 25.0813C96.305 25.2866 95.9778 25.3542 95.6806 25.2589C93.8485 24.6711 91.9851 23.8823 90.1418 22.9142C89.4197 22.5349 88.5178 22.7141 87.9978 23.3404C85.0024 26.9479 80.1009 31.5139 73.7602 32.7796C70.992 33.3321 67.9854 33.2415 64.8241 32.5099C57.9257 30.9135 52.6367 26.854 52.415 26.6819C52.076 26.4192 51.9827 25.9516 52.1947 25.579ZM73.4208 31.0793C79.2492 29.9159 83.8251 25.6342 86.6373 22.2472C87.1639 21.613 87.8831 21.205 88.6535 21.0512C89.4247 20.8972 90.2469 20.9981 90.9781 21.3822C92.2482 22.0493 93.5266 22.6263 94.7944 23.1052L94.3989 21.1237L93.3742 21.3282C92.897 21.4235 92.4341 21.12 92.3404 20.6506C92.2467 20.1812 92.5576 19.7233 93.0348 19.6281L94.0594 19.4235L93.9166 18.7081L91.0974 19.2708C90.6203 19.3661 90.1574 19.0626 90.0637 18.5932C89.97 18.1238 90.2809 17.6659 90.7581 17.5707L93.5772 17.0079L93.4344 16.2924L92.4097 16.4969C91.9325 16.5922 91.4696 16.2887 91.3759 15.8193C91.2822 15.3499 91.5932 14.892 92.0703 14.7968L93.095 14.5922L92.6995 12.6107C91.7127 13.5397 90.7539 14.5632 89.8372 15.6669C88.7824 16.937 86.9572 17.302 85.497 16.5348C81.5999 14.487 75.7309 12.2903 69.9025 13.4537C68.5009 13.7335 67.0947 14.2129 65.707 14.883C67.7783 16.5018 69.2186 18.8091 69.7348 21.3951C70.1455 23.4526 69.9588 25.5732 69.1948 27.5278C68.6696 28.8717 67.8892 30.0986 66.9011 31.1449C69.2014 31.5066 71.388 31.4851 73.4208 31.0793ZM64.8171 30.7198C67.4583 28.503 68.6776 25.1011 68.0067 21.7401C67.5224 19.3139 66.0737 17.1786 64.0012 15.8088C58.8116 18.9402 55.2797 23.9782 54.1332 25.7656C55.6559 26.8226 59.8071 29.4697 64.8171 30.7198Z" fill="white"/>
<path d="M62.7718 18.8094C64.1596 18.5324 65.5103 19.4177 65.7828 20.7831C66.0554 22.1484 65.1481 23.4845 63.7603 23.7615C62.3725 24.0385 61.0218 23.1532 60.7493 21.7878C60.4767 20.4225 61.384 19.0864 62.7718 18.8094ZM63.4209 22.0613C63.8557 21.9745 64.1401 21.5558 64.0547 21.128C63.9693 20.7003 63.5459 20.4228 63.1112 20.5095C62.6764 20.5963 62.392 21.0151 62.4774 21.4429C62.5628 21.8707 62.9861 22.1481 63.4209 22.0613Z" fill="white"/>
<path d="M70.8113 18.2365L71.5347 17.1712L70.5144 16.5025C70.1107 16.2379 70.0032 15.6996 70.2744 15.3002C70.5457 14.9009 71.0926 14.7917 71.4965 15.0562L73.2476 16.2041C73.6513 16.4687 73.7588 17.0069 73.4876 17.4064L72.2733 19.1947C72.1377 19.3943 71.9331 19.5215 71.712 19.5656C71.4909 19.6098 71.2532 19.5709 71.0513 19.4386C70.6476 19.1742 70.5402 18.636 70.8113 18.2365Z" fill="white"/>
<path d="M71.8993 28.1154L72.6226 27.0505L71.6022 26.3816C71.1985 26.117 71.091 25.5787 71.3622 25.1793C71.6335 24.7801 72.1804 24.6709 72.5843 24.9354L74.3356 26.0834C74.5294 26.2105 74.6636 26.4085 74.7086 26.634C74.7536 26.8594 74.7057 27.0939 74.5756 27.2856L73.3612 29.0738C73.2256 29.2734 73.021 29.4005 72.7999 29.4447C72.5788 29.4888 72.341 29.45 72.1392 29.3177C71.7356 29.053 71.6281 28.5148 71.8993 28.1154Z" fill="white"/>
<path d="M74.5517 22.7069L75.2749 21.6419L74.2546 20.9732C73.8509 20.7086 73.7435 20.1703 74.0146 19.7709C74.2859 19.3716 74.8328 19.2624 75.2367 19.5269L76.9879 20.6748C77.3916 20.9394 77.499 21.4776 77.2279 21.8771L76.0136 23.6652C75.878 23.8648 75.6734 23.992 75.4523 24.0361C75.2312 24.0803 74.9935 24.0414 74.7916 23.9091C74.3881 23.6446 74.2806 23.1063 74.5517 22.7069Z" fill="white"/>
<path d="M80.4061 19.0746L81.1294 18.0096L80.109 17.3407C79.7053 17.0761 79.5979 16.5379 79.869 16.1384C80.1403 15.7392 80.6873 15.63 81.0911 15.8945L82.8424 17.0425C83.2461 17.3071 83.3535 17.8454 83.0824 18.2448L81.8681 20.0329C81.7324 20.2327 81.5279 20.3598 81.3068 20.404C81.0856 20.4481 80.8479 20.4091 80.6461 20.277C80.2424 20.0123 80.135 19.4741 80.4061 19.0746Z" fill="white"/>
<path d="M79.791 24.8493L80.5142 23.7843L79.4939 23.1155C79.0901 22.8508 78.9827 22.3126 79.2539 21.9132C79.5251 21.5139 80.0723 21.4047 80.476 21.6693L82.2272 22.8173C82.6309 23.0819 82.7383 23.6201 82.4672 24.0196L81.2529 25.8077C81.1173 26.0073 80.9127 26.1345 80.6916 26.1786C80.4705 26.2228 80.2328 26.1839 80.0309 26.0516C79.6273 25.787 79.5198 25.2487 79.791 24.8493Z" fill="white"/>
<path d="M87.3583 18.2492L88.0192 18.1173C88.4964 18.0221 88.9593 18.3255 89.053 18.7949C89.1467 19.2643 88.8358 19.7222 88.3586 19.8175L87.6976 19.9494C87.2205 20.0446 86.7576 19.7412 86.6639 19.2718C86.5702 18.8024 86.8811 18.3445 87.3583 18.2492Z" fill="white"/>
<path d="M38.1614 5.50759C40.2257 7.53917 41.8697 9.7645 42.7901 11.7748C43.8017 13.9845 43.8283 15.7388 42.8633 16.719C42.8619 16.7196 42.8613 16.721 42.86 16.7223C39.969 19.6595 35.2398 22.7052 30.8106 24.4816C26.8182 26.0825 23.5302 26.5107 21.2624 25.7628L17.0014 30.0939C15.5849 31.5337 14.8407 33.5067 14.969 35.52C14.989 35.8436 14.961 36.1733 14.8866 36.5011C14.6086 37.7228 13.6442 38.705 12.4299 39.0042C11.417 39.2535 10.3775 39.0397 9.58011 38.4168C8.95895 37.9328 8.54396 37.2558 8.391 36.4987C7.70201 36.5272 6.87801 36.3012 5.94295 35.3673C5.33243 34.7567 4.99991 33.9939 4.99991 33.2097C4.99991 33.1817 4.99991 33.1538 5.00057 33.1265C5.05577 31.3178 6.51556 29.8785 8.36241 29.8484C10.5192 29.8378 12.4432 29.0834 13.7793 27.7253L18.3322 23.0975C17.9717 22.2547 17.7869 21.2527 17.7869 20.1013C17.7869 18.1677 18.295 15.8255 19.3105 13.1676C21.015 8.70933 23.9818 3.93112 26.8721 0.992592C26.8728 0.991914 26.8741 0.990561 26.8755 0.989211C29.0129 -1.18476 34.2855 1.69507 38.1614 5.50759ZM19.0278 24.2708L14.719 28.6499C13.1275 30.2675 10.865 31.1651 8.3245 31.1786C7.23914 31.1963 6.36326 32.06 6.33067 33.1447C6.30075 33.5796 6.51622 34.0436 6.89131 34.4186C7.76386 35.291 8.32716 35.2266 8.82994 35.0861L9.68187 34.848L9.66458 35.7289C9.66324 35.7729 9.65859 35.8162 9.6546 35.8129C9.6546 36.4242 9.92926 36.989 10.4081 37.3624C10.8943 37.7422 11.5068 37.8659 12.1319 37.712C12.8415 37.5368 13.4274 36.9399 13.5904 36.2256C13.6363 36.022 13.6536 35.8195 13.6416 35.6228C13.4926 33.242 14.3745 30.8824 16.061 29.1674L20.0075 25.1561C19.9875 25.1431 19.9729 25.1254 19.9529 25.1124C19.7388 24.9649 19.5346 24.8066 19.3511 24.6267C19.238 24.5161 19.1303 24.3968 19.0278 24.2708ZM20.5515 13.6243C18.972 17.7553 18.6946 21.0583 19.7315 22.923C19.7986 23.0423 19.8711 23.1535 19.9476 23.2601C19.9616 23.2798 19.9742 23.3022 19.9888 23.3219C20.078 23.4408 20.1737 23.5504 20.2741 23.6511C20.2808 23.6577 20.2854 23.6649 20.2921 23.6715C20.2941 23.6734 20.2961 23.6747 20.2981 23.6767C20.4284 23.8043 20.5774 23.9196 20.737 24.0267C20.7703 24.0495 20.8049 24.0702 20.8388 24.0916C20.999 24.1914 21.17 24.2844 21.3562 24.3645C21.3662 24.369 21.3755 24.3741 21.3854 24.3786L21.4533 24.4075C23.3833 25.1741 26.5083 24.7813 30.3337 23.2469C33.792 21.8602 37.4325 19.6783 40.1625 17.4036C39.967 17.3761 39.7621 17.3343 39.5533 17.2845C39.4941 17.2701 39.4329 17.2525 39.3724 17.2369C39.2028 17.1924 39.0299 17.1407 38.853 17.0817C38.7845 17.0589 38.7167 17.0367 38.6469 17.0119C38.4101 16.9273 38.1693 16.8348 37.9199 16.7258C35.8955 15.8383 33.643 14.2308 31.5787 12.1999C29.5137 10.169 27.8697 7.94298 26.9493 5.93265C26.8336 5.67979 26.7351 5.43463 26.6453 5.19399C26.6201 5.12655 26.5975 5.06108 26.5742 4.99428C26.5083 4.80579 26.4505 4.62115 26.4013 4.44104C26.3873 4.38938 26.3707 4.33711 26.3574 4.28611C26.3068 4.08607 26.2643 3.88988 26.2343 3.7008C24.0038 6.46826 21.8822 10.1439 20.5515 13.6243ZM28.159 5.36151C29.0149 7.23122 30.5632 9.31977 32.5184 11.2434C34.473 13.1663 36.5865 14.6803 38.4699 15.5056C40.1046 16.2219 41.3948 16.3299 41.9229 15.7931C42.1377 15.5741 42.2441 15.2312 42.2441 14.7908C42.2441 14.151 42.0193 13.3066 41.5791 12.3447C40.7231 10.475 39.1756 8.38639 37.2203 6.46345C33.1828 2.49194 28.9245 0.7855 27.8145 1.91373C27.2878 2.45044 27.4161 3.73872 28.159 5.36151Z" fill="white"/>
<path d="M36.2815 7.42116C38.0977 9.20802 39.1931 10.7965 39.791 11.813C40.1115 12.3572 40.0257 13.0297 39.5775 13.4847C39.1292 13.9403 38.4582 14.037 37.9089 13.7261C36.882 13.1449 35.2773 12.0762 33.4603 10.2887C31.6434 8.50121 30.5488 6.91342 29.9509 5.89687C29.8219 5.67748 29.7587 5.43707 29.7587 5.19895C29.7587 4.84576 29.897 4.4963 30.165 4.22454C30.6133 3.76892 31.2836 3.67218 31.8336 3.9838C32.8598 4.56568 34.4652 5.6343 36.2815 7.42116ZM31.1001 5.20899C31.6587 6.15834 32.6842 7.64481 34.4007 9.33353C36.1172 11.0222 37.6202 12.0234 38.5779 12.5658L38.6418 12.5016C38.0831 11.5515 37.0569 10.0651 35.3411 8.37701C33.6253 6.68895 32.1223 5.68717 31.1633 5.1441L31.1001 5.20899Z" fill="white"/>
<path d="M31.2443 14.0924C31.8275 14.6656 32.4593 15.1854 33.0724 15.5937C33.8578 16.1176 34.3054 16.9949 34.2595 17.9588C34.2183 18.9179 33.6975 19.7784 32.8663 20.2595C32.0682 20.7228 31.2595 21.1258 30.4635 21.4574C30.1224 21.5999 29.7353 21.4406 29.5983 21.1017C29.4626 20.762 29.6282 20.3729 29.9687 20.231C30.7109 19.9216 31.4664 19.5448 32.2145 19.1115C32.6421 18.8638 32.9095 18.4198 32.9308 17.9226C32.9547 17.4234 32.7246 16.9722 32.3216 16.7034C31.6326 16.2437 30.953 15.6862 30.3039 15.0469C29.6548 14.4077 29.0863 13.7379 28.6154 13.0565C28.5369 12.9427 28.499 12.813 28.499 12.684C28.499 12.4718 28.6001 12.2613 28.789 12.1292C29.0922 11.9167 29.5059 11.9878 29.7134 12.2877C30.1383 12.904 30.6531 13.5101 31.2443 14.0924Z" fill="white"/>
<path d="M23.9899 13.9567C22.1352 17.2825 21.5706 20.3259 22.618 21.3556C22.9665 21.6991 23.5271 21.8662 24.2839 21.8526C24.6516 21.8459 24.9495 22.1383 24.9502 22.5061L24.9502 22.5068C24.9502 22.8739 24.6536 23.176 24.2859 23.1827C23.1633 23.2024 22.2855 22.9101 21.6777 22.3114C21.0333 21.6775 20.766 20.7733 20.7666 19.7284C20.7666 17.7917 21.6863 15.3757 22.8308 13.3225C23.011 12.9996 23.4167 12.8799 23.7359 13.0543C24.0564 13.2293 24.1708 13.6325 23.9899 13.9567Z" fill="white"/>
<defs>
<linearGradient id="paint0_linear" x1="3.40017" y1="5.74965" x2="49.0122" y2="17.4575" gradientUnits="userSpaceOnUse">
<stop stop-color="#007EC5"/>
<stop offset="0.9999" stop-color="#CFE9F8" stop-opacity="0.690104"/>
<stop offset="1" stop-color="#EAF7FF" stop-opacity="0.65"/>
</linearGradient>
<linearGradient id="paint1_linear" x1="21.972" y1="0" x2="21.972" y2="23.0903" gradientUnits="userSpaceOnUse">
<stop stop-color="#DF5E00"/>
<stop offset="1" stop-color="#FFDB1D" stop-opacity="0.5"/>
</linearGradient>
</defs>
</svg>
