<svg width="92" height="44" viewBox="0 0 92 44" fill="none" xmlns="http://www.w3.org/2000/svg">
<path d="M39.1493 8.209L39.2313 8.08343L39.3582 8.16631L39.274 8.29231L39.1493 8.209ZM39.6817 13.1362L39.8072 13.0539L39.6817 13.1362ZM44.4735 19.0294L44.3344 19.0857L44.3344 19.0857L44.4735 19.0294ZM40.3916 25.4058L40.4244 25.5522L40.3916 25.4058ZM25.3951 21.3481L25.5301 21.2828L25.3951 21.3481ZM26.3712 16.7108L26.2475 16.6259L26.3712 16.7108ZM32.6715 11.4938L32.7671 11.6093L32.6715 11.4938ZM33.6476 7.04966L33.498 7.06089L33.4867 6.90971L33.638 6.89997L33.6476 7.04966ZM39.274 8.29231C38.8226 8.96812 38.5328 9.47832 38.5525 10.146C38.5723 10.8218 38.9106 11.6859 39.8072 13.0539L39.5563 13.2184C38.6544 11.8424 38.275 10.9187 38.2526 10.1548C38.2299 9.38295 38.5731 8.80162 39.0246 8.12569L39.274 8.29231ZM39.8072 13.0539C40.6195 14.2934 41.5594 15.1502 42.4342 16.0122C43.3062 16.8715 44.1122 17.7351 44.6126 18.9732L44.3344 19.0857C43.8587 17.9086 43.0919 17.0815 42.2236 16.2259C41.3581 15.373 40.3902 14.4908 39.5563 13.2184L39.8072 13.0539ZM44.6126 18.9732C45.2458 20.54 44.9702 22.0184 44.1463 23.1878C43.3253 24.3527 41.9641 25.207 40.4244 25.5522L40.3588 25.2594C41.8362 24.9283 43.1288 24.1108 43.901 23.015C44.6702 21.9234 44.927 20.5518 44.3344 19.0857L44.6126 18.9732ZM40.4244 25.5522C35.928 26.56 32.5925 26.4676 30.1503 25.6492C27.7029 24.8291 26.164 23.2833 25.26 21.4134L25.5301 21.2828C26.4009 23.0841 27.8791 24.5717 30.2456 25.3648C32.6174 26.1596 35.8928 26.2605 40.3588 25.2594L40.4244 25.5522ZM25.26 21.4134C24.9004 20.6695 24.7582 20.0229 24.9109 19.2763C25.0613 18.5403 25.4956 17.7223 26.2475 16.6259L26.4949 16.7956C25.7465 17.8869 25.3425 18.663 25.2048 19.3364C25.0693 19.9993 25.1892 20.5776 25.5301 21.2828L25.26 21.4134ZM26.2475 16.6259C27.1232 15.349 28.1598 14.4916 29.2492 13.726C30.3446 12.956 31.4721 12.2915 32.5759 11.3782L32.7671 11.6093C31.6525 12.5316 30.4912 13.2197 29.4217 13.9714C28.3461 14.7274 27.3418 15.5606 26.4949 16.7956L26.2475 16.6259ZM32.5759 11.3782C33.0764 10.9641 33.3497 10.5299 33.4795 9.88673C33.6118 9.23087 33.5953 8.35665 33.498 7.06089L33.7972 7.03844C33.8943 8.33133 33.9151 9.24442 33.7735 9.94607C33.6294 10.6604 33.3175 11.154 32.7671 11.6093L32.5759 11.3782ZM33.638 6.89997C34.9258 6.81711 35.8918 6.82797 36.7534 7.00354C37.6183 7.17978 38.3693 7.52016 39.2313 8.08343L39.0672 8.33457C38.228 7.78622 37.5121 7.46432 36.6935 7.29749C35.8715 7.12999 34.9373 7.11699 33.6573 7.19935L33.638 6.89997ZM39.2331 8.33338C38.2644 8.98636 37.0686 9.16039 36.0015 8.93552C34.9349 8.71077 33.9807 8.0834 33.5126 7.11495L33.7827 6.98438C34.2019 7.85164 35.0668 8.43196 36.0634 8.64197C37.0594 8.85185 38.1707 8.68769 39.0654 8.08462L39.2331 8.33338Z" fill="black"/>
<path d="M37.7786 11.5312L37.6297 11.5138C37.6383 11.4424 37.6963 11.387 37.7679 11.3816C37.8396 11.3762 37.9048 11.4223 37.9234 11.4916L37.7786 11.5312ZM41.5594 17.7102L41.4545 17.8178L41.5594 17.7102ZM42.892 21.6363L43.0418 21.6437L43.0417 21.6448L42.892 21.6363ZM42.464 22.3244L42.4138 22.1833L42.464 22.3244ZM40.905 20.144L40.7583 20.177L40.7569 20.1681L40.905 20.144ZM39.4083 16.8022L39.5209 16.7026L39.5227 16.7047L39.4083 16.8022ZM37.8361 14.0423L37.6901 14.0774L37.6892 14.0734L37.8361 14.0423ZM37.9234 11.4916C38.2973 12.8803 38.7068 13.8925 39.2824 14.8127C39.8587 15.7341 40.6058 16.5701 41.6644 17.6026L41.4545 17.8178C40.3899 16.7794 39.623 15.924 39.0279 14.9726C38.432 14.02 38.0127 12.9781 37.6338 11.5707L37.9234 11.4916ZM41.6644 17.6026C42.4537 18.3725 42.8184 19.0885 42.9736 19.7679C43.1274 20.441 43.0725 21.07 43.0418 21.6437L42.7423 21.629C42.7737 21.0413 42.8236 20.4594 42.6812 19.8359C42.5401 19.2186 42.2074 18.5522 41.4545 17.8178L41.6644 17.6026ZM42.5141 22.4656C42.2488 22.5609 42.0094 22.554 41.7997 22.4489C41.5956 22.3467 41.4393 22.1613 41.3141 21.9386C41.0657 21.4968 40.9061 20.8448 40.7586 20.177L41.0515 20.1111C41.2011 20.7882 41.353 21.3945 41.5758 21.7907C41.6862 21.9871 41.8054 22.1156 41.935 22.1806C42.0588 22.2426 42.2112 22.2561 42.4138 22.1833L42.5141 22.4656ZM39.2957 16.9017C38.4698 15.966 37.9934 15.3614 37.6901 14.0773L37.9821 14.0072C38.2685 15.2198 38.7065 15.7799 39.5209 16.7026L39.2957 16.9017ZM37.6892 14.0734C37.4853 13.091 37.5075 12.5255 37.6297 11.5138L37.9275 11.5485C37.8076 12.5412 37.7879 13.0715 37.983 14.0112L37.6892 14.0734ZM39.5227 16.7047C39.9617 17.2207 40.2813 17.661 40.5227 18.1827C40.7639 18.704 40.9233 19.2986 41.0532 20.12L40.7569 20.1681C40.6293 19.3613 40.4756 18.7964 40.2503 18.3096C40.0253 17.8232 39.7252 17.4066 39.2939 16.8997L39.5227 16.7047ZM43.0417 21.6448C43.0283 21.8673 42.9953 22.0447 42.9078 22.1827C42.8161 22.3274 42.6795 22.4062 42.5141 22.4656L42.4138 22.1833C42.55 22.1343 42.6143 22.0864 42.6547 22.0228C42.6993 21.9524 42.7295 21.84 42.7423 21.6279L43.0417 21.6448Z" fill="black"/>
<path d="M36.2897 11.4356L36.1546 11.368C36.1835 11.3029 36.2541 11.2698 36.323 11.289C36.3919 11.3081 36.4399 11.3741 36.4376 11.4465L36.2897 11.4356ZM38.0915 18.5963L37.9619 18.6644L38.0915 18.5963ZM38.2211 22.7796L38.3599 22.8378L38.3595 22.8387L38.2211 22.7796ZM37.6158 23.286L37.6102 23.134L37.6158 23.286ZM36.7666 20.6821L36.6188 20.6641L36.6201 20.6549L36.7666 20.6821ZM36.3123 16.9971L36.4469 16.9394L36.448 16.9419L36.3123 16.9971ZM35.6181 13.8387L35.4704 13.8229L35.4707 13.8188L35.6181 13.8387ZM36.4376 11.4465C36.3909 12.8926 36.4868 13.9934 36.767 15.0639C37.0476 16.1359 37.5149 17.1854 38.2211 18.5282L37.9619 18.6644C37.2517 17.3139 36.7711 16.239 36.4813 15.1319C36.1912 14.0233 36.0944 12.8905 36.1417 11.4246L36.4376 11.4465ZM38.2211 18.5282C38.7477 19.5295 38.8869 20.3344 38.8378 21.0331C38.7891 21.7252 38.5549 22.3039 38.3599 22.8378L38.0822 22.7214C38.2821 22.1742 38.4975 21.6395 38.5425 20.9994C38.5871 20.3657 38.4642 19.6195 37.9619 18.6644L38.2211 18.5282ZM37.6214 23.4379C37.3426 23.4375 37.1183 23.3492 36.9502 23.1781C36.7864 23.0114 36.6916 22.7819 36.637 22.5273C36.5289 22.0224 36.566 21.3484 36.6191 20.6641L36.9142 20.7C36.8603 21.394 36.8292 22.0212 36.926 22.4733C36.974 22.6972 37.0499 22.8601 37.1544 22.9664C37.2546 23.0683 37.3962 23.1336 37.6102 23.134L37.6214 23.4379ZM36.1777 17.0549C35.6645 15.8838 35.387 15.1463 35.4704 13.8229L35.7658 13.8544C35.6871 15.1029 35.9406 15.7843 36.4469 16.9394L36.1777 17.0549ZM35.4707 13.8188C35.5612 12.816 35.746 12.2866 36.1546 11.368L36.4247 11.5031C36.024 12.4041 35.852 12.9003 35.7655 13.8586L35.4707 13.8188ZM36.448 16.9419C36.7155 17.5822 36.8915 18.1097 36.9698 18.6879C37.0481 19.2657 37.0274 19.885 36.9132 20.7092L36.6201 20.6549C36.7323 19.8456 36.7496 19.257 36.6767 18.7181C36.6037 18.1795 36.4394 17.6813 36.1766 17.0524L36.448 16.9419ZM38.3595 22.8387C38.2824 23.0455 38.1995 23.2031 38.0762 23.3044C37.9472 23.4104 37.795 23.4382 37.6214 23.4379L37.6102 23.134C37.7542 23.1342 37.8293 23.1106 37.8858 23.0641C37.9482 23.0129 38.0092 22.9171 38.0826 22.7204L38.3595 22.8387Z" fill="black"/>
<path d="M34.1932 11.275L34.083 11.1708C34.1275 11.1161 34.2027 11.1039 34.263 11.1415C34.3232 11.1791 34.3518 11.2562 34.3313 11.3259L34.1932 11.275ZM34.1464 18.6994L34.0061 18.732L34.1464 18.6994ZM33.2305 22.7645L33.3471 22.8604L33.3465 22.8613L33.2305 22.7645ZM32.5219 23.0735L32.5577 22.9245L32.5219 23.0735ZM32.3522 20.3165L32.216 20.2586L32.2197 20.2497L32.3522 20.3165ZM32.8315 16.6354L32.9741 16.6142L32.9745 16.617L32.8315 16.6354ZM32.949 13.3903L32.8123 13.3346L32.8138 13.3305L32.949 13.3903ZM34.3313 11.3259C33.9268 12.7036 33.7454 13.791 33.7488 14.9036C33.7523 16.0178 33.941 17.1658 34.2868 18.6668L34.0061 18.732C33.6584 17.2227 33.4631 16.0461 33.4595 14.8946C33.456 13.7413 33.6447 12.6217 34.0551 11.224L34.3313 11.3259ZM34.2868 18.6668C34.5446 19.7858 34.4786 20.6026 34.257 21.2621C34.0375 21.9153 33.6674 22.4042 33.3471 22.8604L33.114 22.6686C33.4427 22.2006 33.7823 21.7503 33.9845 21.1486C34.1845 20.5533 34.252 19.7996 34.0061 18.732L34.2868 18.6668ZM32.4861 23.2225C32.2195 23.1404 32.0274 22.9905 31.9091 22.778C31.7933 22.5701 31.7589 22.3213 31.7698 22.0593C31.7913 21.5405 31.995 20.9017 32.2163 20.2587L32.4881 20.3744C32.2636 21.0266 32.078 21.6203 32.0588 22.0831C32.0493 22.3119 32.0816 22.4912 32.1562 22.6253C32.2282 22.7546 32.3502 22.8605 32.5577 22.9245L32.4861 23.2225ZM32.6889 16.6566C32.4862 15.3781 32.4023 14.5854 32.8123 13.3346L33.0856 13.4459C32.6998 14.623 32.7741 15.3527 32.9741 16.6142L32.6889 16.6566ZM32.8138 13.3305C33.1507 12.3908 33.4608 11.9349 34.083 11.1708L34.3035 11.3791C33.6939 12.1278 33.4055 12.5541 33.0842 13.45L32.8138 13.3305ZM32.9745 16.617C33.0727 17.3121 33.1111 17.8722 33.0425 18.4525C32.974 19.0325 32.7999 19.6232 32.4847 20.3834L32.2197 20.2497C32.5289 19.5041 32.6918 18.9433 32.7555 18.4037C32.8192 17.8644 32.785 17.3367 32.6885 16.6538L32.9745 16.617ZM33.3465 22.8613C33.2204 23.038 33.1007 23.1662 32.9558 23.2278C32.805 23.2919 32.6521 23.2736 32.4861 23.2225L32.5577 22.9245C32.6973 22.9675 32.7761 22.9667 32.8418 22.9388C32.9135 22.9083 32.9953 22.835 33.1146 22.6677L33.3465 22.8613Z" fill="black"/>
<path d="M32.6503 11.7762C32.702 11.7127 32.7933 11.7078 32.8542 11.7654C32.9151 11.8229 32.9226 11.921 32.8709 11.9846L32.6503 11.7762ZM30.1872 18.7397L30.3301 18.721L30.1872 18.7397ZM29.3267 22.7645L29.4492 22.8521L29.4427 22.8613L29.3267 22.7645ZM28.6181 23.0735L28.6539 22.9245L28.6181 23.0735ZM27.7913 19.1262L27.9289 19.1789L27.9272 19.184L27.7913 19.1262ZM28.4124 16.9041L28.5469 16.9661L28.4124 16.9041ZM29.8323 14.1991L29.937 14.3098L29.8323 14.1991ZM32.8709 11.9846C31.0643 14.2035 29.9304 15.9365 30.3301 18.721L30.0442 18.7585C29.6233 15.8269 30.8388 14.0012 32.6503 11.7762L32.8709 11.9846ZM30.3301 18.721C30.4931 19.8558 30.4038 20.6777 30.204 21.3265C30.0053 21.9719 29.6986 22.4385 29.4489 22.8519L29.2046 22.6772C29.4604 22.2539 29.7439 21.8218 29.929 21.2207C30.113 20.6231 30.2011 19.851 30.0442 18.7585L30.3301 18.721ZM28.5824 23.2226C28.2948 23.134 28.07 22.8937 27.9025 22.5918C27.7343 22.2886 27.6141 21.9069 27.54 21.5011C27.3923 20.6919 27.4214 19.7482 27.6554 19.0683L27.9272 19.184C27.7154 19.7994 27.6837 20.6834 27.8238 21.451C27.8937 21.8336 28.0045 22.1776 28.1499 22.4395C28.2959 22.7027 28.4673 22.867 28.6539 22.9245L28.5824 23.2226ZM28.278 16.8421C28.6716 15.7947 28.7271 15.1778 29.7277 14.0884L29.937 14.3098C28.9854 15.3458 28.9519 15.888 28.5469 16.9661L28.278 16.8421ZM29.7277 14.0884C30.0962 13.6872 30.6906 13.2865 31.251 12.9021C31.8235 12.5094 32.3583 12.1349 32.6503 11.7762L32.8709 11.9846C32.5471 12.3822 31.9727 12.7807 31.4124 13.1651C30.8401 13.5577 30.2784 13.9381 29.937 14.3098L29.7277 14.0884ZM28.5469 16.9661C28.3128 17.5889 28.2717 17.7728 28.2331 17.978C28.1916 18.1992 28.1529 18.4469 27.9289 19.1788L27.6537 19.0735C27.8733 18.3562 27.9093 18.1208 27.9495 17.9073C27.9926 17.6777 28.0402 17.4751 28.278 16.8421L28.5469 16.9661ZM29.4427 22.8613C29.3166 23.038 29.1969 23.1663 29.052 23.2279C28.9012 23.2919 28.7483 23.2737 28.5824 23.2226L28.6539 22.9245C28.7935 22.9675 28.8723 22.9668 28.938 22.9388C29.0098 22.9084 29.0915 22.835 29.2108 22.6678L29.4427 22.8613Z" fill="black"/>
<path d="M50.1491 25.209L50.2311 25.0834L50.358 25.1663L50.2738 25.2923L50.1491 25.209ZM52.3496 31.7289L52.475 31.6467L52.3496 31.7289ZM57.1414 35.4967L57.0023 35.5529L57.0023 35.5529L57.1414 35.4967ZM51.3914 42.4058L51.4242 42.5522L51.3914 42.4058ZM36.3949 38.3481L36.5299 38.2828L36.3949 38.3481ZM37.371 33.7108L37.2473 33.6259L37.371 33.7108ZM43.6713 28.4938L43.7669 28.6093L43.6713 28.4938ZM44.6474 24.0497L44.4978 24.0609L44.4865 23.9097L44.6378 23.9L44.6474 24.0497ZM50.2738 25.2923C49.8664 25.9023 49.9408 26.7815 50.376 27.8921C50.808 28.9943 51.5761 30.2751 52.475 31.6467L52.2241 31.8111C51.3246 30.4386 50.541 29.1353 50.0967 28.0015C49.6556 26.8761 49.5289 25.8675 50.0244 25.1257L50.2738 25.2923ZM52.475 31.6467C53.2698 32.8594 54.1827 33.1838 55.0494 33.5086C55.4826 33.6709 55.9159 33.8372 56.3014 34.1216C56.6914 34.4092 57.0267 34.8125 57.2805 35.4405L57.0023 35.5529C56.7681 34.9733 56.4661 34.6158 56.1233 34.363C55.7761 34.1069 55.3811 33.9532 54.9441 33.7895C54.0706 33.4622 53.0756 33.1103 52.2241 31.8111L52.475 31.6467ZM57.2805 35.4405C57.926 37.0378 57.1964 38.6575 55.9657 39.9389C54.7324 41.223 52.9625 42.2073 51.4242 42.5522L51.3586 42.2594C52.8374 41.9279 54.5554 40.9742 55.7493 39.7311C56.9458 38.4853 57.5826 36.9886 57.0023 35.5529L57.2805 35.4405ZM51.4242 42.5522C46.9278 43.56 43.5923 43.4676 41.1501 42.6492C38.7027 41.8291 37.1638 40.2833 36.2598 38.4134L36.5299 38.2828C37.4007 40.0841 38.8789 41.5717 41.2454 42.3648C43.6172 43.1596 46.8926 43.2605 51.3586 42.2594L51.4242 42.5522ZM36.2598 38.4134C35.9002 37.6695 35.758 37.0229 35.9107 36.2763C36.0611 35.5403 36.4954 34.7223 37.2473 33.6259L37.4947 33.7956C36.7463 34.8869 36.3423 35.663 36.2046 36.3364C36.0691 36.9993 36.189 37.5776 36.5299 38.2828L36.2598 38.4134ZM37.2473 33.6259C38.123 32.349 39.1596 31.4916 40.249 30.726C41.3444 29.956 42.4719 29.2915 43.5757 28.3782L43.7669 28.6093C42.6523 29.5316 41.491 30.2197 40.4215 30.9714C39.3459 31.7274 38.3416 32.5606 37.4947 33.7956L37.2473 33.6259ZM43.5757 28.3782C44.0762 27.9641 44.3495 27.5299 44.4793 26.8867C44.6116 26.2309 44.5951 25.3567 44.4978 24.0609L44.797 24.0384C44.8941 25.3313 44.9149 26.2444 44.7733 26.9461C44.6292 27.6604 44.3173 28.154 43.7669 28.6093L43.5757 28.3782ZM44.6378 23.9C45.9256 23.8171 46.8916 23.828 47.7532 24.0035C48.6181 24.1798 49.3691 24.5202 50.2311 25.0834L50.067 25.3346C49.2278 24.7862 48.5119 24.4643 47.6933 24.2975C46.8713 24.13 45.9371 24.117 44.6571 24.1994L44.6378 23.9ZM50.2329 25.3334C49.2642 25.9864 48.0684 26.1604 47.0013 25.9355C45.9348 25.7108 44.9805 25.0834 44.5124 24.1149L44.7825 23.9844C45.2017 24.8516 46.0666 25.432 47.0632 25.642C48.0592 25.8518 49.1705 25.6877 50.0653 25.0846L50.2329 25.3334Z" fill="black"/>
<path d="M49.5589 28.578L49.41 28.5607C49.4186 28.4893 49.4766 28.4339 49.5482 28.4284C49.6199 28.423 49.6851 28.4692 49.7037 28.5385L49.5589 28.578ZM53.3397 34.7571L53.2348 34.8647L53.3397 34.7571ZM54.6723 38.6832L54.8221 38.6906L54.822 38.6916L54.6723 38.6832ZM54.2442 39.3713L54.1941 39.2302L54.2442 39.3713ZM52.6853 37.1909L52.5386 37.2239L52.5372 37.2149L52.6853 37.1909ZM51.1886 33.8491L51.3012 33.7495L51.303 33.7516L51.1886 33.8491ZM49.6164 31.0891L49.4704 31.1242L49.4695 31.1202L49.6164 31.0891ZM49.7037 28.5385C50.0776 29.9272 50.487 30.9394 51.0626 31.8596C51.639 32.781 52.3861 33.617 53.4447 34.6495L53.2348 34.8647C52.1702 33.8263 51.4032 32.9708 50.8081 32.0195C50.2123 31.0669 49.7929 30.025 49.414 28.6176L49.7037 28.5385ZM53.4447 34.6495C54.234 35.4194 54.5987 36.1354 54.7539 36.8147C54.9077 37.4879 54.8528 38.1169 54.8221 38.6906L54.5225 38.6758C54.554 38.0882 54.6039 37.5063 54.4614 36.8828C54.3204 36.2655 53.9877 35.5991 53.2348 34.8647L53.4447 34.6495ZM54.2944 39.5125C54.0291 39.6078 53.7897 39.6009 53.58 39.4958C53.3759 39.3936 53.2196 39.2081 53.0944 38.9855C52.846 38.5437 52.6864 37.8916 52.5389 37.2238L52.8318 37.1579C52.9814 37.8351 53.1332 38.4414 53.356 38.8376C53.4664 39.034 53.5857 39.1625 53.7152 39.2274C53.8391 39.2895 53.9915 39.303 54.1941 39.2302L54.2944 39.5125ZM51.0759 33.9486C50.2501 33.0129 49.7737 32.4083 49.4704 31.1242L49.7624 31.0541C50.0488 32.2667 50.4868 32.8268 51.3012 33.7495L51.0759 33.9486ZM49.4695 31.1202C49.2656 30.1379 49.2878 29.5724 49.41 28.5607L49.7078 28.5954C49.5879 29.5881 49.5681 30.1184 49.7632 31.058L49.4695 31.1202ZM51.303 33.7516C51.742 34.2676 52.0616 34.7078 52.3029 35.2295C52.5441 35.7509 52.7036 36.3455 52.8335 37.1668L52.5372 37.2149C52.4096 36.4081 52.2559 35.8433 52.0306 35.3565C51.8055 34.8701 51.5054 34.4535 51.0742 33.9466L51.303 33.7516ZM54.822 38.6916C54.8086 38.9141 54.7756 39.0916 54.6881 39.2296C54.5963 39.3743 54.4597 39.4531 54.2944 39.5125L54.1941 39.2302C54.3303 39.1812 54.3946 39.1333 54.4349 39.0696C54.4795 38.9993 54.5098 38.8869 54.5226 38.6748L54.822 38.6916Z" fill="black"/>
<path d="M47.5197 28.6486L47.3736 28.6135C47.3894 28.5435 47.4526 28.4954 47.5243 28.4986C47.596 28.5018 47.6561 28.5555 47.6676 28.6266L47.5197 28.6486ZM50.652 35.2437L50.5369 35.3382L50.652 35.2437ZM51.5791 39.3058L51.7271 39.3311L51.7269 39.3321L51.5791 39.3058ZM51.084 39.9384L51.0485 39.7919L51.084 39.9384ZM49.7553 37.5841L49.6062 37.5994L49.6057 37.5903L49.7553 37.5841ZM48.6059 34.0831L48.7278 33.9975L48.7294 33.9998L48.6059 34.0831ZM47.3227 31.1513L47.1741 31.1687L47.1737 31.1647L47.3227 31.1513ZM47.6676 28.6266C47.8986 30.0517 48.2031 31.1068 48.682 32.0905C49.1616 33.0754 49.8195 33.996 50.7671 35.1492L50.5369 35.3382C49.5839 34.1784 48.9083 33.2361 48.4131 32.2191C47.9173 31.2008 47.606 30.1149 47.3719 28.6706L47.6676 28.6266ZM50.7671 35.1492C51.4737 36.0092 51.7637 36.7646 51.8492 37.4584C51.9339 38.146 51.8157 38.7646 51.7271 39.3311L51.4311 39.2805C51.5218 38.7002 51.6303 38.1278 51.5518 37.4911C51.4741 36.8606 51.2109 36.1584 50.5369 35.3382L50.7671 35.1492ZM51.1195 40.0848C50.8461 40.1477 50.609 40.1121 50.4112 39.9825C50.2188 39.8564 50.0822 39.6534 49.9803 39.417C49.7781 38.948 49.6855 38.2808 49.6064 37.5994L49.9041 37.5689C49.9842 38.2599 50.0738 38.8807 50.2551 39.3012C50.3449 39.5096 50.4504 39.6517 50.5727 39.7318C50.6895 39.8083 50.8397 39.84 51.0485 39.7919L51.1195 40.0848ZM48.484 34.1686C47.7579 33.1395 47.3456 32.4814 47.1741 31.1687L47.4712 31.1339C47.6332 32.3735 48.0117 32.9827 48.7278 33.9975L48.484 34.1686ZM47.1737 31.1647C47.0704 30.1638 47.1497 29.6044 47.3736 28.6135L47.6659 28.6838C47.4462 29.656 47.3729 30.1807 47.4717 31.138L47.1737 31.1647ZM48.7294 33.9998C49.1135 34.5653 49.3865 35.0413 49.5736 35.5888C49.7606 36.1359 49.8589 36.746 49.9048 37.578L49.6057 37.5903C49.5606 36.7731 49.4649 36.1933 49.2903 35.6825C49.1159 35.172 48.8598 34.722 48.4825 34.1664L48.7294 33.9998ZM51.7269 39.3321C51.691 39.5517 51.6403 39.7241 51.5393 39.8508C51.4335 39.9836 51.2897 40.0456 51.1195 40.0848L51.0485 39.7919C51.1889 39.7596 51.2576 39.7197 51.3042 39.6613C51.3556 39.5968 51.397 39.4887 51.4312 39.2795L51.7269 39.3321Z" fill="black"/>
<path d="M46.684 28.3218L46.5737 28.2176C46.6182 28.163 46.6934 28.1507 46.7537 28.1884C46.8139 28.226 46.8425 28.3031 46.8221 28.3727L46.684 28.3218ZM46.6372 35.7463L46.4968 35.7789L46.6372 35.7463ZM45.7213 39.8114L45.8378 39.9072L45.8372 39.9081L45.7213 39.8114ZM45.0126 40.1204L45.0484 39.9713L45.0126 40.1204ZM44.8429 37.3634L44.7068 37.3055L44.7105 37.2966L44.8429 37.3634ZM45.3223 33.6822L45.4649 33.661L45.4653 33.6638L45.3223 33.6822ZM45.4397 30.4371L45.303 30.3815L45.3045 30.3774L45.4397 30.4371ZM46.8221 28.3727C46.4175 29.7505 46.2361 30.8379 46.2396 31.9504C46.243 33.0647 46.4318 34.2127 46.7775 35.7137L46.4968 35.7789C46.1491 34.2696 45.9538 33.093 45.9503 31.9415C45.9467 30.7882 46.1355 29.6686 46.5459 28.2709L46.8221 28.3727ZM46.7775 35.7137C47.0353 36.8327 46.9693 37.6494 46.7477 38.309C46.5283 38.9622 46.1581 39.4511 45.8378 39.9072L45.6047 39.7155C45.9334 39.2474 46.273 38.7972 46.4752 38.1955C46.6752 37.6002 46.7427 36.8465 46.4968 35.7789L46.7775 35.7137ZM44.9769 40.2694C44.7102 40.1872 44.5181 40.0374 44.3998 39.8248C44.284 39.6169 44.2496 39.3682 44.2605 39.1062C44.2821 38.5873 44.4857 37.9486 44.7071 37.3056L44.9788 37.4212C44.7544 38.0735 44.5687 38.6672 44.5495 39.13C44.54 39.3588 44.5723 39.5381 44.6469 39.6721C44.719 39.8015 44.8409 39.9074 45.0484 39.9713L44.9769 40.2694ZM45.1797 33.7034C44.977 32.425 44.8931 31.6323 45.3031 30.3815L45.5763 30.4928C45.1905 31.6699 45.2648 32.3996 45.4648 33.661L45.1797 33.7034ZM45.3045 30.3774C45.6414 29.4377 45.9516 28.9818 46.5737 28.2176L46.7942 28.426C46.1847 29.1747 45.8962 29.601 45.5749 30.4969L45.3045 30.3774ZM45.4653 33.6638C45.5635 34.359 45.6018 34.9191 45.5333 35.4993C45.4648 36.0793 45.2906 36.6701 44.9754 37.4302L44.7105 37.2966C45.0196 36.551 45.1825 35.9902 45.2462 35.4506C45.3099 34.9112 45.2757 34.3836 45.1793 33.7006L45.4653 33.6638ZM45.8372 39.9081C45.7111 40.0848 45.5914 40.2131 45.4465 40.2747C45.2957 40.3388 45.1428 40.3205 44.9769 40.2694L45.0484 39.9713C45.188 40.0144 45.2668 40.0136 45.3326 39.9856C45.4043 39.9552 45.486 39.8819 45.6053 39.7146L45.8372 39.9081Z" fill="black"/>
<path d="M45.6044 28.2274C45.6561 28.1639 45.7474 28.159 45.8083 28.2166C45.8692 28.2741 45.8767 28.3722 45.825 28.4357L45.6044 28.2274ZM43.1413 35.1909L43.2842 35.1721L43.1413 35.1909ZM42.2809 39.2157L42.4033 39.3033L42.3968 39.3125L42.2809 39.2157ZM41.5722 39.5247L41.608 39.3757L41.5722 39.5247ZM40.7454 35.5773L40.8831 35.63L40.8813 35.6352L40.7454 35.5773ZM41.3666 33.3553L41.501 33.4172L41.3666 33.3553ZM42.7864 30.6503L42.8911 30.761L42.7864 30.6503ZM45.825 28.4357C44.0184 30.6547 42.8845 32.3876 43.2842 35.1721L42.9983 35.2097C42.5775 32.278 43.7929 30.4524 45.6044 28.2274L45.825 28.4357ZM43.2842 35.1721C43.4472 36.307 43.3579 37.1289 43.1581 37.7777C42.9594 38.4231 42.6527 38.8897 42.403 39.303L42.1587 39.1284C42.4145 38.7051 42.698 38.273 42.8831 37.6719C43.0671 37.0743 43.1552 36.3022 42.9983 35.2097L43.2842 35.1721ZM41.5365 39.6738C41.2489 39.5851 41.0241 39.3449 40.8566 39.043C40.6884 38.7398 40.5682 38.3581 40.4941 37.9523C40.3464 37.143 40.3755 36.1994 40.6095 35.5195L40.8813 35.6352C40.6695 36.2506 40.6379 37.1346 40.7779 37.9022C40.8478 38.2847 40.9586 38.6287 41.104 38.8907C41.25 39.1539 41.4215 39.3182 41.608 39.3757L41.5365 39.6738ZM41.2321 33.2933C41.6257 32.2459 41.6812 31.629 42.6818 30.5396L42.8911 30.761C41.9395 31.797 41.906 32.3392 41.501 33.4172L41.2321 33.2933ZM42.6818 30.5396C43.0503 30.1384 43.6447 29.7377 44.2051 29.3532C44.7776 28.9605 45.3124 28.5861 45.6044 28.2274L45.825 28.4357C45.5012 28.8334 44.9268 29.2319 44.3665 29.6162C43.7942 30.0089 43.2325 30.3893 42.8911 30.761L42.6818 30.5396ZM41.501 33.4172C41.2669 34.0401 41.2258 34.224 41.1872 34.4291C41.1457 34.6504 41.1071 34.8981 40.883 35.63L40.6078 35.5247C40.8274 34.8074 40.8634 34.572 40.9036 34.3585C40.9467 34.1288 40.9943 33.9263 41.2321 33.2933L41.501 33.4172ZM42.3968 39.3125C42.2707 39.4892 42.151 39.6175 42.0061 39.679C41.8553 39.7431 41.7024 39.7249 41.5365 39.6738L41.608 39.3757C41.7476 39.4187 41.8264 39.4179 41.8922 39.39C41.9639 39.3595 42.0456 39.2862 42.1649 39.119L42.3968 39.3125Z" fill="black"/>
<path d="M18.7458 19.0865L18.8094 18.9507L18.996 19.038L18.8555 19.1888L18.7458 19.0865ZM19.4135 23.5145L19.5242 23.4132L19.4135 23.5145ZM25.4235 28.8107L25.2928 28.8843L25.2928 28.8843L25.4235 28.8107ZM20.3039 34.541L20.3277 34.6891L20.3039 34.541ZM1.49506 30.8944L1.61941 30.8105L1.49506 30.8944ZM2.71931 26.7269L2.61094 26.6232L2.71931 26.7269ZM10.6213 22.0385L10.6978 22.1675L10.6213 22.0385ZM11.8455 18.0446L11.6963 18.0603L11.6798 17.9021L11.8386 17.8948L11.8455 18.0446ZM18.8555 19.1888C18.2838 19.8021 17.9354 20.2491 17.959 20.8251C17.9831 21.4125 18.3961 22.1798 19.5242 23.4132L19.3029 23.6157C18.1754 22.383 17.6883 21.5438 17.6593 20.8374C17.6298 20.1197 18.0754 19.5857 18.636 18.9842L18.8555 19.1888ZM19.5242 23.4132C20.543 24.527 21.7229 25.2978 22.8202 26.0726C23.9109 26.8427 24.9237 27.6192 25.5541 28.737L25.2928 28.8843C24.699 27.8316 23.7392 27.0887 22.6472 26.3177C21.5618 25.5513 20.3488 24.7593 19.3029 23.6157L19.5242 23.4132ZM25.5541 28.737C25.9538 29.4455 26.071 30.1417 25.9519 30.7973C25.833 31.4509 25.4816 32.0511 24.9662 32.5752C23.9378 33.6209 22.24 34.3819 20.3277 34.6891L20.2801 34.3929C22.1519 34.0922 23.7825 33.3509 24.7523 32.3648C25.2359 31.873 25.551 31.3249 25.6567 30.7436C25.762 30.1642 25.6619 29.5386 25.2928 28.8843L25.5541 28.737ZM20.3277 34.6891C9.07516 36.4963 3.64906 34.3553 1.37072 30.9783L1.61941 30.8105C3.79287 34.032 9.0511 36.1963 20.2801 34.3929L20.3277 34.6891ZM1.37072 30.9783C0.917864 30.3071 0.7304 29.7104 0.927835 29.0184C1.11967 28.346 1.67005 27.6062 2.61094 26.6232L2.82767 26.8306C1.88693 27.8135 1.38587 28.5064 1.21632 29.1007C1.05239 29.6753 1.19361 30.1794 1.61941 30.8105L1.37072 30.9783ZM2.61094 26.6232C3.70892 25.476 5.00688 24.7071 6.36963 24.0208C7.7394 23.331 9.1589 22.7311 10.5448 21.9095L10.6978 22.1675C9.30124 22.9955 7.85004 23.6111 6.50457 24.2888C5.15208 24.9699 3.89025 25.7204 2.82767 26.8306L2.61094 26.6232ZM10.5448 21.9095C11.1807 21.5324 11.5161 21.1432 11.6746 20.5803C11.8376 20.0014 11.8184 19.2253 11.6963 18.0603L11.9947 18.029C12.1164 19.1903 12.144 20.0204 11.9634 20.6616C11.7784 21.3186 11.3798 21.7631 10.6978 22.1675L10.5448 21.9095ZM11.8386 17.8948C15.0719 17.7457 16.6451 17.9374 18.8094 18.9507L18.6822 19.2224C16.579 18.2377 15.0603 18.0466 11.8524 18.1945L11.8386 17.8948ZM18.811 19.2216C17.6107 19.8013 16.1324 19.9549 14.8142 19.7558C13.5009 19.5575 12.3112 19.0031 11.7212 18.1285L11.9699 17.9607C12.4928 18.7359 13.5847 19.2668 14.859 19.4592C16.1283 19.6508 17.5437 19.5005 18.6805 18.9514L18.811 19.2216Z" fill="black"/>
<path d="M17.0265 22.0722L16.8785 22.0455C16.8897 21.9788 16.9444 21.9285 17.0119 21.9227C17.0794 21.917 17.1429 21.9573 17.1669 22.021L17.0265 22.0722ZM21.7684 27.6252L21.6835 27.7477L21.6835 27.7477L21.7684 27.6252ZM23.4398 31.1535L23.5894 31.1665L23.5893 31.168L23.4398 31.1535ZM22.9029 31.7719L22.8638 31.6267L22.9029 31.7719ZM20.9477 29.8124L20.8038 29.855L20.8012 29.8429L20.9477 29.8124ZM19.0704 26.8091L19.1642 26.6932L19.1663 26.695L19.0704 26.8091ZM17.0986 24.3288L16.956 24.3742L16.9545 24.3689L17.0986 24.3288ZM17.1669 22.021C17.6341 23.2646 18.1455 24.1706 18.8654 24.9953C19.5875 25.8224 20.5246 26.5739 21.8534 27.5026L21.6835 27.7477C20.3494 26.8153 19.3875 26.0467 18.6404 25.1908C17.891 24.3325 17.3629 23.3925 16.8861 22.1233L17.1669 22.021ZM21.8534 27.5026C22.8393 28.1917 23.3029 28.8378 23.5016 29.461C23.6982 30.0774 23.6277 30.6543 23.5894 31.1665L23.2901 31.1405C23.3298 30.609 23.3908 30.0977 23.2158 29.5488C23.0429 29.0068 22.6318 28.4105 21.6835 27.7477L21.8534 27.5026ZM22.942 31.9171C22.6257 31.9986 22.3486 31.9916 22.1054 31.9042C21.8627 31.8171 21.6678 31.655 21.5072 31.4503C21.1915 31.048 20.9893 30.4548 20.8043 29.8549L21.091 29.7699C21.2787 30.3786 21.4672 30.9163 21.7425 31.2671C21.8773 31.439 22.028 31.5591 22.2037 31.6221C22.3789 31.685 22.5931 31.6963 22.8638 31.6267L22.942 31.9171ZM18.9767 26.9251C17.9444 26.087 17.3405 25.5402 16.9561 24.3742L17.241 24.2835C17.5963 25.3612 18.1392 25.8611 19.1642 26.6932L18.9767 26.9251ZM16.9545 24.3689C16.8266 23.9275 16.7677 23.575 16.7617 23.215C16.7558 22.857 16.8023 22.4976 16.8785 22.0455L17.1744 22.0988C17.0989 22.5474 17.0563 22.8845 17.0618 23.2138C17.0672 23.541 17.1203 23.8665 17.2427 24.2888L16.9545 24.3689ZM19.1663 26.695C19.7159 27.1579 20.1182 27.5545 20.4231 28.0266C20.7287 28.4999 20.9304 29.0396 21.0942 29.7818L20.8012 29.8429C20.6421 29.1219 20.4509 28.6197 20.1715 28.187C19.8913 27.7531 19.5165 27.3797 18.9746 26.9233L19.1663 26.695ZM23.5893 31.168C23.5719 31.3741 23.5282 31.5434 23.4138 31.6728C23.3006 31.8006 23.1382 31.8666 22.942 31.9171L22.8638 31.6267C23.0458 31.5798 23.1353 31.5319 23.1879 31.4725C23.239 31.4147 23.2747 31.3235 23.2903 31.1391L23.5893 31.168Z" fill="black"/>
<path d="M15.1593 21.9861L15.0263 21.9257C15.0633 21.8661 15.1366 21.8327 15.2046 21.8445C15.2725 21.8563 15.3179 21.9102 15.315 21.9757L15.1593 21.9861ZM17.4192 28.4214L17.2871 28.5112L17.4192 28.4214ZM17.5817 32.1808L17.7214 32.2295L17.7207 32.2307L17.5817 32.1808ZM16.8226 32.6359L16.8406 32.4919L16.8226 32.6359ZM15.7575 30.2958L15.602 30.2979L15.6043 30.2865L15.7575 30.2958ZM15.1877 26.9843L15.3255 26.903L15.3268 26.9052L15.1877 26.9843ZM14.3171 24.1458L14.1617 24.1506L14.1623 24.1455L14.3171 24.1458ZM15.315 21.9757C15.2566 23.2717 15.3764 24.2579 15.7271 25.2178C16.0788 26.1805 16.6649 27.1239 17.5513 28.3316L17.2871 28.5112C16.3971 27.2984 15.7943 26.3327 15.4306 25.337C15.066 24.3388 14.9441 23.3176 15.0037 21.9966L15.315 21.9757ZM17.5513 28.3316C18.2094 29.2283 18.3878 29.9547 18.3252 30.5927C18.2632 31.2239 17.9647 31.7521 17.7214 32.2295L17.4421 32.1321C17.6939 31.638 17.9593 31.1656 18.0149 30.5995C18.0698 30.0403 17.9194 29.3727 17.2871 28.5112L17.5513 28.3316ZM16.8046 32.7799C16.4701 32.7795 16.2081 32.7044 16.011 32.5607C15.8148 32.4176 15.6953 32.2155 15.6257 31.9825C15.4887 31.5241 15.536 30.9127 15.6025 30.2979L15.9126 30.2938C15.845 30.9176 15.8068 31.4756 15.9268 31.8772C15.9857 32.0741 16.0804 32.2247 16.2206 32.3269C16.3601 32.4287 16.557 32.4916 16.8406 32.4919L16.8046 32.7799ZM15.0499 27.0655C14.408 26.016 14.0563 25.3495 14.1618 24.1506L14.4723 24.141C14.3745 25.2534 14.6888 25.862 15.3255 26.903L15.0499 27.0655ZM14.1623 24.1455C14.2768 23.2364 14.5119 22.7544 15.0263 21.9257L15.2923 22.0466C14.7917 22.8531 14.5793 23.2928 14.4718 24.1461L14.1623 24.1455ZM15.3268 26.9052C15.6618 27.4797 15.8834 27.9547 15.9821 28.4771C16.081 29.0004 16.0548 29.5613 15.9108 30.3052L15.6043 30.2865C15.7444 29.5623 15.7657 29.0377 15.675 28.5574C15.584 28.0762 15.3787 27.6295 15.0486 27.0633L15.3268 26.9052ZM17.7207 32.2307C17.6216 32.421 17.5129 32.5694 17.3532 32.6634C17.194 32.7571 17.0122 32.7801 16.8046 32.7799L16.8406 32.4919C17.0313 32.4921 17.1346 32.4689 17.2081 32.4256C17.2812 32.3826 17.353 32.3032 17.4427 32.1309L17.7207 32.2307Z" fill="black"/>
<path d="M12.5299 21.8418L12.414 21.7559C12.4683 21.7082 12.5525 21.6942 12.6173 21.7222C12.6821 21.7503 12.7104 21.8129 12.6856 21.8733L12.5299 21.8418ZM12.4713 28.514L12.3118 28.5589L12.4713 28.514ZM11.3225 32.1673L11.4474 32.2447L11.4465 32.2456L11.3225 32.1673ZM10.4338 32.445L10.4902 32.3155L10.4338 32.445ZM10.2209 29.9673L10.068 29.9288L10.0732 29.9197L10.2209 29.9673ZM10.8221 26.6591L10.9841 26.6238L10.9846 26.6262L10.8221 26.6591ZM10.9694 23.7428L10.8158 23.7066L10.8178 23.7024L10.9694 23.7428ZM12.6856 21.8733C12.1787 23.1102 11.9514 24.0865 11.9557 25.0859C11.96 26.0874 12.1968 27.1196 12.6307 28.4691L12.3118 28.5589C11.876 27.2031 11.6311 26.1463 11.6267 25.1116C11.6222 24.0748 11.8591 23.0676 12.3743 21.8103L12.6856 21.8733ZM12.6307 28.4691C12.9532 29.4724 12.8717 30.2073 12.5921 30.8035C12.3154 31.3936 11.8484 31.8355 11.4474 32.2447L11.1977 32.0899C11.6106 31.6685 12.0339 31.2663 12.286 30.7288C12.5352 30.1973 12.621 29.5208 12.3118 28.5589L12.6307 28.4691ZM10.3773 32.5745C10.0517 32.5026 9.82111 32.3728 9.67873 32.1896C9.5377 32.0081 9.49358 31.7874 9.50734 31.5503C9.53446 31.0826 9.79083 30.5068 10.0684 29.9289L10.3735 30.0058C10.0919 30.592 9.86003 31.1237 9.83599 31.5381C9.82417 31.7421 9.86376 31.9061 9.96149 32.0319C10.0579 32.156 10.2211 32.2561 10.4902 32.3155L10.3773 32.5745ZM10.6601 26.6945C10.4062 25.5473 10.3001 24.8338 10.8158 23.7066L11.123 23.7791C10.6405 24.8338 10.7329 25.4884 10.9841 26.6238L10.6601 26.6945ZM10.8178 23.7024C11.2418 22.8553 11.6327 22.4436 12.414 21.7559L12.6459 21.9277C11.8824 22.5996 11.5226 22.9808 11.121 23.7832L10.8178 23.7024ZM10.9846 26.6262C11.1077 27.2502 11.1559 27.7536 11.0698 28.2758C10.9836 28.7984 10.7646 29.3307 10.3686 30.0149L10.0732 29.9197C10.4604 29.2508 10.664 28.7482 10.7437 28.2646C10.8235 27.7806 10.7807 27.3065 10.6596 26.6921L10.9846 26.6262ZM11.4465 32.2456C11.2869 32.4059 11.1343 32.523 10.9512 32.5787C10.7652 32.6353 10.5798 32.6192 10.3773 32.5745L10.4902 32.3155C10.671 32.3554 10.7761 32.3549 10.8617 32.3288C10.9503 32.3018 11.0505 32.2377 11.1985 32.089L11.4465 32.2456Z" fill="black"/>
<path d="M10.6167 22.3001C10.6812 22.2433 10.7854 22.2358 10.8494 22.2832C10.9134 22.3307 10.913 22.4151 10.8485 22.4719L10.6167 22.3001ZM7.50504 28.5503L7.66748 28.517L7.50504 28.5503ZM6.42586 32.1674L6.55924 32.2362L6.54984 32.2457L6.42586 32.1674ZM5.5371 32.4451L5.59354 32.3156L5.5371 32.4451ZM4.50007 28.8976L4.65508 28.9309L4.6526 28.9361L4.50007 28.8976ZM5.27913 26.9007L5.42957 26.9433L5.27913 26.9007ZM7.05995 24.4698L7.16789 24.5623L7.05995 24.4698ZM10.8485 22.4719C9.71451 23.4699 8.79592 24.3548 8.22129 25.3038C7.65033 26.2467 7.41548 27.2593 7.66748 28.517L7.34259 28.5836C7.07995 27.2729 7.32444 26.2018 7.9287 25.2038C8.5293 24.212 9.48182 23.2989 10.6167 22.3001L10.8485 22.4719ZM7.66748 28.517C7.87159 29.5357 7.76011 30.2753 7.50842 30.861C7.2581 31.4435 6.87151 31.8651 6.55874 32.236L6.29298 32.0988C6.61428 31.7178 6.96782 31.3316 7.19884 30.794C7.42848 30.2596 7.53955 29.5666 7.34259 28.5836L7.66748 28.517ZM5.48065 32.5746C5.13502 32.4983 4.86097 32.2907 4.65317 32.0224C4.44463 31.7531 4.29445 31.4123 4.20165 31.048C4.01689 30.3227 4.05244 29.4735 4.34753 28.8592L4.6526 28.9361C4.38857 29.4858 4.34794 30.2791 4.52413 30.9708C4.61181 31.315 4.75138 31.6264 4.93616 31.865C5.12166 32.1046 5.34448 32.2606 5.59354 32.3156L5.48065 32.5746ZM5.12869 26.8581C5.25241 26.6222 5.34816 26.414 5.4439 26.214C5.53907 26.0151 5.63386 25.8251 5.75285 25.6338C5.99322 25.2475 6.32689 24.8649 6.952 24.3773L7.16789 24.5623C6.56875 25.0297 6.26244 25.385 6.04367 25.7367C5.9331 25.9144 5.84354 26.0933 5.74913 26.2905C5.65531 26.4866 5.55627 26.7017 5.42957 26.9433L5.12869 26.8581ZM6.952 24.3773C7.41597 24.0153 8.16338 23.6544 8.86538 23.3094C9.58441 22.9559 10.2527 22.6204 10.6167 22.3001L10.8485 22.4719C10.4401 22.8313 9.71729 23.1904 9.01567 23.5353C8.29702 23.8885 7.59429 24.2296 7.16789 24.5623L6.952 24.3773ZM5.42957 26.9433C5.13636 27.5025 5.08519 27.6668 5.03711 27.8502C4.9849 28.0493 4.93632 28.2724 4.65496 28.9309L4.34517 28.8644C4.62028 28.2205 4.66531 28.0095 4.71556 27.8179C4.76993 27.6105 4.83006 27.4275 5.12869 26.8581L5.42957 26.9433ZM6.54984 32.2457C6.39025 32.406 6.23764 32.5231 6.05457 32.5788C5.86858 32.6355 5.6831 32.6193 5.48065 32.5746L5.59354 32.3156C5.77434 32.3555 5.8794 32.355 5.96506 32.3289C6.05364 32.302 6.15379 32.2379 6.30188 32.0891L6.54984 32.2457Z" fill="black"/>
<path d="M84.7458 22.0865L84.8094 21.9507L84.996 22.038L84.8555 22.1888L84.7458 22.0865ZM85.4135 26.5145L85.5242 26.4132L85.4135 26.5145ZM91.4235 31.8107L91.2928 31.8843L91.2928 31.8843L91.4235 31.8107ZM86.3039 37.541L86.3277 37.6891L86.3039 37.541ZM67.4951 33.8944L67.6194 33.8105L67.4951 33.8944ZM68.7193 29.7269L68.6109 29.6232L68.7193 29.7269ZM76.6213 25.0385L76.6978 25.1675L76.6213 25.0385ZM77.8455 21.0446L77.6963 21.0603L77.6798 20.9021L77.8386 20.8948L77.8455 21.0446ZM84.8555 22.1888C84.2838 22.8021 83.9354 23.2491 83.959 23.8251C83.9831 24.4125 84.3961 25.1798 85.5242 26.4132L85.3029 26.6157C84.1754 25.383 83.6883 24.5438 83.6593 23.8374C83.6298 23.1197 84.0754 22.5857 84.636 21.9842L84.8555 22.1888ZM85.5242 26.4132C86.543 27.527 87.7229 28.2978 88.8202 29.0726C89.9109 29.8427 90.9237 30.6192 91.5541 31.737L91.2928 31.8843C90.699 30.8316 89.7392 30.0887 88.6472 29.3177C87.5618 28.5513 86.3488 27.7593 85.3029 26.6157L85.5242 26.4132ZM91.5541 31.737C91.9538 32.4455 92.071 33.1417 91.9519 33.7973C91.833 34.4509 91.4816 35.0511 90.9662 35.5752C89.9378 36.6209 88.24 37.3819 86.3277 37.6891L86.2801 37.3929C88.1519 37.0922 89.7825 36.3509 90.7523 35.3648C91.2359 34.873 91.551 34.3249 91.6567 33.7436C91.762 33.1642 91.6619 32.5386 91.2928 31.8843L91.5541 31.737ZM86.3277 37.6891C75.0752 39.4963 69.6491 37.3553 67.3707 33.9783L67.6194 33.8105C69.7929 37.032 75.0511 39.1963 86.2801 37.3929L86.3277 37.6891ZM67.3707 33.9783C66.9179 33.3071 66.7304 32.7104 66.9278 32.0184C67.1197 31.346 67.6701 30.6062 68.6109 29.6232L68.8277 29.8306C67.8869 30.8135 67.3859 31.5064 67.2163 32.1007C67.0524 32.6753 67.1936 33.1794 67.6194 33.8105L67.3707 33.9783ZM68.6109 29.6232C69.7089 28.476 71.0069 27.7071 72.3696 27.0208C73.7394 26.331 75.1589 25.7311 76.5448 24.9095L76.6978 25.1675C75.3012 25.9955 73.85 26.6111 72.5046 27.2888C71.1521 27.9699 69.8903 28.7204 68.8277 29.8306L68.6109 29.6232ZM76.5448 24.9095C77.1807 24.5324 77.5161 24.1432 77.6746 23.5803C77.8376 23.0014 77.8184 22.2253 77.6963 21.0603L77.9947 21.029C78.1164 22.1903 78.144 23.0204 77.9634 23.6616C77.7784 24.3186 77.3798 24.7631 76.6978 25.1675L76.5448 24.9095ZM77.8386 20.8948C81.0719 20.7457 82.6451 20.9374 84.8094 21.9507L84.6822 22.2224C82.579 21.2377 81.0603 21.0466 77.8524 21.1945L77.8386 20.8948ZM84.811 22.2216C83.6107 22.8013 82.1324 22.9549 80.8142 22.7558C79.5009 22.5575 78.3112 22.0031 77.7212 21.1285L77.9699 20.9607C78.4928 21.7359 79.5847 22.2668 80.859 22.4592C82.1283 22.6508 83.5437 22.5005 84.6805 21.9514L84.811 22.2216Z" fill="black"/>
<path d="M83.0265 25.0722L82.8785 25.0455C82.8897 24.9788 82.9444 24.9285 83.0119 24.9227C83.0794 24.917 83.1429 24.9573 83.1669 25.021L83.0265 25.0722ZM87.7684 30.6252L87.6835 30.7477L87.6835 30.7477L87.7684 30.6252ZM89.4398 34.1535L89.5894 34.1665L89.5893 34.168L89.4398 34.1535ZM88.9029 34.7719L88.8638 34.6267L88.9029 34.7719ZM86.9477 32.8124L86.8038 32.855L86.8012 32.8429L86.9477 32.8124ZM85.0704 29.8091L85.1642 29.6932L85.1663 29.695L85.0704 29.8091ZM83.0986 27.3288L82.956 27.3742L82.9545 27.3689L83.0986 27.3288ZM83.1669 25.021C83.6341 26.2646 84.1455 27.1706 84.8654 27.9953C85.5875 28.8224 86.5246 29.5739 87.8534 30.5026L87.6835 30.7477C86.3494 29.8153 85.3875 29.0467 84.6404 28.1908C83.891 27.3325 83.3629 26.3925 82.8861 25.1233L83.1669 25.021ZM87.8534 30.5026C88.8393 31.1917 89.3029 31.8378 89.5016 32.461C89.6982 33.0774 89.6277 33.6543 89.5894 34.1665L89.2901 34.1405C89.3298 33.609 89.3908 33.0977 89.2158 32.5488C89.0429 32.0068 88.6318 31.4105 87.6835 30.7477L87.8534 30.5026ZM88.942 34.9171C88.6257 34.9986 88.3486 34.9916 88.1054 34.9042C87.8627 34.8171 87.6678 34.655 87.5072 34.4503C87.1915 34.048 86.9893 33.4548 86.8043 32.8549L87.091 32.7699C87.2787 33.3786 87.4672 33.9163 87.7425 34.2671C87.8773 34.439 88.028 34.5591 88.2037 34.6221C88.3789 34.685 88.5931 34.6963 88.8638 34.6267L88.942 34.9171ZM84.9767 29.9251C83.9444 29.087 83.3405 28.5402 82.9561 27.3742L83.241 27.2835C83.5963 28.3612 84.1392 28.8611 85.1642 29.6932L84.9767 29.9251ZM82.9545 27.3689C82.8266 26.9275 82.7677 26.575 82.7617 26.215C82.7558 25.857 82.8023 25.4976 82.8785 25.0455L83.1744 25.0988C83.0989 25.5474 83.0563 25.8845 83.0618 26.2138C83.0672 26.541 83.1203 26.8665 83.2427 27.2888L82.9545 27.3689ZM85.1663 29.695C85.7159 30.1579 86.1182 30.5545 86.4231 31.0266C86.7287 31.4999 86.9304 32.0396 87.0942 32.7818L86.8012 32.8429C86.6421 32.1219 86.4509 31.6197 86.1715 31.187C85.8913 30.7531 85.5165 30.3797 84.9746 29.9233L85.1663 29.695ZM89.5893 34.168C89.5719 34.3741 89.5282 34.5434 89.4138 34.6728C89.3006 34.8006 89.1382 34.8666 88.942 34.9171L88.8638 34.6267C89.0458 34.5798 89.1353 34.5319 89.1879 34.4725C89.239 34.4147 89.2747 34.3235 89.2903 34.1391L89.5893 34.168Z" fill="black"/>
<path d="M81.1593 24.9861L81.0263 24.9257C81.0633 24.8661 81.1366 24.8327 81.2046 24.8445C81.2725 24.8563 81.3179 24.9102 81.315 24.9757L81.1593 24.9861ZM83.4192 31.4214L83.2871 31.5112L83.4192 31.4214ZM83.5817 35.1808L83.7214 35.2295L83.7207 35.2307L83.5817 35.1808ZM82.8226 35.6359L82.8406 35.4919L82.8226 35.6359ZM81.7575 33.2958L81.602 33.2979L81.6043 33.2865L81.7575 33.2958ZM81.1877 29.9843L81.3255 29.903L81.3268 29.9052L81.1877 29.9843ZM80.3171 27.1458L80.1617 27.1506L80.1623 27.1455L80.3171 27.1458ZM81.315 24.9757C81.2566 26.2717 81.3764 27.2579 81.7271 28.2178C82.0788 29.1805 82.6649 30.1239 83.5513 31.3316L83.2871 31.5112C82.3971 30.2984 81.7943 29.3327 81.4306 28.337C81.066 27.3388 80.9441 26.3176 81.0037 24.9966L81.315 24.9757ZM83.5513 31.3316C84.2094 32.2283 84.3878 32.9547 84.3252 33.5927C84.2632 34.2239 83.9647 34.7521 83.7214 35.2295L83.4421 35.1321C83.6939 34.638 83.9593 34.1656 84.0149 33.5995C84.0698 33.0403 83.9194 32.3727 83.2871 31.5112L83.5513 31.3316ZM82.8046 35.7799C82.4701 35.7795 82.2081 35.7044 82.011 35.5607C81.8148 35.4176 81.6953 35.2155 81.6257 34.9825C81.4887 34.5241 81.536 33.9127 81.6025 33.2979L81.9126 33.2938C81.845 33.9176 81.8068 34.4756 81.9268 34.8772C81.9857 35.0741 82.0804 35.2247 82.2206 35.3269C82.3601 35.4287 82.557 35.4916 82.8406 35.4919L82.8046 35.7799ZM81.0499 30.0655C80.408 29.016 80.0563 28.3495 80.1618 27.1506L80.4723 27.141C80.3745 28.2534 80.6888 28.862 81.3255 29.903L81.0499 30.0655ZM80.1623 27.1455C80.2768 26.2364 80.5119 25.7544 81.0263 24.9257L81.2923 25.0466C80.7917 25.8531 80.5793 26.2928 80.4718 27.1461L80.1623 27.1455ZM81.3268 29.9052C81.6618 30.4797 81.8834 30.9547 81.9821 31.4771C82.081 32.0004 82.0548 32.5613 81.9108 33.3052L81.6043 33.2865C81.7444 32.5623 81.7657 32.0377 81.675 31.5574C81.584 31.0762 81.3787 30.6295 81.0486 30.0633L81.3268 29.9052ZM83.7207 35.2307C83.6216 35.421 83.5129 35.5694 83.3532 35.6634C83.194 35.7571 83.0122 35.7801 82.8046 35.7799L82.8406 35.4919C83.0313 35.4921 83.1346 35.4689 83.2081 35.4256C83.2812 35.3826 83.353 35.3032 83.4427 35.1309L83.7207 35.2307Z" fill="black"/>
<path d="M78.5299 24.8418L78.414 24.7559C78.4683 24.7082 78.5525 24.6942 78.6173 24.7222C78.6821 24.7503 78.7104 24.8129 78.6856 24.8733L78.5299 24.8418ZM78.4713 31.514L78.3118 31.5589L78.4713 31.514ZM77.3225 35.1673L77.4474 35.2447L77.4465 35.2456L77.3225 35.1673ZM76.4338 35.445L76.4902 35.3155L76.4338 35.445ZM76.2209 32.9673L76.068 32.9288L76.0732 32.9197L76.2209 32.9673ZM76.8221 29.6591L76.9841 29.6238L76.9846 29.6262L76.8221 29.6591ZM76.9694 26.7428L76.8158 26.7066L76.8178 26.7024L76.9694 26.7428ZM78.6856 24.8733C78.1787 26.1102 77.9514 27.0865 77.9557 28.0859C77.96 29.0874 78.1968 30.1196 78.6307 31.4691L78.3118 31.5589C77.876 30.2031 77.6311 29.1463 77.6267 28.1116C77.6222 27.0748 77.8591 26.0676 78.3743 24.8103L78.6856 24.8733ZM78.6307 31.4691C78.9532 32.4724 78.8717 33.2073 78.5921 33.8035C78.3154 34.3936 77.8484 34.8355 77.4474 35.2447L77.1977 35.0899C77.6106 34.6685 78.0339 34.2663 78.286 33.7288C78.5352 33.1973 78.621 32.5208 78.3118 31.5589L78.6307 31.4691ZM76.3773 35.5745C76.0517 35.5026 75.8211 35.3728 75.6787 35.1896C75.5377 35.0081 75.4936 34.7874 75.5073 34.5503C75.5345 34.0826 75.7908 33.5068 76.0684 32.9289L76.3735 33.0058C76.0919 33.592 75.86 34.1237 75.836 34.5381C75.8242 34.7421 75.8638 34.9061 75.9615 35.0319C76.0579 35.156 76.2211 35.2561 76.4902 35.3155L76.3773 35.5745ZM76.6601 29.6945C76.4062 28.5473 76.3001 27.8338 76.8158 26.7066L77.123 26.7791C76.6405 27.8338 76.7329 28.4884 76.9841 29.6238L76.6601 29.6945ZM76.8178 26.7024C77.2418 25.8553 77.6327 25.4436 78.414 24.7559L78.6459 24.9277C77.8824 25.5996 77.5226 25.9808 77.121 26.7832L76.8178 26.7024ZM76.9846 29.6262C77.1077 30.2502 77.1559 30.7536 77.0698 31.2758C76.9836 31.7984 76.7646 32.3307 76.3686 33.0149L76.0732 32.9197C76.4604 32.2508 76.664 31.7482 76.7437 31.2646C76.8235 30.7806 76.7807 30.3065 76.6596 29.6921L76.9846 29.6262ZM77.4465 35.2456C77.2869 35.4059 77.1343 35.523 76.9512 35.5787C76.7652 35.6353 76.5798 35.6192 76.3773 35.5745L76.4902 35.3155C76.671 35.3554 76.7761 35.3549 76.8617 35.3288C76.9503 35.3018 77.0505 35.2377 77.1985 35.089L77.4465 35.2456Z" fill="black"/>
<path d="M76.6167 25.3001C76.6812 25.2433 76.7854 25.2358 76.8494 25.2832C76.9134 25.3307 76.913 25.4151 76.8485 25.4719L76.6167 25.3001ZM73.505 31.5503L73.6675 31.517L73.505 31.5503ZM72.4259 35.1674L72.5592 35.2362L72.5498 35.2457L72.4259 35.1674ZM71.5371 35.4451L71.5935 35.3156L71.5371 35.4451ZM70.5001 31.8976L70.6551 31.9309L70.6526 31.9361L70.5001 31.8976ZM71.2791 29.9007L71.4296 29.9433L71.2791 29.9007ZM73.0599 27.4698L73.1679 27.5623L73.0599 27.4698ZM76.8485 25.4719C75.7145 26.4699 74.7959 27.3548 74.2213 28.3038C73.6503 29.2467 73.4155 30.2593 73.6675 31.517L73.3426 31.5836C73.08 30.2729 73.3244 29.2018 73.9287 28.2038C74.5293 27.212 75.4818 26.2989 76.6167 25.3001L76.8485 25.4719ZM73.6675 31.517C73.8716 32.5357 73.7601 33.2753 73.5084 33.861C73.2581 34.4435 72.8715 34.8651 72.5587 35.236L72.293 35.0988C72.6143 34.7178 72.9678 34.3316 73.1988 33.794C73.4285 33.2596 73.5396 32.5666 73.3426 31.5836L73.6675 31.517ZM71.4806 35.5746C71.135 35.4983 70.861 35.2907 70.6532 35.0224C70.4446 34.7531 70.2944 34.4123 70.2017 34.048C70.0169 33.3227 70.0524 32.4735 70.3475 31.8592L70.6526 31.9361C70.3886 32.4858 70.3479 33.2791 70.5241 33.9708C70.6118 34.315 70.7514 34.6264 70.9362 34.865C71.1217 35.1046 71.3445 35.2606 71.5935 35.3156L71.4806 35.5746ZM71.1287 29.8581C71.2524 29.6222 71.3482 29.414 71.4439 29.214C71.5391 29.0151 71.6339 28.8251 71.7529 28.6338C71.9932 28.2475 72.3269 27.8649 72.952 27.3773L73.1679 27.5623C72.5688 28.0297 72.2624 28.385 72.0437 28.7367C71.9331 28.9144 71.8435 29.0933 71.7491 29.2905C71.6553 29.4866 71.5563 29.7017 71.4296 29.9433L71.1287 29.8581ZM72.952 27.3773C73.416 27.0153 74.1634 26.6544 74.8654 26.3094C75.5844 25.9559 76.2527 25.6204 76.6167 25.3001L76.8485 25.4719C76.4401 25.8313 75.7173 26.1904 75.0157 26.5353C74.297 26.8885 73.5943 27.2296 73.1679 27.5623L72.952 27.3773ZM71.4296 29.9433C71.1364 30.5025 71.0852 30.6668 71.0371 30.8502C70.9849 31.0493 70.9363 31.2724 70.655 31.9309L70.3452 31.8644C70.6203 31.2205 70.6653 31.0095 70.7156 30.8179C70.7699 30.6105 70.8301 30.4275 71.1287 29.8581L71.4296 29.9433ZM72.5498 35.2457C72.3902 35.406 72.2376 35.5231 72.0546 35.5788C71.8686 35.6355 71.6831 35.6193 71.4806 35.5746L71.5935 35.3156C71.7743 35.3555 71.8794 35.355 71.9651 35.3289C72.0536 35.302 72.1538 35.2379 72.3019 35.0891L72.5498 35.2457Z" fill="black"/>
<path d="M67.1491 2.209L67.2311 2.08343L67.358 2.16631L67.2738 2.29231L67.1491 2.209ZM69.3496 8.72889L69.475 8.64667L69.3496 8.72889ZM74.1414 12.4967L74.0023 12.5529L74.0023 12.5529L74.1414 12.4967ZM68.3914 19.4058L68.4242 19.5522L68.3914 19.4058ZM53.3949 15.3481L53.5299 15.2828L53.3949 15.3481ZM54.371 10.7108L54.2473 10.6259L54.371 10.7108ZM60.6713 5.49378L60.7669 5.60934L60.6713 5.49378ZM61.6474 1.04966L61.4978 1.06089L61.4865 0.909709L61.6378 0.899974L61.6474 1.04966ZM67.2738 2.29231C66.8664 2.90225 66.9408 3.78153 67.376 4.89207C67.808 5.99431 68.5761 7.27506 69.475 8.64667L69.2241 8.81111C68.3246 7.43861 67.541 6.13529 67.0967 5.00154C66.6556 3.8761 66.5289 2.86749 67.0244 2.12569L67.2738 2.29231ZM69.475 8.64667C70.2698 9.85938 71.1827 10.1838 72.0494 10.5086C72.4826 10.6709 72.9159 10.8372 73.3014 11.1216C73.6914 11.4092 74.0267 11.8125 74.2805 12.4405L74.0023 12.5529C73.7681 11.9733 73.4661 11.6158 73.1233 11.363C72.7761 11.1069 72.3811 10.9532 71.9441 10.7895C71.0706 10.4622 70.0756 10.1103 69.2241 8.81111L69.475 8.64667ZM74.2805 12.4405C74.926 14.0378 74.1964 15.6575 72.9657 16.9389C71.7324 18.223 69.9625 19.2073 68.4242 19.5522L68.3586 19.2594C69.8374 18.9279 71.5554 17.9742 72.7493 16.7311C73.9458 15.4853 74.5826 13.9886 74.0023 12.5529L74.2805 12.4405ZM68.4242 19.5522C63.9278 20.56 60.5923 20.4676 58.1501 19.6492C55.7027 18.8291 54.1638 17.2833 53.2598 15.4134L53.5299 15.2828C54.4007 17.0841 55.8789 18.5717 58.2454 19.3648C60.6172 20.1596 63.8926 20.2605 68.3586 19.2594L68.4242 19.5522ZM53.2598 15.4134C52.9002 14.6695 52.758 14.0229 52.9107 13.2763C53.0611 12.5403 53.4954 11.7223 54.2473 10.6259L54.4947 10.7956C53.7463 11.8869 53.3423 12.663 53.2046 13.3364C53.0691 13.9993 53.189 14.5776 53.5299 15.2828L53.2598 15.4134ZM54.2473 10.6259C55.123 9.34905 56.1596 8.49161 57.249 7.72595C58.3444 6.95605 59.4719 6.29152 60.5757 5.37821L60.7669 5.60934C59.6523 6.53165 58.491 7.21967 57.4215 7.97139C56.3459 8.72736 55.3416 9.56062 54.4947 10.7956L54.2473 10.6259ZM60.5757 5.37821C61.0762 4.96409 61.3495 4.52991 61.4793 3.88673C61.6116 3.23087 61.5951 2.35665 61.4978 1.06089L61.797 1.03844C61.8941 2.33133 61.9149 3.24442 61.7733 3.94607C61.6292 4.66041 61.3173 5.15397 60.7669 5.60934L60.5757 5.37821ZM61.6378 0.899974C62.9256 0.817111 63.8916 0.827969 64.7532 1.00354C65.6181 1.17978 66.3691 1.52016 67.2311 2.08343L67.067 2.33457C66.2278 1.78622 65.5119 1.46432 64.6933 1.29749C63.8713 1.12999 62.9371 1.11699 61.6571 1.19935L61.6378 0.899974ZM67.2329 2.33338C66.2642 2.98636 65.0684 3.16039 64.0013 2.93552C62.9348 2.71077 61.9805 2.0834 61.5124 1.11495L61.7825 0.984382C62.2017 1.85164 63.0666 2.43196 64.0632 2.64197C65.0592 2.85185 66.1705 2.68769 67.0653 2.08462L67.2329 2.33338Z" fill="black"/>
<path d="M66.5589 5.57803L66.41 5.56067C66.4186 5.48931 66.4766 5.43386 66.5482 5.42844C66.6199 5.42303 66.6851 5.46916 66.7037 5.53846L66.5589 5.57803ZM70.3397 11.7571L70.2348 11.8647L70.3397 11.7571ZM71.6723 15.6832L71.8221 15.6906L71.822 15.6916L71.6723 15.6832ZM71.2442 16.3713L71.1941 16.2302L71.2442 16.3713ZM69.6853 14.1909L69.5386 14.2239L69.5372 14.2149L69.6853 14.1909ZM68.1886 10.8491L68.3012 10.7495L68.303 10.7516L68.1886 10.8491ZM66.6164 8.08914L66.4704 8.12423L66.4695 8.12024L66.6164 8.08914ZM66.7037 5.53846C67.0776 6.92717 67.487 7.93937 68.0626 8.85956C68.639 9.78096 69.3861 10.617 70.4447 11.6495L70.2348 11.8647C69.1702 10.8263 68.4032 9.97083 67.8081 9.01947C67.2123 8.06689 66.7929 7.02501 66.414 5.61761L66.7037 5.53846ZM70.4447 11.6495C71.234 12.4194 71.5987 13.1354 71.7539 13.8147C71.9077 14.4879 71.8528 15.1169 71.8221 15.6906L71.5225 15.6758C71.554 15.0882 71.6039 14.5063 71.4614 13.8828C71.3204 13.2655 70.9877 12.5991 70.2348 11.8647L70.4447 11.6495ZM71.2944 16.5125C71.0291 16.6078 70.7897 16.6009 70.58 16.4958C70.3759 16.3936 70.2196 16.2081 70.0944 15.9855C69.846 15.5437 69.6864 14.8916 69.5389 14.2238L69.8318 14.1579C69.9814 14.8351 70.1332 15.4414 70.356 15.8376C70.4664 16.034 70.5857 16.1625 70.7152 16.2274C70.8391 16.2895 70.9915 16.303 71.1941 16.2302L71.2944 16.5125ZM68.0759 10.9486C67.2501 10.0129 66.7737 9.40825 66.4704 8.12422L66.7624 8.05406C67.0488 9.2667 67.4868 9.82676 68.3012 10.7495L68.0759 10.9486ZM66.4695 8.12024C66.2656 7.13788 66.2878 6.57237 66.41 5.56067L66.7078 5.5954C66.5879 6.58806 66.5681 7.11841 66.7632 8.05804L66.4695 8.12024ZM68.303 10.7516C68.742 11.2676 69.0616 11.7078 69.3029 12.2295C69.5441 12.7509 69.7036 13.3455 69.8335 14.1668L69.5372 14.2149C69.4096 13.4081 69.2559 12.8433 69.0306 12.3565C68.8055 11.8701 68.5054 11.4535 68.0742 10.9466L68.303 10.7516ZM71.822 15.6916C71.8086 15.9141 71.7756 16.0916 71.6881 16.2296C71.5963 16.3743 71.4597 16.4531 71.2944 16.5125L71.1941 16.2302C71.3303 16.1812 71.3946 16.1333 71.4349 16.0696C71.4795 15.9993 71.5098 15.8869 71.5226 15.6748L71.822 15.6916Z" fill="black"/>
<path d="M64.5197 5.64862L64.3736 5.61346C64.3894 5.54355 64.4526 5.49538 64.5243 5.49858C64.596 5.50178 64.6561 5.55546 64.6676 5.62659L64.5197 5.64862ZM67.652 12.2437L67.5369 12.3382L67.652 12.2437ZM68.5791 16.3058L68.7271 16.3311L68.7269 16.3321L68.5791 16.3058ZM68.084 16.9384L68.0485 16.7919L68.084 16.9384ZM66.7553 14.5841L66.6062 14.5994L66.6057 14.5903L66.7553 14.5841ZM65.6059 11.0831L65.7278 10.9975L65.7294 10.9998L65.6059 11.0831ZM64.3227 8.15133L64.1741 8.16874L64.1737 8.16467L64.3227 8.15133ZM64.6676 5.62659C64.8986 7.05169 65.2031 8.10683 65.682 9.09047C66.1616 10.0754 66.8195 10.996 67.7671 12.1492L67.5369 12.3382C66.5839 11.1784 65.9083 10.2361 65.4131 9.2191C64.9173 8.20081 64.606 7.11495 64.3719 5.67064L64.6676 5.62659ZM67.7671 12.1492C68.4737 13.0092 68.7637 13.7646 68.8492 14.4584C68.9339 15.146 68.8157 15.7646 68.7271 16.3311L68.4311 16.2805C68.5218 15.7002 68.6303 15.1278 68.5518 14.4911C68.4741 13.8606 68.2109 13.1584 67.5369 12.3382L67.7671 12.1492ZM68.1195 17.0848C67.8461 17.1477 67.609 17.1121 67.4112 16.9825C67.2188 16.8564 67.0822 16.6534 66.9803 16.417C66.7781 15.948 66.6855 15.2808 66.6064 14.5994L66.9041 14.5689C66.9842 15.2599 67.0738 15.8807 67.2551 16.3012C67.3449 16.5096 67.4504 16.6517 67.5727 16.7318C67.6895 16.8083 67.8397 16.84 68.0485 16.7919L68.1195 17.0848ZM65.484 11.1686C64.7579 10.1395 64.3456 9.48139 64.1741 8.16874L64.4712 8.13392C64.6332 9.37349 65.0117 9.98267 65.7278 10.9975L65.484 11.1686ZM64.1737 8.16467C64.0704 7.16378 64.1497 6.60436 64.3736 5.61346L64.6659 5.68377C64.4462 6.65599 64.3729 7.18071 64.4717 8.13799L64.1737 8.16467ZM65.7294 10.9998C66.1135 11.5653 66.3865 12.0413 66.5736 12.5888C66.7606 13.1359 66.8589 13.746 66.9048 14.578L66.6057 14.5903C66.5606 13.7731 66.4649 13.1933 66.2903 12.6825C66.1159 12.172 65.8598 11.722 65.4825 11.1664L65.7294 10.9998ZM68.7269 16.3321C68.691 16.5517 68.6403 16.7241 68.5393 16.8508C68.4335 16.9836 68.2897 17.0456 68.1195 17.0848L68.0485 16.7919C68.1889 16.7596 68.2576 16.7197 68.3042 16.6613C68.3556 16.5968 68.397 16.4887 68.4312 16.2795L68.7269 16.3321Z" fill="black"/>
<path d="M63.684 5.32183L63.5737 5.21764C63.6182 5.16298 63.6934 5.15074 63.7537 5.18836C63.8139 5.22598 63.8425 5.30307 63.8221 5.37274L63.684 5.32183ZM63.6372 12.7463L63.4968 12.7789L63.6372 12.7463ZM62.7213 16.8114L62.8378 16.9072L62.8372 16.9081L62.7213 16.8114ZM62.0126 17.1204L62.0484 16.9713L62.0126 17.1204ZM61.8429 14.3634L61.7068 14.3055L61.7105 14.2966L61.8429 14.3634ZM62.3223 10.6822L62.4649 10.661L62.4653 10.6638L62.3223 10.6822ZM62.4397 7.43713L62.303 7.38148L62.3045 7.3774L62.4397 7.43713ZM63.8221 5.37274C63.4175 6.75046 63.2361 7.83788 63.2396 8.95043C63.243 10.0647 63.4318 11.2127 63.7775 12.7137L63.4968 12.7789C63.1491 11.2696 62.9538 10.093 62.9503 8.94145C62.9467 7.78821 63.1355 6.66857 63.5459 5.27091L63.8221 5.37274ZM63.7775 12.7137C64.0353 13.8327 63.9693 14.6494 63.7477 15.309C63.5283 15.9622 63.1581 16.4511 62.8378 16.9072L62.6047 16.7155C62.9334 16.2474 63.273 15.7972 63.4752 15.1955C63.6752 14.6002 63.7427 13.8465 63.4968 12.7789L63.7775 12.7137ZM61.9769 17.2694C61.7102 17.1872 61.5181 17.0374 61.3998 16.8248C61.284 16.6169 61.2496 16.3682 61.2605 16.1062C61.2821 15.5873 61.4857 14.9486 61.7071 14.3056L61.9788 14.4212C61.7544 15.0735 61.5687 15.6672 61.5495 16.13C61.54 16.3588 61.5723 16.5381 61.6469 16.6721C61.719 16.8015 61.8409 16.9074 62.0484 16.9713L61.9769 17.2694ZM62.1797 10.7034C61.977 9.42499 61.8931 8.6323 62.3031 7.3815L62.5763 7.49276C62.1905 8.66988 62.2648 9.3996 62.4648 10.661L62.1797 10.7034ZM62.3045 7.3774C62.6414 6.43772 62.9516 5.98179 63.5737 5.21764L63.7942 5.42601C63.1847 6.17472 62.8962 6.60097 62.5749 7.49686L62.3045 7.3774ZM62.4653 10.6638C62.5635 11.359 62.6018 11.9191 62.5333 12.4993C62.4648 13.0793 62.2906 13.6701 61.9754 14.4302L61.7105 14.2966C62.0196 13.551 62.1825 12.9902 62.2462 12.4506C62.3099 11.9112 62.2757 11.3836 62.1793 10.7006L62.4653 10.6638ZM62.8372 16.9081C62.7111 17.0848 62.5914 17.2131 62.4465 17.2747C62.2957 17.3388 62.1428 17.3205 61.9769 17.2694L62.0484 16.9713C62.188 17.0144 62.2668 17.0136 62.3326 16.9856C62.4043 16.9552 62.486 16.8819 62.6053 16.7146L62.8372 16.9081Z" fill="black"/>
<path d="M62.6044 5.22736C62.6561 5.16386 62.7474 5.15902 62.8083 5.21656C62.8692 5.2741 62.8767 5.37222 62.825 5.43573L62.6044 5.22736ZM60.1413 12.1909L60.2842 12.1721L60.1413 12.1909ZM59.2809 16.2157L59.4033 16.3033L59.3968 16.3125L59.2809 16.2157ZM58.5722 16.5247L58.608 16.3757L58.5722 16.5247ZM57.7454 12.5773L57.8831 12.63L57.8813 12.6352L57.7454 12.5773ZM58.3666 10.3553L58.501 10.4172L58.3666 10.3553ZM59.7864 7.65029L59.8911 7.76098L59.7864 7.65029ZM62.825 5.43573C61.0184 7.65471 59.8845 9.38764 60.2842 12.1721L59.9983 12.2097C59.5775 9.27803 60.7929 7.45242 62.6044 5.22736L62.825 5.43573ZM60.2842 12.1721C60.4472 13.307 60.3579 14.1289 60.1581 14.7777C59.9594 15.4231 59.6527 15.8897 59.403 16.303L59.1587 16.1284C59.4145 15.7051 59.698 15.273 59.8831 14.6719C60.0671 14.0743 60.1552 13.3022 59.9983 12.2097L60.2842 12.1721ZM58.5365 16.6738C58.2489 16.5851 58.0241 16.3449 57.8566 16.043C57.6884 15.7398 57.5682 15.3581 57.4941 14.9523C57.3464 14.143 57.3755 13.1994 57.6095 12.5195L57.8813 12.6352C57.6695 13.2506 57.6379 14.1346 57.7779 14.9022C57.8478 15.2847 57.9586 15.6287 58.104 15.8907C58.25 16.1539 58.4215 16.3182 58.608 16.3757L58.5365 16.6738ZM58.2321 10.2933C58.6257 9.24592 58.6812 8.62901 59.6818 7.53959L59.8911 7.76098C58.9395 8.79702 58.906 9.3392 58.501 10.4172L58.2321 10.2933ZM59.6818 7.53959C60.0503 7.13841 60.6447 6.73768 61.2051 6.35324C61.7776 5.96054 62.3124 5.5861 62.6044 5.22736L62.825 5.43573C62.5012 5.83342 61.9268 6.2319 61.3665 6.61625C60.7942 7.00885 60.2325 7.38928 59.8911 7.76098L59.6818 7.53959ZM58.501 10.4172C58.2669 11.0401 58.2258 11.224 58.1872 11.4291C58.1457 11.6504 58.1071 11.8981 57.883 12.63L57.6078 12.5247C57.8274 11.8074 57.8634 11.572 57.9036 11.3585C57.9467 11.1288 57.9943 10.9263 58.2321 10.2933L58.501 10.4172ZM59.3968 16.3125C59.2707 16.4892 59.151 16.6175 59.0061 16.679C58.8553 16.7431 58.7024 16.7249 58.5365 16.6738L58.608 16.3757C58.7476 16.4187 58.8264 16.4179 58.8922 16.39C58.9639 16.3595 59.0456 16.2862 59.1649 16.119L59.3968 16.3125Z" fill="black"/>
</svg>
