<svg width="16" height="17" viewBox="0 0 16 17" fill="none" xmlns="http://www.w3.org/2000/svg">
<path d="M15.8252 8.1454L8.32523 0.645396C8.23155 0.552271 8.10482 0.5 7.97273 0.5C7.84064 0.5 7.71391 0.552271 7.62023 0.645396L0.120229 8.1454C0.0383153 8.24105 -0.00448769 8.36409 0.000372891 8.48992C0.00523347 8.61576 0.0573997 8.73513 0.146447 8.82418C0.235494 8.91323 0.354864 8.96539 0.480702 8.97025C0.60654 8.97511 0.729578 8.93231 0.825229 8.8504L7.97023 1.7054L15.1152 8.8554C15.2109 8.93731 15.3339 8.98011 15.4598 8.97525C15.5856 8.97039 15.705 8.91823 15.794 8.82918C15.8831 8.74013 15.9352 8.62076 15.9401 8.49492C15.9449 8.36909 15.9021 8.24605 15.8202 8.1504L15.8252 8.1454Z" fill="black" fill-opacity="0.5"/>
<path d="M12.9702 15.5004H10.4702V10.5004H5.47021V15.5004H2.97021V8.50037L1.97021 9.50037V15.5004C1.97021 15.7656 2.07557 16.0199 2.26311 16.2075C2.45064 16.395 2.705 16.5004 2.97021 16.5004H6.47021V11.5004H9.47021V16.5004H12.9702C13.2354 16.5004 13.4898 16.395 13.6773 16.2075C13.8649 16.0199 13.9702 15.7656 13.9702 15.5004V9.38037L12.9702 8.38037V15.5004Z" fill="black" fill-opacity="0.5"/>
</svg>
