<svg width="21" height="22" viewBox="0 0 21 22" fill="none" xmlns="http://www.w3.org/2000/svg">
<g clip-path="url(#clip0)">
<path fill-rule="evenodd" clip-rule="evenodd" d="M10.2528 7.22645C10.2528 6.875 10.5377 6.59009 10.8892 6.59009C11.2406 6.59009 11.5255 6.875 11.5255 7.22645C11.5255 7.5779 11.2406 7.86281 10.8892 7.86281C10.5377 7.86281 10.2528 7.5779 10.2528 7.22645ZM9.38419 9.15537C9.37378 8.93321 9.56647 8.72161 9.78863 8.71124H10.889C11.1111 8.71126 11.3132 8.91336 11.3133 9.13548V14.2264H11.9496C12.1737 14.2232 12.3799 14.4265 12.3799 14.6506C12.3799 14.8748 12.1737 15.078 11.9496 15.0749H9.82841C9.60625 15.0853 9.39461 14.8927 9.38419 14.6705C9.37378 14.4484 9.56647 14.2367 9.78863 14.2264H10.4648V9.55972H9.82841C9.60625 9.57018 9.39461 9.37753 9.38419 9.15537Z" fill="#B5B5B5"/>
<path d="M9.78863 8.71124V8.46097L9.77698 8.46151L9.78863 8.71124ZM9.38419 9.15537L9.63392 9.14367L9.63392 9.14367L9.38419 9.15537ZM10.889 8.71124L10.889 8.46124H10.889V8.71124ZM11.3133 9.13548H11.5633V9.13546L11.3133 9.13548ZM11.3133 14.2264H11.0633V14.4764H11.3133V14.2264ZM11.9496 14.2264V14.4764L11.9531 14.4764L11.9496 14.2264ZM11.9496 15.0749L11.9531 14.8249H11.9496V15.0749ZM9.82841 15.0749V14.8246L9.81665 14.8251L9.82841 15.0749ZM9.38419 14.6705L9.63392 14.6588L9.63392 14.6588L9.38419 14.6705ZM9.78863 14.2264V13.9761L9.77698 13.9767L9.78863 14.2264ZM10.4648 14.2264V14.4764H10.7148V14.2264H10.4648ZM10.4648 9.55972H10.7148V9.30972H10.4648V9.55972ZM9.82841 9.55972V9.30945L9.81665 9.31L9.82841 9.55972ZM10.8892 6.34009C10.3996 6.34009 10.0028 6.73693 10.0028 7.22645H10.5028C10.5028 7.01307 10.6758 6.84009 10.8892 6.84009V6.34009ZM11.7755 7.22645C11.7755 6.73693 11.3787 6.34009 10.8892 6.34009V6.84009C11.1025 6.84009 11.2755 7.01307 11.2755 7.22645H11.7755ZM10.8892 8.11281C11.3787 8.11281 11.7755 7.71597 11.7755 7.22645H11.2755C11.2755 7.43983 11.1025 7.61281 10.8892 7.61281V8.11281ZM10.0028 7.22645C10.0028 7.71597 10.3996 8.11281 10.8892 8.11281V7.61281C10.6758 7.61281 10.5028 7.43983 10.5028 7.22645H10.0028ZM9.77698 8.46151C9.41687 8.47832 9.11759 8.80698 9.13447 9.16708L9.63392 9.14367C9.62997 9.05944 9.71607 8.9649 9.80029 8.96097L9.77698 8.46151ZM10.889 8.46124H9.78863V8.96124H10.889V8.46124ZM11.5633 9.13546C11.5632 8.77528 11.2492 8.46128 10.889 8.46124L10.889 8.96124C10.9731 8.96125 11.0632 9.05143 11.0633 9.13551L11.5633 9.13546ZM11.5633 14.2264V9.13548H11.0633V14.2264H11.5633ZM11.9496 13.9764H11.3133V14.4764H11.9496V13.9764ZM12.6299 14.6506C12.6299 14.287 12.3097 13.9713 11.9461 13.9764L11.9531 14.4764C12.0378 14.4752 12.1299 14.5659 12.1299 14.6506H12.6299ZM11.9461 15.3248C12.3097 15.33 12.6299 15.0142 12.6299 14.6506H12.1299C12.1299 14.7353 12.0378 14.8261 11.9531 14.8249L11.9461 15.3248ZM9.82841 15.3249H11.9496V14.8249H9.82841V15.3249ZM9.13447 14.6822C9.15135 15.0423 9.48007 15.3415 9.84016 15.3246L9.81665 14.8251C9.73243 14.8291 9.63787 14.743 9.63392 14.6588L9.13447 14.6822ZM9.77698 13.9767C9.41687 13.9935 9.11759 14.3221 9.13447 14.6822L9.63392 14.6588C9.62997 14.5746 9.71607 14.48 9.80029 14.4761L9.77698 13.9767ZM10.4648 13.9764H9.78863V14.4764H10.4648V13.9764ZM10.2148 9.55972V14.2264H10.7148V9.55972H10.2148ZM9.82841 9.80972H10.4648V9.30972H9.82841V9.80972ZM9.13447 9.16708C9.15135 9.52718 9.48007 9.8264 9.84016 9.80945L9.81665 9.31C9.73243 9.31396 9.63787 9.22789 9.63392 9.14367L9.13447 9.16708Z" fill="#B5B5B5"/>
<path d="M20.3001 10.8325C20.3001 16.0302 16.0866 20.2437 10.8889 20.2437C5.69133 20.2437 1.47783 16.0302 1.47783 10.8325C1.47783 5.63493 5.69133 1.42144 10.8889 1.42144C16.0866 1.42144 20.3001 5.63493 20.3001 10.8325Z" stroke="#B5B5B5" stroke-width="1.4"/>
</g>
<defs>
<clipPath id="clip0">
<rect width="21" height="21" fill="white" transform="translate(0 0.721436)"/>
</clipPath>
</defs>
</svg>
