<svg width="26" height="17" viewBox="0 0 26 17" fill="none" xmlns="http://www.w3.org/2000/svg">
<path d="M24.1544 6.33142L19.5703 5.62516L16.7767 1.06145C16.63 0.822572 16.4242 0.625591 16.1791 0.489559C15.9341 0.353528 15.658 0.283051 15.3777 0.284949L3.66971 0.378235C3.33189 0.381088 3.00335 0.489097 2.72974 0.687253C2.45613 0.885409 2.25104 1.16387 2.14297 1.48395L0.8125 5.42919V14.5H3.60577C3.82292 15.2058 4.26064 15.8235 4.85467 16.2623C5.4487 16.701 6.16775 16.9378 6.90625 16.9378C7.64475 16.9378 8.3638 16.701 8.95783 16.2623C9.55186 15.8235 9.98958 15.2058 10.2067 14.5H15.387C15.6042 15.2058 16.0419 15.8235 16.6359 16.2623C17.2299 16.701 17.949 16.9378 18.6875 16.9378C19.426 16.9378 20.145 16.701 20.7391 16.2623C21.3331 15.8235 21.7708 15.2058 21.988 14.5H25.1875V7.53595C25.1888 7.24453 25.0851 6.96238 24.8954 6.74117C24.7057 6.51996 24.4426 6.3745 24.1544 6.33142ZM11.375 1.94179L15.3907 1.9098L17.6301 5.56843L11.375 5.56625V1.94179ZM3.68271 2.00313L9.75 1.95479V5.56569L2.48224 5.5631L3.68271 2.00313ZM6.90625 15.3125C6.54468 15.3125 6.19123 15.2053 5.8906 15.0044C5.58996 14.8035 5.35565 14.518 5.21728 14.184C5.07892 13.8499 5.04271 13.4823 5.11325 13.1277C5.18379 12.7731 5.3579 12.4474 5.61357 12.1917C5.86924 11.936 6.19498 11.7619 6.5496 11.6914C6.90422 11.6208 7.2718 11.657 7.60584 11.7954C7.93989 11.9338 8.2254 12.1681 8.42628 12.4687C8.62716 12.7694 8.73437 13.1228 8.73437 13.4844C8.73384 13.9691 8.54106 14.4337 8.19834 14.7765C7.85561 15.1192 7.39093 15.312 6.90625 15.3125ZM18.6875 15.3125C18.3259 15.3125 17.9725 15.2053 17.6718 15.0044C17.3712 14.8035 17.1369 14.518 16.9985 14.184C16.8602 13.8499 16.824 13.4823 16.8945 13.1277C16.965 12.7731 17.1392 12.4474 17.3948 12.1917C17.6505 11.936 17.9762 11.7619 18.3308 11.6914C18.6855 11.6208 19.053 11.657 19.3871 11.7954C19.7211 11.9338 20.0067 12.1681 20.2075 12.4687C20.4084 12.7694 20.5156 13.1228 20.5156 13.4844C20.5151 13.9691 20.3223 14.4337 19.9796 14.7765C19.6369 15.1192 19.1722 15.312 18.6875 15.3125ZM23.5625 12.875H22.0857C21.9429 12.0776 21.5243 11.3558 20.9031 10.8359C20.2818 10.316 19.4976 10.0312 18.6875 10.0312C17.8774 10.0312 17.0932 10.316 16.4719 10.8359C15.8507 11.3558 15.4321 12.0776 15.2893 12.875H10.3044C10.1617 12.0776 9.74305 11.3558 9.12182 10.8359C8.50059 10.316 7.71632 10.0312 6.90625 10.0312C6.09618 10.0312 5.31191 10.316 4.69068 10.8359C4.06945 11.3558 3.65083 12.0776 3.50807 12.875H2.4375V7.18881L19.222 7.21568L23.5625 7.88441V12.875Z" fill="white"/>
</svg>
