<svg width="28" height="22" viewBox="0 0 28 22" fill="none" xmlns="http://www.w3.org/2000/svg">
<path d="M9.45988 0.343994C4.81579 0.343994 0.950195 4.0711 0.950195 8.69803C0.950195 12.7439 3.98311 16.073 7.81957 16.872L7.33926 20.689C7.31852 20.861 7.3503 21.0352 7.43048 21.1891C7.51066 21.3429 7.63554 21.4693 7.78892 21.5518C7.94229 21.6342 8.11709 21.669 8.29062 21.6516C8.46414 21.6342 8.6284 21.5654 8.76207 21.4541L14.0274 17.052H18.5405C23.1846 17.052 27.0502 13.325 27.0502 8.69803C27.0502 4.0711 23.1846 0.343994 18.5405 0.343994H9.45988ZM9.45988 2.07242H18.5405C22.2507 2.07242 25.3102 5.02625 25.3102 8.69803C25.3102 12.3698 22.2507 15.3236 18.5405 15.3236H13.7102C13.5053 15.3219 13.3063 15.392 13.1483 15.5217L9.33301 18.7085L9.64113 16.2869C9.65499 16.1733 9.64599 16.058 9.61466 15.9479C9.58333 15.8378 9.5303 15.7349 9.45864 15.6453C9.38698 15.5557 9.29811 15.4811 9.19721 15.4259C9.0963 15.3707 8.98536 15.3359 8.87082 15.3236C5.50129 14.9817 2.6902 12.1207 2.6902 8.69803C2.6902 5.02625 5.74965 2.07242 9.45988 2.07242Z" fill="black"/>
<circle cx="9" cy="9.10522" r="1.5" fill="black"/>
<circle cx="14" cy="9.10522" r="1.5" fill="black"/>
<circle cx="19" cy="9.10522" r="1.5" fill="black"/>
</svg>
