<svg width="24" height="24" viewBox="0 0 24 24" fill="none" xmlns="http://www.w3.org/2000/svg">
<g clip-path="url(#clip0)">
<path d="M18.8829 4.50416C18.9182 4.25061 18.9393 3.99516 18.9393 3.73836C18.9393 1.67702 17.2615 0 15.1994 0C13.7353 0 12.466 0.846265 11.8529 2.07475C5.87494 2.15396 1.03613 7.04044 1.03613 13.0367C1.03613 19.082 5.95436 24.0002 11.9999 24.0002C18.0454 24.0002 22.9636 19.082 22.9636 13.0367C22.9635 9.7298 21.4462 6.57681 18.8829 4.50416ZM15.1994 1.57173C16.3949 1.57173 17.3677 2.54372 17.3677 3.73847C17.3677 4.0398 17.3306 4.34323 17.2657 4.64414C17.2638 4.65158 17.2624 4.65902 17.2607 4.66646C16.9235 6.19952 15.8619 7.66511 15.1985 8.46433C14.402 7.50658 13.0323 5.58994 13.0323 3.73847C13.0324 2.54372 14.0045 1.57173 15.1994 1.57173ZM14.6068 13.0367C14.6068 13.9312 14.5668 14.8053 14.4912 15.6434H9.50832C9.43288 14.8059 9.39306 13.9319 9.39306 13.0367C9.39306 12.142 9.43298 11.2678 9.50853 10.4298H14.4897C14.5666 11.2755 14.6068 12.1487 14.6068 13.0367ZM11.9999 22.4285C6.82106 22.4285 2.60775 18.2153 2.60775 13.0366C2.60775 8.03811 6.53293 3.93953 11.4628 3.6602C11.4623 3.68629 11.4608 3.71217 11.4608 3.73836C11.4608 5.71337 12.5939 7.63085 13.5091 8.85807H9.69901C9.85743 7.83924 10.0748 6.90266 10.3464 6.08814C10.4837 5.67638 10.2612 5.2314 9.84946 5.09415C9.43749 4.95689 8.99272 5.17933 8.85547 5.5912C8.5359 6.54968 8.28602 7.65725 8.11157 8.85807H4.80152C4.36744 8.85807 4.01571 9.20991 4.01571 9.64388C4.01571 10.0779 4.36744 10.4297 4.80152 10.4297H7.93093C7.85885 11.2725 7.82155 12.1464 7.82155 13.0366C7.82155 13.9272 7.85864 14.801 7.93052 15.6433H4.80152C4.36744 15.6433 4.01571 15.9951 4.01571 16.4291C4.01571 16.8631 4.36744 17.2149 4.80152 17.2149H8.11115C8.28937 18.4414 8.54649 19.57 8.87611 20.5432C8.98706 20.8707 9.2928 21.0771 9.62032 21.0771C9.70393 21.0771 9.7889 21.0637 9.87251 21.0354C10.2835 20.8962 10.5039 20.4501 10.3646 20.039C10.0845 19.2118 9.86099 18.2564 9.69911 17.215H14.3007C14.1423 18.2335 13.9249 19.1701 13.6533 19.985C13.5162 20.3968 13.7386 20.8418 14.1504 20.9789C14.2328 21.0064 14.3165 21.0195 14.3989 21.0195C14.728 21.0195 15.0346 20.8112 15.1442 20.4819C15.4637 19.523 15.7136 18.4155 15.8882 17.2151H19.1982C19.6323 17.2151 19.984 16.8633 19.984 16.4293C19.984 15.9953 19.6323 15.6435 19.1982 15.6435H16.0689C16.141 14.8007 16.1784 13.9268 16.1784 13.0368C16.1784 12.1515 16.1414 11.2782 16.0688 10.4299H19.1982C19.6323 10.4299 19.984 10.0781 19.984 9.64409C19.984 9.21012 19.6323 8.85828 19.1982 8.85828H16.8901C17.4149 8.15483 18.0102 7.22484 18.4239 6.18653C20.2991 7.95104 21.392 10.4387 21.392 13.0367C21.3919 18.2154 17.1786 22.4285 11.9999 22.4285Z" fill="#B8B8B8"/>
</g>
<defs>
<clipPath id="clip0">
<rect width="24" height="24" fill="white"/>
</clipPath>
</defs>
</svg>
