<svg width="23" height="23" viewBox="0 0 23 23" fill="none" xmlns="http://www.w3.org/2000/svg">
<path d="M12.9683 8.01361L0.335383 13.8773C-0.213041 14.1316 -0.0522341 14.9439 0.551992 14.9743L5.73382 15.2339C5.96574 15.2458 6.18672 15.3355 6.36051 15.4884C6.5343 15.6413 6.65057 15.8483 6.69026 16.0754L7.6503 21.5967C7.7475 22.1559 8.52634 22.2309 8.73035 21.7003L13.7106 8.69372C13.7516 8.5928 13.7608 8.48186 13.7367 8.37566C13.7127 8.26946 13.6567 8.17303 13.5761 8.0992C13.4956 8.02537 13.3943 7.97763 13.2857 7.96235C13.1771 7.94706 13.0664 7.96494 12.9683 8.01361Z" fill="#B5B5B5"/>
<path d="M16.4594 5.81796C16.8428 6.09548 17.4434 7.16745 17.5538 7.9619C17.6642 8.75635 19.0593 8.82901 19.0959 7.77192C19.1325 6.71484 18.2774 5.38203 17.4512 4.61557C16.625 3.84911 14.8357 3.3959 14.1385 3.46975C13.4412 3.5436 13.3668 4.85497 14.1385 4.8913C14.9101 4.92763 16.0765 5.53984 16.4594 5.81796Z" fill="#B5B5B5"/>
<path d="M19.1049 3.15761C19.7608 3.67778 20.6799 5.05644 21.1138 6.47358C21.3834 7.35421 22.7975 7.16637 22.7212 6.27288C22.6251 5.1462 21.748 3.13367 20.2203 1.83956C18.6927 0.545454 16.3952 -0.102369 15.2923 0.0131659C14.1895 0.128701 14.2207 1.63422 15.4363 1.69199C16.652 1.74976 18.449 2.63745 19.1049 3.15761Z" fill="#B5B5B5"/>
</svg>
