<svg width="30" height="30" viewBox="0 0 30 30" fill="none" xmlns="http://www.w3.org/2000/svg">
<rect width="30" height="30" fill="white"/>
<path d="M15 1.25C7.40625 1.25 1.25 7.40594 1.25 15C1.25 22.5941 7.40625 28.75 15 28.75C22.5938 28.75 28.75 22.5941 28.75 15C28.75 7.40594 22.5938 1.25 15 1.25Z" fill="#FC5B58"/>
<path fill-rule="evenodd" clip-rule="evenodd" d="M8.61812 21.3818C8.27674 21.0404 8.27674 20.4869 8.61812 20.1456L20.1456 8.61804C20.487 8.27666 21.0405 8.27666 21.3819 8.61803C21.7233 8.95941 21.7233 9.5129 21.3819 9.85428L9.85436 21.3818C9.51298 21.7232 8.9595 21.7232 8.61812 21.3818Z" fill="white"/>
<path fill-rule="evenodd" clip-rule="evenodd" d="M21.3819 21.3818C21.7233 21.0404 21.7233 20.4869 21.3819 20.1456L9.85436 8.61804C9.51299 8.27666 8.9595 8.27666 8.61812 8.61803C8.27674 8.95941 8.27674 9.5129 8.61812 9.85428L20.1456 21.3818C20.487 21.7232 21.0405 21.7232 21.3819 21.3818Z" fill="white"/>
</svg>
