<svg width="35" height="35" viewBox="0 0 35 35" fill="none" xmlns="http://www.w3.org/2000/svg">
<path d="M35 17.5C35 27.165 27.165 35 17.5 35C7.83502 35 0 27.165 0 17.5C0 7.83502 7.83502 0 17.5 0C27.165 0 35 7.83502 35 17.5Z" fill="#F2F2F2"/>
<path d="M22.087 17.8261L15.5652 24.3478L11 25L11.6522 20.4348L20.1304 11.9565M20.1304 11.9565L24.0435 15.8696L25.2929 14.6202C25.6834 14.2296 25.6834 13.5965 25.2929 13.2059L22.7941 10.7071C22.4035 10.3166 21.7704 10.3166 21.3799 10.7071L20.1304 11.9565Z" stroke="#333333" stroke-width="1.2"/>
</svg>
