<svg width="18" height="17" viewBox="0 0 18 17" fill="none" xmlns="http://www.w3.org/2000/svg">
<path d="M12.5719 10.7805L13.5719 9.78047C13.7281 9.62422 14 9.73359 14 9.95859V14.5023C14 15.3305 13.3281 16.0023 12.5 16.0023H1.5C0.671875 16.0023 0 15.3305 0 14.5023V3.50234C0 2.67422 0.671875 2.00234 1.5 2.00234H10.0469C10.2688 2.00234 10.3813 2.27109 10.225 2.43047L9.225 3.43047C9.17813 3.47734 9.11563 3.50234 9.04688 3.50234H1.5V14.5023H12.5V10.9555C12.5 10.8898 12.525 10.8273 12.5719 10.7805ZM17.4656 4.47422L9.25937 12.6805L6.43437 12.993C5.61562 13.0836 4.91875 12.393 5.00938 11.568L5.32188 8.74297L13.5281 0.536719C14.2437 -0.178906 15.4 -0.178906 16.1125 0.536719L17.4625 1.88672C18.1781 2.60234 18.1781 3.76172 17.4656 4.47422ZM14.3781 5.43984L12.5625 3.62422L6.75625 9.43359L6.52812 11.4742L8.56875 11.2461L14.3781 5.43984ZM16.4031 2.94922L15.0531 1.59922C14.925 1.47109 14.7156 1.47109 14.5906 1.59922L13.625 2.56484L15.4406 4.38047L16.4062 3.41484C16.5312 3.28359 16.5312 3.07734 16.4031 2.94922Z" fill="white"/>
</svg>
