<svg width="21" height="21" viewBox="0 0 21 21" fill="none" xmlns="http://www.w3.org/2000/svg">
<path d="M18.2291 13.7813L15.3716 13.455C14.6854 13.3763 14.0104 13.6125 13.5266 14.0963L11.4566 16.1663C8.27288 14.5463 5.66288 11.9475 4.04288 8.7525L6.12413 6.67125C6.60788 6.1875 6.84413 5.5125 6.76538 4.82625L6.43913 1.99125C6.30413 0.855 5.34788 0 4.20038 0H2.25413C0.982883 0 -0.0746173 1.0575 0.00413266 2.32875C0.600383 11.9363 8.28413 19.6088 17.8804 20.205C19.1516 20.2838 20.2091 19.2263 20.2091 17.955V16.0088C20.2204 14.8725 19.3654 13.9163 18.2291 13.7813Z" fill="#45C64E"/>
</svg>
