<svg width="42" height="43" viewBox="0 0 42 43" fill="none" xmlns="http://www.w3.org/2000/svg">
<g clip-path="url(#clip0)">
<circle cx="18" cy="13" r="6" fill="#E1D66E"/>
<circle cx="19" cy="25" r="6" fill="#E18A6E"/>
<circle cx="36" cy="18" r="6" fill="#DD5644"/>
<path d="M26.3042 12.2993L25.8179 13.1387C26.8961 13.7591 28.1206 14.5855 29.3591 15.5286L29.9492 14.7581C28.6782 13.7903 27.4178 12.94 26.3042 12.2993Z" fill="black"/>
<path d="M40.2522 16.4313C39.8957 16.0725 39.4667 15.8109 39.0517 15.5578C38.6668 15.323 38.3033 15.1012 38.0295 14.8235C37.7554 14.5454 37.5392 14.1788 37.3102 13.7907C37.0274 13.3112 36.7349 12.8153 36.2968 12.4281C36.1332 12.2834 35.9462 12.1513 35.7253 12.0242C35.4323 11.8556 35.1219 11.7204 34.8218 11.5896C34.5329 11.4638 34.26 11.345 34.013 11.2028C33.8961 11.1356 33.7954 11.0691 33.7047 10.9993C33.396 10.7619 33.132 10.4283 32.8526 10.0751C32.507 9.6384 32.1496 9.18677 31.6622 8.86153C31.6085 8.82574 31.552 8.79073 31.4942 8.75747C31.0527 8.50348 30.5647 8.36503 30.0927 8.23121C29.6583 8.10798 29.2479 7.99158 28.9072 7.79696C28.5677 7.6003 28.2614 7.30437 27.9371 6.99105C27.5848 6.65063 27.2204 6.29865 26.779 6.04466C26.7212 6.01143 26.6625 5.98011 26.6044 5.95168C26.0781 5.69376 25.5069 5.61114 24.9545 5.53126C24.5079 5.46668 24.0859 5.40569 23.7252 5.25788C23.6193 5.21456 23.511 5.16084 23.3942 5.09365C23.1472 4.95153 22.9075 4.77552 22.6537 4.58909C22.3899 4.39551 22.1173 4.19528 21.8242 4.02664C21.6034 3.89956 21.395 3.80422 21.1875 3.73542C20.6319 3.55104 20.0548 3.54648 19.4966 3.54212C19.0449 3.53861 18.6182 3.5353 18.2394 3.43781C17.8612 3.34043 17.4867 3.13751 17.0902 2.92284C16.6628 2.69128 16.2208 2.45187 15.7308 2.3236L15.1644 2.17536L14.8417 6.67286L14.8021 7.23649L13.9606 18.9617L14.9291 19.0294L15.772 7.28633C15.7871 7.28936 15.8022 7.29254 15.8174 7.29555C16.0341 7.33946 16.2504 7.38503 16.4663 7.43292C16.4796 7.4359 16.4929 7.439 16.5063 7.4419C16.964 7.54398 17.4196 7.65477 17.873 7.77456C17.8768 7.77562 17.8808 7.77662 17.8846 7.77759C18.1085 7.83679 18.3317 7.89846 18.5544 7.96202C18.566 7.96525 18.5777 7.96856 18.5892 7.97184C18.8078 8.03441 19.0258 8.09926 19.2432 8.16598C19.2578 8.17044 19.2724 8.17496 19.2872 8.17945C19.5034 8.24616 19.719 8.31492 19.9341 8.38567C19.9487 8.39042 19.9634 8.39525 19.978 8.40014C20.194 8.47143 20.4094 8.54491 20.6242 8.62035C20.6365 8.62476 20.6487 8.62902 20.661 8.63342C20.8787 8.71021 21.0958 8.78899 21.3123 8.86998C21.3196 8.87272 21.3269 8.87546 21.3343 8.87821C22.4532 9.29783 23.5544 9.7736 24.6349 10.3043C24.644 10.3088 24.6532 10.3133 24.6623 10.3178C24.8669 10.4185 25.0707 10.5214 25.2738 10.6261C25.2915 10.6351 25.309 10.6442 25.3266 10.6532C25.5233 10.755 25.7194 10.8588 25.9147 10.9643C25.9382 10.977 25.9616 10.9897 25.9851 11.0024C26.1758 11.1059 26.3657 11.2112 26.5549 11.3182C26.5999 11.3436 26.6448 11.3691 26.6895 11.3947C26.7468 11.4274 26.8039 11.4601 26.8608 11.493C26.9148 11.5242 26.9686 11.5557 27.0225 11.5872C27.0797 11.6206 27.1369 11.6541 27.1939 11.6878C27.2467 11.719 27.2993 11.7505 27.3518 11.782C27.4094 11.8165 27.467 11.8509 27.5243 11.8857C27.5762 11.9171 27.628 11.9489 27.6797 11.9806C27.737 12.0156 27.7942 12.0507 27.8513 12.0861C27.9032 12.1182 27.9549 12.1507 28.0066 12.1832C28.063 12.2186 28.1195 12.2539 28.1756 12.2895C28.2278 12.3227 28.2798 12.3561 28.3318 12.3895C28.3869 12.4249 28.4421 12.4602 28.4972 12.4959C28.5502 12.5304 28.6031 12.565 28.6559 12.5998C28.7093 12.6349 28.7629 12.6699 28.8162 12.7052C28.8707 12.7414 28.925 12.778 28.9793 12.8145C29.0303 12.8488 29.0814 12.8829 29.1323 12.9174C29.1888 12.9557 29.2451 12.9945 29.3014 13.0332C29.3497 13.0664 29.3982 13.0995 29.4463 13.1329C29.5052 13.1738 29.5638 13.2152 29.6226 13.2564C29.6676 13.2881 29.7127 13.3195 29.7576 13.3513C29.8207 13.3961 29.8835 13.4413 29.9463 13.4865C29.9863 13.5152 30.0264 13.5438 30.0662 13.5726C30.1355 13.6229 30.2044 13.6736 30.2732 13.7243C30.3063 13.7486 30.3395 13.7728 30.3725 13.7972C30.4503 13.8549 30.5277 13.9131 30.605 13.9714C30.6288 13.9894 30.6529 14.0071 30.6766 14.0251C30.7718 14.0972 30.8665 14.1698 30.961 14.2428C30.9667 14.2472 30.9724 14.2515 30.978 14.256C31.3837 14.57 31.7824 14.8924 32.1736 15.2227C32.1773 15.2258 32.181 15.229 32.1847 15.2322C32.2779 15.311 32.3707 15.3901 32.463 15.4697C32.4764 15.4813 32.4896 15.4929 32.503 15.5045C32.5854 15.5757 32.6675 15.6473 32.7493 15.7193C32.7693 15.7368 32.7891 15.7546 32.8089 15.7722C32.8839 15.8385 32.9586 15.9049 33.0329 15.9717C33.0571 15.9934 33.0808 16.0153 33.105 16.0371C33.1748 16.1003 33.2445 16.1634 33.3138 16.2272C33.3409 16.252 33.3675 16.2771 33.3945 16.302C33.4604 16.3629 33.5262 16.4239 33.5917 16.4854C33.6212 16.513 33.6505 16.541 33.6799 16.5689C33.7424 16.6278 33.8046 16.6869 33.8666 16.7463C33.8983 16.7766 33.9297 16.8073 33.9613 16.8378C34.0205 16.8949 34.0797 16.9522 34.1384 17.0098C34.1718 17.0426 34.205 17.0754 34.2383 17.1083C34.295 17.1642 34.3516 17.2203 34.408 17.2766C34.4424 17.311 34.4767 17.3457 34.511 17.3803C34.5656 17.4353 34.6201 17.4905 34.6743 17.5458C34.71 17.5823 34.7456 17.6191 34.7813 17.6558C34.8335 17.7095 34.8857 17.7634 34.9375 17.8174C34.9744 17.8559 35.0111 17.8945 35.0477 17.9332C35.098 17.9861 35.1482 18.0391 35.1982 18.0922C35.2358 18.1323 35.2733 18.1727 35.3109 18.2131C35.3592 18.265 35.4076 18.3172 35.4557 18.3695C35.4941 18.4112 35.5323 18.4531 35.5704 18.4951C35.6172 18.5465 35.6641 18.598 35.7106 18.6498C35.7494 18.693 35.788 18.7363 35.8266 18.7796C35.8535 18.8098 35.8803 18.8401 35.9071 18.8705L35.1063 19.4105C33.9942 18.1734 32.5769 16.8488 30.9805 15.5578L30.3683 16.3103C31.8831 17.5354 33.2292 18.7877 34.2936 19.9587L13.8742 33.7299L14.8369 20.3176L13.8684 20.2499L12.7631 35.6474L36.9054 19.3651L40.6656 16.8473L40.2522 16.4313ZM36.7196 18.3239C36.6508 18.2455 36.5813 18.1677 36.5118 18.09C36.4974 18.074 36.4833 18.0577 36.4689 18.0418C36.3813 17.944 36.293 17.8467 36.2042 17.7499C36.1831 17.7269 36.1616 17.704 36.1404 17.681C36.073 17.6078 36.0056 17.5347 35.9375 17.462C35.9063 17.4286 35.8746 17.3955 35.8432 17.3624C35.7847 17.3004 35.7262 17.2383 35.6674 17.1767C35.6328 17.1405 35.5979 17.1046 35.5631 17.0685C35.5069 17.0102 35.4508 16.9521 35.3943 16.8942C35.3575 16.8566 35.3205 16.8193 35.2836 16.7819C35.2286 16.7262 35.1737 16.6705 35.1185 16.6151C35.0803 16.5769 35.042 16.5389 35.0037 16.5009C34.949 16.4465 34.8941 16.3924 34.8392 16.3383C34.8004 16.3002 34.7614 16.2624 34.7224 16.2244C34.6674 16.171 34.6123 16.1176 34.5571 16.0645C34.5176 16.0267 34.478 15.9889 34.4384 15.9513C34.3829 15.8985 34.3273 15.8458 34.2715 15.7933C34.2319 15.7562 34.1923 15.7191 34.1525 15.6821C34.096 15.6295 34.0394 15.5771 33.9826 15.5248C33.9432 15.4885 33.9038 15.4525 33.8642 15.4164C33.8063 15.3635 33.748 15.3107 33.6897 15.2583C33.651 15.2234 33.6122 15.1886 33.5734 15.154C33.5137 15.1006 33.4537 15.0475 33.3936 14.9946C33.3556 14.9611 33.3176 14.9276 33.2795 14.8943C33.2177 14.8404 33.1557 14.7867 33.0936 14.7331C33.0568 14.7013 33.0199 14.6695 32.983 14.6378C32.9187 14.583 32.8543 14.5283 32.7898 14.4739C32.7543 14.4439 32.719 14.414 32.6834 14.3843C32.6158 14.3277 32.5478 14.2714 32.4798 14.2152C32.4471 14.1882 32.4144 14.1611 32.3816 14.1342C32.3087 14.0745 32.2355 14.0152 32.1622 13.956C32.1338 13.933 32.1055 13.91 32.077 13.8871C31.9961 13.8222 31.915 13.7579 31.8336 13.6937C31.8122 13.6768 31.7909 13.6598 31.7695 13.6429C31.6731 13.5672 31.5763 13.4922 31.4792 13.4175C31.4725 13.4123 31.4659 13.4072 31.4594 13.402C31.0361 13.077 30.6054 12.7606 30.1673 12.4531C30.1518 12.4423 30.1361 12.4314 30.1206 12.4206C30.0282 12.356 29.9356 12.2917 29.8426 12.2278C29.8186 12.2112 29.7943 12.195 29.7702 12.1785C29.6854 12.1206 29.6005 12.0629 29.5152 12.0056C29.486 11.9859 29.4564 11.9665 29.4271 11.9469C29.3468 11.8933 29.2663 11.8398 29.1854 11.7868C29.1523 11.7651 29.1189 11.7435 29.0858 11.7219C29.0085 11.6715 28.9311 11.6213 28.8534 11.5715C28.817 11.5481 28.7806 11.5249 28.7442 11.5018C28.6694 11.4542 28.5945 11.4068 28.5194 11.3598C28.4801 11.3352 28.4407 11.3106 28.4013 11.2862C28.3288 11.241 28.2561 11.1961 28.1831 11.1514C28.1412 11.1258 28.0992 11.1003 28.0573 11.0747C27.9867 11.0319 27.9161 10.9893 27.8452 10.9469C27.8005 10.9201 27.7556 10.8935 27.7107 10.8668C27.6428 10.8266 27.5747 10.7866 27.5065 10.7467C27.4584 10.7186 27.4101 10.6904 27.3617 10.6625C27.3349 10.6469 27.3084 10.6312 27.2815 10.6157C27.2433 10.5937 27.2048 10.5722 27.1666 10.5503C27.1351 10.5324 27.1039 10.5141 27.0724 10.4963C27.0521 10.4847 27.0316 10.4736 27.0113 10.4621C26.9488 10.4268 26.8861 10.3917 26.8233 10.3568C26.7743 10.3295 26.7254 10.3022 26.6764 10.2752C26.6072 10.237 26.5379 10.1993 26.4686 10.1615C26.4255 10.1381 26.3823 10.1146 26.3391 10.0914C26.2637 10.0508 26.1883 10.0106 26.1128 9.9706C26.075 9.9505 26.0372 9.93049 25.9994 9.91051C25.9183 9.868 25.8371 9.82576 25.7559 9.78381C25.7231 9.76677 25.6902 9.74976 25.6574 9.73287C25.5707 9.68837 25.4839 9.64438 25.3969 9.6006C25.3692 9.58655 25.3414 9.57255 25.3136 9.55861C25.2214 9.51247 25.129 9.46684 25.0365 9.42148C25.0135 9.41019 24.9906 9.39891 24.9677 9.38771C24.8699 9.33998 24.7719 9.29279 24.6738 9.24599C24.656 9.23743 24.6381 9.2289 24.6201 9.22028C24.517 9.17132 24.4137 9.12284 24.3102 9.07478C24.2969 9.0686 24.2836 9.06237 24.2703 9.05619C24.1622 9.0062 24.0539 8.95674 23.9454 8.90778C23.9365 8.90375 23.9275 8.89957 23.9185 8.89564C23.8056 8.84471 23.6924 8.79448 23.579 8.74474C23.5744 8.74267 23.5697 8.74057 23.5651 8.7385C23.4473 8.68691 23.3293 8.63588 23.2111 8.58552C23.2107 8.58535 23.2103 8.58519 23.2098 8.58502C21.4167 7.82104 19.5741 7.20028 17.6925 6.72716C17.6876 6.7259 17.6827 6.72475 17.6778 6.72349C17.5589 6.69369 17.4399 6.66437 17.3207 6.63573C17.2871 6.62761 17.2535 6.61997 17.2199 6.61196C17.1292 6.5904 17.0385 6.5688 16.9476 6.54799C16.8995 6.53696 16.8513 6.52638 16.8032 6.51551C16.7266 6.49823 16.65 6.48089 16.5733 6.46411C16.5179 6.45202 16.4624 6.44032 16.4069 6.42854C16.337 6.41359 16.2672 6.39842 16.1971 6.38395C16.138 6.37161 16.0786 6.35988 16.0192 6.34781C15.9599 6.33575 15.9007 6.32346 15.8412 6.31166L16.0447 3.47246C16.2351 3.56221 16.4277 3.66652 16.6259 3.77391C17.0564 4.00714 17.5016 4.24826 17.9955 4.37546C18.4897 4.5027 18.9971 4.50664 19.4877 4.51051C19.9927 4.51443 20.4697 4.51812 20.8798 4.65424C21.0247 4.70235 21.1746 4.77148 21.3383 4.86564C21.5845 5.00731 21.8239 5.18313 22.0773 5.3692C22.3414 5.56311 22.6144 5.76369 22.9083 5.93274C23.063 6.02175 23.2092 6.09411 23.3555 6.15397C23.8269 6.34699 24.3286 6.4196 24.814 6.48975C25.314 6.56203 25.7863 6.63038 26.1752 6.82092C26.214 6.83993 26.2537 6.86111 26.293 6.88372C26.6306 7.07795 26.9369 7.37383 27.2611 7.68708C27.6121 8.02614 27.975 8.3767 28.4154 8.63256L28.427 8.63927C28.8696 8.89147 29.3558 9.02927 29.8259 9.16266C30.2602 9.2859 30.6705 9.40226 31.0081 9.59646C31.0475 9.61911 31.0856 9.64273 31.1214 9.66659C31.4818 9.90708 31.7772 10.2806 32.09 10.6758C32.3937 11.0596 32.7076 11.4562 33.111 11.7666C33.2362 11.8628 33.3723 11.953 33.527 12.0419C33.8208 12.211 34.1315 12.3464 34.4321 12.4772C34.7205 12.6029 34.993 12.7216 35.2393 12.8633C35.403 12.9574 35.5381 13.0522 35.6523 13.1532C35.9756 13.4391 36.2174 13.8489 36.4733 14.2828C36.7219 14.7042 36.979 15.14 37.3367 15.503C37.6941 15.8655 38.1263 16.1292 38.5443 16.3841C38.736 16.501 38.9223 16.6146 39.0949 16.7336L36.7196 18.3239Z" fill="black"/>
<path d="M22.1082 10.6766C20.4552 9.72561 18.3326 10.2943 17.3765 11.9444C16.4205 13.5945 16.9875 15.7106 18.6405 16.6616C20.2936 17.6127 22.4162 17.044 23.3722 15.3939C24.3283 13.7439 23.7612 11.6277 22.1082 10.6766ZM19.1266 15.8227C17.9371 15.1383 17.529 13.6155 18.217 12.428C18.905 11.2406 20.4326 10.8312 21.6221 11.5156C22.8117 12.2 23.2197 13.7229 22.5318 14.9103C21.8438 16.0978 20.3162 16.5071 19.1266 15.8227Z" fill="black"/>
<path d="M20.1562 22.89C18.8445 22.1354 17.1601 22.5866 16.4015 23.896C15.6428 25.2053 16.0927 26.8844 17.4045 27.639C18.7162 28.3937 20.4005 27.9424 21.1592 26.633C21.9178 25.3237 21.4679 23.6446 20.1562 22.89ZM17.8906 26.8C17.0424 26.312 16.7515 25.2262 17.2421 24.3795C17.7326 23.5328 18.8219 23.2409 19.6701 23.7289C20.5183 24.2169 20.8093 25.3027 20.3187 26.1494C19.8281 26.9961 18.7389 27.2879 17.8906 26.8Z" fill="black"/>
<path d="M26.5705 20.9484C27.2917 20.7422 27.7189 19.994 27.5246 19.2689C27.3807 18.7319 27.0357 18.2834 26.5533 18.0058C26.0708 17.7282 25.5084 17.6548 24.9699 17.7991L23.3117 18.2433C22.2002 18.5413 21.5374 19.6853 21.8343 20.7936C21.9294 21.1485 22.1575 21.445 22.4764 21.6285C22.7886 21.808 23.1513 21.8584 23.5004 21.7711L23.9516 23.455L27.0216 22.6323L26.5705 20.9484ZM24.6391 22.2685L24.1879 20.5847L23.2725 20.83C23.1671 20.8582 23.057 20.8439 22.9625 20.7895C22.868 20.7351 22.8005 20.6473 22.7723 20.5424C22.6137 19.9497 22.9681 19.3379 23.5626 19.1786L25.2206 18.7344C25.5087 18.6572 25.8093 18.6965 26.0673 18.8449C26.3252 18.9933 26.5097 19.2332 26.5866 19.5203C26.6447 19.7372 26.5149 19.9613 26.2973 20.0196L25.3818 20.2649L25.8331 21.9485L24.6391 22.2685Z" fill="black"/>
</g>
<defs>
<clipPath id="clip0">
<rect width="42" height="43" fill="white"/>
</clipPath>
</defs>
</svg>
