<svg width="42" height="43" viewBox="0 0 42 43" fill="none" xmlns="http://www.w3.org/2000/svg">
<g clip-path="url(#clip0)">
<circle cx="18" cy="13" r="6" fill="#F5E021"/>
<circle cx="19" cy="25" r="6" fill="#FE7A00"/>
<circle cx="36" cy="18" r="6" fill="#DD5644"/>
<path d="M26.3042 12.2993L25.8179 13.1388C26.8961 13.7591 28.1206 14.5855 29.3591 15.5286L29.9492 14.7581C28.6782 13.7903 27.4178 12.9401 26.3042 12.2993Z" fill="white"/>
<path d="M40.2522 16.4314C39.8957 16.0726 39.4667 15.8109 39.0517 15.5578C38.6668 15.323 38.3033 15.1013 38.0295 14.8236C37.7554 14.5454 37.5392 14.1789 37.3102 13.7908C37.0274 13.3112 36.7349 12.8154 36.2968 12.4282C36.1332 12.2835 35.9462 12.1514 35.7253 12.0243C35.4323 11.8557 35.1219 11.7205 34.8218 11.5897C34.5329 11.4639 34.26 11.345 34.013 11.2029C33.8961 11.1357 33.7954 11.0692 33.7047 10.9994C33.396 10.7619 33.132 10.4284 32.8526 10.0752C32.507 9.63847 32.1496 9.18683 31.6622 8.86159C31.6085 8.82581 31.552 8.79079 31.4942 8.75753C31.0527 8.50354 30.5647 8.36509 30.0927 8.23127C29.6583 8.10804 29.2479 7.99164 28.9072 7.79702C28.5677 7.60036 28.2614 7.30443 27.9371 6.99111C27.5848 6.65069 27.2204 6.29871 26.779 6.04472C26.7212 6.01149 26.6625 5.98017 26.6044 5.95174C26.0781 5.69382 25.5069 5.6112 24.9545 5.53132C24.5079 5.46674 24.0859 5.40575 23.7252 5.25794C23.6193 5.21462 23.511 5.1609 23.3942 5.09371C23.1472 4.95159 22.9075 4.77559 22.6537 4.58915C22.3899 4.39558 22.1173 4.19534 21.8242 4.0267C21.6034 3.89962 21.395 3.80428 21.1875 3.73548C20.6319 3.5511 20.0548 3.54654 19.4966 3.54218C19.0449 3.53867 18.6182 3.53536 18.2394 3.43787C17.8612 3.3405 17.4867 3.13757 17.0902 2.9229C16.6628 2.69134 16.2208 2.45193 15.7308 2.32366L15.1644 2.17542L14.8417 6.67292L14.8021 7.23655L13.9606 18.9618L14.9291 19.0294L15.772 7.28639C15.7871 7.28942 15.8022 7.2926 15.8174 7.29561C16.0341 7.33952 16.2504 7.38509 16.4663 7.43298C16.4796 7.43597 16.4929 7.43906 16.5063 7.44197C16.964 7.54404 17.4196 7.65483 17.873 7.77462C17.8768 7.77568 17.8808 7.77668 17.8846 7.77765C18.1085 7.83685 18.3317 7.89852 18.5544 7.96208C18.566 7.96531 18.5777 7.96862 18.5892 7.9719C18.8078 8.03447 19.0258 8.09932 19.2432 8.16604C19.2578 8.1705 19.2724 8.17502 19.2872 8.17951C19.5034 8.24622 19.719 8.31498 19.9341 8.38573C19.9487 8.39048 19.9634 8.39531 19.978 8.4002C20.194 8.47149 20.4094 8.54497 20.6242 8.62041C20.6365 8.62482 20.6487 8.62908 20.661 8.63349C20.8787 8.71027 21.0958 8.78905 21.3123 8.87004C21.3196 8.87278 21.3269 8.87553 21.3343 8.87827C22.4532 9.29789 23.5544 9.77366 24.6349 10.3044C24.644 10.3089 24.6532 10.3133 24.6623 10.3179C24.8669 10.4185 25.0707 10.5214 25.2738 10.6262C25.2915 10.6352 25.309 10.6442 25.3266 10.6533C25.5233 10.7551 25.7194 10.8589 25.9147 10.9643C25.9382 10.977 25.9616 10.9897 25.9851 11.0025C26.1758 11.106 26.3657 11.2112 26.5549 11.3183C26.5999 11.3437 26.6448 11.3692 26.6895 11.3948C26.7468 11.4274 26.8039 11.4601 26.8608 11.493C26.9148 11.5243 26.9686 11.5557 27.0225 11.5872C27.0797 11.6207 27.1369 11.6542 27.1939 11.6878C27.2467 11.7191 27.2993 11.7505 27.3518 11.7821C27.4094 11.8165 27.467 11.8509 27.5243 11.8857C27.5762 11.9172 27.628 11.949 27.6797 11.9807C27.737 12.0157 27.7942 12.0508 27.8513 12.0862C27.9032 12.1183 27.9549 12.1508 28.0066 12.1833C28.063 12.2186 28.1195 12.254 28.1756 12.2896C28.2278 12.3228 28.2798 12.3561 28.3318 12.3895C28.3869 12.4249 28.4421 12.4603 28.4972 12.4959C28.5502 12.5304 28.6031 12.5651 28.6559 12.5998C28.7093 12.635 28.7629 12.6699 28.8162 12.7053C28.8707 12.7415 28.925 12.7781 28.9793 12.8146C29.0303 12.8488 29.0814 12.883 29.1323 12.9174C29.1888 12.9558 29.2451 12.9946 29.3014 13.0333C29.3497 13.0665 29.3982 13.0996 29.4463 13.133C29.5052 13.1739 29.5638 13.2152 29.6226 13.2565C29.6676 13.2881 29.7127 13.3195 29.7576 13.3514C29.8207 13.3962 29.8835 13.4414 29.9463 13.4866C29.9863 13.5153 30.0264 13.5438 30.0662 13.5727C30.1355 13.623 30.2044 13.6737 30.2732 13.7243C30.3063 13.7487 30.3395 13.7729 30.3725 13.7973C30.4503 13.8549 30.5277 13.9132 30.605 13.9715C30.6288 13.9894 30.6529 14.0071 30.6766 14.0252C30.7718 14.0972 30.8665 14.1699 30.961 14.2428C30.9667 14.2473 30.9724 14.2515 30.978 14.256C31.3837 14.5701 31.7824 14.8924 32.1736 15.2228C32.1773 15.2259 32.181 15.2291 32.1847 15.2323C32.2779 15.311 32.3707 15.3902 32.463 15.4698C32.4764 15.4814 32.4896 15.493 32.503 15.5045C32.5854 15.5758 32.6675 15.6474 32.7493 15.7193C32.7693 15.7368 32.7891 15.7546 32.8089 15.7722C32.8839 15.8386 32.9586 15.905 33.0329 15.9718C33.0571 15.9935 33.0808 16.0154 33.105 16.0371C33.1748 16.1003 33.2445 16.1635 33.3138 16.2273C33.3409 16.2521 33.3675 16.2772 33.3945 16.302C33.4604 16.363 33.5262 16.4239 33.5917 16.4855C33.6212 16.5131 33.6505 16.5411 33.6799 16.5689C33.7424 16.6279 33.8046 16.6869 33.8666 16.7464C33.8983 16.7767 33.9297 16.8073 33.9613 16.8378C34.0205 16.895 34.0797 16.9523 34.1384 17.0099C34.1718 17.0426 34.205 17.0755 34.2383 17.1084C34.295 17.1643 34.3516 17.2204 34.408 17.2767C34.4424 17.3111 34.4767 17.3457 34.511 17.3804C34.5656 17.4353 34.6201 17.4905 34.6743 17.5459C34.71 17.5824 34.7456 17.6192 34.7813 17.6558C34.8335 17.7095 34.8857 17.7635 34.9375 17.8175C34.9744 17.856 35.0111 17.8946 35.0477 17.9333C35.098 17.9861 35.1482 18.0391 35.1982 18.0923C35.2358 18.1324 35.2733 18.1728 35.3109 18.2131C35.3592 18.2651 35.4076 18.3173 35.4557 18.3695C35.4941 18.4113 35.5323 18.4532 35.5704 18.4952C35.6172 18.5466 35.6641 18.5981 35.7106 18.6499C35.7494 18.693 35.788 18.7363 35.8266 18.7797C35.8535 18.8099 35.8803 18.8402 35.9071 18.8705L35.1063 19.4106C33.9942 18.1734 32.5769 16.8489 30.9805 15.5578L30.3683 16.3103C31.8831 17.5355 33.2292 18.7877 34.2936 19.9588L13.8742 33.73L14.8369 20.3177L13.8684 20.25L12.7631 35.6475L36.9054 19.3652L40.6656 16.8474L40.2522 16.4314ZM36.7196 18.324C36.6508 18.2456 36.5813 18.1678 36.5118 18.09C36.4974 18.074 36.4833 18.0577 36.4689 18.0418C36.3813 17.944 36.293 17.8468 36.2042 17.75C36.1831 17.7269 36.1616 17.7041 36.1404 17.681C36.073 17.6078 36.0056 17.5347 35.9375 17.4621C35.9063 17.4287 35.8746 17.3956 35.8432 17.3624C35.7847 17.3004 35.7262 17.2384 35.6674 17.1768C35.6328 17.1406 35.5979 17.1046 35.5631 17.0686C35.5069 17.0103 35.4508 16.9521 35.3943 16.8943C35.3575 16.8567 35.3205 16.8193 35.2836 16.782C35.2286 16.7262 35.1737 16.6705 35.1185 16.6152C35.0803 16.5769 35.042 16.539 35.0037 16.501C34.949 16.4466 34.8941 16.3924 34.8392 16.3383C34.8004 16.3003 34.7614 16.2625 34.7224 16.2245C34.6674 16.1711 34.6123 16.1177 34.5571 16.0646C34.5176 16.0267 34.478 15.989 34.4384 15.9514C34.3829 15.8986 34.3273 15.8458 34.2715 15.7934C34.2319 15.7562 34.1923 15.7192 34.1525 15.6822C34.096 15.6295 34.0394 15.5771 33.9826 15.5249C33.9432 15.4886 33.9038 15.4525 33.8642 15.4165C33.8063 15.3635 33.748 15.3108 33.6897 15.2583C33.651 15.2235 33.6122 15.1887 33.5734 15.154C33.5137 15.1007 33.4537 15.0476 33.3936 14.9946C33.3556 14.9612 33.3176 14.9277 33.2795 14.8944C33.2177 14.8405 33.1557 14.7867 33.0936 14.7332C33.0568 14.7013 33.0199 14.6695 32.983 14.6379C32.9187 14.5831 32.8543 14.5284 32.7898 14.4739C32.7543 14.444 32.719 14.4141 32.6834 14.3843C32.6158 14.3278 32.5478 14.2714 32.4798 14.2153C32.4471 14.1882 32.4144 14.1612 32.3816 14.1342C32.3087 14.0745 32.2355 14.0152 32.1622 13.9561C32.1338 13.9331 32.1055 13.9101 32.077 13.8871C31.9961 13.8223 31.915 13.7579 31.8336 13.6938C31.8122 13.6769 31.7909 13.6599 31.7695 13.643C31.6731 13.5673 31.5763 13.4922 31.4792 13.4175C31.4725 13.4124 31.4659 13.4073 31.4594 13.4021C31.0361 13.0771 30.6054 12.7607 30.1673 12.4532C30.1518 12.4423 30.1361 12.4315 30.1206 12.4207C30.0282 12.3561 29.9356 12.2917 29.8426 12.2279C29.8186 12.2113 29.7943 12.195 29.7702 12.1785C29.6854 12.1206 29.6005 12.063 29.5152 12.0056C29.486 11.986 29.4564 11.9665 29.4271 11.9469C29.3468 11.8934 29.2663 11.8399 29.1854 11.7869C29.1523 11.7652 29.1189 11.7436 29.0858 11.7219C29.0085 11.6716 28.9311 11.6214 28.8534 11.5715C28.817 11.5482 28.7806 11.525 28.7442 11.5018C28.6694 11.4543 28.5945 11.4069 28.5194 11.3598C28.4801 11.3352 28.4407 11.3107 28.4013 11.2862C28.3288 11.2411 28.2561 11.1962 28.1831 11.1515C28.1412 11.1258 28.0992 11.1003 28.0573 11.0747C27.9867 11.032 27.9161 10.9893 27.8452 10.947C27.8005 10.9201 27.7556 10.8935 27.7107 10.8669C27.6428 10.8266 27.5747 10.7867 27.5065 10.7468C27.4584 10.7186 27.4101 10.6905 27.3617 10.6625C27.3349 10.647 27.3084 10.6312 27.2815 10.6158C27.2433 10.5938 27.2048 10.5722 27.1666 10.5504C27.1351 10.5324 27.1039 10.5142 27.0724 10.4963C27.0521 10.4848 27.0316 10.4736 27.0113 10.4622C26.9488 10.4268 26.8861 10.3917 26.8233 10.3569C26.7743 10.3296 26.7254 10.3023 26.6764 10.2753C26.6072 10.237 26.5379 10.1994 26.4686 10.1616C26.4255 10.1381 26.3823 10.1146 26.3391 10.0914C26.2637 10.0509 26.1883 10.0106 26.1128 9.97066C26.075 9.95057 26.0372 9.93055 25.9994 9.91057C25.9183 9.86806 25.8371 9.82582 25.7559 9.78387C25.7231 9.76684 25.6902 9.74983 25.6574 9.73293C25.5707 9.68843 25.4839 9.64444 25.3969 9.60067C25.3692 9.58661 25.3414 9.57262 25.3136 9.55867C25.2214 9.51253 25.129 9.4669 25.0365 9.42154C25.0135 9.41025 24.9906 9.39897 24.9677 9.38777C24.8699 9.34005 24.7719 9.29285 24.6738 9.24605C24.656 9.23749 24.6381 9.22896 24.6201 9.22034C24.517 9.17138 24.4137 9.12291 24.3102 9.07484C24.2969 9.06867 24.2836 9.06243 24.2703 9.05625C24.1622 9.00626 24.0539 8.9568 23.9454 8.90784C23.9365 8.90381 23.9275 8.89963 23.9185 8.8957C23.8056 8.84477 23.6924 8.79454 23.579 8.7448C23.5744 8.74273 23.5697 8.74063 23.5651 8.73856C23.4473 8.68697 23.3293 8.63594 23.2111 8.58558C23.2107 8.58541 23.2103 8.58525 23.2098 8.58508C21.4167 7.8211 19.5741 7.20035 17.6925 6.72722C17.6876 6.72596 17.6827 6.72481 17.6778 6.72356C17.5589 6.69375 17.4399 6.66444 17.3207 6.63579C17.2871 6.62767 17.2535 6.62003 17.2199 6.61203C17.1292 6.59046 17.0385 6.56886 16.9476 6.54805C16.8995 6.53702 16.8513 6.52644 16.8032 6.51557C16.7266 6.49829 16.65 6.48095 16.5733 6.46417C16.5179 6.45208 16.4624 6.44038 16.4069 6.4286C16.337 6.41366 16.2672 6.39848 16.1971 6.38401C16.138 6.37167 16.0786 6.35994 16.0192 6.34787C15.9599 6.33581 15.9007 6.32352 15.8412 6.31173L16.0447 3.47252C16.2351 3.56227 16.4277 3.66659 16.6259 3.77397C17.0564 4.0072 17.5016 4.24832 17.9955 4.37552C18.4897 4.50276 18.9971 4.5067 19.4877 4.51057C19.9927 4.51449 20.4697 4.51818 20.8798 4.6543C21.0247 4.70242 21.1746 4.77154 21.3383 4.8657C21.5845 5.00737 21.8239 5.18319 22.0773 5.36926C22.3414 5.56317 22.6144 5.76375 22.9083 5.9328C23.063 6.02181 23.2092 6.09417 23.3555 6.15403C23.8269 6.34705 24.3286 6.41966 24.814 6.48981C25.314 6.56209 25.7863 6.63044 26.1752 6.82098C26.214 6.83999 26.2537 6.86117 26.293 6.88378C26.6306 7.07801 26.9369 7.37389 27.2611 7.68714C27.6121 8.02621 27.975 8.37676 28.4154 8.63262L28.427 8.63933C28.8696 8.89154 29.3558 9.02933 29.8259 9.16272C30.2602 9.28596 30.6705 9.40232 31.0081 9.59653C31.0475 9.61917 31.0856 9.64279 31.1214 9.66665C31.4818 9.90715 31.7772 10.2806 32.09 10.6759C32.3937 11.0596 32.7076 11.4563 33.111 11.7666C33.2362 11.8629 33.3723 11.953 33.527 12.042C33.8208 12.2111 34.1315 12.3464 34.4321 12.4773C34.7205 12.603 34.993 12.7217 35.2393 12.8633C35.403 12.9575 35.5381 13.0523 35.6523 13.1533C35.9756 13.4392 36.2174 13.849 36.4733 14.2828C36.7219 14.7043 36.979 15.1401 37.3367 15.5031C37.6941 15.8656 38.1263 16.1293 38.5443 16.3842C38.736 16.5011 38.9223 16.6147 39.0949 16.7336L36.7196 18.324Z" fill="white"/>
<path d="M22.1082 10.6766C20.4552 9.72561 18.3326 10.2943 17.3765 11.9444C16.4205 13.5945 16.9875 15.7106 18.6405 16.6616C20.2936 17.6127 22.4162 17.044 23.3722 15.3939C24.3283 13.7439 23.7612 11.6277 22.1082 10.6766ZM19.1266 15.8227C17.9371 15.1383 17.529 13.6155 18.217 12.428C18.905 11.2406 20.4326 10.8312 21.6221 11.5156C22.8117 12.2 23.2197 13.7229 22.5318 14.9103C21.8438 16.0978 20.3162 16.5071 19.1266 15.8227Z" fill="white"/>
<path d="M20.1562 22.8899C18.8445 22.1353 17.1601 22.5866 16.4015 23.8959C15.6428 25.2052 16.0927 26.8843 17.4045 27.639C18.7162 28.3936 20.4005 27.9423 21.1592 26.633C21.9178 25.3236 21.4679 23.6445 20.1562 22.8899ZM17.8906 26.7999C17.0424 26.3119 16.7515 25.2261 17.2421 24.3794C17.7326 23.5328 18.8219 23.2409 19.6701 23.7289C20.5183 24.2168 20.8093 25.3027 20.3187 26.1494C19.8281 26.9961 18.7389 27.2879 17.8906 26.7999Z" fill="white"/>
<path d="M26.5705 20.9484C27.2917 20.7422 27.7189 19.994 27.5246 19.2689C27.3807 18.7319 27.0357 18.2834 26.5533 18.0058C26.0708 17.7282 25.5084 17.6548 24.9699 17.7991L23.3117 18.2433C22.2002 18.5413 21.5374 19.6853 21.8343 20.7936C21.9294 21.1485 22.1575 21.445 22.4764 21.6285C22.7886 21.808 23.1513 21.8584 23.5004 21.7711L23.9516 23.455L27.0216 22.6323L26.5705 20.9484ZM24.6391 22.2685L24.1879 20.5847L23.2725 20.83C23.1671 20.8582 23.057 20.8439 22.9625 20.7895C22.868 20.7351 22.8005 20.6473 22.7723 20.5424C22.6137 19.9497 22.9681 19.3379 23.5626 19.1786L25.2206 18.7344C25.5087 18.6572 25.8093 18.6965 26.0673 18.8449C26.3252 18.9933 26.5097 19.2332 26.5866 19.5203C26.6447 19.7372 26.5149 19.9613 26.2973 20.0196L25.3818 20.2649L25.8331 21.9485L24.6391 22.2685Z" fill="white"/>
</g>
<defs>
<clipPath id="clip0">
<rect width="42" height="43" fill="white"/>
</clipPath>
</defs>
</svg>
