<svg width="45" height="45" viewBox="0 0 45 45" fill="none" xmlns="http://www.w3.org/2000/svg">
<circle cx="22.5" cy="22.5" r="22.5" fill="white"/>
<path d="M25.5067 31.9999C25.3146 32.0006 25.1248 31.9582 24.9512 31.8759C24.7776 31.7935 24.6247 31.6734 24.5037 31.5242L18.2925 23.8107C18.1034 23.5806 18 23.2921 18 22.9943C18 22.6966 18.1034 22.408 18.2925 22.178L24.7223 14.4644C24.9405 14.2019 25.2542 14.0368 25.5942 14.0054C25.9343 13.9741 26.2728 14.0791 26.5354 14.2973C26.7981 14.5155 26.9632 14.8291 26.9946 15.169C27.0259 15.509 26.9209 15.8474 26.7026 16.11L20.9544 23.0008L26.5097 29.8915C26.667 30.0802 26.7669 30.31 26.7976 30.5537C26.8283 30.7974 26.7885 31.0448 26.683 31.2666C26.5775 31.4884 26.4106 31.6753 26.2022 31.8053C25.9937 31.9352 25.7524 32.0028 25.5067 31.9999Z" fill="black"/>
</svg>
