<svg width="22" height="12" viewBox="0 0 22 12" fill="none" xmlns="http://www.w3.org/2000/svg">
<path d="M2 0H15L18 4H20C21.11 4 22 4.89 22 6V9H20C20 9.79565 19.6839 10.5587 19.1213 11.1213C18.5587 11.6839 17.7956 12 17 12C16.2044 12 15.4413 11.6839 14.8787 11.1213C14.3161 10.5587 14 9.79565 14 9H8C8 9.79565 7.68393 10.5587 7.12132 11.1213C6.55871 11.6839 5.79565 12 5 12C4.20435 12 3.44129 11.6839 2.87868 11.1213C2.31607 10.5587 2 9.79565 2 9H0V2C0 0.89 0.89 0 2 0ZM1.5 1.5V4H9.5V1.5H1.5ZM11 1.5V4H16.14L14.25 1.5H11ZM5 7.5C4.60218 7.5 4.22064 7.65804 3.93934 7.93934C3.65804 8.22064 3.5 8.60218 3.5 9C3.5 9.39782 3.65804 9.77936 3.93934 10.0607C4.22064 10.342 4.60218 10.5 5 10.5C5.39782 10.5 5.77936 10.342 6.06066 10.0607C6.34196 9.77936 6.5 9.39782 6.5 9C6.5 8.60218 6.34196 8.22064 6.06066 7.93934C5.77936 7.65804 5.39782 7.5 5 7.5ZM17 7.5C16.6022 7.5 16.2206 7.65804 15.9393 7.93934C15.658 8.22064 15.5 8.60218 15.5 9C15.5 9.39782 15.658 9.77936 15.9393 10.0607C16.2206 10.342 16.6022 10.5 17 10.5C17.3978 10.5 17.7794 10.342 18.0607 10.0607C18.342 9.77936 18.5 9.39782 18.5 9C18.5 8.60218 18.342 8.22064 18.0607 7.93934C17.7794 7.65804 17.3978 7.5 17 7.5Z" fill="black"/>
</svg>
