<svg width="45" height="45" viewBox="0 0 45 45" fill="none" xmlns="http://www.w3.org/2000/svg">
<circle cx="22.5" cy="22.5" r="22.5" fill="white"/>
<path d="M31.9399 31.5624L25.4474 25.0699C26.4549 23.7675 26.9999 22.175 26.9999 20.5C26.9999 18.495 26.2174 16.615 24.8024 15.1975C23.3874 13.78 21.5025 13 19.5 13C17.4975 13 15.6125 13.7825 14.1975 15.1975C12.78 16.6125 12 18.495 12 20.5C12 22.5025 12.7825 24.3874 14.1975 25.8024C15.6125 27.2199 17.495 27.9999 19.5 27.9999C21.175 27.9999 22.765 27.4549 24.0674 26.4499L30.5599 32.9399C30.579 32.959 30.6016 32.9741 30.6264 32.9844C30.6513 32.9947 30.678 33 30.7049 33C30.7318 33 30.7585 32.9947 30.7834 32.9844C30.8083 32.9741 30.8309 32.959 30.8499 32.9399L31.9399 31.8524C31.959 31.8334 31.9741 31.8108 31.9844 31.7859C31.9947 31.761 32 31.7344 32 31.7074C32 31.6805 31.9947 31.6538 31.9844 31.6289C31.9741 31.6041 31.959 31.5815 31.9399 31.5624ZM23.46 24.46C22.4 25.5174 20.995 26.0999 19.5 26.0999C18.005 26.0999 16.6 25.5174 15.54 24.46C14.4825 23.4 13.9 21.995 13.9 20.5C13.9 19.005 14.4825 17.5975 15.54 16.54C16.6 15.4825 18.005 14.9 19.5 14.9C20.995 14.9 22.4025 15.48 23.46 16.54C24.5174 17.6 25.0999 19.005 25.0999 20.5C25.0999 21.995 24.5174 23.4025 23.46 24.46Z" fill="url(#paint0_linear)"/>
<path d="M31.9399 31.5624L25.4474 25.0699C26.4549 23.7675 26.9999 22.175 26.9999 20.5C26.9999 18.495 26.2174 16.615 24.8024 15.1975C23.3874 13.78 21.5025 13 19.5 13C17.4975 13 15.6125 13.7825 14.1975 15.1975C12.78 16.6125 12 18.495 12 20.5C12 22.5025 12.7825 24.3874 14.1975 25.8024C15.6125 27.2199 17.495 27.9999 19.5 27.9999C21.175 27.9999 22.765 27.4549 24.0674 26.4499L30.5599 32.9399C30.579 32.959 30.6016 32.9741 30.6264 32.9844C30.6513 32.9947 30.678 33 30.7049 33C30.7318 33 30.7585 32.9947 30.7834 32.9844C30.8083 32.9741 30.8309 32.959 30.8499 32.9399L31.9399 31.8524C31.959 31.8334 31.9741 31.8108 31.9844 31.7859C31.9947 31.761 32 31.7344 32 31.7074C32 31.6805 31.9947 31.6538 31.9844 31.6289C31.9741 31.6041 31.959 31.5815 31.9399 31.5624ZM23.46 24.46C22.4 25.5174 20.995 26.0999 19.5 26.0999C18.005 26.0999 16.6 25.5174 15.54 24.46C14.4825 23.4 13.9 21.995 13.9 20.5C13.9 19.005 14.4825 17.5975 15.54 16.54C16.6 15.4825 18.005 14.9 19.5 14.9C20.995 14.9 22.4025 15.48 23.46 16.54C24.5174 17.6 25.0999 19.005 25.0999 20.5C25.0999 21.995 24.5174 23.4025 23.46 24.46Z" fill="black"/>
<defs>
<linearGradient id="paint0_linear" x1="-2.50981" y1="9.00001" x2="27.4882" y2="11.7215" gradientUnits="userSpaceOnUse">
<stop stop-color="#ABFD59" stop-opacity="0.46"/>
<stop offset="0.956242" stop-color="#99CC66"/>
</linearGradient>
</defs>
</svg>
