<svg width="30" height="42" viewBox="0 0 30 42" fill="none" xmlns="http://www.w3.org/2000/svg">
<path d="M2.18958 22.8505C3.09696 21.0962 4.37572 19.5266 5.9114 18.2758C4.41772 16.3029 3.60221 13.8868 3.60221 11.3977C3.60221 5.11301 8.71522 0 14.9999 0C21.2847 0 26.3977 5.11301 26.3977 11.3977C26.3977 13.8868 25.5821 16.3029 24.0885 18.2758C25.6242 19.5266 26.903 21.0962 27.8103 22.8505C28.8589 24.8779 29.4131 27.164 29.4131 29.4615C29.4131 32.0236 28.7319 34.5399 27.4433 36.7385C26.193 38.8714 24.4042 40.6592 22.27 41.9082C22.1674 41.9684 22.0505 42 21.9315 42H8.06824C7.94921 42 7.83241 41.9684 7.72964 41.9082C5.5956 40.6591 3.80667 38.8714 2.55641 36.7385C1.26781 34.5399 0.586609 32.0236 0.586609 29.4615C0.586788 27.1639 1.14101 24.8779 2.18958 22.8505ZM8.2525 40.6596H21.7474C25.6536 38.3001 28.0727 34.0262 28.0727 29.4615C28.0727 25.3226 26.0794 21.3843 22.7405 18.9267C22.5903 18.8162 22.4929 18.6479 22.4719 18.4627C22.4509 18.2773 22.508 18.0915 22.6296 17.9501C24.1952 16.129 25.0573 13.802 25.0573 11.3977C25.0572 5.85212 20.5455 1.34043 14.9999 1.34043C9.45433 1.34043 4.94263 5.85212 4.94263 11.3977C4.94263 13.8019 5.80479 16.1289 7.37032 17.9501C7.49194 18.0915 7.54904 18.2773 7.52804 18.4627C7.50696 18.648 7.40964 18.8162 7.25942 18.9267C3.9206 21.3843 1.9273 25.3225 1.9273 29.4615C1.92721 34.0262 4.34623 38.3001 8.2525 40.6596Z" fill="black"/>
<path d="M21.6934 10.0288C21.6934 13.7197 18.6905 16.7225 14.9997 16.7225C11.3089 16.7225 8.30608 13.7197 8.30608 10.0288C8.30608 9.75218 8.32494 9.47989 8.35774 9.2119C8.3597 9.17892 8.36345 9.14622 8.37016 9.11413C8.81777 5.85467 11.6193 3.33521 14.9997 3.33521C18.3803 3.33521 21.1817 5.85467 21.6293 9.11413C21.6361 9.14622 21.6397 9.17901 21.6417 9.21199C21.6745 9.47989 21.6934 9.75218 21.6934 10.0288ZM14.9997 15.3821C17.9515 15.3821 20.3529 12.9805 20.3529 10.0288C20.3529 9.92134 20.3488 9.81491 20.3426 9.70893C18.1967 8.74543 16.3384 7.19554 14.9997 5.26068C13.6612 7.19563 11.8028 8.74552 9.65688 9.70902C9.65062 9.81491 9.64651 9.92143 9.64651 10.0289C9.64651 12.9806 12.0479 15.3821 14.9997 15.3821ZM10.0409 8.01543C11.4444 7.2244 12.6761 6.14206 13.6434 4.85015C12.0049 5.27963 10.6714 6.46814 10.0409 8.01543ZM16.3562 4.85015C17.3234 6.14197 18.5552 7.22423 19.9586 8.01534C19.328 6.46814 17.9946 5.27972 16.3562 4.85015Z" fill="black"/>
<path d="M4.56141 25.112C8.60127 25.0367 12.3604 22.8073 14.372 19.2938C14.4914 19.0853 14.7133 18.9567 14.9536 18.9567C15.194 18.9567 15.4159 19.0853 15.5353 19.2939C17.5643 22.8381 21.3575 25.068 25.4344 25.1133C25.8046 25.1174 26.1012 25.4208 26.0971 25.791C26.093 26.1585 25.7937 26.4538 25.4271 26.4538C25.4246 26.4538 25.422 26.4538 25.4195 26.4538C23.135 26.4284 20.8963 25.7966 18.9457 24.6268C17.3635 23.6779 15.9995 22.3959 14.9536 20.8827C13.9166 22.3832 12.5664 23.6566 11.0013 24.6029C9.06997 25.7705 6.85184 26.4101 4.58652 26.4522C4.21692 26.4611 3.91085 26.1648 3.90397 25.7946C3.89691 25.4245 4.19127 25.1189 4.56141 25.112Z" fill="black"/>
<path d="M12.7795 9.47498H13.3449C13.7151 9.47498 14.0151 9.77505 14.0151 10.1452C14.0151 10.5153 13.7151 10.8154 13.3449 10.8154H12.7795C12.4094 10.8154 12.1093 10.5153 12.1093 10.1452C12.1093 9.77505 12.4094 9.47498 12.7795 9.47498Z" fill="black"/>
<path d="M16.562 9.47498H17.2204C17.5905 9.47498 17.8906 9.77505 17.8906 10.1452C17.8906 10.5153 17.5905 10.8154 17.2204 10.8154H16.562C16.1919 10.8154 15.8918 10.5153 15.8918 10.1452C15.8918 9.77505 16.1919 9.47498 16.562 9.47498Z" fill="black"/>
<path d="M12.4438 26.6592C13.4166 26.6592 14.3336 27.0542 14.9999 27.7295C15.6662 27.0543 16.5832 26.6592 17.556 26.6592C19.5374 26.6592 21.1494 28.2712 21.1494 30.2526C21.1494 33.6146 16.7506 37.1805 15.4024 38.1934C15.2832 38.283 15.1415 38.3278 14.9998 38.3278C14.8582 38.3278 14.7164 38.283 14.5972 38.1934C14.19 37.8875 12.7596 36.7781 11.4469 35.3456C11.1968 35.0727 11.2153 34.6487 11.4882 34.3987C11.761 34.1487 12.185 34.1672 12.435 34.44C13.3868 35.4786 14.4061 36.3379 14.9992 36.8094C16.2738 35.7927 19.8089 32.7481 19.8089 30.2526C19.8089 29.0103 18.7982 27.9996 17.5559 27.9996C16.7385 27.9996 15.9837 28.4453 15.5859 29.1627C15.4678 29.3758 15.2434 29.508 14.9997 29.508C14.756 29.508 14.5316 29.3759 14.4135 29.1627C14.0158 28.4453 13.2609 27.9996 12.4435 27.9996C11.2012 27.9996 10.1905 29.0103 10.1905 30.2526C10.1905 30.881 10.4265 31.6046 10.8917 32.4033C11.0779 32.7232 10.9697 33.1335 10.6499 33.3198C10.3299 33.506 9.9196 33.3979 9.73337 33.078C9.14725 32.0718 8.85012 31.1212 8.85012 30.2526C8.85039 28.2712 10.4624 26.6592 12.4438 26.6592Z" fill="black"/>
</svg>
