<svg width="35" height="43" viewBox="0 0 35 43" fill="none" xmlns="http://www.w3.org/2000/svg">
<ellipse cx="24.7085" cy="10.0416" rx="9.625" ry="9.625" fill="#E21B00"/>
<ellipse cx="10.125" cy="33.375" rx="9.625" ry="9.625" fill="#00A9DE"/>
<path d="M5.18958 23.8505C6.09696 22.0962 7.37572 20.5266 8.9114 19.2758C7.41772 17.3029 6.60221 14.8868 6.60221 12.3977C6.60221 6.11301 11.7152 1 17.9999 1C24.2847 1 29.3977 6.11301 29.3977 12.3977C29.3977 14.8868 28.5821 17.3029 27.0885 19.2758C28.6242 20.5266 29.903 22.0962 30.8103 23.8505C31.8589 25.8779 32.4131 28.164 32.4131 30.4615C32.4131 33.0236 31.7319 35.5399 30.4433 37.7385C29.193 39.8714 27.4042 41.6592 25.27 42.9082C25.1674 42.9684 25.0505 43 24.9315 43H11.0682C10.9492 43 10.8324 42.9684 10.7296 42.9082C8.5956 41.6591 6.80667 39.8714 5.55641 37.7385C4.26781 35.5399 3.58661 33.0236 3.58661 30.4615C3.58679 28.1639 4.14101 25.8779 5.18958 23.8505ZM11.2525 41.6596H24.7474C28.6536 39.3001 31.0727 35.0262 31.0727 30.4615C31.0727 26.3226 29.0794 22.3843 25.7405 19.9267C25.5903 19.8162 25.4929 19.6479 25.4719 19.4627C25.4509 19.2773 25.508 19.0915 25.6296 18.9501C27.1952 17.129 28.0573 14.802 28.0573 12.3977C28.0572 6.85212 23.5455 2.34043 17.9999 2.34043C12.4543 2.34043 7.94263 6.85212 7.94263 12.3977C7.94263 14.8019 8.80479 17.1289 10.3703 18.9501C10.4919 19.0915 10.549 19.2773 10.528 19.4627C10.507 19.648 10.4096 19.8162 10.2594 19.9267C6.9206 22.3843 4.9273 26.3225 4.9273 30.4615C4.92721 35.0262 7.34623 39.3001 11.2525 41.6596Z" fill="white"/>
<path d="M24.6934 11.0288C24.6934 14.7197 21.6905 17.7225 17.9997 17.7225C14.3089 17.7225 11.3061 14.7197 11.3061 11.0288C11.3061 10.7522 11.3249 10.4799 11.3577 10.2119C11.3597 10.1789 11.3635 10.1462 11.3702 10.1141C11.8178 6.85467 14.6193 4.33521 17.9997 4.33521C21.3803 4.33521 24.1817 6.85467 24.6293 10.1141C24.6361 10.1462 24.6397 10.179 24.6417 10.212C24.6745 10.4799 24.6934 10.7522 24.6934 11.0288ZM17.9997 16.3821C20.9515 16.3821 23.3529 13.9805 23.3529 11.0288C23.3529 10.9213 23.3488 10.8149 23.3426 10.7089C21.1967 9.74543 19.3384 8.19554 17.9997 6.26068C16.6612 8.19563 14.8028 9.74552 12.6569 10.709C12.6506 10.8149 12.6465 10.9214 12.6465 11.0289C12.6465 13.9806 15.0479 16.3821 17.9997 16.3821ZM13.0409 9.01543C14.4444 8.2244 15.6761 7.14206 16.6434 5.85015C15.0049 6.27963 13.6714 7.46814 13.0409 9.01543ZM19.3562 5.85015C20.3234 7.14197 21.5552 8.22423 22.9586 9.01534C22.328 7.46814 20.9946 6.27972 19.3562 5.85015Z" fill="white"/>
<path d="M7.56141 26.112C11.6013 26.0367 15.3604 23.8073 17.372 20.2938C17.4914 20.0853 17.7133 19.9567 17.9536 19.9567C18.194 19.9567 18.4159 20.0853 18.5353 20.2939C20.5643 23.8381 24.3575 26.068 28.4344 26.1133C28.8046 26.1174 29.1012 26.4208 29.0971 26.791C29.093 27.1585 28.7937 27.4538 28.4271 27.4538C28.4246 27.4538 28.422 27.4538 28.4195 27.4538C26.135 27.4284 23.8963 26.7966 21.9457 25.6268C20.3635 24.6779 18.9995 23.3959 17.9536 21.8827C16.9166 23.3832 15.5664 24.6566 14.0013 25.6029C12.07 26.7705 9.85184 27.4101 7.58652 27.4522C7.21692 27.4611 6.91085 27.1648 6.90397 26.7946C6.89691 26.4245 7.19127 26.1189 7.56141 26.112Z" fill="white"/>
<path d="M15.7795 10.475H16.3449C16.7151 10.475 17.0151 10.7751 17.0151 11.1452C17.0151 11.5153 16.7151 11.8154 16.3449 11.8154H15.7795C15.4094 11.8154 15.1093 11.5153 15.1093 11.1452C15.1093 10.7751 15.4094 10.475 15.7795 10.475Z" fill="white"/>
<path d="M19.562 10.475H20.2204C20.5905 10.475 20.8906 10.7751 20.8906 11.1452C20.8906 11.5153 20.5905 11.8154 20.2204 11.8154H19.562C19.1919 11.8154 18.8918 11.5153 18.8918 11.1452C18.8918 10.7751 19.1919 10.475 19.562 10.475Z" fill="white"/>
<path d="M15.4438 27.6592C16.4166 27.6592 17.3336 28.0542 17.9999 28.7295C18.6662 28.0543 19.5832 27.6592 20.556 27.6592C22.5374 27.6592 24.1494 29.2712 24.1494 31.2526C24.1494 34.6146 19.7506 38.1805 18.4024 39.1934C18.2832 39.283 18.1415 39.3278 17.9998 39.3278C17.8582 39.3278 17.7164 39.283 17.5972 39.1934C17.19 38.8875 15.7596 37.7781 14.4469 36.3456C14.1968 36.0727 14.2153 35.6487 14.4882 35.3987C14.761 35.1487 15.185 35.1672 15.435 35.44C16.3868 36.4786 17.4061 37.3379 17.9992 37.8094C19.2738 36.7927 22.8089 33.7481 22.8089 31.2526C22.8089 30.0103 21.7982 28.9996 20.5559 28.9996C19.7385 28.9996 18.9837 29.4453 18.5859 30.1627C18.4678 30.3758 18.2434 30.508 17.9997 30.508C17.756 30.508 17.5316 30.3759 17.4135 30.1627C17.0158 29.4453 16.2609 28.9996 15.4435 28.9996C14.2012 28.9996 13.1905 30.0103 13.1905 31.2526C13.1905 31.881 13.4265 32.6046 13.8917 33.4033C14.0779 33.7232 13.9697 34.1335 13.6499 34.3198C13.3299 34.506 12.9196 34.3979 12.7334 34.078C12.1472 33.0718 11.8501 32.1212 11.8501 31.2526C11.8504 29.2712 13.4624 27.6592 15.4438 27.6592Z" fill="white"/>
</svg>
