<svg width="37" height="37" viewBox="0 0 37 37" fill="none" xmlns="http://www.w3.org/2000/svg">
<circle cx="18.5" cy="18.5" r="18.5" fill="#FAFAFA"/>
<path fill-rule="evenodd" clip-rule="evenodd" d="M22.3955 16.6941C22.3955 19.7995 19.8765 22.317 16.7692 22.317C13.6618 22.317 11.1428 19.7995 11.1428 16.6941C11.1428 13.5887 13.6618 11.0713 16.7692 11.0713C19.8765 11.0713 22.3955 13.5887 22.3955 16.6941ZM12.5494 16.6941C12.5494 19.0232 14.4387 20.9112 16.7692 20.9112C19.0997 20.9112 20.989 19.0232 20.989 16.6941C20.989 14.365 19.0997 12.477 16.7692 12.477C14.4387 12.477 12.5494 14.365 12.5494 16.6941Z" fill="#ACACAD"/>
<path fill-rule="evenodd" clip-rule="evenodd" d="M23.6439 24.9098C23.9114 25.1912 24.3566 25.2027 24.6382 24.9353C24.9198 24.668 24.9312 24.2231 24.6637 23.9417L20.7956 19.8721C20.5281 19.5907 20.0829 19.5792 19.8013 19.8466C19.5197 20.1139 19.5083 20.5588 19.7758 20.8402L23.6439 24.9098Z" fill="#ACACAD"/>
</svg>
