<svg width="28" height="28" viewBox="0 0 28 28" fill="none" xmlns="http://www.w3.org/2000/svg">
<path d="M25.9399 22.5624L19.4474 16.0699C20.4549 14.7675 20.9999 13.175 20.9999 11.5C20.9999 9.49498 20.2174 7.61498 18.8024 6.19749C17.3874 4.78 15.5025 4 13.5 4C11.4975 4 9.61248 4.7825 8.19749 6.19749C6.78 7.61248 6 9.49498 6 11.5C6 13.5025 6.7825 15.3874 8.19749 16.8024C9.61248 18.2199 11.495 18.9999 13.5 18.9999C15.175 18.9999 16.765 18.4549 18.0674 17.4499L24.5599 23.9399C24.579 23.959 24.6016 23.9741 24.6264 23.9844C24.6513 23.9947 24.678 24 24.7049 24C24.7318 24 24.7585 23.9947 24.7834 23.9844C24.8083 23.9741 24.8309 23.959 24.8499 23.9399L25.9399 22.8524C25.959 22.8334 25.9741 22.8108 25.9844 22.7859C25.9947 22.761 26 22.7344 26 22.7074C26 22.6805 25.9947 22.6538 25.9844 22.6289C25.9741 22.6041 25.959 22.5815 25.9399 22.5624ZM17.46 15.46C16.4 16.5174 14.995 17.0999 13.5 17.0999C12.005 17.0999 10.6 16.5174 9.53998 15.46C8.48249 14.4 7.89999 12.995 7.89999 11.5C7.89999 10.005 8.48249 8.59748 9.53998 7.53998C10.6 6.48249 12.005 5.89999 13.5 5.89999C14.995 5.89999 16.4025 6.47999 17.46 7.53998C18.5174 8.59998 19.0999 10.005 19.0999 11.5C19.0999 12.995 18.5174 14.4025 17.46 15.46Z" fill="url(#paint0_linear)"/>
<path d="M25.9399 22.5624L19.4474 16.0699C20.4549 14.7675 20.9999 13.175 20.9999 11.5C20.9999 9.49498 20.2174 7.61498 18.8024 6.19749C17.3874 4.78 15.5025 4 13.5 4C11.4975 4 9.61248 4.7825 8.19749 6.19749C6.78 7.61248 6 9.49498 6 11.5C6 13.5025 6.7825 15.3874 8.19749 16.8024C9.61248 18.2199 11.495 18.9999 13.5 18.9999C15.175 18.9999 16.765 18.4549 18.0674 17.4499L24.5599 23.9399C24.579 23.959 24.6016 23.9741 24.6264 23.9844C24.6513 23.9947 24.678 24 24.7049 24C24.7318 24 24.7585 23.9947 24.7834 23.9844C24.8083 23.9741 24.8309 23.959 24.8499 23.9399L25.9399 22.8524C25.959 22.8334 25.9741 22.8108 25.9844 22.7859C25.9947 22.761 26 22.7344 26 22.7074C26 22.6805 25.9947 22.6538 25.9844 22.6289C25.9741 22.6041 25.959 22.5815 25.9399 22.5624ZM17.46 15.46C16.4 16.5174 14.995 17.0999 13.5 17.0999C12.005 17.0999 10.6 16.5174 9.53998 15.46C8.48249 14.4 7.89999 12.995 7.89999 11.5C7.89999 10.005 8.48249 8.59748 9.53998 7.53998C10.6 6.48249 12.005 5.89999 13.5 5.89999C14.995 5.89999 16.4025 6.47999 17.46 7.53998C18.5174 8.59998 19.0999 10.005 19.0999 11.5C19.0999 12.995 18.5174 14.4025 17.46 15.46Z" fill="#09B44D"/>
<defs>
<linearGradient id="paint0_linear" x1="-8.50981" y1="5.14052e-06" x2="21.4882" y2="2.72155" gradientUnits="userSpaceOnUse">
<stop stop-color="#ABFD59" stop-opacity="0.46"/>
<stop offset="0.956242" stop-color="#99CC66"/>
</linearGradient>
</defs>
</svg>
