<svg width="26" height="26" viewBox="0 0 26 26" fill="none" xmlns="http://www.w3.org/2000/svg">
<g clip-path="url(#clip0)">
<path d="M12.9983 4.54656e-07C10.4267 5.44551e-07 7.91278 0.762625 5.77458 2.19142C3.63638 3.62022 1.96992 5.65102 0.985956 8.02697C0.00198759 10.4029 -0.255289 13.0173 0.246664 15.5395C0.748617 18.0617 1.98725 20.3784 3.80592 22.1965C5.62459 24.0147 7.94159 25.2527 10.4639 25.754C12.9862 26.2553 15.6005 25.9974 17.9762 25.0128C20.3519 24.0282 22.3823 22.3612 23.8105 20.2226C25.2387 18.084 26.0007 15.5699 26 12.9983C26 11.291 25.6637 9.60051 25.0103 8.02326C24.3568 6.44601 23.3991 5.01294 22.1917 3.80589C20.9843 2.59885 19.551 1.64147 17.9736 0.988449C16.3962 0.335426 14.7056 -0.000451079 12.9983 4.54656e-07ZM16.7799 12.3176C15.9686 11.4547 14.4387 9.85614 14.4387 9.85614C14.4387 9.85614 14.4972 17.8524 14.4662 18.9766C14.4319 20.3139 11.8054 20.2692 11.8398 18.7325C11.8742 17.1958 11.9463 9.84583 11.9463 9.84583C11.9463 9.84583 9.9868 11.8604 9.28206 12.5376C8.20259 13.569 6.38056 12.3038 7.87256 10.8565C9.08954 9.67394 11.6541 7.14716 12.2317 6.58337C12.3437 6.45149 12.483 6.34555 12.64 6.2729C12.797 6.20024 12.968 6.16261 13.141 6.16261C13.314 6.16261 13.4849 6.20024 13.6419 6.2729C13.799 6.34555 13.9383 6.45149 14.0503 6.58337C14.6278 7.14716 17.6978 10.0418 18.3819 10.884C19.3342 12.0598 17.6806 13.2424 16.7936 12.3176H16.7799Z" fill="#8A8A8F"/>
</g>
<defs>
<clipPath id="clip0">
<rect width="26" height="26" fill="white"/>
</clipPath>
</defs>
</svg>
