<svg width="24" height="24" viewBox="0 0 24 24" fill="none" xmlns="http://www.w3.org/2000/svg">
<g clip-path="url(#clip0)">
<path d="M22.1262 22.1288L21.6151 20.626C20.6553 17.7991 18.0562 15.8725 15.0951 15.7461C14.8345 15.9486 14.5597 16.1226 14.275 16.2747C13.8505 17.3894 12.4241 17.6914 11.5885 16.8377C10.5998 16.7504 9.6947 16.3598 8.90424 15.7461C5.94312 15.8722 3.34473 17.7987 2.38424 20.626L1.87395 22.1288C1.72642 22.5611 1.79747 23.0374 2.06357 23.4085C2.32882 23.7799 2.75801 23.9999 3.21449 23.9999H20.785C21.2414 23.9999 21.6706 23.7799 21.9359 23.4085C22.2019 23.0374 22.2729 22.5611 22.1262 22.1288Z" fill="#B8B8B8"/>
<path d="M13.956 14.6024C15.675 13.3942 16.8773 10.7259 16.8773 8.14633C16.8773 0.81517 7.12305 0.822958 7.12305 8.14633C7.12305 11.2815 8.89822 14.5427 11.2204 15.1584C11.4443 14.524 12.0435 14.0652 12.7536 14.0652C13.2311 14.0651 13.6572 14.2746 13.956 14.6024Z" fill="#B8B8B8"/>
<path d="M4.98243 11.2069C5.22426 12.1568 6.54225 11.8954 6.54225 11.0157C6.54225 7.48954 6.71078 7.16028 6.23872 6.77756C7.31935 0.118632 16.6282 0.168576 17.7612 6.77832C17.2898 7.16224 17.4584 7.48994 17.4584 11.0157C17.4584 11.2915 17.6067 11.5229 17.8196 11.6664C17.8196 14.4095 16.707 14.2492 13.3611 15.136C12.8438 14.5746 11.9199 14.9401 11.9199 15.6974C11.9199 16.6458 13.2792 16.8678 13.5429 15.9143C16.2442 15.198 18.6186 14.9721 18.6186 12.2724V11.7183C18.8191 11.6145 18.9611 11.4304 19.0181 11.2069C21.6219 11.1538 21.6227 7.25158 19.0181 7.19852C18.9642 6.98548 18.8316 6.81148 18.6451 6.70536C18.7123 5.90636 18.5477 4.85608 18.0896 3.84212C14.9038 -2.73174 5.49423 -0.159577 5.34686 6.21145C5.32656 6.4272 5.34294 6.58015 5.3554 6.70536C5.16889 6.81148 5.0363 6.98548 4.98243 7.19852C3.8916 7.21957 3.01221 8.10716 3.01221 9.20271C3.01221 10.2982 3.8916 11.1857 4.98243 11.2069Z" fill="#B8B8B8"/>
</g>
<defs>
<clipPath id="clip0">
<rect width="24" height="24" fill="white"/>
</clipPath>
</defs>
</svg>
