<svg width="130" height="100" viewBox="0 0 130 100" fill="none" xmlns="http://www.w3.org/2000/svg">
<rect width="130" height="100" rx="10" fill="url(#paint0_linear)"/>
<rect x="54" y="76" width="70" height="15" rx="5" fill="white"/>
<path d="M59.9883 88V83.7275H64.3564V82.6338H59.9883V79.2432H64.7461V78.1357H58.7578V88H59.9883ZM67.59 88V78.1357H66.3595V88H67.59ZM70.9261 84.0967H73.3529L75.4652 88H76.9075L74.6243 83.9053C75.8616 83.5156 76.6068 82.4492 76.6068 81.0752C76.6068 79.2979 75.3626 78.1357 73.4622 78.1357H69.6956V88H70.9261V84.0967ZM70.9261 79.2295H73.2982C74.5696 79.2295 75.3353 79.9336 75.3353 81.1162C75.3353 82.3262 74.6175 83.0029 73.3529 83.0029H70.9261V79.2295ZM77.9604 85.4229C78.0903 87.125 79.5327 88.2324 81.6245 88.2324C83.8804 88.2324 85.3091 87.0771 85.3091 85.2656C85.3091 83.8164 84.4888 83.0234 82.4448 82.5107L81.4126 82.2373C80.0522 81.8887 79.5122 81.4443 79.5122 80.6719C79.5122 79.6738 80.3804 79.0176 81.6929 79.0176C82.9233 79.0176 83.7573 79.6191 83.9282 80.6309H85.1655C85.063 79.0381 83.6411 77.9033 81.7339 77.9033C79.6489 77.9033 78.2475 79.0381 78.2475 80.7129C78.2475 82.1143 79.02 82.9209 80.8042 83.3721L82.0688 83.7002C83.4292 84.042 84.0444 84.5752 84.0444 85.416C84.0444 86.3936 83.0669 87.1113 81.7407 87.1113C80.3393 87.1113 79.355 86.4551 79.2046 85.4229H77.9604ZM90.7438 88V79.2432H93.9225V78.1357H86.3346V79.2432H89.5133V88H90.7438ZM97.1902 83.4541H98.4139C99.8016 83.4541 100.656 84.165 100.656 85.3066C100.656 86.4141 99.7332 87.1592 98.4344 87.1592C97.1629 87.1592 96.2742 86.4961 96.1648 85.457H94.9754C95.0643 87.1318 96.4451 88.2324 98.448 88.2324C100.41 88.2324 101.921 86.9951 101.921 85.3408C101.921 83.9668 101.073 83.0986 99.7947 82.8936V82.7842C100.806 82.4902 101.545 81.7041 101.552 80.5146C101.558 79.1338 100.437 77.9033 98.4891 77.9033C96.493 77.9033 95.2693 79.0859 95.1463 80.6924H96.3426C96.4451 79.585 97.2176 78.9766 98.407 78.9766C99.5965 78.9766 100.301 79.7285 100.301 80.6514C100.301 81.6768 99.4939 82.4014 98.3592 82.4014H97.1902V83.4541ZM106.802 88.2324C109.017 88.2324 110.288 86.3594 110.288 83.085C110.288 79.8174 108.996 77.9033 106.802 77.9033C104.594 77.9033 103.302 79.8105 103.302 83.0645C103.302 86.3457 104.58 88.2324 106.802 88.2324ZM106.802 87.1592C105.346 87.1592 104.539 85.7031 104.539 83.0645C104.539 80.46 105.359 78.9834 106.802 78.9834C108.244 78.9834 109.051 80.4463 109.051 83.0645C109.051 85.71 108.258 87.1592 106.802 87.1592ZM115.21 88.2324C117.425 88.2324 118.696 86.3594 118.696 83.085C118.696 79.8174 117.404 77.9033 115.21 77.9033C113.002 77.9033 111.71 79.8105 111.71 83.0645C111.71 86.3457 112.988 88.2324 115.21 88.2324ZM115.21 87.1592C113.754 87.1592 112.947 85.7031 112.947 83.0645C112.947 80.46 113.768 78.9834 115.21 78.9834C116.652 78.9834 117.459 80.4463 117.459 83.0645C117.459 85.71 116.666 87.1592 115.21 87.1592Z" fill="black"/>
<path d="M11.2979 19.2324C13.3965 19.2324 14.9551 18.0635 15.2832 16.252H14.0322C13.7178 17.3936 12.6719 18.0977 11.2979 18.0977C9.39746 18.0977 8.20801 16.5459 8.20801 14.0713C8.20801 11.5967 9.39746 10.0381 11.291 10.0381C12.6514 10.0381 13.7041 10.8379 14.0322 12.1094H15.2832C14.9893 10.209 13.3691 8.90332 11.291 8.90332C8.61133 8.90332 6.94336 10.8857 6.94336 14.0713C6.94336 17.25 8.61816 19.2324 11.2979 19.2324ZM18.4826 15.6436L21.3673 19H22.8918L19.4533 15.1035L22.7619 11.6309H21.3332L18.4826 14.7139H18.0929V11.6309H16.9171V19H18.0929V15.6436H18.4826ZM25.2982 19L28.9691 13.5039H29.0784V19H30.2542V11.6309H29.0784L25.4075 17.127H25.2982V11.6309H24.1224V19H25.2982ZM32.3598 20.9482V19H38.1225V20.9482H39.23V18.0156H38.0542V11.6309H33.0298L32.7427 15.7393C32.6743 16.7305 32.4077 17.6602 31.8677 18.0156H31.2524V20.9482H32.3598ZM36.8784 18.0156H33.2417V17.9062C33.5903 17.4482 33.7817 16.6621 33.8501 15.7666L34.0825 12.6152H36.8784V18.0156ZM41.9303 15.6436L44.8151 19H46.3395L42.901 15.1035L46.2096 11.6309H44.7809L41.9303 14.7139H41.5407V11.6309H40.3649V19H41.5407V15.6436H41.9303ZM49.4227 19.1299C50.407 19.1299 51.2137 18.6992 51.6922 17.9131H51.8016V19H52.9227V13.9551C52.9227 12.4238 51.9178 11.501 50.1199 11.501C48.5477 11.501 47.3855 12.2803 47.2283 13.4629H48.4178C48.5818 12.8818 49.1971 12.5469 50.0789 12.5469C51.1795 12.5469 51.7469 13.0459 51.7469 13.9551V14.625L49.6209 14.7549C47.9051 14.8574 46.9344 15.6162 46.9344 16.9355C46.9344 18.2822 47.9939 19.1299 49.4227 19.1299ZM49.6414 18.0977C48.7869 18.0977 48.1512 17.6602 48.1512 16.9082C48.1512 16.1699 48.6434 15.7803 49.7645 15.7051L51.7469 15.5752V16.252C51.7469 17.3047 50.8514 18.0977 49.6414 18.0977ZM60.3605 14.4541H61.5841C62.9718 14.4541 63.8263 15.165 63.8263 16.3066C63.8263 17.4141 62.9034 18.1592 61.6046 18.1592C60.3331 18.1592 59.4445 17.4961 59.3351 16.457H58.1456C58.2345 18.1318 59.6154 19.2324 61.6183 19.2324C63.5802 19.2324 65.0909 17.9951 65.0909 16.3408C65.0909 14.9668 64.2433 14.0986 62.965 13.8936V13.7842C63.9767 13.4902 64.715 12.7041 64.7218 11.5146C64.7286 10.1338 63.6075 8.90332 61.6593 8.90332C59.6632 8.90332 58.4396 10.0859 58.3165 11.6924H59.5128C59.6154 10.585 60.3878 9.97656 61.5773 9.97656C62.7667 9.97656 63.4708 10.7285 63.4708 11.6514C63.4708 12.6768 62.6642 13.4014 61.5294 13.4014H60.3605V14.4541ZM69.972 19.2324C72.1868 19.2324 73.4583 17.3594 73.4583 14.085C73.4583 10.8174 72.1663 8.90332 69.972 8.90332C67.7639 8.90332 66.472 10.8105 66.472 14.0645C66.472 17.3457 67.7503 19.2324 69.972 19.2324ZM69.972 18.1592C68.5159 18.1592 67.7093 16.7031 67.7093 14.0645C67.7093 11.46 68.5296 9.9834 69.972 9.9834C71.4143 9.9834 72.221 11.4463 72.221 14.0645C72.221 16.71 71.428 18.1592 69.972 18.1592ZM78.3803 19.2324C80.5952 19.2324 81.8666 17.3594 81.8666 14.085C81.8666 10.8174 80.5746 8.90332 78.3803 8.90332C76.1723 8.90332 74.8803 10.8105 74.8803 14.0645C74.8803 17.3457 76.1586 19.2324 78.3803 19.2324ZM78.3803 18.1592C76.9243 18.1592 76.1176 16.7031 76.1176 14.0645C76.1176 11.46 76.9379 9.9834 78.3803 9.9834C79.8227 9.9834 80.6293 11.4463 80.6293 14.0645C80.6293 16.71 79.8364 18.1592 78.3803 18.1592ZM86.6931 16.6348V17.4551H88.0603V19H89.2908V17.4551H92.1277V16.6348H89.2908V15.3223H91.1707C93.0232 15.3223 94.2263 14.0439 94.2263 12.3076C94.2263 10.5781 93.0369 9.2793 91.1843 9.2793H88.0603V14.502H86.6931V15.3223H88.0603V16.6348H86.6931ZM89.2908 10.373H90.863C92.2781 10.373 92.9617 11.125 92.9617 12.3076C92.9617 13.4971 92.2712 14.2559 90.863 14.2559H89.2908V10.373ZM12.0225 36H13.1982V28.6309H12.0225V31.6797H8.34473V28.6309H7.16895V36H8.34473V32.6641H12.0225V36ZM17.1838 36.1299C18.1681 36.1299 18.9748 35.6992 19.4533 34.9131H19.5627V36H20.6838V30.9551C20.6838 29.4238 19.6789 28.501 17.881 28.501C16.3088 28.501 15.1466 29.2803 14.9894 30.4629H16.1789C16.3429 29.8818 16.9582 29.5469 17.84 29.5469C18.9406 29.5469 19.508 30.0459 19.508 30.9551V31.625L17.382 31.7549C15.6662 31.8574 14.6955 32.6162 14.6955 33.9355C14.6955 35.2822 15.755 36.1299 17.1838 36.1299ZM17.4025 35.0977C16.548 35.0977 15.9123 34.6602 15.9123 33.9082C15.9123 33.1699 16.4045 32.7803 17.5255 32.7051L19.508 32.5752V33.252C19.508 34.3047 18.6125 35.0977 17.4025 35.0977ZM30.9038 36H32.0796V28.6309H26.1186V36H27.2944V29.6152H30.9038V36ZM38.8952 34.0928C38.5875 34.7422 37.945 35.0908 36.9948 35.0908C35.7438 35.0908 34.9303 34.168 34.8688 32.7119V32.6572H40.1666V32.2061C40.1666 29.916 38.9567 28.501 36.9674 28.501C34.944 28.501 33.6452 30.0049 33.6452 32.3223C33.6452 34.6533 34.9235 36.1299 36.9674 36.1299C38.5807 36.1299 39.7291 35.3506 40.0709 34.0928H38.8952ZM36.9538 29.54C38.1227 29.54 38.902 30.4014 38.9293 31.707H34.8688C34.9577 30.4014 35.778 29.54 36.9538 29.54ZM45.3279 28.501C44.323 28.501 43.4412 29.0137 42.9695 29.8613H42.8602V28.6309H41.7391V38.4609H42.9148V34.8926H43.0242C43.4275 35.6719 44.2752 36.1299 45.3279 36.1299C47.201 36.1299 48.4246 34.6191 48.4246 32.3154C48.4246 29.998 47.2078 28.501 45.3279 28.501ZM45.0477 35.0703C43.7215 35.0703 42.8807 34.0039 42.8807 32.3154C42.8807 30.6201 43.7215 29.5605 45.0545 29.5605C46.4012 29.5605 47.2078 30.5928 47.2078 32.3154C47.2078 34.0381 46.4012 35.0703 45.0477 35.0703ZM53.1279 36C54.7138 36 55.6504 35.166 55.6504 33.8809C55.6504 33.0195 55.0556 32.3633 54.1191 32.2334V32.124C54.8095 31.9805 55.3222 31.2832 55.3222 30.5518C55.3222 29.3896 54.5088 28.6309 53.1142 28.6309H49.9902V36H53.1279ZM51.166 29.6152H52.9638C53.791 29.6152 54.1601 30.0391 54.1601 30.6748C54.1601 31.3789 53.7295 31.748 52.7724 31.748H51.166V29.6152ZM51.166 32.7324H52.875C53.9345 32.7324 54.4814 33.0811 54.4814 33.8604C54.4814 34.6055 54.0029 35.0156 53.1005 35.0156H51.166V32.7324ZM63.6964 36H64.8722V28.6309H63.6964V36ZM57.2501 36H59.882C61.5704 36 62.6505 35.0293 62.6505 33.498C62.6505 31.9668 61.5704 30.9961 59.882 30.9961H58.4259V28.6309H57.2501V36ZM59.882 31.9805C60.8458 31.9805 61.4747 32.5752 61.4747 33.498C61.4747 34.4141 60.8527 35.0156 59.882 35.0156H58.4259V31.9805H59.882ZM67.5315 25.3633C67.5315 26.6348 68.468 27.6055 69.8763 27.6055C71.2845 27.6055 72.221 26.6348 72.221 25.3633H71.1546C71.1546 26.1084 70.6829 26.7988 69.8763 26.7988C69.0833 26.7988 68.5979 26.1084 68.5979 25.3633H67.5315ZM67.9827 36L71.6536 30.5039H71.763V36H72.9388V28.6309H71.763L68.0921 34.127H67.9827V28.6309H66.8069V36H67.9827ZM80.9234 36.123C82.6393 36.123 83.8219 35.1934 83.8219 33.8262C83.8219 33.0059 83.316 32.4111 82.3385 32.1992V32.0898C83.0699 31.9189 83.5553 31.2422 83.5553 30.4902C83.5553 29.3145 82.6119 28.501 80.9645 28.501C79.44 28.501 78.36 29.2666 78.2027 30.4766H79.3648C79.4605 29.8818 80.1031 29.499 80.9645 29.499C81.9146 29.499 82.3932 29.957 82.3932 30.5791C82.3932 31.3516 81.8668 31.7275 80.9234 31.7275H79.775V32.7119H80.9234C82.0514 32.7119 82.6529 33.0811 82.6529 33.8877C82.6529 34.6191 82.0104 35.1318 80.9234 35.1318C80.0006 35.1318 79.3512 34.7559 79.2076 34.1133H77.9977C78.1275 35.3369 79.3238 36.123 80.9234 36.123ZM87.4451 36.1299C88.4295 36.1299 89.2361 35.6992 89.7146 34.9131H89.824V36H90.9451V30.9551C90.9451 29.4238 89.9402 28.501 88.1423 28.501C86.5701 28.501 85.408 29.2803 85.2507 30.4629H86.4402C86.6043 29.8818 87.2195 29.5469 88.1013 29.5469C89.2019 29.5469 89.7693 30.0459 89.7693 30.9551V31.625L87.6433 31.7549C85.9275 31.8574 84.9568 32.6162 84.9568 33.9355C84.9568 35.2822 86.0164 36.1299 87.4451 36.1299ZM87.6638 35.0977C86.8093 35.0977 86.1736 34.6602 86.1736 33.9082C86.1736 33.1699 86.6658 32.7803 87.7869 32.7051L89.7693 32.5752V33.252C89.7693 34.3047 88.8738 35.0977 87.6638 35.0977ZM94.4042 32.6436L97.289 36H98.8134L95.3749 32.1035L98.6835 28.6309H97.2548L94.4042 31.7139H94.0146V28.6309H92.8388V36H94.0146V32.6436H94.4042ZM101.897 36.1299C102.881 36.1299 103.688 35.6992 104.166 34.9131H104.275V36H105.397V30.9551C105.397 29.4238 104.392 28.501 102.594 28.501C101.022 28.501 99.8595 29.2803 99.7022 30.4629H100.892C101.056 29.8818 101.671 29.5469 102.553 29.5469C103.653 29.5469 104.221 30.0459 104.221 30.9551V31.625L102.095 31.7549C100.379 31.8574 99.4083 32.6162 99.4083 33.9355C99.4083 35.2822 100.468 36.1299 101.897 36.1299ZM102.115 35.0977C101.261 35.0977 100.625 34.6602 100.625 33.9082C100.625 33.1699 101.117 32.7803 102.238 32.7051L104.221 32.5752V33.252C104.221 34.3047 103.325 35.0977 102.115 35.0977ZM109.799 36.123C111.515 36.123 112.698 35.1934 112.698 33.8262C112.698 33.0059 112.192 32.4111 111.214 32.1992V32.0898C111.946 31.9189 112.431 31.2422 112.431 30.4902C112.431 29.3145 111.488 28.501 109.84 28.501C108.316 28.501 107.236 29.2666 107.078 30.4766H108.24C108.336 29.8818 108.979 29.499 109.84 29.499C110.79 29.499 111.269 29.957 111.269 30.5791C111.269 31.3516 110.742 31.7275 109.799 31.7275H108.651V32.7119H109.799C110.927 32.7119 111.529 33.0811 111.529 33.8877C111.529 34.6191 110.886 35.1318 109.799 35.1318C108.876 35.1318 108.227 34.7559 108.083 34.1133H106.873C107.003 35.3369 108.199 36.123 109.799 36.123ZM10.2041 53.1299C12.3027 53.1299 13.6016 51.6807 13.6016 49.3154C13.6016 46.9434 12.3027 45.501 10.2041 45.501C8.10547 45.501 6.80664 46.9434 6.80664 49.3154C6.80664 51.6807 8.10547 53.1299 10.2041 53.1299ZM10.2041 52.0703C8.80957 52.0703 8.02344 51.0586 8.02344 49.3154C8.02344 47.5654 8.80957 46.5605 10.2041 46.5605C11.5986 46.5605 12.3848 47.5654 12.3848 49.3154C12.3848 51.0586 11.5986 52.0703 10.2041 52.0703ZM20.0275 45.6309H14.0666V46.6152H16.4591V53H17.6349V46.6152H20.0275V45.6309ZM25.2163 53H26.5083L30.897 44.2773V43.1357H24.3686V44.2363H29.646V44.332L25.2163 53ZM35.4909 53.2324C37.7057 53.2324 38.9772 51.3594 38.9772 48.085C38.9772 44.8174 37.6852 42.9033 35.4909 42.9033C33.2829 42.9033 31.9909 44.8105 31.9909 48.0645C31.9909 51.3457 33.2692 53.2324 35.4909 53.2324ZM35.4909 52.1592C34.0348 52.1592 33.2282 50.7031 33.2282 48.0645C33.2282 45.46 34.0485 43.9834 35.4909 43.9834C36.9332 43.9834 37.7399 45.4463 37.7399 48.0645C37.7399 50.71 36.9469 52.1592 35.4909 52.1592ZM43.8992 53.2324C46.1141 53.2324 47.3855 51.3594 47.3855 48.085C47.3855 44.8174 46.0936 42.9033 43.8992 42.9033C41.6912 42.9033 40.3992 44.8105 40.3992 48.0645C40.3992 51.3457 41.6775 53.2324 43.8992 53.2324ZM43.8992 52.1592C42.4432 52.1592 41.6365 50.7031 41.6365 48.0645C41.6365 45.46 42.4568 43.9834 43.8992 43.9834C45.3416 43.9834 46.1482 45.4463 46.1482 48.0645C46.1482 50.71 45.3553 52.1592 43.8992 52.1592ZM52.212 50.6348V51.4551H53.5792V53H54.8097V51.4551H57.6466V50.6348H54.8097V49.3223H56.6896C58.5421 49.3223 59.7452 48.0439 59.7452 46.3076C59.7452 44.5781 58.5558 43.2793 56.7032 43.2793H53.5792V48.502H52.212V49.3223H53.5792V50.6348H52.212ZM54.8097 44.373H56.382C57.797 44.373 58.4806 45.125 58.4806 46.3076C58.4806 47.4971 57.7902 48.2559 56.382 48.2559H54.8097V44.373Z" fill="white"/>
<path d="M13.7637 88V79.5449H7.13672V88H8.19727V80.5059H12.7207V88H13.7637ZM18.5802 81.5723C17.7189 81.5723 16.963 82.0117 16.5588 82.7383H16.465V81.6836H15.5041V90.1094H16.5119V87.0508H16.6056C16.9513 87.7188 17.6779 88.1113 18.5802 88.1113C20.1857 88.1113 21.2345 86.8164 21.2345 84.8418C21.2345 82.8555 20.1916 81.5723 18.5802 81.5723ZM18.34 87.2031C17.2033 87.2031 16.4826 86.2891 16.4826 84.8418C16.4826 83.3887 17.2033 82.4805 18.3459 82.4805C19.5002 82.4805 20.1916 83.3652 20.1916 84.8418C20.1916 86.3184 19.5002 87.2031 18.34 87.2031ZM25.1195 88.1113C26.9183 88.1113 28.0316 86.8691 28.0316 84.8418C28.0316 82.8086 26.9183 81.5723 25.1195 81.5723C23.3206 81.5723 22.2073 82.8086 22.2073 84.8418C22.2073 86.8691 23.3206 88.1113 25.1195 88.1113ZM25.1195 87.2031C23.9241 87.2031 23.2503 86.3359 23.2503 84.8418C23.2503 83.3418 23.9241 82.4805 25.1195 82.4805C26.3148 82.4805 26.9886 83.3418 26.9886 84.8418C26.9886 86.3359 26.3148 87.2031 25.1195 87.2031ZM30.3227 88V83.5059H30.4341L32.4321 87.8242H33.2173L35.2153 83.5059H35.3266V88H36.3403V81.6836H35.1626L32.895 86.582H32.8013L30.5395 81.6836H29.3149V88H30.3227ZM40.5416 88.1113C42.3405 88.1113 43.4538 86.8691 43.4538 84.8418C43.4538 82.8086 42.3405 81.5723 40.5416 81.5723C38.7428 81.5723 37.6295 82.8086 37.6295 84.8418C37.6295 86.8691 38.7428 88.1113 40.5416 88.1113ZM40.5416 87.2031C39.3463 87.2031 38.6725 86.3359 38.6725 84.8418C38.6725 83.3418 39.3463 82.4805 40.5416 82.4805C41.737 82.4805 42.4108 83.3418 42.4108 84.8418C42.4108 86.3359 41.737 87.2031 40.5416 87.2031ZM45.5164 83.5234C45.9383 83.5234 46.2781 83.1777 46.2781 82.7617C46.2781 82.3398 45.9383 82 45.5164 82C45.1004 82 44.7547 82.3398 44.7547 82.7617C44.7547 83.1777 45.1004 83.5234 45.5164 83.5234ZM45.5164 88.0586C45.9383 88.0586 46.2781 87.7129 46.2781 87.2969C46.2781 86.875 45.9383 86.5352 45.5164 86.5352C45.1004 86.5352 44.7547 86.875 44.7547 87.2969C44.7547 87.7129 45.1004 88.0586 45.5164 88.0586Z" fill="white"/>
<defs>
<linearGradient id="paint0_linear" x1="12" y1="4.14051e-06" x2="119" y2="100" gradientUnits="userSpaceOnUse">
<stop stop-color="#CA433F"/>
<stop offset="1" stop-color="#AD1D80"/>
</linearGradient>
</defs>
</svg>
