<svg width="51" height="53" viewBox="0 0 51 53" fill="none" xmlns="http://www.w3.org/2000/svg">
<g clip-path="url(#clip0)">
<path d="M48.8719 16.6501C48.6128 16.3139 48.1317 16.2515 47.7955 16.5106L44.7549 18.8537L44.0518 17.9413C43.18 16.8082 41.4162 16.5796 40.2844 17.4532C39.7178 17.8891 39.3548 18.5224 39.2622 19.2365C39.1698 19.9498 39.3596 20.654 39.7961 21.2214L39.9976 21.4828L36.1372 20.9827C35.2975 20.8739 34.5262 21.4682 34.4174 22.3079L33.9792 25.6902C33.5043 25.4421 32.9868 25.2729 32.4394 25.202C31.2191 25.0439 30.0111 25.3703 29.036 26.1218C27.7341 27.125 27.1302 28.6916 27.2776 30.2185C26.3406 29.4206 24.8621 29.3381 23.8679 30.1049C23.3014 30.5408 22.9383 31.1742 22.8458 31.8882C22.7534 32.6015 22.9431 33.3057 23.3797 33.8731L23.5811 34.1346L19.72 33.6343C18.8803 33.5255 18.109 34.1199 18.0002 34.9595L17.5611 38.3487C16.6551 37.1809 14.9694 36.964 13.7976 37.8657C12.6246 38.7703 12.4056 40.4603 13.3095 41.6332L14.0125 42.5455L11.4165 44.546C11.3366 44.6068 11.2701 44.6841 11.2191 44.7727C11.1683 44.8606 11.1357 44.957 11.1229 45.0559C11.0141 45.8956 10.2427 46.49 9.40307 46.3812C8.5634 46.2724 7.96902 45.5011 8.07781 44.6614C8.18661 43.8217 8.95793 43.2274 9.7976 43.3362C10.2186 43.3907 10.603 43.0945 10.6575 42.6735C10.712 42.2526 10.4158 41.8682 9.99487 41.8136C8.31553 41.5961 6.77288 42.7848 6.55529 44.4641C6.33771 46.1435 7.52646 47.6861 9.2058 47.9037C10.7649 48.1057 12.1923 47.0894 12.5641 45.5995L14.9495 43.7614L15.6525 44.6737C16.1044 45.2602 16.7529 45.6082 17.435 45.6965C18.1171 45.7849 18.8336 45.613 19.4208 45.162C20.5927 44.2596 20.8121 42.572 19.9129 41.3997L23.302 41.8388C24.1417 41.9476 24.913 41.3532 25.0218 40.5135L25.5221 36.6524L25.7235 36.9138C26.1761 37.5011 26.8246 37.8483 27.5067 37.9367C28.1888 38.0251 28.9053 37.854 29.4925 37.4022C30.5244 36.607 30.8161 35.2035 30.256 34.0783C30.5819 34.1979 30.9149 34.2921 31.2574 34.3365C32.4267 34.488 33.6544 34.1951 34.6597 33.4197C35.6348 32.6683 36.2585 31.5826 36.4165 30.363C36.4874 29.8157 36.4556 29.2728 36.3367 28.7504L39.7198 29.1888C40.5594 29.2976 41.3308 28.7032 41.4395 27.8635L41.9397 24.0032L42.1405 24.2637C42.5931 24.851 43.2416 25.1982 43.9237 25.2866C44.6058 25.375 45.3223 25.2039 45.9095 24.7521C47.0824 23.8482 47.3014 22.1582 46.3976 20.9846L45.6946 20.0722L48.7352 17.7292C49.0678 17.4681 49.1302 16.9862 48.8719 16.6501ZM18.4816 43.945C17.9787 44.3319 17.2534 44.2364 16.867 43.7358L14.5239 40.6952C14.1371 40.1923 14.2309 39.4683 14.7331 39.0806C14.9842 38.8871 15.2917 38.814 15.5848 38.8519C15.8771 38.8898 16.1558 39.0389 16.3493 39.29L18.6917 42.3297C18.8779 42.5714 18.9594 42.8738 18.9196 43.1813C18.8792 43.4872 18.7232 43.7588 18.4816 43.945ZM23.4971 40.3152L18.9298 39.7211L19.5213 35.1558L24.0889 35.7476L23.4971 40.3152ZM28.5527 36.1844C28.0686 36.5574 27.3089 36.4582 26.9373 35.9751L24.5949 32.9353C24.4087 32.6937 24.3271 32.3913 24.3669 32.0845C24.4066 31.7777 24.5617 31.5068 24.8042 31.3199C25.0467 31.1331 25.3482 31.0522 25.655 31.0919C25.9618 31.1317 26.2328 31.2867 26.4196 31.5292L28.7628 34.5691C29.1488 35.0727 29.055 35.7966 28.5527 36.1844ZM33.7207 32.202C32.3786 33.2348 30.448 32.9847 29.4142 31.644C28.3805 30.3026 28.6308 28.3705 29.9722 27.3375C30.6223 26.8366 31.4284 26.619 32.2414 26.7244C32.8512 26.8034 33.4104 27.057 33.8631 27.4523C33.9676 27.8583 34.2353 28.2057 34.6013 28.4103C34.8682 28.9487 34.9709 29.5542 34.892 30.1632C34.7865 30.9777 34.3706 31.7018 33.7207 32.202ZM39.9149 27.6644L35.5943 27.1023C35.5603 27.0546 35.5303 27.005 35.4938 26.9585C35.4573 26.9112 35.4171 26.8688 35.3789 26.8236L35.9384 22.505L40.506 23.0968L39.9142 27.6643L39.9149 27.6644ZM44.9698 23.5335C44.4857 23.9066 43.7267 23.8082 43.3544 23.3242L41.012 20.2845C40.8258 20.0428 40.7442 19.7405 40.784 19.4337C40.8237 19.1269 40.9788 18.8559 41.2213 18.6691C41.4638 18.4822 41.7653 18.4013 42.0721 18.441C42.3789 18.4808 42.6499 18.6359 42.8367 18.8784L45.1799 21.9182C45.5659 22.4218 45.4721 23.1458 44.9698 23.5335Z" fill="white"/>
<path d="M7.72852 31.4861L10.7063 29.1915L12.1117 31.0161C12.3701 31.3514 12.7406 31.5504 13.1304 31.6009C13.5202 31.6514 13.9292 31.5534 14.2645 31.295L16.0891 29.8897C16.4133 29.6399 16.6204 29.2781 16.6732 28.8708C16.7118 28.5724 16.6625 28.2781 16.5365 28.0141C17.6871 28.1128 18.8167 27.7878 19.7369 27.078C20.6577 26.3691 21.2599 25.3596 21.4576 24.2219C21.6872 24.4157 21.9636 24.5343 22.2506 24.5715C22.6411 24.6221 23.0493 24.5248 23.3854 24.2665L25.2101 22.8604C25.7907 22.4116 25.9601 21.6239 25.6566 20.9855C26.8072 21.0843 27.9368 20.7592 28.857 20.0495C29.7779 19.3406 30.38 18.3311 30.5778 17.1933C30.8073 17.3871 31.0837 17.5065 31.3707 17.5437C31.7612 17.5943 32.1693 17.497 32.5054 17.2387L34.3294 15.8325C34.9149 15.382 35.0844 14.5874 34.7728 13.9456C35.882 14.0413 37.0277 13.7532 37.977 13.0216C38.9521 12.271 39.5757 11.1853 39.7337 9.96578C39.8583 9.00431 39.6776 8.05127 39.229 7.21214L40.4991 6.23345C40.8353 5.97436 40.8976 5.49324 40.6386 5.15702C40.3795 4.8208 39.8983 4.75847 39.5621 5.01755L38.2843 6.00222C36.6663 4.50458 34.1587 4.33526 32.3554 5.72555C31.4336 6.43588 30.8312 7.44691 30.6341 8.58629C30.0975 8.14523 29.2676 8.10428 28.7069 8.53707L26.8831 9.9425C26.5589 10.1923 26.3518 10.554 26.299 10.9613C26.2599 11.2635 26.3101 11.5626 26.4404 11.8295C25.3305 11.7337 24.1847 12.0218 23.2346 12.7533C22.2853 13.4848 21.7146 14.5201 21.5245 15.617C20.9841 15.1522 20.1724 15.1136 19.5861 15.5648L17.7623 16.9702C17.1793 17.4187 17.0099 18.2072 17.3141 18.8457C16.1636 18.7469 15.0339 19.072 14.1137 19.7817C13.1635 20.5139 12.5928 21.55 12.4032 22.6485C11.8668 22.2005 11.031 22.1573 10.4661 22.5926L8.64308 23.9974C8.31814 24.2471 8.11019 24.6095 8.05742 25.0168C8.00465 25.424 8.11338 25.8275 8.36329 26.1509L9.76872 27.9747L6.2828 30.6602C6.2785 30.6636 6.27298 30.6644 6.26868 30.6677C5.93256 30.926 5.87012 31.4079 6.12921 31.7441C6.6453 32.4147 6.52013 33.3808 5.85018 33.8977C5.18118 34.4133 4.21342 34.2894 3.69657 33.6187C3.17972 32.948 3.30489 31.9819 3.97561 31.4651C4.31182 31.206 4.37416 30.7249 4.11507 30.3887C3.85599 30.0524 3.37487 29.9901 3.03865 30.2492C1.69722 31.2829 1.44688 33.215 2.48068 34.5556C2.99763 35.2256 3.73869 35.6235 4.51822 35.7245C5.29775 35.8255 6.11727 35.6298 6.78713 35.1136C7.91521 34.245 8.26016 32.7416 7.72852 31.4861ZM33.2931 6.94153C33.963 6.42535 34.7819 6.2288 35.5614 6.3298C36.3409 6.4308 37.0826 6.82955 37.5988 7.49941C38.0998 8.14949 38.3173 8.95559 38.212 9.76861C38.1066 10.5816 37.6909 11.3049 37.0409 11.8059C35.7003 12.8389 33.7674 12.5885 32.7352 11.248C32.2342 10.5979 32.0166 9.79257 32.1219 8.97954C32.2272 8.16651 32.6431 7.44248 33.2931 6.94153ZM29.6446 9.75306L33.3932 14.6167L31.5679 16.0212L27.8208 11.1585L29.6446 9.75306ZM24.1715 13.9699C24.8421 13.4538 25.6609 13.258 26.4404 13.359C27.2199 13.46 27.9617 13.858 28.4779 14.5279C28.9789 15.178 29.1964 15.9841 29.0911 16.7971C28.9858 17.6101 28.57 18.3334 27.92 18.8343C26.6207 19.8356 24.617 19.576 23.6148 18.2781L23.6115 18.2738C22.5809 16.9327 22.8318 15.0023 24.1715 13.9699ZM20.5237 16.7815L24.2722 21.646L22.4463 23.0496L18.6999 18.187L20.5237 16.7815ZM15.0513 20.9985C15.7014 20.4975 16.5075 20.28 17.3206 20.3853C18.1336 20.4907 18.8568 20.9064 19.3578 21.5565C19.8587 22.2065 20.0764 23.0119 19.9711 23.8249C19.8657 24.6379 19.45 25.3612 18.7999 25.8622C17.4998 26.864 15.4946 26.6042 14.4935 25.3042C13.4597 23.9635 13.7099 22.0322 15.0513 20.9985ZM11.4037 23.8094L15.1522 28.6738L13.3262 30.0774L9.57984 25.2148L11.4037 23.8094Z" fill="white"/>
</g>
<defs>
<clipPath id="clip0">
<rect width="50.4524" height="53" fill="white"/>
</clipPath>
</defs>
</svg>
