<svg width="46" height="44" viewBox="0 0 46 44" fill="none" xmlns="http://www.w3.org/2000/svg">
<circle cx="25.5" cy="22.5" r="14.5" fill="url(#paint0_linear)"/>
<path d="M11.2788 30.5512V28.8324V28.7692H11.2725C11.2616 28.5751 11.2054 28.3867 11.1078 28.2051C11.0016 28.0071 10.8483 27.8181 10.6496 27.641C9.71219 26.8038 7.82291 26.2307 5.6397 26.2307C3.4565 26.2307 1.56722 26.8038 0.629759 27.641C0.43113 27.8181 0.278426 28.0071 0.171648 28.2051C0.0740557 28.3867 0.0166482 28.5751 0.00688899 28.7692H9.78786e-08V28.8324V36.032C-0.000573976 37.8151 2.5242 39.2615 5.63913 39.2615C7.01576 39.2615 8.27643 38.9783 9.25522 38.509V32.908V32.8448L9.26211 32.2807H9.37463C9.40735 32.1916 9.44696 32.1041 9.49404 32.0173C9.63181 31.7612 9.827 31.5197 10.0733 31.2992C10.3925 31.0137 10.8064 30.7655 11.2788 30.5512ZM5.63856 30.3052C2.69068 30.3052 1.14643 29.2103 1.14643 28.8318C1.14757 28.8132 1.15446 28.7912 1.16193 28.7686C1.21187 28.6248 1.41854 28.4177 1.78307 28.2045C2.12752 28.0031 2.61261 27.7984 3.23089 27.6404C3.88533 27.4734 4.68789 27.3584 5.63913 27.3584C6.59037 27.3584 7.3935 27.4734 8.04737 27.6404C8.66565 27.7984 9.15074 28.0031 9.49519 28.2045C9.85915 28.4172 10.0664 28.6248 10.1163 28.7686C10.1238 28.7912 10.1307 28.8126 10.1307 28.8318C10.1307 29.2103 8.58643 30.3052 5.63856 30.3052Z" fill="white"/>
<path d="M21.1029 32.8442C21.0925 32.6502 21.0351 32.4618 20.9375 32.2801C20.8313 32.0821 20.678 31.8932 20.4794 31.716C19.5419 30.8789 17.6527 30.3058 15.4695 30.3058C14.346 30.3058 13.3046 30.4592 12.4269 30.7204C12.2271 30.7796 12.0342 30.8439 11.8528 30.9145C11.6484 30.994 11.4578 31.0803 11.2787 31.1722C10.9595 31.3364 10.6805 31.518 10.4589 31.716C10.2603 31.8932 10.1076 32.0821 10.0008 32.2801C9.90324 32.4618 9.84584 32.6502 9.8355 32.8442H9.82861V32.9074V38.1874V38.8491V39.4775V40.1059C9.82861 41.8896 12.354 43.3354 15.4695 43.3354C18.5844 43.3354 21.1092 41.8902 21.1092 40.1059V32.9074V32.8442H21.1029ZM15.47 34.3809C14.1853 34.3809 13.1669 34.1727 12.4274 33.907C12.2127 33.8297 12.021 33.7479 11.8534 33.6645C11.6123 33.5443 11.4217 33.4225 11.2793 33.3079C11.0801 33.1477 10.9779 33.0045 10.9779 32.9074C10.9779 32.8882 10.9848 32.8662 10.9923 32.8442C11.0233 32.754 11.1243 32.6372 11.2793 32.5114C11.3712 32.4364 11.4785 32.3591 11.6134 32.2801C11.6857 32.2378 11.769 32.1955 11.8534 32.1532C12.0204 32.0703 12.2139 31.9896 12.4274 31.9129C12.6221 31.843 12.8287 31.7758 13.0612 31.716C13.7157 31.5491 14.5177 31.434 15.4695 31.434C16.4201 31.434 17.2233 31.5491 17.8771 31.716C18.4954 31.874 18.9805 32.0788 19.3249 32.2801C19.6895 32.4934 19.8956 32.7004 19.9461 32.8442C19.9536 32.8668 19.9599 32.8882 19.9599 32.9074C19.9616 33.2859 18.4173 34.3809 15.47 34.3809Z" fill="white"/>
<path d="M16.2851 32.2801C16.005 32.231 15.7203 32.2006 15.47 32.2006C15.2489 32.2006 15.0004 32.2271 14.7535 32.266C14.61 32.2248 14.4349 32.2006 14.2449 32.2006C13.7581 32.2006 13.3643 32.3585 13.3643 32.5537C13.3643 32.6152 13.4067 32.6722 13.4756 32.7229C13.436 32.7624 13.4033 32.8025 13.3889 32.8442C13.3809 32.8656 13.3643 32.886 13.3643 32.9074C13.3643 33.2977 14.6238 33.6142 15.47 33.6142C15.6778 33.6142 15.912 33.5945 16.1451 33.5601C16.2754 33.5922 16.4321 33.6142 16.6101 33.6142C17.032 33.6142 17.3753 33.507 17.3753 33.3745C17.3753 33.3265 17.3191 33.2842 17.2421 33.247C17.4419 33.146 17.5762 33.0315 17.5762 32.9074C17.5762 32.886 17.5596 32.8651 17.5516 32.8442C17.4631 32.5966 16.8971 32.3878 16.2851 32.2801Z" fill="white"/>
<path d="M7.7199 28.7686C7.67225 28.6332 7.48453 28.5091 7.21701 28.4064C7.27327 28.346 7.31116 28.2795 7.31919 28.2044C7.32034 28.1943 7.32838 28.1853 7.32838 28.1746C7.32838 27.928 7.02871 27.7278 6.65843 27.7278C6.30595 27.7278 6.02466 27.9111 5.99825 28.1418C5.87367 28.1311 5.75254 28.1243 5.63888 28.1243C5.38858 28.1243 5.10269 28.1548 4.82312 28.2039C4.72266 28.2214 4.62449 28.2411 4.52804 28.2637C4.47236 28.24 4.4161 28.218 4.35008 28.2039C4.27086 28.187 4.18762 28.174 4.09864 28.174C4.00966 28.174 3.92642 28.187 3.84719 28.2039C3.56245 28.2648 3.35693 28.4211 3.35693 28.6089C3.35693 28.6653 3.37817 28.7183 3.41147 28.768C3.44706 28.8204 3.49816 28.8661 3.56188 28.9062C3.70827 29.261 4.8478 29.5391 5.63888 29.5391C5.66299 29.5391 5.68997 29.5363 5.71408 29.5357C5.86851 29.7433 6.24682 29.8911 6.69173 29.8911C7.27327 29.8911 7.74458 29.6401 7.74458 29.3298C7.74458 29.2277 7.68947 29.1335 7.59992 29.0506C7.68488 28.9812 7.74458 28.9084 7.74458 28.8317C7.74458 28.8103 7.72736 28.7894 7.7199 28.7686Z" fill="white"/>
<path d="M23.8261 21.1158C23.7966 21.0836 23.8331 21.0507 23.8331 21.0507L38.7792 8.22623C38.7792 8.22623 38.808 8.19567 38.8319 8.22152C39.0473 8.45588 39.4801 8.92625 39.6976 9.1625C39.7173 9.18406 39.6863 9.2078 39.6863 9.2078L25.3333 22.6555C25.3333 22.6555 25.2836 22.7001 25.2471 22.6605C24.8843 22.2661 24.1813 21.5021 23.8261 21.1158Z" fill="white"/>
<path d="M24.4353 23.3659C24.4891 23.4244 24.4208 23.4734 24.4208 23.4734L21.6615 26.0586C21.2622 26.4327 20.6333 26.4101 20.2639 26.0084L19.9416 25.6583C19.5721 25.2566 19.6097 24.6364 20.0253 24.2799L22.8906 21.8216C22.8906 21.8216 22.96 21.7624 23.0042 21.8104C23.3577 22.1946 24.0817 22.9817 24.4353 23.3659ZM21.5449 23.7797C21.6506 23.8647 21.626 23.9454 21.4901 23.9592C21.3545 23.973 21.25 24.0485 21.2581 24.127C21.2662 24.2057 21.3838 24.2588 21.5196 24.2448C21.6554 24.2311 21.6958 24.3054 21.6095 24.4098C21.5232 24.5143 21.5033 24.6406 21.5654 24.6904C21.6272 24.7403 21.7486 24.6955 21.835 24.5911C21.9212 24.4865 22.0031 24.5107 22.0168 24.6448C22.0305 24.7787 22.107 24.8817 22.1864 24.8736C22.2661 24.8656 22.3201 24.7493 22.3064 24.6152C22.2924 24.4812 22.3678 24.4412 22.4734 24.5262C22.5791 24.6112 22.7071 24.6306 22.7576 24.5694C22.8083 24.5081 22.7632 24.3884 22.6575 24.3034C22.5518 24.2184 22.5763 24.1376 22.7122 24.1238C22.8479 24.11 22.9524 24.0345 22.9442 23.956C22.9362 23.8773 22.8186 23.8243 22.6827 23.8382C22.547 23.8519 22.5064 23.7778 22.5927 23.6733C22.6791 23.5689 22.6989 23.4426 22.637 23.3927C22.5751 23.3428 22.4538 23.3876 22.3673 23.492C22.2811 23.5964 22.1992 23.5723 22.1855 23.4383C22.1717 23.3043 22.0954 23.2014 22.0159 23.2094C21.9362 23.2174 21.8823 23.3337 21.896 23.4678C21.9099 23.6019 21.8346 23.6419 21.7289 23.5568C21.6232 23.4717 21.4953 23.4524 21.4447 23.5136C21.3939 23.575 21.4392 23.6946 21.5449 23.7797Z" fill="white"/>
<path d="M40.7299 8.23056C40.7481 8.25053 40.7261 8.26697 40.7261 8.26697L40.117 8.83755C40.117 8.83755 40.102 8.85113 40.0886 8.83648C39.8712 8.60009 39.4479 8.14048 39.2306 7.90378C39.2141 7.886 39.2332 7.86873 39.2332 7.86873L39.8644 7.32779C39.8644 7.32779 39.881 7.30796 39.8994 7.32795C40.111 7.55805 40.5222 8.005 40.7299 8.23056Z" fill="white"/>
<path d="M40.3009 6.99073C40.2869 6.97569 40.3067 6.95777 40.3067 6.95777L43.644 4.09448C44.0593 3.73814 44.5535 3.61438 44.7421 3.81913C44.9307 4.02442 44.7585 4.49789 44.3593 4.87202L41.1519 7.87717C41.1519 7.87717 41.1325 7.89469 41.1163 7.87689C40.9124 7.65553 40.5047 7.2123 40.3009 6.99073Z" fill="white"/>
<path d="M28.1428 25.6514C28.1077 25.6251 28.1376 25.5861 28.1376 25.5861L40.4307 10.2782C40.4307 10.2782 40.4533 10.243 40.4815 10.2642C40.7368 10.455 41.2496 10.8387 41.5074 11.0312C41.5307 11.0486 41.5045 11.0778 41.5045 11.0778L29.9106 26.8898C29.9106 26.8898 29.87 26.9426 29.8268 26.9103C29.3968 26.5886 28.5638 25.966 28.1428 25.6514Z" fill="white"/>
<path d="M29.171 27.7582C29.2348 27.806 29.1769 27.8665 29.1769 27.8665L26.9466 30.9069C26.6239 31.3468 26.0016 31.4388 25.5635 31.1113L25.1815 30.8259C24.7435 30.4983 24.6648 29.8822 25.0067 29.4567L27.3646 26.5215C27.3646 26.5215 27.422 26.4507 27.4744 26.49C27.8933 26.8034 28.7519 27.4451 29.171 27.7582ZM26.407 28.6895C26.5268 28.7537 26.5178 28.8374 26.3867 28.8756C26.2559 28.9139 26.1672 29.007 26.1899 29.0827C26.2124 29.1585 26.338 29.1893 26.4689 29.151C26.5997 29.1129 26.6533 29.1785 26.588 29.2968C26.5226 29.4151 26.5265 29.5428 26.5969 29.5804C26.6671 29.6181 26.7781 29.5522 26.8434 29.4338C26.9087 29.3155 26.9938 29.3243 27.0321 29.4536C27.0706 29.5827 27.165 29.6701 27.2415 29.6477C27.3185 29.6253 27.3498 29.5013 27.3114 29.3722C27.2728 29.243 27.3393 29.19 27.4589 29.2543C27.5788 29.3186 27.7082 29.3145 27.7464 29.2451C27.7847 29.1757 27.7181 29.0663 27.5984 29.002C27.4786 28.9377 27.4876 28.8539 27.6186 28.8157C27.7494 28.7775 27.8381 28.6844 27.8154 28.6086C27.7928 28.5328 27.6674 28.5022 27.5365 28.5403C27.4057 28.5785 27.3519 28.5131 27.4172 28.3947C27.4827 28.2764 27.4787 28.1487 27.4085 28.111C27.3383 28.0733 27.2274 28.1392 27.1619 28.2575C27.0967 28.3758 27.0117 28.3669 26.9731 28.2378C26.9346 28.1088 26.8403 28.0214 26.7638 28.0437C26.6868 28.0662 26.6555 28.1901 26.694 28.3192C26.7327 28.4484 26.6661 28.5014 26.5464 28.4371C26.4266 28.3727 26.2973 28.3768 26.259 28.4463C26.2205 28.5157 26.2871 28.6252 26.407 28.6895Z" fill="white"/>
<path d="M42.3413 9.92166C42.3629 9.9378 42.3444 9.95777 42.3444 9.95777L41.8518 10.6295C41.8518 10.6295 41.8397 10.6454 41.8236 10.6335C41.5656 10.4409 41.0639 10.0657 40.8058 9.8729C40.7862 9.85815 40.8018 9.83796 40.8018 9.83796L41.3214 9.19161C41.3214 9.19161 41.3339 9.16907 41.3559 9.18543C41.6072 9.37302 42.0949 9.73763 42.3413 9.92166Z" fill="white"/>
<path d="M41.6852 8.77954C41.6687 8.7674 41.6848 8.74625 41.6848 8.74625L44.4302 5.32807C44.772 4.90274 45.2344 4.69133 45.4581 4.85843C45.6815 5.02549 45.6007 5.52222 45.2781 5.96182L42.6868 9.49551C42.6868 9.49551 42.6709 9.5164 42.6514 9.50182C42.4098 9.32147 41.9268 8.96014 41.6852 8.77954Z" fill="white"/>
<defs>
<linearGradient id="paint0_linear" x1="18" y1="8" x2="33.5" y2="37" gradientUnits="userSpaceOnUse">
<stop stop-color="#E49D9D"/>
<stop offset="1" stop-color="#C2DA2D" stop-opacity="0"/>
</linearGradient>
</defs>
</svg>
