<svg width="28" height="28" viewBox="0 0 28 28" fill="none" xmlns="http://www.w3.org/2000/svg">
<path fill-rule="evenodd" clip-rule="evenodd" d="M9.74136 10L9.68791 9.66546C9.53689 8.72031 8.75239 8 7.80952 8C6.86666 8 6.08215 8.72031 5.93114 9.66546L5.87769 10L5.93114 10.3345C6.08215 11.2797 6.86666 12 7.80952 12C8.75239 12 9.53689 11.2797 9.68791 10.3345L9.74136 10ZM10.6272 9.5H23.5238C23.7868 9.5 24 9.72386 24 10C24 10.2761 23.7868 10.5 23.5238 10.5H10.6272C10.4005 11.9189 9.22524 13 7.80952 13C6.39381 13 5.21859 11.9189 4.99189 10.5H4.47619C4.2132 10.5 4 10.2761 4 10C4 9.72386 4.2132 9.5 4.47619 9.5H4.99189C5.21859 8.08114 6.39381 7 7.80952 7C9.22524 7 10.4005 8.08114 10.6272 9.5ZM18.3121 17.6655L18.2586 18L18.3121 18.3345C18.4631 19.2797 19.2476 20 20.1905 20C21.1333 20 21.9178 19.2797 22.0689 18.3345L22.1223 18L22.0689 17.6655C21.9178 16.7203 21.1333 16 20.1905 16C19.2476 16 18.4631 16.7203 18.3121 17.6655ZM23.0081 17.5H23.5238C23.7868 17.5 24 17.7239 24 18C24 18.2761 23.7868 18.5 23.5238 18.5H23.0081C22.7814 19.9189 21.6062 21 20.1905 21C18.7748 21 17.5995 19.9189 17.3728 18.5H4.47619C4.2132 18.5 4 18.2761 4 18C4 17.7239 4.2132 17.5 4.47619 17.5H17.3728C17.5995 16.0811 18.7748 15 20.1905 15C21.6062 15 22.7814 16.0811 23.0081 17.5Z" fill="black"/>
</svg>
