<svg width="41" height="26" viewBox="0 0 41 26" fill="none" xmlns="http://www.w3.org/2000/svg">
<path d="M36.8568 0H2.86147C2.6169 0 2.34788 0.024457 2.10331 0.0733711C1.85873 0.122285 1.61416 0.195656 1.36959 0.317941C1.14948 0.41577 0.929367 0.586969 0.758168 0.758168C0.586969 0.929367 0.41577 1.14948 0.317941 1.36959C0.195656 1.58971 0.122285 1.83428 0.0733711 2.10331C0.024457 2.34788 0.024457 2.6169 0 2.86147V23.0385C0 23.2831 0.024457 23.5521 0.0733711 23.7967C0.122285 24.0413 0.195656 24.2858 0.317941 24.5304C0.440227 24.7505 0.586969 24.9706 0.758168 25.1418C0.929367 25.313 1.14948 25.4842 1.36959 25.5821C1.58971 25.7043 1.83428 25.7777 2.10331 25.8266C2.34788 25.8755 2.6169 25.8755 2.86147 25.9H37.6149C37.8595 25.9 38.1285 25.8755 38.3731 25.8266C38.6177 25.7777 38.8622 25.7043 39.1068 25.5821C39.3269 25.4598 39.547 25.313 39.7182 25.1418C39.8894 24.9706 40.0606 24.7505 40.1585 24.5304C40.2807 24.3103 40.3541 24.0657 40.403 23.7967C40.4519 23.5521 40.4519 23.2831 40.4764 23.0385V22.6961V3.61964V3.20387V2.86147C40.4764 2.6169 40.4519 2.34788 40.403 2.10331C40.3541 1.85873 40.2807 1.61416 40.1585 1.36959C40.0362 1.14948 39.8894 0.929367 39.7182 0.758168C39.547 0.586969 39.3269 0.41577 39.1068 0.317941C38.8867 0.195656 38.6421 0.122285 38.3731 0.0733711C38.1285 0.024457 37.8595 0.024457 37.6149 0H36.8568V0Z" fill="#B8B8B8"/>
<path d="M25.8062 9.36827C25.3225 9.18964 24.5688 9 23.6313 9C21.2313 9 19.5375 10.1843 19.525 11.8813C19.51 13.1293 20.73 13.8316 21.6513 14.25C22.5975 14.6782 22.9137 14.9474 22.9112 15.3328C22.905 15.9164 22.155 16.1807 21.4587 16.1807C20.5012 16.1807 19.9762 16.0498 19.17 15.7219L18.8713 15.5861L18.5325 17.5412C19.115 17.7798 20.165 17.9841 21.2512 18C23.8025 18 25.47 16.8242 25.49 15.0159C25.51 14.0212 24.8525 13.2663 23.4638 12.6448C22.6213 12.241 22.0963 11.9706 22.0963 11.5608C22.0963 11.1986 22.545 10.812 23.4825 10.812C24.2887 10.7998 24.8525 10.9698 25.3013 11.146L25.5263 11.2451L25.865 9.35604L25.8062 9.36827ZM32.035 9.16028H30.16C29.5763 9.16028 29.14 9.31566 28.8837 9.88336L25.2775 17.8777H27.8288L28.3388 16.5685L31.4513 16.571C31.5275 16.8768 31.7513 17.8777 31.7513 17.8777H34L32.035 9.16028ZM16.075 9.08687H18.5037L16.985 17.8091H14.555L16.075 9.08442V9.08687ZM9.90125 13.894L10.1537 15.1052L12.53 9.16028H15.1038L11.2775 17.8654H8.71L6.61 10.4927C6.56625 10.3666 6.5125 10.281 6.385 10.2027C5.675 9.83932 4.88125 9.54323 4 9.33768L4.03125 9.15416H7.945C8.475 9.17374 8.9025 9.33768 9.04875 9.89315L9.90125 13.8976V13.894ZM29.0362 14.7834L30.005 12.3438C29.9925 12.3683 30.205 11.8397 30.3275 11.5118L30.4937 12.2643L31.055 14.781H29.0362V14.7834Z" fill="white"/>
</svg>
