<svg width="30" height="30" viewBox="0 0 30 30" fill="none" xmlns="http://www.w3.org/2000/svg">
<rect width="30" height="30" fill="white"/>
<path fill-rule="evenodd" clip-rule="evenodd" d="M28.6641 5.53711H1.2832C0.75 5.53711 0.416016 5.61914 0.234375 5.78906C0.0761719 5.98242 0 6.29883 0 6.76758V8.51953V9.93164V20.0273V21.5039V23.1914C0 24.0293 0.433594 24.4629 1.2832 24.4629H28.6641C29.5547 24.4629 30 24.0293 30 23.1914V21.5039V20.0273V9.92578V8.51367V6.76172C30 5.93555 29.5547 5.53711 28.6641 5.53711Z" fill="#F3F3F3"/>
<path fill-rule="evenodd" clip-rule="evenodd" d="M1.2832 5.53711C0.75 5.53711 0.416016 5.61914 0.234375 5.78906C0.0761719 5.98242 0 6.29883 0 6.76758V9.93164H30V6.76758C30 5.94141 29.5547 5.54297 28.6641 5.54297H1.2832V5.53711Z" fill="#025380"/>
<path fill-rule="evenodd" clip-rule="evenodd" d="M0 23.1914C0 24.0293 0.433594 24.4629 1.2832 24.4629H28.6641C29.5547 24.4629 30 24.0293 30 23.1914V20.0273H0V23.1914Z" fill="#F1A71E"/>
<path fill-rule="evenodd" clip-rule="evenodd" d="M10.3477 12.457C10.3477 12.6035 10.3242 12.7207 10.2656 12.7969L8.2793 16.2598L8.15625 12.041H4.98047L6.04687 12.5508C6.35156 12.7441 6.50977 12.9961 6.50977 13.3125L6.80273 17.7949H8.35547L12.0762 12.041H10.1719C10.2891 12.1406 10.3477 12.2988 10.3477 12.457Z" fill="#025380"/>
<path fill-rule="evenodd" clip-rule="evenodd" d="M23.1914 12.2109L23.3145 12.041H21.375C21.4453 12.1113 21.4688 12.1406 21.4688 12.1641C21.4453 12.252 21.3984 12.3105 21.375 12.3809L18.5508 17.5313C18.4805 17.625 18.416 17.7012 18.334 17.7949H19.9336L19.8516 17.625C19.8516 17.4785 19.9336 17.2031 20.1035 16.8223L20.4434 16.1895H22.0898C22.1602 16.7227 22.2012 17.168 22.2246 17.4961L22.0898 17.8008H24.0762L23.7832 17.3672L23.1914 12.2109ZM22.0137 15.375H20.8359L21.8437 13.4355L22.0137 15.375Z" fill="#025380"/>
<path fill-rule="evenodd" clip-rule="evenodd" d="M17.1094 11.7422C16.4941 11.7422 15.9727 11.9121 15.5098 12.2519C15 12.5449 14.748 12.9199 14.748 13.3886C14.748 13.9218 14.9297 14.3847 15.293 14.7363L16.3945 15.498C16.793 15.7793 16.9863 16.0312 16.9863 16.2597C16.9863 16.4765 16.8867 16.6699 16.6934 16.8164C16.5 16.9629 16.2832 17.0332 16.0137 17.0332C15.6152 17.0332 14.9355 16.7519 13.9922 16.2304V17.2851C14.7305 17.7304 15.4453 17.9531 16.1367 17.9531C16.793 17.9531 17.3496 17.7714 17.8301 17.3613C18.3398 16.9863 18.5918 16.5468 18.5918 16.0547C18.5918 15.6445 18.4102 15.2695 18 14.8769L16.9453 14.1152C16.5938 13.8339 16.4004 13.582 16.4004 13.3886C16.4004 12.9433 16.6641 12.7207 17.1973 12.7207C17.5605 12.7207 18.0937 12.9257 18.8086 13.3535L19.0254 12.2519C18.416 11.9121 17.7891 11.7422 17.1094 11.7422Z" fill="#025380"/>
<path fill-rule="evenodd" clip-rule="evenodd" d="M12.8906 17.789C12.8672 17.5488 12.8203 17.332 12.7969 17.1093L14.2383 12.457L14.5781 12.0351H12.5039C12.5273 12.1347 12.5508 12.2754 12.5742 12.375C12.5742 12.4746 12.5742 12.6035 12.5508 12.7148L11.1094 17.3203L10.8164 17.7832H12.8906V17.789Z" fill="#025380"/>
</svg>
