<svg width="22" height="22" viewBox="0 0 22 22" fill="none" xmlns="http://www.w3.org/2000/svg">
<path d="M11.0001 0.916504C5.43133 0.916504 0.916748 5.43086 0.916748 10.9998C0.916748 16.5688 5.43133 21.0832 11.0001 21.0832C16.5688 21.0832 21.0834 16.5688 21.0834 10.9998C21.0834 5.43086 16.5688 0.916504 11.0001 0.916504ZM11.0001 19.9832C6.44379 19.9832 2.01675 15.5561 2.01675 10.9998C2.01675 6.44355 6.44379 2.0165 11.0001 2.0165C15.5564 2.0165 19.9834 6.44355 19.9834 10.9998C19.9834 15.5561 15.5564 19.9832 11.0001 19.9832Z" fill="#FFFBFB"/>
<path d="M14.5 7.5L10.5 14L7.5 11.5" stroke="#FFFBFB" stroke-width="1.5" stroke-linecap="round" stroke-linejoin="round"/>
</svg>
