<svg width="27" height="21" viewBox="0 0 27 21" fill="none" xmlns="http://www.w3.org/2000/svg">
<path d="M1.01339 17.1087V16.6087C0.750514 16.6087 0.532529 16.8123 0.514561 17.0745L1.01339 17.1087ZM24.5861 20L24.5861 19.5H24.5861V20ZM25.9727 17.1087L26.4692 17.0492C26.4391 16.7979 26.2259 16.6087 25.9727 16.6087V17.1087ZM6.07766 13.4657C6.00467 13.732 6.16141 14.0071 6.42773 14.08C6.69405 14.153 6.96911 13.9963 7.0421 13.73L6.07766 13.4657ZM7.43828 12.2843C7.51127 12.018 7.35454 11.7429 7.08821 11.67C6.82189 11.597 6.54683 11.7537 6.47384 12.02L7.43828 12.2843ZM7.55318 10.1913C7.38269 10.4086 7.4206 10.7229 7.63783 10.8933C7.85506 11.0638 8.16937 11.0259 8.33985 10.8087L7.55318 10.1913ZM11.4269 8.50884C11.6959 8.44651 11.8635 8.1779 11.8011 7.90889C11.7388 7.63987 11.4702 7.47231 11.2012 7.53464L11.4269 8.50884ZM4.48394 17.0835C4.38772 15.1774 4.68046 12.2835 5.98389 9.88699C7.26793 7.52609 9.53576 5.63043 13.4931 5.63043V4.63043C9.13067 4.63043 6.5452 6.76195 5.10541 9.40921C3.685 12.0208 3.38335 15.1161 3.48521 17.1339L4.48394 17.0835ZM13.4931 5.63043C15.4904 5.63043 17.0346 6.10447 18.2325 6.85464C19.4325 7.60605 20.3123 8.65167 20.9521 9.83438C22.2391 12.2134 22.5338 15.1093 22.5014 17.1006L23.5013 17.1168C23.5349 15.0465 23.2353 11.9532 21.8316 9.35856C21.1261 8.0544 20.1365 6.86701 18.7633 6.00711C17.3882 5.14599 15.6556 4.63043 13.4931 4.63043V5.63043ZM23.0013 16.6087H3.98458V17.6087H23.0013V16.6087ZM3.98458 16.6087H1.01339V17.6087H3.98458V16.6087ZM0.514561 17.0745C0.479321 17.5889 0.49793 18.3732 0.68503 19.0491C0.778361 19.3863 0.924192 19.7361 1.16007 20.01C1.40846 20.2985 1.7573 20.5 2.20193 20.5V19.5C2.09192 19.5 2.0066 19.4606 1.91783 19.3575C1.81654 19.2399 1.72219 19.0475 1.64879 18.7824C1.50244 18.2536 1.48143 17.5923 1.51222 17.1429L0.514561 17.0745ZM2.20193 20.5C2.2041 20.5 2.20632 20.5 2.20858 20.5C2.21085 20.5 2.21317 20.5 2.21554 20.5C2.2179 20.5 2.22032 20.5 2.22279 20.5C2.22525 20.5 2.22777 20.5 2.23033 20.5C2.2329 20.5 2.23552 20.5 2.23818 20.5C2.24085 20.5 2.24356 20.5 2.24632 20.5C2.24909 20.5 2.2519 20.5 2.25476 20.5C2.25763 20.5 2.26054 20.5 2.2635 20.5C2.26646 20.5 2.26947 20.5 2.27253 20.5C2.27559 20.5 2.27869 20.5 2.28185 20.5C2.285 20.5 2.28821 20.5 2.29146 20.5C2.29471 20.5 2.29802 20.5 2.30137 20.5C2.30472 20.5 2.30812 20.5 2.31156 20.5C2.31501 20.5 2.3185 20.5 2.32205 20.5C2.32559 20.5 2.32918 20.5 2.33282 20.5C2.33646 20.5 2.34015 20.5 2.34388 20.5C2.34762 20.5 2.3514 20.5 2.35523 20.5C2.35906 20.5 2.36294 20.5 2.36686 20.5C2.37079 20.5 2.37476 20.5 2.37878 20.5C2.3828 20.5 2.38687 20.5 2.39098 20.5C2.3951 20.5 2.39926 20.5 2.40347 20.5C2.40768 20.5 2.41193 20.5 2.41624 20.5C2.42054 20.5 2.42489 20.5 2.42929 20.5C2.43368 20.5 2.43813 20.5 2.44262 20.5C2.4471 20.5 2.45164 20.5 2.45622 20.5C2.46081 20.5 2.46544 20.5 2.47011 20.5C2.47479 20.5 2.47951 20.5 2.48428 20.5C2.48904 20.5 2.49386 20.5 2.49872 20.5C2.50358 20.5 2.50848 20.5 2.51343 20.5C2.51839 20.5 2.52338 20.5 2.52843 20.5C2.53347 20.5 2.53856 20.5 2.54369 20.5C2.54883 20.5 2.55401 20.5 2.55923 20.5C2.56446 20.5 2.56973 20.5 2.57504 20.5C2.58036 20.5 2.58572 20.5 2.59113 20.5C2.59653 20.5 2.60198 20.5 2.60748 20.5C2.61297 20.5 2.61851 20.5 2.6241 20.5C2.62969 20.5 2.63532 20.5 2.64099 20.5C2.64667 20.5 2.65238 20.5 2.65815 20.5C2.66391 20.5 2.66972 20.5 2.67557 20.5C2.68143 20.5 2.68732 20.5 2.69326 20.5C2.6992 20.5 2.70519 20.5 2.71122 20.5C2.71725 20.5 2.72332 20.5 2.72944 20.5C2.73555 20.5 2.74172 20.5 2.74792 20.5C2.75412 20.5 2.76037 20.5 2.76666 20.5C2.77296 20.5 2.77929 20.5 2.78567 20.5C2.79205 20.5 2.79847 20.5 2.80493 20.5C2.8114 20.5 2.81791 20.5 2.82446 20.5C2.83101 20.5 2.83761 20.5 2.84424 20.5C2.85088 20.5 2.85756 20.5 2.86428 20.5C2.87101 20.5 2.87777 20.5 2.88458 20.5C2.89139 20.5 2.89824 20.5 2.90513 20.5C2.91203 20.5 2.91896 20.5 2.92594 20.5C2.93292 20.5 2.93994 20.5 2.947 20.5C2.95407 20.5 2.96117 20.5 2.96832 20.5C2.97546 20.5 2.98265 20.5 2.98988 20.5C2.99711 20.5 3.00439 20.5 3.0117 20.5C3.01902 20.5 3.02637 20.5 3.03377 20.5C3.04117 20.5 3.04861 20.5 3.05609 20.5C3.06357 20.5 3.07109 20.5 3.07865 20.5C3.08621 20.5 3.09382 20.5 3.10146 20.5C3.10911 20.5 3.1168 20.5 3.12452 20.5C3.13225 20.5 3.14002 20.5 3.14783 20.5C3.15564 20.5 3.16349 20.5 3.17138 20.5C3.17927 20.5 3.1872 20.5 3.19517 20.5C3.20314 20.5 3.21115 20.5 3.21921 20.5C3.22726 20.5 3.23535 20.5 3.24349 20.5C3.25162 20.5 3.25979 20.5 3.268 20.5C3.27622 20.5 3.28447 20.5 3.29276 20.5C3.30106 20.5 3.30939 20.5 3.31776 20.5C3.32613 20.5 3.33455 20.5 3.343 20.5C3.35145 20.5 3.35994 20.5 3.36847 20.5C3.377 20.5 3.38557 20.5 3.39418 20.5C3.40279 20.5 3.41144 20.5 3.42013 20.5C3.42882 20.5 3.43755 20.5 3.44631 20.5C3.45508 20.5 3.46388 20.5 3.47273 20.5C3.48157 20.5 3.49045 20.5 3.49937 20.5C3.50829 20.5 3.51725 20.5 3.52625 20.5C3.53525 20.5 3.54429 20.5 3.55336 20.5C3.56244 20.5 3.57155 20.5 3.5807 20.5C3.58985 20.5 3.59905 20.5 3.60827 20.5C3.6175 20.5 3.62677 20.5 3.63607 20.5C3.64537 20.5 3.65472 20.5 3.6641 20.5C3.67348 20.5 3.68289 20.5 3.69235 20.5C3.7018 20.5 3.71129 20.5 3.72082 20.5C3.73035 20.5 3.73992 20.5 3.74953 20.5C3.75913 20.5 3.76877 20.5 3.77845 20.5C3.78813 20.5 3.79785 20.5 3.8076 20.5C3.81735 20.5 3.82714 20.5 3.83697 20.5C3.8468 20.5 3.85666 20.5 3.86656 20.5C3.87646 20.5 3.8864 20.5 3.89637 20.5C3.90634 20.5 3.91635 20.5 3.9264 20.5C3.93645 20.5 3.94653 20.5 3.95665 20.5C3.96677 20.5 3.97692 20.5 3.98711 20.5C3.99731 20.5 4.00753 20.5 4.0178 20.5C4.02806 20.5 4.03836 20.5 4.04869 20.5C4.05903 20.5 4.0694 20.5 4.07981 20.5C4.09021 20.5 4.10065 20.5 4.11113 20.5C4.12161 20.5 4.13212 20.5 4.14267 20.5C4.15322 20.5 4.1638 20.5 4.17442 20.5C4.18504 20.5 4.19569 20.5 4.20638 20.5C4.21707 20.5 4.22779 20.5 4.23855 20.5C4.24931 20.5 4.2601 20.5 4.27093 20.5C4.28176 20.5 4.29262 20.5 4.30352 20.5C4.31442 20.5 4.32535 20.5 4.33631 20.5C4.34728 20.5 4.35828 20.5 4.36932 20.5C4.38035 20.5 4.39142 20.5 4.40252 20.5C4.41363 20.5 4.42476 20.5 4.43593 20.5C4.4471 20.5 4.45831 20.5 4.46955 20.5C4.48079 20.5 4.49206 20.5 4.50337 20.5C4.51467 20.5 4.52601 20.5 4.53739 20.5C4.54876 20.5 4.56017 20.5 4.57161 20.5C4.58305 20.5 4.59452 20.5 4.60603 20.5C4.61753 20.5 4.62907 20.5 4.64065 20.5C4.65222 20.5 4.66382 20.5 4.67546 20.5C4.6871 20.5 4.69877 20.5 4.71048 20.5C4.72218 20.5 4.73392 20.5 4.74569 20.5C4.75746 20.5 4.76926 20.5 4.78109 20.5C4.79293 20.5 4.80479 20.5 4.81669 20.5C4.82859 20.5 4.84052 20.5 4.85249 20.5C4.86445 20.5 4.87645 20.5 4.88847 20.5C4.9005 20.5 4.91256 20.5 4.92465 20.5C4.93674 20.5 4.94887 20.5 4.96102 20.5C4.97318 20.5 4.98536 20.5 4.99758 20.5C5.0098 20.5 5.02205 20.5 5.03433 20.5C5.04661 20.5 5.05892 20.5 5.07126 20.5C5.08361 20.5 5.09598 20.5 5.10839 20.5C5.12079 20.5 5.13323 20.5 5.1457 20.5C5.15816 20.5 5.17066 20.5 5.18319 20.5C5.19572 20.5 5.20828 20.5 5.22087 20.5C5.23346 20.5 5.24608 20.5 5.25873 20.5C5.27138 20.5 5.28406 20.5 5.29678 20.5C5.30949 20.5 5.32223 20.5 5.335 20.5C5.34778 20.5 5.36058 20.5 5.37341 20.5C5.38624 20.5 5.39911 20.5 5.412 20.5C5.42489 20.5 5.43781 20.5 5.45076 20.5C5.46372 20.5 5.4767 20.5 5.48971 20.5C5.50272 20.5 5.51576 20.5 5.52883 20.5C5.5419 20.5 5.555 20.5 5.56813 20.5C5.58125 20.5 5.59441 20.5 5.6076 20.5C5.62078 20.5 5.634 20.5 5.64724 20.5C5.66049 20.5 5.67376 20.5 5.68706 20.5C5.70037 20.5 5.7137 20.5 5.72706 20.5C5.74042 20.5 5.7538 20.5 5.76722 20.5C5.78064 20.5 5.79408 20.5 5.80756 20.5C5.82103 20.5 5.83453 20.5 5.84806 20.5C5.86159 20.5 5.87515 20.5 5.88873 20.5C5.90232 20.5 5.91593 20.5 5.92958 20.5C5.94322 20.5 5.95689 20.5 5.97058 20.5C5.98428 20.5 5.99801 20.5 6.01176 20.5C6.02551 20.5 6.03929 20.5 6.0531 20.5C6.06691 20.5 6.08074 20.5 6.0946 20.5C6.10846 20.5 6.12235 20.5 6.13627 20.5C6.15019 20.5 6.16413 20.5 6.1781 20.5C6.19207 20.5 6.20607 20.5 6.22009 20.5C6.23412 20.5 6.24817 20.5 6.26224 20.5C6.27632 20.5 6.29042 20.5 6.30455 20.5C6.31869 20.5 6.33284 20.5 6.34702 20.5C6.36121 20.5 6.37542 20.5 6.38965 20.5C6.40389 20.5 6.41815 20.5 6.43244 20.5C6.44673 20.5 6.46104 20.5 6.47538 20.5C6.48972 20.5 6.50409 20.5 6.51848 20.5C6.53287 20.5 6.54728 20.5 6.56173 20.5C6.57617 20.5 6.59064 20.5 6.60513 20.5C6.61962 20.5 6.63414 20.5 6.64869 20.5C6.66323 20.5 6.6778 20.5 6.6924 20.5C6.70699 20.5 6.72161 20.5 6.73625 20.5C6.7509 20.5 6.76557 20.5 6.78026 20.5C6.79496 20.5 6.80968 20.5 6.82442 20.5C6.83916 20.5 6.85393 20.5 6.86872 20.5C6.88352 20.5 6.89833 20.5 6.91318 20.5C6.92802 20.5 6.94288 20.5 6.95777 20.5C6.97266 20.5 6.98758 20.5 7.00252 20.5C7.01745 20.5 7.03242 20.5 7.0474 20.5C7.06239 20.5 7.0774 20.5 7.09243 20.5C7.10747 20.5 7.12252 20.5 7.1376 20.5C7.15269 20.5 7.16779 20.5 7.18292 20.5C7.19805 20.5 7.2132 20.5 7.22837 20.5C7.24355 20.5 7.25875 20.5 7.27397 20.5C7.28919 20.5 7.30443 20.5 7.3197 20.5C7.33497 20.5 7.35026 20.5 7.36557 20.5C7.38088 20.5 7.39622 20.5 7.41158 20.5C7.42694 20.5 7.44232 20.5 7.45772 20.5C7.47312 20.5 7.48855 20.5 7.504 20.5C7.51945 20.5 7.53492 20.5 7.55041 20.5C7.5659 20.5 7.58142 20.5 7.59696 20.5C7.61249 20.5 7.62805 20.5 7.64363 20.5C7.65922 20.5 7.67482 20.5 7.69044 20.5C7.70607 20.5 7.72171 20.5 7.73738 20.5C7.75305 20.5 7.76874 20.5 7.78445 20.5C7.80016 20.5 7.8159 20.5 7.83165 20.5C7.8474 20.5 7.86318 20.5 7.87898 20.5C7.89477 20.5 7.91059 20.5 7.92643 20.5C7.94227 20.5 7.95813 20.5 7.97401 20.5C7.98989 20.5 8.00579 20.5 8.02171 20.5C8.03763 20.5 8.05357 20.5 8.06954 20.5C8.0855 20.5 8.10148 20.5 8.11749 20.5C8.13349 20.5 8.14952 20.5 8.16556 20.5C8.1816 20.5 8.19767 20.5 8.21375 20.5C8.22984 20.5 8.24594 20.5 8.26207 20.5C8.27819 20.5 8.29434 20.5 8.3105 20.5C8.32667 20.5 8.34285 20.5 8.35906 20.5C8.37526 20.5 8.39148 20.5 8.40773 20.5C8.42397 20.5 8.44023 20.5 8.45651 20.5C8.47279 20.5 8.4891 20.5 8.50542 20.5C8.52174 20.5 8.53807 20.5 8.55443 20.5C8.57079 20.5 8.58717 20.5 8.60356 20.5C8.61996 20.5 8.63638 20.5 8.65281 20.5C8.66924 20.5 8.6857 20.5 8.70217 20.5C8.71864 20.5 8.73513 20.5 8.75163 20.5C8.76814 20.5 8.78467 20.5 8.80121 20.5C8.81776 20.5 8.83432 20.5 8.8509 20.5C8.86748 20.5 8.88408 20.5 8.9007 20.5C8.91732 20.5 8.93395 20.5 8.9506 20.5C8.96726 20.5 8.98393 20.5 9.00061 20.5C9.0173 20.5 9.03401 20.5 9.05073 20.5C9.06745 20.5 9.08419 20.5 9.10095 20.5C9.11771 20.5 9.13448 20.5 9.15128 20.5C9.16807 20.5 9.18488 20.5 9.20171 20.5C9.21853 20.5 9.23538 20.5 9.25224 20.5C9.2691 20.5 9.28597 20.5 9.30287 20.5C9.31976 20.5 9.33667 20.5 9.3536 20.5C9.37053 20.5 9.38747 20.5 9.40443 20.5C9.42139 20.5 9.43837 20.5 9.45536 20.5C9.47235 20.5 9.48936 20.5 9.50639 20.5C9.52342 20.5 9.54046 20.5 9.55751 20.5C9.57457 20.5 9.59165 20.5 9.60873 20.5C9.62582 20.5 9.64293 20.5 9.66005 20.5C9.67717 20.5 9.69431 20.5 9.71146 20.5C9.72861 20.5 9.74578 20.5 9.76296 20.5C9.78014 20.5 9.79734 20.5 9.81455 20.5C9.83177 20.5 9.849 20.5 9.86624 20.5C9.88348 20.5 9.90074 20.5 9.91801 20.5C9.93529 20.5 9.95258 20.5 9.96988 20.5C9.98718 20.5 10.0045 20.5 10.0218 20.5C10.0392 20.5 10.0565 20.5 10.0739 20.5C10.0912 20.5 10.1086 20.5 10.126 20.5C10.1434 20.5 10.1608 20.5 10.1782 20.5C10.1956 20.5 10.2131 20.5 10.2305 20.5C10.248 20.5 10.2654 20.5 10.2829 20.5C10.3004 20.5 10.3179 20.5 10.3354 20.5C10.3529 20.5 10.3704 20.5 10.3879 20.5C10.4054 20.5 10.423 20.5 10.4405 20.5C10.4581 20.5 10.4757 20.5 10.4932 20.5C10.5108 20.5 10.5284 20.5 10.546 20.5C10.5636 20.5 10.5813 20.5 10.5989 20.5C10.6165 20.5 10.6342 20.5 10.6518 20.5C10.6695 20.5 10.6872 20.5 10.7049 20.5C10.7225 20.5 10.7402 20.5 10.7579 20.5C10.7757 20.5 10.7934 20.5 10.8111 20.5C10.8289 20.5 10.8466 20.5 10.8644 20.5C10.8821 20.5 10.8999 20.5 10.9177 20.5C10.9355 20.5 10.9533 20.5 10.9711 20.5C10.9889 20.5 11.0067 20.5 11.0245 20.5C11.0424 20.5 11.0602 20.5 11.0781 20.5C11.0959 20.5 11.1138 20.5 11.1317 20.5C11.1495 20.5 11.1674 20.5 11.1853 20.5C11.2032 20.5 11.2211 20.5 11.2391 20.5C11.257 20.5 11.2749 20.5 11.2929 20.5C11.3108 20.5 11.3288 20.5 11.3467 20.5C11.3647 20.5 11.3827 20.5 11.4007 20.5C11.4186 20.5 11.4366 20.5 11.4546 20.5C11.4727 20.5 11.4907 20.5 11.5087 20.5C11.5267 20.5 11.5448 20.5 11.5628 20.5C11.5809 20.5 11.5989 20.5 11.617 20.5C11.6351 20.5 11.6532 20.5 11.6712 20.5C11.6893 20.5 11.7074 20.5 11.7255 20.5C11.7437 20.5 11.7618 20.5 11.7799 20.5C11.798 20.5 11.8162 20.5 11.8343 20.5C11.8525 20.5 11.8706 20.5 11.8888 20.5C11.907 20.5 11.9251 20.5 11.9433 20.5C11.9615 20.5 11.9797 20.5 11.9979 20.5C12.0161 20.5 12.0343 20.5 12.0525 20.5C12.0708 20.5 12.089 20.5 12.1072 20.5C12.1255 20.5 12.1437 20.5 12.162 20.5C12.1802 20.5 12.1985 20.5 12.2168 20.5C12.235 20.5 12.2533 20.5 12.2716 20.5C12.2899 20.5 12.3082 20.5 12.3265 20.5C12.3448 20.5 12.3631 20.5 12.3814 20.5C12.3998 20.5 12.4181 20.5 12.4364 20.5C12.4548 20.5 12.4731 20.5 12.4914 20.5C12.5098 20.5 12.5282 20.5 12.5465 20.5C12.5649 20.5 12.5833 20.5 12.6017 20.5C12.62 20.5 12.6384 20.5 12.6568 20.5C12.6752 20.5 12.6936 20.5 12.712 20.5C12.7304 20.5 12.7489 20.5 12.7673 20.5C12.7857 20.5 12.8041 20.5 12.8226 20.5C12.841 20.5 12.8594 20.5 12.8779 20.5C12.8963 20.5 12.9148 20.5 12.9333 20.5C12.9517 20.5 12.9702 20.5 12.9887 20.5C13.0072 20.5 13.0256 20.5 13.0441 20.5C13.0626 20.5 13.0811 20.5 13.0996 20.5C13.1181 20.5 13.1366 20.5 13.1551 20.5C13.1736 20.5 13.1922 20.5 13.2107 20.5C13.2292 20.5 13.2477 20.5 13.2663 20.5C13.2848 20.5 13.3033 20.5 13.3219 20.5C13.3404 20.5 13.359 20.5 13.3775 20.5C13.3961 20.5 13.4146 20.5 13.4332 20.5C13.4518 20.5 13.4704 20.5 13.4889 20.5C13.5075 20.5 13.5261 20.5 13.5447 20.5C13.5633 20.5 13.5818 20.5 13.6004 20.5C13.619 20.5 13.6376 20.5 13.6562 20.5C13.6748 20.5 13.6934 20.5 13.7121 20.5C13.7307 20.5 13.7493 20.5 13.7679 20.5C13.7865 20.5 13.8051 20.5 13.8238 20.5C13.8424 20.5 13.861 20.5 13.8797 20.5C13.8983 20.5 13.9169 20.5 13.9356 20.5C13.9542 20.5 13.9729 20.5 13.9915 20.5C14.0102 20.5 14.0288 20.5 14.0475 20.5C14.0661 20.5 14.0848 20.5 14.1035 20.5C14.1221 20.5 14.1408 20.5 14.1595 20.5C14.1781 20.5 14.1968 20.5 14.2155 20.5C14.2342 20.5 14.2528 20.5 14.2715 20.5C14.2902 20.5 14.3089 20.5 14.3276 20.5C14.3463 20.5 14.3649 20.5 14.3836 20.5C14.4023 20.5 14.421 20.5 14.4397 20.5C14.4584 20.5 14.4771 20.5 14.4958 20.5C14.5145 20.5 14.5332 20.5 14.5519 20.5C14.5706 20.5 14.5893 20.5 14.608 20.5C14.6267 20.5 14.6454 20.5 14.6642 20.5C14.6829 20.5 14.7016 20.5 14.7203 20.5C14.739 20.5 14.7577 20.5 14.7764 20.5C14.7952 20.5 14.8139 20.5 14.8326 20.5C14.8513 20.5 14.87 20.5 14.8888 20.5C14.9075 20.5 14.9262 20.5 14.9449 20.5C14.9637 20.5 14.9824 20.5 15.0011 20.5C15.0198 20.5 15.0386 20.5 15.0573 20.5C15.076 20.5 15.0947 20.5 15.1135 20.5C15.1322 20.5 15.1509 20.5 15.1697 20.5C15.1884 20.5 15.2071 20.5 15.2258 20.5C15.2446 20.5 15.2633 20.5 15.282 20.5C15.3008 20.5 15.3195 20.5 15.3382 20.5C15.3569 20.5 15.3757 20.5 15.3944 20.5C15.4131 20.5 15.4319 20.5 15.4506 20.5C15.4693 20.5 15.488 20.5 15.5068 20.5C15.5255 20.5 15.5442 20.5 15.5629 20.5C15.5817 20.5 15.6004 20.5 15.6191 20.5C15.6378 20.5 15.6566 20.5 15.6753 20.5C15.694 20.5 15.7127 20.5 15.7314 20.5C15.7502 20.5 15.7689 20.5 15.7876 20.5C15.8063 20.5 15.825 20.5 15.8437 20.5C15.8624 20.5 15.8812 20.5 15.8999 20.5C15.9186 20.5 15.9373 20.5 15.956 20.5C15.9747 20.5 15.9934 20.5 16.0121 20.5C16.0308 20.5 16.0495 20.5 16.0682 20.5C16.0869 20.5 16.1056 20.5 16.1243 20.5C16.143 20.5 16.1617 20.5 16.1804 20.5C16.199 20.5 16.2177 20.5 16.2364 20.5C16.2551 20.5 16.2738 20.5 16.2925 20.5C16.3111 20.5 16.3298 20.5 16.3485 20.5C16.3672 20.5 16.3858 20.5 16.4045 20.5C16.4232 20.5 16.4418 20.5 16.4605 20.5C16.4791 20.5 16.4978 20.5 16.5165 20.5C16.5351 20.5 16.5538 20.5 16.5724 20.5C16.5911 20.5 16.6097 20.5 16.6283 20.5C16.647 20.5 16.6656 20.5 16.6842 20.5C16.7029 20.5 16.7215 20.5 16.7401 20.5C16.7587 20.5 16.7774 20.5 16.796 20.5C16.8146 20.5 16.8332 20.5 16.8518 20.5C16.8704 20.5 16.889 20.5 16.9076 20.5C16.9262 20.5 16.9448 20.5 16.9634 20.5C16.982 20.5 17.0006 20.5 17.0192 20.5C17.0377 20.5 17.0563 20.5 17.0749 20.5C17.0935 20.5 17.112 20.5 17.1306 20.5C17.1492 20.5 17.1677 20.5 17.1863 20.5C17.2048 20.5 17.2234 20.5 17.2419 20.5C17.2604 20.5 17.279 20.5 17.2975 20.5C17.316 20.5 17.3345 20.5 17.3531 20.5C17.3716 20.5 17.3901 20.5 17.4086 20.5C17.4271 20.5 17.4456 20.5 17.4641 20.5C17.4826 20.5 17.5011 20.5 17.5196 20.5C17.538 20.5 17.5565 20.5 17.575 20.5C17.5935 20.5 17.6119 20.5 17.6304 20.5C17.6488 20.5 17.6673 20.5 17.6857 20.5C17.7042 20.5 17.7226 20.5 17.741 20.5C17.7595 20.5 17.7779 20.5 17.7963 20.5C17.8147 20.5 17.8331 20.5 17.8516 20.5C17.87 20.5 17.8884 20.5 17.9067 20.5C17.9251 20.5 17.9435 20.5 17.9619 20.5C17.9803 20.5 17.9986 20.5 18.017 20.5C18.0353 20.5 18.0537 20.5 18.072 20.5C18.0904 20.5 18.1087 20.5 18.1271 20.5C18.1454 20.5 18.1637 20.5 18.182 20.5C18.2003 20.5 18.2186 20.5 18.2369 20.5C18.2552 20.5 18.2735 20.5 18.2918 20.5C18.3101 20.5 18.3284 20.5 18.3466 20.5C18.3649 20.5 18.3831 20.5 18.4014 20.5C18.4196 20.5 18.4379 20.5 18.4561 20.5C18.4743 20.5 18.4925 20.5 18.5108 20.5C18.529 20.5 18.5472 20.5 18.5654 20.5C18.5836 20.5 18.6018 20.5 18.6199 20.5C18.6381 20.5 18.6563 20.5 18.6744 20.5C18.6926 20.5 18.7107 20.5 18.7289 20.5C18.747 20.5 18.7651 20.5 18.7833 20.5C18.8014 20.5 18.8195 20.5 18.8376 20.5C18.8557 20.5 18.8738 20.5 18.8919 20.5C18.9099 20.5 18.928 20.5 18.9461 20.5C18.9641 20.5 18.9822 20.5 19.0002 20.5C19.0183 20.5 19.0363 20.5 19.0543 20.5C19.0723 20.5 19.0903 20.5 19.1083 20.5C19.1263 20.5 19.1443 20.5 19.1623 20.5C19.1803 20.5 19.1983 20.5 19.2162 20.5C19.2342 20.5 19.2521 20.5 19.27 20.5C19.288 20.5 19.3059 20.5 19.3238 20.5C19.3417 20.5 19.3596 20.5 19.3775 20.5C19.3954 20.5 19.4133 20.5 19.4311 20.5C19.449 20.5 19.4669 20.5 19.4847 20.5C19.5026 20.5 19.5204 20.5 19.5382 20.5C19.556 20.5 19.5738 20.5 19.5916 20.5C19.6094 20.5 19.6272 20.5 19.645 20.5C19.6628 20.5 19.6805 20.5 19.6983 20.5C19.716 20.5 19.7338 20.5 19.7515 20.5C19.7692 20.5 19.7869 20.5 19.8046 20.5C19.8223 20.5 19.84 20.5 19.8577 20.5C19.8753 20.5 19.893 20.5 19.9106 20.5C19.9283 20.5 19.9459 20.5 19.9636 20.5C19.9812 20.5 19.9988 20.5 20.0164 20.5C20.034 20.5 20.0516 20.5 20.0691 20.5C20.0867 20.5 20.1043 20.5 20.1218 20.5C20.1393 20.5 20.1569 20.5 20.1744 20.5C20.1919 20.5 20.2094 20.5 20.2269 20.5C20.2444 20.5 20.2619 20.5 20.2793 20.5C20.2968 20.5 20.3142 20.5 20.3317 20.5C20.3491 20.5 20.3665 20.5 20.3839 20.5C20.4013 20.5 20.4187 20.5 20.4361 20.5C20.4535 20.5 20.4708 20.5 20.4882 20.5C20.5055 20.5 20.5229 20.5 20.5402 20.5C20.5575 20.5 20.5748 20.5 20.5921 20.5C20.6094 20.5 20.6266 20.5 20.6439 20.5C20.6612 20.5 20.6784 20.5 20.6956 20.5C20.7129 20.5 20.7301 20.5 20.7473 20.5C20.7645 20.5 20.7817 20.5 20.7988 20.5C20.816 20.5 20.8331 20.5 20.8503 20.5C20.8674 20.5 20.8845 20.5 20.9016 20.5C20.9187 20.5 20.9358 20.5 20.9529 20.5C20.97 20.5 20.987 20.5 21.0041 20.5C21.0211 20.5 21.0382 20.5 21.0552 20.5C21.0722 20.5 21.0892 20.5 21.1061 20.5C21.1231 20.5 21.1401 20.5 21.157 20.5C21.174 20.5 21.1909 20.5 21.2078 20.5C21.2247 20.5 21.2416 20.5 21.2585 20.5C21.2754 20.5 21.2922 20.5 21.3091 20.5C21.3259 20.5 21.3427 20.5 21.3596 20.5C21.3764 20.5 21.3932 20.5 21.4099 20.5C21.4267 20.5 21.4435 20.5 21.4602 20.5C21.477 20.5 21.4937 20.5 21.5104 20.5C21.5271 20.5 21.5438 20.5 21.5604 20.5C21.5771 20.5 21.5938 20.5 21.6104 20.5C21.627 20.5 21.6437 20.5 21.6603 20.5C21.6769 20.5 21.6934 20.5 21.71 20.5C21.7266 20.5 21.7431 20.5 21.7596 20.5C21.7762 20.5 21.7927 20.5 21.8092 20.5C21.8257 20.5 21.8421 20.5 21.8586 20.5C21.875 20.5 21.8915 20.5 21.9079 20.5C21.9243 20.5 21.9407 20.5 21.9571 20.5C21.9734 20.5 21.9898 20.5 22.0061 20.5C22.0225 20.5 22.0388 20.5 22.0551 20.5C22.0714 20.5 22.0877 20.5 22.104 20.5C22.1202 20.5 22.1365 20.5 22.1527 20.5C22.1689 20.5 22.1851 20.5 22.2013 20.5C22.2175 20.5 22.2336 20.5 22.2498 20.5C22.2659 20.5 22.2821 20.5 22.2982 20.5C22.3143 20.5 22.3304 20.5 22.3464 20.5C22.3625 20.5 22.3785 20.5 22.3946 20.5C22.4106 20.5 22.4266 20.5 22.4426 20.5C22.4586 20.5 22.4745 20.5 22.4905 20.5C22.5064 20.5 22.5223 20.5 22.5382 20.5C22.5541 20.5 22.57 20.5 22.5859 20.5C22.6017 20.5 22.6176 20.5 22.6334 20.5C22.6492 20.5 22.665 20.5 22.6808 20.5C22.6966 20.5 22.7123 20.5 22.728 20.5C22.7438 20.5 22.7595 20.5 22.7752 20.5C22.7909 20.5 22.8065 20.5 22.8222 20.5C22.8378 20.5 22.8535 20.5 22.8691 20.5C22.8847 20.5 22.9002 20.5 22.9158 20.5C22.9314 20.5 22.9469 20.5 22.9624 20.5C22.9779 20.5 22.9934 20.5 23.0089 20.5C23.0244 20.5 23.0398 20.5 23.0553 20.5C23.0707 20.5 23.0861 20.5 23.1015 20.5C23.1168 20.5 23.1322 20.5 23.1475 20.5C23.1629 20.5 23.1782 20.5 23.1935 20.5C23.2088 20.5 23.224 20.5 23.2393 20.5C23.2545 20.5 23.2698 20.5 23.285 20.5C23.3001 20.5 23.3153 20.5 23.3305 20.5C23.3456 20.5 23.3608 20.5 23.3759 20.5C23.391 20.5 23.4061 20.5 23.4211 20.5C23.4362 20.5 23.4512 20.5 23.4662 20.5C23.4812 20.5 23.4962 20.5 23.5112 20.5C23.5261 20.5 23.5411 20.5 23.556 20.5C23.5709 20.5 23.5858 20.5 23.6007 20.5C23.6155 20.5 23.6304 20.5 23.6452 20.5C23.66 20.5 23.6748 20.5 23.6896 20.5C23.7043 20.5 23.7191 20.5 23.7338 20.5C23.7485 20.5 23.7632 20.5 23.7779 20.5C23.7926 20.5 23.8072 20.5 23.8218 20.5C23.8364 20.5 23.851 20.5 23.8656 20.5C23.8802 20.5 23.8947 20.5 23.9092 20.5C23.9238 20.5 23.9383 20.5 23.9527 20.5C23.9672 20.5 23.9816 20.5 23.9961 20.5C24.0105 20.5 24.0249 20.5 24.0392 20.5C24.0536 20.5 24.0679 20.5 24.0823 20.5C24.0966 20.5 24.1109 20.5 24.1251 20.5C24.1394 20.5 24.1536 20.5 24.1678 20.5C24.182 20.5 24.1962 20.5 24.2104 20.5C24.2245 20.5 24.2387 20.5 24.2528 20.5C24.2669 20.5 24.281 20.5 24.295 20.5C24.3091 20.5 24.3231 20.5 24.3371 20.5C24.3511 20.5 24.365 20.5 24.379 20.5C24.3929 20.5 24.4069 20.5 24.4207 20.5C24.4346 20.5 24.4485 20.5 24.4623 20.5C24.4762 20.5 24.49 20.5 24.5038 20.5C24.5175 20.5 24.5313 20.5 24.545 20.5C24.5587 20.5 24.5724 20.5 24.5861 20.5V19.5C24.5724 19.5 24.5587 19.5 24.545 19.5C24.5313 19.5 24.5175 19.5 24.5038 19.5C24.49 19.5 24.4762 19.5 24.4623 19.5C24.4485 19.5 24.4346 19.5 24.4207 19.5C24.4069 19.5 24.3929 19.5 24.379 19.5C24.365 19.5 24.3511 19.5 24.3371 19.5C24.3231 19.5 24.3091 19.5 24.295 19.5C24.281 19.5 24.2669 19.5 24.2528 19.5C24.2387 19.5 24.2245 19.5 24.2104 19.5C24.1962 19.5 24.182 19.5 24.1678 19.5C24.1536 19.5 24.1394 19.5 24.1251 19.5C24.1109 19.5 24.0966 19.5 24.0823 19.5C24.0679 19.5 24.0536 19.5 24.0392 19.5C24.0249 19.5 24.0105 19.5 23.9961 19.5C23.9816 19.5 23.9672 19.5 23.9527 19.5C23.9383 19.5 23.9238 19.5 23.9092 19.5C23.8947 19.5 23.8802 19.5 23.8656 19.5C23.851 19.5 23.8364 19.5 23.8218 19.5C23.8072 19.5 23.7926 19.5 23.7779 19.5C23.7632 19.5 23.7485 19.5 23.7338 19.5C23.7191 19.5 23.7043 19.5 23.6896 19.5C23.6748 19.5 23.66 19.5 23.6452 19.5C23.6304 19.5 23.6155 19.5 23.6007 19.5C23.5858 19.5 23.5709 19.5 23.556 19.5C23.5411 19.5 23.5261 19.5 23.5112 19.5C23.4962 19.5 23.4812 19.5 23.4662 19.5C23.4512 19.5 23.4362 19.5 23.4211 19.5C23.4061 19.5 23.391 19.5 23.3759 19.5C23.3608 19.5 23.3456 19.5 23.3305 19.5C23.3153 19.5 23.3001 19.5 23.285 19.5C23.2698 19.5 23.2545 19.5 23.2393 19.5C23.224 19.5 23.2088 19.5 23.1935 19.5C23.1782 19.5 23.1629 19.5 23.1475 19.5C23.1322 19.5 23.1168 19.5 23.1015 19.5C23.0861 19.5 23.0707 19.5 23.0553 19.5C23.0398 19.5 23.0244 19.5 23.0089 19.5C22.9934 19.5 22.9779 19.5 22.9624 19.5C22.9469 19.5 22.9314 19.5 22.9158 19.5C22.9002 19.5 22.8847 19.5 22.8691 19.5C22.8535 19.5 22.8378 19.5 22.8222 19.5C22.8065 19.5 22.7909 19.5 22.7752 19.5C22.7595 19.5 22.7438 19.5 22.728 19.5C22.7123 19.5 22.6966 19.5 22.6808 19.5C22.665 19.5 22.6492 19.5 22.6334 19.5C22.6176 19.5 22.6017 19.5 22.5859 19.5C22.57 19.5 22.5541 19.5 22.5382 19.5C22.5223 19.5 22.5064 19.5 22.4905 19.5C22.4745 19.5 22.4586 19.5 22.4426 19.5C22.4266 19.5 22.4106 19.5 22.3946 19.5C22.3785 19.5 22.3625 19.5 22.3464 19.5C22.3304 19.5 22.3143 19.5 22.2982 19.5C22.2821 19.5 22.2659 19.5 22.2498 19.5C22.2336 19.5 22.2175 19.5 22.2013 19.5C22.1851 19.5 22.1689 19.5 22.1527 19.5C22.1365 19.5 22.1202 19.5 22.104 19.5C22.0877 19.5 22.0714 19.5 22.0551 19.5C22.0388 19.5 22.0225 19.5 22.0061 19.5C21.9898 19.5 21.9734 19.5 21.9571 19.5C21.9407 19.5 21.9243 19.5 21.9079 19.5C21.8915 19.5 21.875 19.5 21.8586 19.5C21.8421 19.5 21.8257 19.5 21.8092 19.5C21.7927 19.5 21.7762 19.5 21.7596 19.5C21.7431 19.5 21.7266 19.5 21.71 19.5C21.6934 19.5 21.6769 19.5 21.6603 19.5C21.6437 19.5 21.627 19.5 21.6104 19.5C21.5938 19.5 21.5771 19.5 21.5604 19.5C21.5438 19.5 21.5271 19.5 21.5104 19.5C21.4937 19.5 21.477 19.5 21.4602 19.5C21.4435 19.5 21.4267 19.5 21.4099 19.5C21.3932 19.5 21.3764 19.5 21.3596 19.5C21.3427 19.5 21.3259 19.5 21.3091 19.5C21.2922 19.5 21.2754 19.5 21.2585 19.5C21.2416 19.5 21.2247 19.5 21.2078 19.5C21.1909 19.5 21.174 19.5 21.157 19.5C21.1401 19.5 21.1231 19.5 21.1061 19.5C21.0892 19.5 21.0722 19.5 21.0552 19.5C21.0382 19.5 21.0211 19.5 21.0041 19.5C20.987 19.5 20.97 19.5 20.9529 19.5C20.9358 19.5 20.9187 19.5 20.9016 19.5C20.8845 19.5 20.8674 19.5 20.8503 19.5C20.8331 19.5 20.816 19.5 20.7988 19.5C20.7817 19.5 20.7645 19.5 20.7473 19.5C20.7301 19.5 20.7129 19.5 20.6956 19.5C20.6784 19.5 20.6612 19.5 20.6439 19.5C20.6266 19.5 20.6094 19.5 20.5921 19.5C20.5748 19.5 20.5575 19.5 20.5402 19.5C20.5229 19.5 20.5055 19.5 20.4882 19.5C20.4708 19.5 20.4535 19.5 20.4361 19.5C20.4187 19.5 20.4013 19.5 20.3839 19.5C20.3665 19.5 20.3491 19.5 20.3317 19.5C20.3142 19.5 20.2968 19.5 20.2793 19.5C20.2619 19.5 20.2444 19.5 20.2269 19.5C20.2094 19.5 20.1919 19.5 20.1744 19.5C20.1569 19.5 20.1393 19.5 20.1218 19.5C20.1043 19.5 20.0867 19.5 20.0691 19.5C20.0516 19.5 20.034 19.5 20.0164 19.5C19.9988 19.5 19.9812 19.5 19.9636 19.5C19.9459 19.5 19.9283 19.5 19.9106 19.5C19.893 19.5 19.8753 19.5 19.8577 19.5C19.84 19.5 19.8223 19.5 19.8046 19.5C19.7869 19.5 19.7692 19.5 19.7515 19.5C19.7338 19.5 19.716 19.5 19.6983 19.5C19.6805 19.5 19.6628 19.5 19.645 19.5C19.6272 19.5 19.6094 19.5 19.5916 19.5C19.5738 19.5 19.556 19.5 19.5382 19.5C19.5204 19.5 19.5026 19.5 19.4847 19.5C19.4669 19.5 19.449 19.5 19.4311 19.5C19.4133 19.5 19.3954 19.5 19.3775 19.5C19.3596 19.5 19.3417 19.5 19.3238 19.5C19.3059 19.5 19.288 19.5 19.27 19.5C19.2521 19.5 19.2342 19.5 19.2162 19.5C19.1983 19.5 19.1803 19.5 19.1623 19.5C19.1443 19.5 19.1263 19.5 19.1083 19.5C19.0903 19.5 19.0723 19.5 19.0543 19.5C19.0363 19.5 19.0183 19.5 19.0002 19.5C18.9822 19.5 18.9641 19.5 18.9461 19.5C18.928 19.5 18.9099 19.5 18.8919 19.5C18.8738 19.5 18.8557 19.5 18.8376 19.5C18.8195 19.5 18.8014 19.5 18.7833 19.5C18.7651 19.5 18.747 19.5 18.7289 19.5C18.7107 19.5 18.6926 19.5 18.6744 19.5C18.6563 19.5 18.6381 19.5 18.6199 19.5C18.6018 19.5 18.5836 19.5 18.5654 19.5C18.5472 19.5 18.529 19.5 18.5108 19.5C18.4925 19.5 18.4743 19.5 18.4561 19.5C18.4379 19.5 18.4196 19.5 18.4014 19.5C18.3831 19.5 18.3649 19.5 18.3466 19.5C18.3284 19.5 18.3101 19.5 18.2918 19.5C18.2735 19.5 18.2552 19.5 18.2369 19.5C18.2186 19.5 18.2003 19.5 18.182 19.5C18.1637 19.5 18.1454 19.5 18.1271 19.5C18.1087 19.5 18.0904 19.5 18.072 19.5C18.0537 19.5 18.0353 19.5 18.017 19.5C17.9986 19.5 17.9803 19.5 17.9619 19.5C17.9435 19.5 17.9251 19.5 17.9067 19.5C17.8884 19.5 17.87 19.5 17.8516 19.5C17.8331 19.5 17.8147 19.5 17.7963 19.5C17.7779 19.5 17.7595 19.5 17.741 19.5C17.7226 19.5 17.7042 19.5 17.6857 19.5C17.6673 19.5 17.6488 19.5 17.6304 19.5C17.6119 19.5 17.5935 19.5 17.575 19.5C17.5565 19.5 17.538 19.5 17.5196 19.5C17.5011 19.5 17.4826 19.5 17.4641 19.5C17.4456 19.5 17.4271 19.5 17.4086 19.5C17.3901 19.5 17.3716 19.5 17.3531 19.5C17.3345 19.5 17.316 19.5 17.2975 19.5C17.279 19.5 17.2604 19.5 17.2419 19.5C17.2234 19.5 17.2048 19.5 17.1863 19.5C17.1677 19.5 17.1492 19.5 17.1306 19.5C17.112 19.5 17.0935 19.5 17.0749 19.5C17.0563 19.5 17.0377 19.5 17.0192 19.5C17.0006 19.5 16.982 19.5 16.9634 19.5C16.9448 19.5 16.9262 19.5 16.9076 19.5C16.889 19.5 16.8704 19.5 16.8518 19.5C16.8332 19.5 16.8146 19.5 16.796 19.5C16.7774 19.5 16.7587 19.5 16.7401 19.5C16.7215 19.5 16.7029 19.5 16.6842 19.5C16.6656 19.5 16.647 19.5 16.6283 19.5C16.6097 19.5 16.5911 19.5 16.5724 19.5C16.5538 19.5 16.5351 19.5 16.5165 19.5C16.4978 19.5 16.4791 19.5 16.4605 19.5C16.4418 19.5 16.4232 19.5 16.4045 19.5C16.3858 19.5 16.3672 19.5 16.3485 19.5C16.3298 19.5 16.3111 19.5 16.2925 19.5C16.2738 19.5 16.2551 19.5 16.2364 19.5C16.2177 19.5 16.199 19.5 16.1804 19.5C16.1617 19.5 16.143 19.5 16.1243 19.5C16.1056 19.5 16.0869 19.5 16.0682 19.5C16.0495 19.5 16.0308 19.5 16.0121 19.5C15.9934 19.5 15.9747 19.5 15.956 19.5C15.9373 19.5 15.9186 19.5 15.8999 19.5C15.8812 19.5 15.8624 19.5 15.8437 19.5C15.825 19.5 15.8063 19.5 15.7876 19.5C15.7689 19.5 15.7502 19.5 15.7314 19.5C15.7127 19.5 15.694 19.5 15.6753 19.5C15.6566 19.5 15.6378 19.5 15.6191 19.5C15.6004 19.5 15.5817 19.5 15.5629 19.5C15.5442 19.5 15.5255 19.5 15.5068 19.5C15.488 19.5 15.4693 19.5 15.4506 19.5C15.4319 19.5 15.4131 19.5 15.3944 19.5C15.3757 19.5 15.3569 19.5 15.3382 19.5C15.3195 19.5 15.3008 19.5 15.282 19.5C15.2633 19.5 15.2446 19.5 15.2258 19.5C15.2071 19.5 15.1884 19.5 15.1697 19.5C15.1509 19.5 15.1322 19.5 15.1135 19.5C15.0947 19.5 15.076 19.5 15.0573 19.5C15.0386 19.5 15.0198 19.5 15.0011 19.5C14.9824 19.5 14.9637 19.5 14.9449 19.5C14.9262 19.5 14.9075 19.5 14.8888 19.5C14.87 19.5 14.8513 19.5 14.8326 19.5C14.8139 19.5 14.7952 19.5 14.7764 19.5C14.7577 19.5 14.739 19.5 14.7203 19.5C14.7016 19.5 14.6829 19.5 14.6642 19.5C14.6454 19.5 14.6267 19.5 14.608 19.5C14.5893 19.5 14.5706 19.5 14.5519 19.5C14.5332 19.5 14.5145 19.5 14.4958 19.5C14.4771 19.5 14.4584 19.5 14.4397 19.5C14.421 19.5 14.4023 19.5 14.3836 19.5C14.3649 19.5 14.3463 19.5 14.3276 19.5C14.3089 19.5 14.2902 19.5 14.2715 19.5C14.2528 19.5 14.2342 19.5 14.2155 19.5C14.1968 19.5 14.1781 19.5 14.1595 19.5C14.1408 19.5 14.1221 19.5 14.1035 19.5C14.0848 19.5 14.0661 19.5 14.0475 19.5C14.0288 19.5 14.0102 19.5 13.9915 19.5C13.9729 19.5 13.9542 19.5 13.9356 19.5C13.9169 19.5 13.8983 19.5 13.8797 19.5C13.861 19.5 13.8424 19.5 13.8238 19.5C13.8051 19.5 13.7865 19.5 13.7679 19.5C13.7493 19.5 13.7307 19.5 13.7121 19.5C13.6934 19.5 13.6748 19.5 13.6562 19.5C13.6376 19.5 13.619 19.5 13.6004 19.5C13.5818 19.5 13.5633 19.5 13.5447 19.5C13.5261 19.5 13.5075 19.5 13.4889 19.5C13.4704 19.5 13.4518 19.5 13.4332 19.5C13.4146 19.5 13.3961 19.5 13.3775 19.5C13.359 19.5 13.3404 19.5 13.3219 19.5C13.3033 19.5 13.2848 19.5 13.2663 19.5C13.2477 19.5 13.2292 19.5 13.2107 19.5C13.1922 19.5 13.1736 19.5 13.1551 19.5C13.1366 19.5 13.1181 19.5 13.0996 19.5C13.0811 19.5 13.0626 19.5 13.0441 19.5C13.0256 19.5 13.0072 19.5 12.9887 19.5C12.9702 19.5 12.9517 19.5 12.9333 19.5C12.9148 19.5 12.8963 19.5 12.8779 19.5C12.8594 19.5 12.841 19.5 12.8226 19.5C12.8041 19.5 12.7857 19.5 12.7673 19.5C12.7489 19.5 12.7304 19.5 12.712 19.5C12.6936 19.5 12.6752 19.5 12.6568 19.5C12.6384 19.5 12.62 19.5 12.6017 19.5C12.5833 19.5 12.5649 19.5 12.5465 19.5C12.5282 19.5 12.5098 19.5 12.4914 19.5C12.4731 19.5 12.4548 19.5 12.4364 19.5C12.4181 19.5 12.3998 19.5 12.3814 19.5C12.3631 19.5 12.3448 19.5 12.3265 19.5C12.3082 19.5 12.2899 19.5 12.2716 19.5C12.2533 19.5 12.235 19.5 12.2168 19.5C12.1985 19.5 12.1802 19.5 12.162 19.5C12.1437 19.5 12.1255 19.5 12.1072 19.5C12.089 19.5 12.0708 19.5 12.0525 19.5C12.0343 19.5 12.0161 19.5 11.9979 19.5C11.9797 19.5 11.9615 19.5 11.9433 19.5C11.9251 19.5 11.907 19.5 11.8888 19.5C11.8706 19.5 11.8525 19.5 11.8343 19.5C11.8162 19.5 11.798 19.5 11.7799 19.5C11.7618 19.5 11.7437 19.5 11.7255 19.5C11.7074 19.5 11.6893 19.5 11.6712 19.5C11.6532 19.5 11.6351 19.5 11.617 19.5C11.5989 19.5 11.5809 19.5 11.5628 19.5C11.5448 19.5 11.5267 19.5 11.5087 19.5C11.4907 19.5 11.4727 19.5 11.4546 19.5C11.4366 19.5 11.4186 19.5 11.4007 19.5C11.3827 19.5 11.3647 19.5 11.3467 19.5C11.3288 19.5 11.3108 19.5 11.2929 19.5C11.2749 19.5 11.257 19.5 11.2391 19.5C11.2211 19.5 11.2032 19.5 11.1853 19.5C11.1674 19.5 11.1495 19.5 11.1317 19.5C11.1138 19.5 11.0959 19.5 11.0781 19.5C11.0602 19.5 11.0424 19.5 11.0245 19.5C11.0067 19.5 10.9889 19.5 10.9711 19.5C10.9533 19.5 10.9355 19.5 10.9177 19.5C10.8999 19.5 10.8821 19.5 10.8644 19.5C10.8466 19.5 10.8289 19.5 10.8111 19.5C10.7934 19.5 10.7757 19.5 10.7579 19.5C10.7402 19.5 10.7225 19.5 10.7049 19.5C10.6872 19.5 10.6695 19.5 10.6518 19.5C10.6342 19.5 10.6165 19.5 10.5989 19.5C10.5813 19.5 10.5636 19.5 10.546 19.5C10.5284 19.5 10.5108 19.5 10.4932 19.5C10.4757 19.5 10.4581 19.5 10.4405 19.5C10.423 19.5 10.4054 19.5 10.3879 19.5C10.3704 19.5 10.3529 19.5 10.3354 19.5C10.3179 19.5 10.3004 19.5 10.2829 19.5C10.2654 19.5 10.248 19.5 10.2305 19.5C10.2131 19.5 10.1956 19.5 10.1782 19.5C10.1608 19.5 10.1434 19.5 10.126 19.5C10.1086 19.5 10.0912 19.5 10.0739 19.5C10.0565 19.5 10.0392 19.5 10.0218 19.5C10.0045 19.5 9.98718 19.5 9.96988 19.5C9.95258 19.5 9.93529 19.5 9.91801 19.5C9.90074 19.5 9.88348 19.5 9.86624 19.5C9.849 19.5 9.83177 19.5 9.81455 19.5C9.79734 19.5 9.78014 19.5 9.76296 19.5C9.74578 19.5 9.72861 19.5 9.71146 19.5C9.69431 19.5 9.67717 19.5 9.66005 19.5C9.64293 19.5 9.62582 19.5 9.60873 19.5C9.59165 19.5 9.57457 19.5 9.55751 19.5C9.54046 19.5 9.52342 19.5 9.50639 19.5C9.48936 19.5 9.47235 19.5 9.45536 19.5C9.43837 19.5 9.42139 19.5 9.40443 19.5C9.38747 19.5 9.37053 19.5 9.3536 19.5C9.33667 19.5 9.31976 19.5 9.30287 19.5C9.28597 19.5 9.2691 19.5 9.25224 19.5C9.23538 19.5 9.21853 19.5 9.20171 19.5C9.18488 19.5 9.16807 19.5 9.15128 19.5C9.13448 19.5 9.11771 19.5 9.10095 19.5C9.08419 19.5 9.06745 19.5 9.05073 19.5C9.03401 19.5 9.0173 19.5 9.00061 19.5C8.98393 19.5 8.96726 19.5 8.9506 19.5C8.93395 19.5 8.91732 19.5 8.9007 19.5C8.88408 19.5 8.86748 19.5 8.8509 19.5C8.83432 19.5 8.81776 19.5 8.80121 19.5C8.78467 19.5 8.76814 19.5 8.75163 19.5C8.73513 19.5 8.71864 19.5 8.70217 19.5C8.6857 19.5 8.66924 19.5 8.65281 19.5C8.63638 19.5 8.61996 19.5 8.60356 19.5C8.58717 19.5 8.57079 19.5 8.55443 19.5C8.53807 19.5 8.52174 19.5 8.50542 19.5C8.4891 19.5 8.47279 19.5 8.45651 19.5C8.44023 19.5 8.42397 19.5 8.40773 19.5C8.39148 19.5 8.37526 19.5 8.35906 19.5C8.34285 19.5 8.32667 19.5 8.3105 19.5C8.29434 19.5 8.27819 19.5 8.26207 19.5C8.24594 19.5 8.22984 19.5 8.21375 19.5C8.19767 19.5 8.1816 19.5 8.16556 19.5C8.14952 19.5 8.13349 19.5 8.11749 19.5C8.10148 19.5 8.0855 19.5 8.06954 19.5C8.05357 19.5 8.03763 19.5 8.02171 19.5C8.00579 19.5 7.98989 19.5 7.97401 19.5C7.95813 19.5 7.94227 19.5 7.92643 19.5C7.91059 19.5 7.89477 19.5 7.87898 19.5C7.86318 19.5 7.8474 19.5 7.83165 19.5C7.8159 19.5 7.80016 19.5 7.78445 19.5C7.76874 19.5 7.75305 19.5 7.73738 19.5C7.72171 19.5 7.70607 19.5 7.69044 19.5C7.67482 19.5 7.65922 19.5 7.64363 19.5C7.62805 19.5 7.61249 19.5 7.59696 19.5C7.58142 19.5 7.5659 19.5 7.55041 19.5C7.53492 19.5 7.51945 19.5 7.504 19.5C7.48855 19.5 7.47312 19.5 7.45772 19.5C7.44232 19.5 7.42694 19.5 7.41158 19.5C7.39622 19.5 7.38088 19.5 7.36557 19.5C7.35026 19.5 7.33497 19.5 7.3197 19.5C7.30443 19.5 7.28919 19.5 7.27397 19.5C7.25875 19.5 7.24355 19.5 7.22837 19.5C7.2132 19.5 7.19805 19.5 7.18292 19.5C7.16779 19.5 7.15269 19.5 7.1376 19.5C7.12252 19.5 7.10747 19.5 7.09243 19.5C7.0774 19.5 7.06239 19.5 7.0474 19.5C7.03242 19.5 7.01745 19.5 7.00252 19.5C6.98758 19.5 6.97266 19.5 6.95777 19.5C6.94288 19.5 6.92802 19.5 6.91318 19.5C6.89833 19.5 6.88352 19.5 6.86872 19.5C6.85393 19.5 6.83916 19.5 6.82442 19.5C6.80968 19.5 6.79496 19.5 6.78026 19.5C6.76557 19.5 6.7509 19.5 6.73625 19.5C6.72161 19.5 6.70699 19.5 6.6924 19.5C6.6778 19.5 6.66323 19.5 6.64869 19.5C6.63414 19.5 6.61962 19.5 6.60513 19.5C6.59064 19.5 6.57617 19.5 6.56173 19.5C6.54728 19.5 6.53287 19.5 6.51848 19.5C6.50409 19.5 6.48972 19.5 6.47538 19.5C6.46104 19.5 6.44673 19.5 6.43244 19.5C6.41815 19.5 6.40389 19.5 6.38965 19.5C6.37542 19.5 6.36121 19.5 6.34702 19.5C6.33284 19.5 6.31869 19.5 6.30455 19.5C6.29042 19.5 6.27632 19.5 6.26224 19.5C6.24817 19.5 6.23412 19.5 6.22009 19.5C6.20607 19.5 6.19207 19.5 6.1781 19.5C6.16413 19.5 6.15019 19.5 6.13627 19.5C6.12235 19.5 6.10846 19.5 6.0946 19.5C6.08074 19.5 6.06691 19.5 6.0531 19.5C6.03929 19.5 6.02551 19.5 6.01176 19.5C5.99801 19.5 5.98428 19.5 5.97058 19.5C5.95689 19.5 5.94322 19.5 5.92958 19.5C5.91593 19.5 5.90232 19.5 5.88873 19.5C5.87515 19.5 5.86159 19.5 5.84806 19.5C5.83453 19.5 5.82103 19.5 5.80756 19.5C5.79408 19.5 5.78064 19.5 5.76722 19.5C5.7538 19.5 5.74042 19.5 5.72706 19.5C5.7137 19.5 5.70037 19.5 5.68706 19.5C5.67376 19.5 5.66049 19.5 5.64724 19.5C5.634 19.5 5.62078 19.5 5.6076 19.5C5.59441 19.5 5.58125 19.5 5.56813 19.5C5.555 19.5 5.5419 19.5 5.52883 19.5C5.51576 19.5 5.50272 19.5 5.48971 19.5C5.4767 19.5 5.46372 19.5 5.45076 19.5C5.43781 19.5 5.42489 19.5 5.412 19.5C5.39911 19.5 5.38624 19.5 5.37341 19.5C5.36058 19.5 5.34778 19.5 5.335 19.5C5.32223 19.5 5.30949 19.5 5.29678 19.5C5.28406 19.5 5.27138 19.5 5.25873 19.5C5.24608 19.5 5.23346 19.5 5.22087 19.5C5.20828 19.5 5.19572 19.5 5.18319 19.5C5.17066 19.5 5.15816 19.5 5.1457 19.5C5.13323 19.5 5.12079 19.5 5.10839 19.5C5.09598 19.5 5.08361 19.5 5.07126 19.5C5.05892 19.5 5.04661 19.5 5.03433 19.5C5.02205 19.5 5.0098 19.5 4.99758 19.5C4.98536 19.5 4.97318 19.5 4.96102 19.5C4.94887 19.5 4.93674 19.5 4.92465 19.5C4.91256 19.5 4.9005 19.5 4.88847 19.5C4.87645 19.5 4.86445 19.5 4.85249 19.5C4.84052 19.5 4.82859 19.5 4.81669 19.5C4.80479 19.5 4.79293 19.5 4.78109 19.5C4.76926 19.5 4.75746 19.5 4.74569 19.5C4.73392 19.5 4.72218 19.5 4.71048 19.5C4.69877 19.5 4.6871 19.5 4.67546 19.5C4.66382 19.5 4.65222 19.5 4.64065 19.5C4.62907 19.5 4.61753 19.5 4.60603 19.5C4.59452 19.5 4.58305 19.5 4.57161 19.5C4.56017 19.5 4.54876 19.5 4.53739 19.5C4.52601 19.5 4.51467 19.5 4.50337 19.5C4.49206 19.5 4.48079 19.5 4.46955 19.5C4.45831 19.5 4.4471 19.5 4.43593 19.5C4.42476 19.5 4.41363 19.5 4.40252 19.5C4.39142 19.5 4.38035 19.5 4.36932 19.5C4.35828 19.5 4.34728 19.5 4.33631 19.5C4.32535 19.5 4.31442 19.5 4.30352 19.5C4.29262 19.5 4.28176 19.5 4.27093 19.5C4.2601 19.5 4.24931 19.5 4.23855 19.5C4.22779 19.5 4.21707 19.5 4.20638 19.5C4.19569 19.5 4.18504 19.5 4.17442 19.5C4.1638 19.5 4.15322 19.5 4.14267 19.5C4.13212 19.5 4.12161 19.5 4.11113 19.5C4.10065 19.5 4.09021 19.5 4.07981 19.5C4.0694 19.5 4.05903 19.5 4.04869 19.5C4.03836 19.5 4.02806 19.5 4.0178 19.5C4.00753 19.5 3.99731 19.5 3.98711 19.5C3.97692 19.5 3.96677 19.5 3.95665 19.5C3.94653 19.5 3.93645 19.5 3.9264 19.5C3.91635 19.5 3.90634 19.5 3.89637 19.5C3.8864 19.5 3.87646 19.5 3.86656 19.5C3.85666 19.5 3.8468 19.5 3.83697 19.5C3.82714 19.5 3.81735 19.5 3.8076 19.5C3.79785 19.5 3.78813 19.5 3.77845 19.5C3.76877 19.5 3.75913 19.5 3.74953 19.5C3.73992 19.5 3.73035 19.5 3.72082 19.5C3.71129 19.5 3.7018 19.5 3.69235 19.5C3.68289 19.5 3.67348 19.5 3.6641 19.5C3.65472 19.5 3.64537 19.5 3.63607 19.5C3.62677 19.5 3.6175 19.5 3.60827 19.5C3.59905 19.5 3.58985 19.5 3.5807 19.5C3.57155 19.5 3.56244 19.5 3.55336 19.5C3.54429 19.5 3.53525 19.5 3.52625 19.5C3.51725 19.5 3.50829 19.5 3.49937 19.5C3.49045 19.5 3.48157 19.5 3.47273 19.5C3.46388 19.5 3.45508 19.5 3.44631 19.5C3.43755 19.5 3.42882 19.5 3.42013 19.5C3.41144 19.5 3.40279 19.5 3.39418 19.5C3.38557 19.5 3.377 19.5 3.36847 19.5C3.35994 19.5 3.35145 19.5 3.343 19.5C3.33455 19.5 3.32613 19.5 3.31776 19.5C3.30939 19.5 3.30106 19.5 3.29276 19.5C3.28447 19.5 3.27622 19.5 3.268 19.5C3.25979 19.5 3.25162 19.5 3.24349 19.5C3.23535 19.5 3.22726 19.5 3.21921 19.5C3.21115 19.5 3.20314 19.5 3.19517 19.5C3.1872 19.5 3.17927 19.5 3.17138 19.5C3.16349 19.5 3.15564 19.5 3.14783 19.5C3.14002 19.5 3.13225 19.5 3.12452 19.5C3.1168 19.5 3.10911 19.5 3.10146 19.5C3.09382 19.5 3.08621 19.5 3.07865 19.5C3.07109 19.5 3.06357 19.5 3.05609 19.5C3.04861 19.5 3.04117 19.5 3.03377 19.5C3.02637 19.5 3.01902 19.5 3.0117 19.5C3.00439 19.5 2.99711 19.5 2.98988 19.5C2.98265 19.5 2.97546 19.5 2.96832 19.5C2.96117 19.5 2.95407 19.5 2.947 19.5C2.93994 19.5 2.93292 19.5 2.92594 19.5C2.91896 19.5 2.91203 19.5 2.90513 19.5C2.89824 19.5 2.89139 19.5 2.88458 19.5C2.87777 19.5 2.87101 19.5 2.86428 19.5C2.85756 19.5 2.85088 19.5 2.84424 19.5C2.83761 19.5 2.83101 19.5 2.82446 19.5C2.81791 19.5 2.8114 19.5 2.80493 19.5C2.79847 19.5 2.79205 19.5 2.78567 19.5C2.77929 19.5 2.77296 19.5 2.76666 19.5C2.76037 19.5 2.75412 19.5 2.74792 19.5C2.74172 19.5 2.73555 19.5 2.72944 19.5C2.72332 19.5 2.71725 19.5 2.71122 19.5C2.70519 19.5 2.6992 19.5 2.69326 19.5C2.68732 19.5 2.68143 19.5 2.67557 19.5C2.66972 19.5 2.66391 19.5 2.65815 19.5C2.65238 19.5 2.64667 19.5 2.64099 19.5C2.63532 19.5 2.62969 19.5 2.6241 19.5C2.61851 19.5 2.61297 19.5 2.60748 19.5C2.60198 19.5 2.59653 19.5 2.59113 19.5C2.58572 19.5 2.58036 19.5 2.57504 19.5C2.56973 19.5 2.56446 19.5 2.55923 19.5C2.55401 19.5 2.54883 19.5 2.54369 19.5C2.53856 19.5 2.53347 19.5 2.52843 19.5C2.52338 19.5 2.51839 19.5 2.51343 19.5C2.50848 19.5 2.50358 19.5 2.49872 19.5C2.49386 19.5 2.48904 19.5 2.48428 19.5C2.47951 19.5 2.47479 19.5 2.47011 19.5C2.46544 19.5 2.46081 19.5 2.45622 19.5C2.45164 19.5 2.4471 19.5 2.44262 19.5C2.43813 19.5 2.43368 19.5 2.42929 19.5C2.42489 19.5 2.42054 19.5 2.41624 19.5C2.41193 19.5 2.40768 19.5 2.40347 19.5C2.39926 19.5 2.3951 19.5 2.39098 19.5C2.38687 19.5 2.3828 19.5 2.37878 19.5C2.37476 19.5 2.37079 19.5 2.36686 19.5C2.36294 19.5 2.35906 19.5 2.35523 19.5C2.3514 19.5 2.34762 19.5 2.34388 19.5C2.34015 19.5 2.33646 19.5 2.33282 19.5C2.32918 19.5 2.32559 19.5 2.32205 19.5C2.3185 19.5 2.31501 19.5 2.31156 19.5C2.30812 19.5 2.30472 19.5 2.30137 19.5C2.29802 19.5 2.29471 19.5 2.29146 19.5C2.28821 19.5 2.285 19.5 2.28185 19.5C2.27869 19.5 2.27559 19.5 2.27253 19.5C2.26947 19.5 2.26646 19.5 2.2635 19.5C2.26054 19.5 2.25763 19.5 2.25476 19.5C2.2519 19.5 2.24909 19.5 2.24632 19.5C2.24356 19.5 2.24085 19.5 2.23818 19.5C2.23552 19.5 2.2329 19.5 2.23033 19.5C2.22777 19.5 2.22525 19.5 2.22279 19.5C2.22032 19.5 2.2179 19.5 2.21554 19.5C2.21317 19.5 2.21085 19.5 2.20858 19.5C2.20632 19.5 2.2041 19.5 2.20193 19.5V20.5ZM24.5861 20.5C24.9039 20.5 25.1932 20.3548 25.4227 20.1701C25.6577 19.9809 25.868 19.7214 26.0377 19.4181C26.3781 18.8097 26.5809 17.9806 26.4692 17.0492L25.4763 17.1682C25.5627 17.889 25.4024 18.5055 25.165 18.9298C25.0458 19.1428 24.9135 19.2963 24.7957 19.391C24.6724 19.4903 24.5984 19.5 24.5861 19.5L24.5861 20.5ZM25.9727 16.6087H23.0013V17.6087H25.9727V16.6087ZM13.9931 5.13043V3.68478H12.9931V5.13043H13.9931ZM13.4931 3.18478C13.3784 3.18478 13.1317 3.12157 12.9172 2.96825C12.7141 2.82309 12.6064 2.64851 12.6064 2.44565H11.6064C11.6064 3.06888 11.9609 3.51387 12.3356 3.78175C12.6989 4.04147 13.1456 4.18478 13.4931 4.18478V3.18478ZM12.6064 2.44565C12.6064 2.19827 12.7254 1.96118 12.9209 1.77595C13.1242 1.58327 13.3533 1.5 13.4931 1.5V0.5C13.0386 0.5 12.5744 0.726509 12.233 1.05013C11.8836 1.38121 11.6064 1.86695 11.6064 2.44565H12.6064ZM13.4931 1.5C13.7447 1.5 14.1816 1.82416 14.1816 2.44565H15.1816C15.1816 1.41497 14.4299 0.5 13.4931 0.5V1.5ZM14.1816 2.44565C14.1816 2.73013 14.0835 2.90336 13.9703 3.00827C13.8495 3.12024 13.6779 3.18478 13.4931 3.18478V4.18478C13.9025 4.18478 14.3252 4.04281 14.65 3.74173C14.9825 3.43359 15.1816 2.98727 15.1816 2.44565H14.1816ZM7.0421 13.73L7.43828 12.2843L6.47384 12.02L6.07766 13.4657L7.0421 13.73ZM8.33985 10.8087C8.61881 10.4532 9.07921 9.94381 9.63547 9.48733C10.1972 9.02636 10.8206 8.64931 11.4269 8.50884L11.2012 7.53464C10.3813 7.7246 9.618 8.20806 9.00111 8.7143C8.37873 9.22503 7.86849 9.78953 7.55318 10.1913L8.33985 10.8087Z" fill="white"/>
</svg>
